<svg width="359" height="240" viewBox="0 0 359 240" fill="none" xmlns="http://www.w3.org/2000/svg" xmlns:xlink="http://www.w3.org/1999/xlink">
  <g id="group1">
      <path d="M190.103 133.227C190.103 128.637 189.639 123.747 190.682 119.234C192.284 112.311 195 105 200 100" stroke="black" stroke-width="3" stroke-linecap="round" stroke-linejoin="round"/>
<path d="M219.5 81C225.917 75.2277 239.577 71.7695 248.012 71.7695C252.303 71.7695 258.461 72.4227 262.225 74.6552C267.16 77.5819 270.781 80.0162 274.485 84.5215C285.944 98.4594 287 124.384 287 141.5" stroke="black" stroke-width="3" stroke-linecap="round" stroke-linejoin="round"/>
<path d="M189.998 133.5C174.69 149.173 167.037 168.81 177.906 189.432C185.824 204.455 205.646 208.799 220.794 211.709C225.447 212.603 230.209 213.109 234.915 213.647C239.808 214.206 243.817 212.692 248.557 212.395C256.505 211.896 265.91 211.294 273.335 208.177C285.239 203.181 298.618 195.751 301.979 182.282C304.419 172.507 302.429 161.74 296.549 153.549C293.622 149.472 290.625 145.482 287.069 141.909" stroke="black" stroke-width="3" stroke-linecap="round" stroke-linejoin="round"/>
<path d="M197.098 80.4986C194.831 82.7219 195.003 87.216 195.003 90.1125C195.003 93.9453 197.208 97.312 200.299 99.6883C203.533 102.175 207.996 104.022 211.669 101.717C215.139 99.5379 218.074 97.1293 219.868 93.363C222.826 87.1528 219.717 78.7097 213.669 75.6333C210.618 74.0812 208.493 72.2572 204.883 72.9031C200.415 73.7025 197.467 78.8091 196.353 82.5353" stroke="black" stroke-width="3" stroke-linecap="round" stroke-linejoin="round"/>
<path d="M250 69.5548C250 63.6792 254 53.7948 260.926 53.795C269.04 53.795 273.628 58.0149 275.524 65.7741C277.509 73.8922 273.17 82.0526 264.638 83.6447C261.144 84.2967 257.003 82.3164 254.332 80.1108C250.645 77.0655 250 74.2896 250 69.5548Z" stroke="black" stroke-width="3" stroke-linecap="round" stroke-linejoin="round"/>
<path d="M257.067 66.7221C257.506 62.9101 261.579 61.2616 265.443 62.7694C269.308 64.277 270.891 65.9601 269.506 69.9128C268.353 73.204 264.767 74.5568 261.43 73.3131C258.001 72.0353 256.673 70.1422 257.067 66.7221Z" stroke="black" stroke-width="3" stroke-linecap="round" stroke-linejoin="round"/>
<path d="M244.656 111.77C247 113 253.001 114.979 253.001 118.77" stroke="black" stroke-width="3" stroke-linecap="round" stroke-linejoin="round"/>
<path d="M228 120.466C237.5 125 244.487 119.762 248 114" stroke="black" stroke-width="3" stroke-linecap="round" stroke-linejoin="round"/>
<path d="M197 95.7197C199 98.7695 205.46 97.5087 207.099 95.7197C209.314 93.3028 211.298 87.7843 208.925 84.8599C206.471 81.8341 205.401 80.4541 201.292 80.83C196.537 81.2652 195.369 91.4209 196.29 94.5188" stroke="black" stroke-width="3" stroke-linecap="round" stroke-linejoin="round"/>
<path d="M293.426 181.062C294.652 185.915 295.502 190.812 295.718 195.801C295.894 199.85 295.718 219.551 295.718 215.499" stroke="black" stroke-width="3" stroke-linecap="round" stroke-linejoin="round"/>
<path d="M287.859 33.1597C286.303 31.5308 284.472 32.463 283.786 34.0064C283.23 35.2548 284.057 35.7903 283.964 35.0576C283.683 32.8373 282.741 34.7136 283.134 35.0189C283.954 35.6562 284.275 34.2664 283.681 34.0285" stroke="black" stroke-width="3" stroke-linecap="round" stroke-linejoin="round"/>
<path d="M284.555 34.8982C284.555 35.1852 283.872 36.0514 284.303 36.3138C285.328 36.9382 286.63 35.8918 287.233 35.1398C288.57 33.4702 283.705 32.5766 284.036 35.2224" stroke="black" stroke-width="3" stroke-linecap="round" stroke-linejoin="round"/>
<path d="M283.938 35.2828C283.938 36.6679 277.133 33.7706 277.133 31.8085C277.133 29.9563 279.412 29.1904 280.876 28.8376C283.604 28.1803 284.396 30.2245 284.396 32.542" stroke="black" stroke-width="3" stroke-linecap="round" stroke-linejoin="round"/>
<path d="M287.269 33.9989C285.844 33.8607 288.816 23.6869 292.706 28.1161C295.619 31.4335 291.786 33.9189 288.334 34.06" stroke="black" stroke-width="3" stroke-linecap="round" stroke-linejoin="round"/>
<path d="M188 186L171 211" stroke="black" stroke-width="3" stroke-linecap="round"/>
<path d="M220 169L211 223" stroke="black" stroke-width="3" stroke-linecap="round" stroke-linejoin="round"/>
<path d="M242.977 174.5L243 224" stroke="black" stroke-width="3" stroke-linecap="round" stroke-linejoin="round"/>
<path d="M314.523 217.424L314.298 226.912" stroke="black" stroke-width="3" stroke-linecap="round"/>
<path d="M34.1255 208.965C47.0092 209.271 59.324 210.734 72.0794 211.745C89.5122 213.126 106.475 209.718 123.818 210.13C150.252 210.758 176.685 211.386 203.119 212.014C214.031 212.273 224.766 212.625 235.57 213.697C246.777 214.809 258.414 216.224 269.533 216.489C283.987 216.832 298.795 216.218 313.024 216.556" stroke="black" stroke-width="3" stroke-linecap="round"/>
<path d="M34.8404 220.985C47.724 221.291 60.0388 222.754 72.7942 223.764C90.227 225.145 107.19 221.738 124.533 222.15C150.967 222.777 177.4 223.405 203.834 224.033C214.746 224.292 225.481 224.644 236.285 225.716C247.492 226.828 259.129 228.244 270.248 228.508C284.702 228.851 299.51 228.237 313.739 228.575" stroke="black" stroke-width="3" stroke-linecap="round"/>
<path d="M34.3633 208.834L34.1101 219.492" stroke="black" stroke-width="3" stroke-linecap="round"/>
<path d="M52.1859 47.7266C52.363 47.7266 52.488 47.7682 52.5609 47.8516C52.6391 47.9297 52.6781 48.0651 52.6781 48.2578V51.2031C52.6781 51.3854 52.6339 51.5156 52.5453 51.5938C52.4568 51.6719 52.3057 51.7109 52.0922 51.7109C51.8786 51.7109 51.7276 51.6719 51.6391 51.5938C51.5505 51.5156 51.5062 51.3854 51.5062 51.2031V48.7891H49.4203V55.9375H51.2641C51.4411 55.9375 51.5661 55.9792 51.6391 56.0625C51.7172 56.1406 51.7562 56.276 51.7562 56.4688C51.7562 56.6615 51.7172 56.7995 51.6391 56.8828C51.5661 56.9609 51.4411 57 51.2641 57H46.4047C46.2276 57 46.1 56.9609 46.0219 56.8828C45.949 56.7995 45.9125 56.6615 45.9125 56.4688C45.9125 56.276 45.949 56.1406 46.0219 56.0625C46.1 55.9792 46.2276 55.9375 46.4047 55.9375H48.2484V48.7891H46.1625V51.2031C46.1625 51.3854 46.1182 51.5156 46.0297 51.5938C45.9411 51.6719 45.7901 51.7109 45.5766 51.7109C45.363 51.7109 45.212 51.6719 45.1234 51.5938C45.0349 51.5156 44.9906 51.3854 44.9906 51.2031V48.2578C44.9906 48.0651 45.0271 47.9297 45.1 47.8516C45.1781 47.7682 45.3057 47.7266 45.4828 47.7266H52.1859ZM56.9234 46.75C57.1005 46.75 57.2255 46.7917 57.2984 46.875C57.3766 46.9531 57.4156 47.0885 57.4156 47.2812V51.1719C57.7542 50.6667 58.1448 50.2812 58.5875 50.0156C59.0354 49.7448 59.5172 49.6094 60.0328 49.6094C60.5068 49.6094 60.9182 49.7135 61.2672 49.9219C61.6161 50.125 61.8844 50.4193 62.0719 50.8047C62.2594 51.1901 62.3531 51.6406 62.3531 52.1562V55.9375H62.9937C63.1708 55.9375 63.2958 55.9792 63.3687 56.0625C63.4469 56.1406 63.4859 56.276 63.4859 56.4688C63.4859 56.6615 63.4469 56.7995 63.3687 56.8828C63.2958 56.9609 63.1708 57 62.9937 57H60.4625C60.2854 57 60.1578 56.9609 60.0797 56.8828C60.0068 56.7995 59.9703 56.6615 59.9703 56.4688C59.9703 56.276 60.0068 56.1406 60.0797 56.0625C60.1578 55.9792 60.2854 55.9375 60.4625 55.9375H61.1812V52.2734C61.1812 51.8099 61.0745 51.4427 60.8609 51.1719C60.6474 50.901 60.3323 50.7656 59.9156 50.7656C59.4729 50.7656 59.0589 50.8932 58.6734 51.1484C58.2932 51.4036 57.9885 51.7552 57.7594 52.2031C57.5302 52.651 57.4156 53.151 57.4156 53.7031V55.9375H58.1344C58.3115 55.9375 58.4365 55.9792 58.5094 56.0625C58.5875 56.1406 58.6266 56.276 58.6266 56.4688C58.6266 56.6615 58.5875 56.7995 58.5094 56.8828C58.4365 56.9609 58.3115 57 58.1344 57H55.6031C55.426 57 55.2984 56.9609 55.2203 56.8828C55.1474 56.7995 55.1109 56.6615 55.1109 56.4688C55.1109 56.276 55.1474 56.1406 55.2203 56.0625C55.2984 55.9792 55.426 55.9375 55.6031 55.9375H56.2437V47.8125H55.525C55.3479 47.8125 55.2203 47.7734 55.1422 47.6953C55.0693 47.612 55.0328 47.474 55.0328 47.2812C55.0328 47.0885 55.0693 46.9531 55.1422 46.875C55.2203 46.7917 55.3479 46.75 55.525 46.75H56.9234ZM69.9031 49.7812C70.0802 49.7812 70.2052 49.8229 70.2781 49.9062C70.3562 49.9844 70.3953 50.1198 70.3953 50.3125V55.9375H72.9031C73.0802 55.9375 73.2052 55.9792 73.2781 56.0625C73.3562 56.1406 73.3953 56.276 73.3953 56.4688C73.3953 56.6615 73.3562 56.7995 73.2781 56.8828C73.2052 56.9609 73.0802 57 72.9031 57H66.7781C66.601 57 66.4734 56.9609 66.3953 56.8828C66.3224 56.7995 66.2859 56.6615 66.2859 56.4688C66.2859 56.276 66.3224 56.1406 66.3953 56.0625C66.4734 55.9792 66.601 55.9375 66.7781 55.9375H69.2234V50.8438H67.2469C67.0698 50.8438 66.9422 50.8047 66.8641 50.7266C66.7911 50.6432 66.7547 50.5052 66.7547 50.3125C66.7547 50.1198 66.7911 49.9844 66.8641 49.9062C66.9422 49.8229 67.0698 49.7812 67.2469 49.7812H69.9031ZM69.6531 46.3516C69.9396 46.3516 70.1349 46.3906 70.2391 46.4688C70.3432 46.5417 70.3953 46.6719 70.3953 46.8594V47.875C70.3953 48.0625 70.3432 48.1953 70.2391 48.2734C70.1349 48.3464 69.9396 48.3828 69.6531 48.3828C69.3667 48.3828 69.1714 48.3464 69.0672 48.2734C68.963 48.1953 68.9109 48.0625 68.9109 47.875V46.8594C68.9109 46.6719 68.963 46.5417 69.0672 46.4688C69.1714 46.3906 69.3667 46.3516 69.6531 46.3516ZM82.4766 49.6094C82.6901 49.6094 82.8411 49.6484 82.9297 49.7266C83.0182 49.8047 83.0625 49.9349 83.0625 50.1172V51.6016C83.0625 51.7839 83.0182 51.9141 82.9297 51.9922C82.8411 52.0703 82.6901 52.1094 82.4766 52.1094C82.2995 52.1094 82.1745 52.0417 82.1016 51.9062C81.8776 51.4792 81.5521 51.1797 81.125 51.0078C80.6979 50.8307 80.1562 50.7422 79.5 50.7422C78.9948 50.7422 78.599 50.8333 78.3125 51.0156C78.0312 51.1927 77.8906 51.4427 77.8906 51.7656C77.8906 51.9323 77.9427 52.0677 78.0469 52.1719C78.1562 52.276 78.3151 52.362 78.5234 52.4297C78.6953 52.487 78.8932 52.5312 79.1172 52.5625C79.3464 52.5938 79.6406 52.6276 80 52.6641C80.5052 52.7214 80.9115 52.776 81.2188 52.8281C81.5312 52.875 81.8255 52.9479 82.1016 53.0469C82.5182 53.1979 82.8411 53.4167 83.0703 53.7031C83.3047 53.9896 83.4219 54.3672 83.4219 54.8359C83.4219 55.3047 83.3021 55.7161 83.0625 56.0703C82.8281 56.4193 82.4818 56.6901 82.0234 56.8828C81.5703 57.0755 81.026 57.1719 80.3906 57.1719C79.8281 57.1719 79.3333 57.0938 78.9062 56.9375C78.4792 56.7812 78.1068 56.5443 77.7891 56.2266V56.6641C77.7891 56.8464 77.7448 56.9766 77.6562 57.0547C77.5677 57.1328 77.4167 57.1719 77.2031 57.1719C76.9896 57.1719 76.8385 57.1328 76.75 57.0547C76.6615 56.9766 76.6172 56.8464 76.6172 56.6641V54.7891C76.6172 54.6068 76.6615 54.4766 76.75 54.3984C76.8385 54.3203 76.9896 54.2812 77.2031 54.2812C77.3125 54.2812 77.3984 54.3073 77.4609 54.3594C77.5234 54.4062 77.5781 54.487 77.625 54.6016C77.8125 55.1016 78.125 55.4661 78.5625 55.6953C79 55.9245 79.5833 56.0391 80.3125 56.0391C80.9167 56.0391 81.3802 55.9297 81.7031 55.7109C82.026 55.4922 82.1875 55.2005 82.1875 54.8359C82.1875 54.6589 82.1302 54.513 82.0156 54.3984C81.901 54.2839 81.737 54.1901 81.5234 54.1172C81.3411 54.0599 81.1302 54.013 80.8906 53.9766C80.6562 53.9349 80.3568 53.8958 79.9922 53.8594C79.5026 53.8073 79.0938 53.7526 78.7656 53.6953C78.4375 53.638 78.1354 53.5547 77.8594 53.4453C77.4792 53.2943 77.1823 53.0859 76.9688 52.8203C76.7604 52.5495 76.6562 52.1979 76.6562 51.7656C76.6562 51.3125 76.7734 50.9245 77.0078 50.6016C77.2474 50.2734 77.5755 50.026 77.9922 49.8594C78.4141 49.6927 78.8906 49.6094 79.4219 49.6094C79.9271 49.6094 80.388 49.6849 80.8047 49.8359C81.2266 49.987 81.5885 50.1979 81.8906 50.4688V50.1172C81.8906 49.9349 81.9349 49.8047 82.0234 49.7266C82.112 49.6484 82.263 49.6094 82.4766 49.6094ZM101.084 49.7812C101.261 49.7812 101.386 49.8229 101.459 49.9062C101.537 49.9844 101.577 50.1198 101.577 50.3125V55.9375H104.084C104.261 55.9375 104.386 55.9792 104.459 56.0625C104.537 56.1406 104.577 56.276 104.577 56.4688C104.577 56.6615 104.537 56.7995 104.459 56.8828C104.386 56.9609 104.261 57 104.084 57H97.9594C97.7823 57 97.6547 56.9609 97.5766 56.8828C97.5036 56.7995 97.4672 56.6615 97.4672 56.4688C97.4672 56.276 97.5036 56.1406 97.5766 56.0625C97.6547 55.9792 97.7823 55.9375 97.9594 55.9375H100.405V50.8438H98.4281C98.251 50.8438 98.1234 50.8047 98.0453 50.7266C97.9724 50.6432 97.9359 50.5052 97.9359 50.3125C97.9359 50.1198 97.9724 49.9844 98.0453 49.9062C98.1234 49.8229 98.251 49.7812 98.4281 49.7812H101.084ZM100.834 46.3516C101.121 46.3516 101.316 46.3906 101.42 46.4688C101.524 46.5417 101.577 46.6719 101.577 46.8594V47.875C101.577 48.0625 101.524 48.1953 101.42 48.2734C101.316 48.3464 101.121 48.3828 100.834 48.3828C100.548 48.3828 100.353 48.3464 100.248 48.2734C100.144 48.1953 100.092 48.0625 100.092 47.875V46.8594C100.092 46.6719 100.144 46.5417 100.248 46.4688C100.353 46.3906 100.548 46.3516 100.834 46.3516ZM113.658 49.6094C113.871 49.6094 114.022 49.6484 114.111 49.7266C114.199 49.8047 114.244 49.9349 114.244 50.1172V51.6016C114.244 51.7839 114.199 51.9141 114.111 51.9922C114.022 52.0703 113.871 52.1094 113.658 52.1094C113.481 52.1094 113.356 52.0417 113.283 51.9062C113.059 51.4792 112.733 51.1797 112.306 51.0078C111.879 50.8307 111.337 50.7422 110.681 50.7422C110.176 50.7422 109.78 50.8333 109.494 51.0156C109.212 51.1927 109.072 51.4427 109.072 51.7656C109.072 51.9323 109.124 52.0677 109.228 52.1719C109.337 52.276 109.496 52.362 109.705 52.4297C109.877 52.487 110.074 52.5312 110.298 52.5625C110.528 52.5938 110.822 52.6276 111.181 52.6641C111.686 52.7214 112.093 52.776 112.4 52.8281C112.712 52.875 113.007 52.9479 113.283 53.0469C113.699 53.1979 114.022 53.4167 114.252 53.7031C114.486 53.9896 114.603 54.3672 114.603 54.8359C114.603 55.3047 114.483 55.7161 114.244 56.0703C114.009 56.4193 113.663 56.6901 113.205 56.8828C112.752 57.0755 112.207 57.1719 111.572 57.1719C111.009 57.1719 110.515 57.0938 110.087 56.9375C109.66 56.7812 109.288 56.5443 108.97 56.2266V56.6641C108.97 56.8464 108.926 56.9766 108.837 57.0547C108.749 57.1328 108.598 57.1719 108.384 57.1719C108.171 57.1719 108.02 57.1328 107.931 57.0547C107.843 56.9766 107.798 56.8464 107.798 56.6641V54.7891C107.798 54.6068 107.843 54.4766 107.931 54.3984C108.02 54.3203 108.171 54.2812 108.384 54.2812C108.494 54.2812 108.58 54.3073 108.642 54.3594C108.705 54.4062 108.759 54.487 108.806 54.6016C108.994 55.1016 109.306 55.4661 109.744 55.6953C110.181 55.9245 110.765 56.0391 111.494 56.0391C112.098 56.0391 112.561 55.9297 112.884 55.7109C113.207 55.4922 113.369 55.2005 113.369 54.8359C113.369 54.6589 113.311 54.513 113.197 54.3984C113.082 54.2839 112.918 54.1901 112.705 54.1172C112.522 54.0599 112.311 54.013 112.072 53.9766C111.837 53.9349 111.538 53.8958 111.173 53.8594C110.684 53.8073 110.275 53.7526 109.947 53.6953C109.619 53.638 109.317 53.5547 109.041 53.4453C108.66 53.2943 108.364 53.0859 108.15 52.8203C107.942 52.5495 107.837 52.1979 107.837 51.7656C107.837 51.3125 107.955 50.9245 108.189 50.6016C108.429 50.2734 108.757 50.026 109.173 49.8594C109.595 49.6927 110.072 49.6094 110.603 49.6094C111.108 49.6094 111.569 49.6849 111.986 49.8359C112.408 49.987 112.77 50.1979 113.072 50.4688V50.1172C113.072 49.9349 113.116 49.8047 113.205 49.7266C113.293 49.6484 113.444 49.6094 113.658 49.6094ZM133.438 46.7109C134.135 46.7109 134.828 46.8438 135.516 47.1094C135.766 47.2031 135.891 47.375 135.891 47.625C135.891 47.6823 135.883 47.75 135.867 47.8281C135.794 48.125 135.664 48.2734 135.477 48.2734C135.419 48.2734 135.357 48.2604 135.289 48.2344C134.628 47.9792 134.01 47.8516 133.438 47.8516C132.385 47.8516 131.859 48.4167 131.859 49.5469V50.4062H134.562C134.74 50.4062 134.865 50.4479 134.938 50.5312C135.016 50.6094 135.055 50.7448 135.055 50.9375C135.055 51.1302 135.016 51.2682 134.938 51.3516C134.865 51.4297 134.74 51.4688 134.562 51.4688H131.859V55.9375H134.562C134.74 55.9375 134.865 55.9792 134.938 56.0625C135.016 56.1406 135.055 56.276 135.055 56.4688C135.055 56.6615 135.016 56.7995 134.938 56.8828C134.865 56.9609 134.74 57 134.562 57H129.141C128.964 57 128.836 56.9609 128.758 56.8828C128.685 56.7995 128.648 56.6615 128.648 56.4688C128.648 56.276 128.685 56.1406 128.758 56.0625C128.836 55.9792 128.964 55.9375 129.141 55.9375H130.688V51.4688H129.141C128.964 51.4688 128.836 51.4297 128.758 51.3516C128.685 51.2682 128.648 51.1302 128.648 50.9375C128.648 50.7448 128.685 50.6094 128.758 50.5312C128.836 50.4479 128.964 50.4062 129.141 50.4062H130.688V49.4453C130.688 48.5859 130.927 47.9167 131.406 47.4375C131.891 46.9531 132.568 46.7109 133.438 46.7109ZM142.659 49.7812C142.836 49.7812 142.961 49.8229 143.034 49.9062C143.112 49.9844 143.152 50.1198 143.152 50.3125V55.9375H145.659C145.836 55.9375 145.961 55.9792 146.034 56.0625C146.112 56.1406 146.152 56.276 146.152 56.4688C146.152 56.6615 146.112 56.7995 146.034 56.8828C145.961 56.9609 145.836 57 145.659 57H139.534C139.357 57 139.23 56.9609 139.152 56.8828C139.079 56.7995 139.042 56.6615 139.042 56.4688C139.042 56.276 139.079 56.1406 139.152 56.0625C139.23 55.9792 139.357 55.9375 139.534 55.9375H141.98V50.8438H140.003C139.826 50.8438 139.698 50.8047 139.62 50.7266C139.547 50.6432 139.511 50.5052 139.511 50.3125C139.511 50.1198 139.547 49.9844 139.62 49.9062C139.698 49.8229 139.826 49.7812 140.003 49.7812H142.659ZM142.409 46.3516C142.696 46.3516 142.891 46.3906 142.995 46.4688C143.099 46.5417 143.152 46.6719 143.152 46.8594V47.875C143.152 48.0625 143.099 48.1953 142.995 48.2734C142.891 48.3464 142.696 48.3828 142.409 48.3828C142.123 48.3828 141.928 48.3464 141.823 48.2734C141.719 48.1953 141.667 48.0625 141.667 47.875V46.8594C141.667 46.6719 141.719 46.5417 141.823 46.4688C141.928 46.3906 142.123 46.3516 142.409 46.3516ZM153.655 49.6094C154.129 49.6094 154.54 49.7135 154.889 49.9219C155.238 50.125 155.506 50.4193 155.694 50.8047C155.881 51.1901 155.975 51.6406 155.975 52.1562V55.9375H156.616C156.793 55.9375 156.918 55.9792 156.991 56.0625C157.069 56.1406 157.108 56.276 157.108 56.4688C157.108 56.6615 157.069 56.7995 156.991 56.8828C156.918 56.9609 156.793 57 156.616 57H154.084C153.907 57 153.78 56.9609 153.702 56.8828C153.629 56.7995 153.592 56.6615 153.592 56.4688C153.592 56.276 153.629 56.1406 153.702 56.0625C153.78 55.9792 153.907 55.9375 154.084 55.9375H154.803V52.2734C154.803 51.8099 154.696 51.4427 154.483 51.1719C154.269 50.901 153.954 50.7656 153.538 50.7656C153.095 50.7656 152.681 50.8932 152.295 51.1484C151.915 51.4036 151.61 51.7552 151.381 52.2031C151.152 52.651 151.038 53.151 151.038 53.7031V55.9375H151.756C151.933 55.9375 152.058 55.9792 152.131 56.0625C152.209 56.1406 152.248 56.276 152.248 56.4688C152.248 56.6615 152.209 56.7995 152.131 56.8828C152.058 56.9609 151.933 57 151.756 57H149.225C149.048 57 148.92 56.9609 148.842 56.8828C148.769 56.7995 148.733 56.6615 148.733 56.4688C148.733 56.276 148.769 56.1406 148.842 56.0625C148.92 55.9792 149.048 55.9375 149.225 55.9375H149.866V50.8438H149.069C148.892 50.8438 148.764 50.8047 148.686 50.7266C148.613 50.6432 148.577 50.5052 148.577 50.3125C148.577 50.1198 148.613 49.9844 148.686 49.9062C148.764 49.8229 148.892 49.7812 149.069 49.7812H150.467C150.644 49.7812 150.769 49.8229 150.842 49.9062C150.92 49.9844 150.959 50.1198 150.959 50.3125V51.25C151.303 50.7188 151.704 50.3125 152.163 50.0312C152.626 49.75 153.123 49.6094 153.655 49.6094ZM163.236 49.6094C163.991 49.6094 164.634 49.763 165.166 50.0703C165.702 50.3724 166.114 50.7943 166.4 51.3359C166.686 51.8724 166.851 52.4922 166.892 53.1953C166.892 53.3724 166.853 53.4974 166.775 53.5703C166.702 53.6432 166.577 53.6797 166.4 53.6797H160.744C160.78 54.4557 161.009 55.0443 161.431 55.4453C161.858 55.8411 162.46 56.0391 163.236 56.0391C163.715 56.0391 164.189 55.9792 164.658 55.8594C165.127 55.7344 165.538 55.5703 165.892 55.3672C165.981 55.3203 166.061 55.2969 166.134 55.2969C166.317 55.2969 166.465 55.4349 166.58 55.7109C166.627 55.8203 166.65 55.9193 166.65 56.0078C166.65 56.2161 166.535 56.3776 166.306 56.4922C165.905 56.6953 165.431 56.8594 164.884 56.9844C164.337 57.1094 163.788 57.1719 163.236 57.1719C162.449 57.1719 161.778 57.0208 161.22 56.7188C160.663 56.4167 160.239 55.9818 159.947 55.4141C159.655 54.8464 159.509 54.1719 159.509 53.3906C159.509 52.6458 159.668 51.987 159.986 51.4141C160.304 50.8411 160.744 50.3984 161.306 50.0859C161.869 49.7682 162.512 49.6094 163.236 49.6094ZM163.236 50.7422C162.595 50.7422 162.064 50.9062 161.642 51.2344C161.226 51.5573 160.952 52.0078 160.822 52.5859H165.595C165.486 51.987 165.233 51.5312 164.837 51.2188C164.447 50.901 163.913 50.7422 163.236 50.7422Z" fill="black"/>
<path d="M113.325 79C109.851 79 106.377 79 102.903 79C97.2497 79 91.6927 78.1425 86.0712 78.063C75.3203 77.9112 64.3711 79.1307 53.8709 76.4234C50.6365 75.5894 47.45 74.407 44.2814 73.3782C40.6108 72.1865 37.3448 71.1113 34.2882 68.5893C32.3249 66.9695 29.7335 63.9833 28.6102 61.6663C27.494 59.3638 27.6644 56.0174 27.4494 53.4679C27.0469 48.694 25.8817 45.3453 30.2001 42.4586C36.3234 38.3653 43.9356 34.8748 51.1202 33.3493C55.3072 32.4602 59.4804 31.8648 63.7127 31.3192C66.0051 31.0236 68.3341 31.4066 70.6272 31.111C73.3098 30.7651 75.7176 30.3069 78.4501 30.2781C93.2401 30.1225 108.06 28.548 122.839 27.9617C140.577 27.2581 160.649 25.029 177.726 31.3192C179.635 32.0222 180.891 33.131 182.571 34.2342C183.991 35.1659 186.049 35.6596 187.114 37.0711C189.364 40.0554 191 43.0658 191 47.1434C191 52.1618 189.277 53.2495 185.776 56.3048C180.151 61.214 173.933 64.3769 167.38 67.7565C159.132 72.0097 150.863 76.0038 141.968 78.2973C139.903 78.8297 137.598 78.483 135.482 78.5315C132.34 78.6035 129.217 79 126.044 79" stroke="black" stroke-width="3" stroke-linecap="round"/>
<path d="M113.883 77.2637C113.883 85.2103 120.787 87.6384 126.571 91.2804C131.739 94.5343 137.566 94.9907 143.565 94.9907" stroke="black" stroke-width="3" stroke-linecap="round"/>
<path d="M125 79C125 83.8248 125.131 87.9064 131.263 90.4988C134.839 92.0105 138.501 93.6687 142 95" stroke="black" stroke-width="3" stroke-linecap="round"/>

  </g>
  <g id="group2" style="display:none">
<path d="M191.103 134.227C191.103 129.637 190.639 124.747 191.682 120.234C193.284 113.311 196 106 201 101" stroke="black" stroke-width="3" stroke-linecap="round" stroke-linejoin="round"/>
<path d="M220.5 82C226.917 76.2277 240.577 72.7695 249.012 72.7695C253.303 72.7695 259.461 73.4227 263.225 75.6552C268.16 78.5819 271.781 81.0162 275.485 85.5215C286.944 99.4594 288 125.384 288 142.5" stroke="black" stroke-width="3" stroke-linecap="round" stroke-linejoin="round"/>
<path d="M190.998 134.5C175.69 150.173 168.037 169.81 178.906 190.432C186.824 205.455 206.646 209.799 221.794 212.709C226.447 213.603 231.209 214.109 235.915 214.647C240.808 215.206 244.817 213.692 249.557 213.395C257.505 212.896 266.91 212.294 274.335 209.177C286.239 204.181 299.618 196.751 302.979 183.282C305.419 173.507 303.429 162.74 297.549 154.549C294.622 150.472 291.625 146.482 288.069 142.909" stroke="black" stroke-width="3" stroke-linecap="round" stroke-linejoin="round"/>
<path d="M198.098 81.4986C195.831 83.7219 196.003 88.216 196.003 91.1125C196.003 94.9453 198.208 98.312 201.299 100.688C204.533 103.175 208.996 105.022 212.669 102.717C216.139 100.538 219.074 98.1293 220.868 94.363C223.826 88.1528 220.717 79.7097 214.669 76.6333C211.618 75.0812 209.493 73.2572 205.883 73.9031C201.415 74.7025 198.467 79.8091 197.353 83.5353" stroke="black" stroke-width="3" stroke-linecap="round" stroke-linejoin="round"/>
<path d="M253 70.5548C253 64.6792 257 54.7948 263.926 54.795C272.04 54.795 276.628 59.0149 278.524 66.7741C280.509 74.8922 276.17 83.0526 267.638 84.6447C264.144 85.2967 260.003 83.3164 257.332 81.1108C253.645 78.0655 253 75.2896 253 70.5548Z" stroke="black" stroke-width="3" stroke-linecap="round" stroke-linejoin="round"/>
<path d="M260.067 67.7221C260.506 63.9101 264.579 62.2616 268.443 63.7694C272.308 65.277 273.891 66.9601 272.506 70.9128C271.353 74.204 267.767 75.5568 264.43 74.3131C261.001 73.0353 259.673 71.1422 260.067 67.7221Z" stroke="black" stroke-width="3" stroke-linecap="round" stroke-linejoin="round"/>
<path d="M245.656 112.771C248.5 112.001 252.5 115.5 254.001 119.771" stroke="black" stroke-width="3" stroke-linecap="round" stroke-linejoin="round"/>
<path d="M230.5 122C240 126.534 245.487 120.762 249 115" stroke="black" stroke-width="3" stroke-linecap="round" stroke-linejoin="round"/>
<path d="M198 95.7197C200 98.7695 206.46 97.5087 208.099 95.7197C210.314 93.3028 212.298 87.7843 209.925 84.8599C207.471 81.8341 206.401 80.4541 202.292 80.83C197.537 81.2652 196.369 91.4209 197.29 94.5188" stroke="black" stroke-width="3" stroke-linecap="round" stroke-linejoin="round"/>
<path d="M294.426 185.062C295.652 189.915 296.502 194.812 296.718 199.801C296.894 203.85 296.718 223.551 296.718 219.499" stroke="black" stroke-width="3" stroke-linecap="round" stroke-linejoin="round"/>
<path d="M290.859 33.1597C289.303 31.5308 287.472 32.463 286.786 34.0064C286.23 35.2548 287.057 35.7903 286.964 35.0576C286.683 32.8373 285.741 34.7136 286.134 35.0189C286.954 35.6562 287.275 34.2664 286.681 34.0285" stroke="black" stroke-width="3" stroke-linecap="round" stroke-linejoin="round"/>
<path d="M287.555 34.8982C287.555 35.1852 286.872 36.0514 287.303 36.3138C288.328 36.9382 289.63 35.8918 290.233 35.1398C291.57 33.4702 286.705 32.5766 287.036 35.2224" stroke="black" stroke-width="3" stroke-linecap="round" stroke-linejoin="round"/>
<path d="M286.938 35.2828C286.938 36.6679 280.133 33.7706 280.133 31.8085C280.133 29.9563 282.412 29.1904 283.876 28.8376C286.604 28.1803 287.396 30.2245 287.396 32.542" stroke="black" stroke-width="3" stroke-linecap="round" stroke-linejoin="round"/>
<path d="M290.269 33.9989C288.844 33.8607 291.816 23.6869 295.706 28.1161C298.619 31.4335 294.786 33.9189 291.334 34.06" stroke="black" stroke-width="3" stroke-linecap="round" stroke-linejoin="round"/>
<path d="M189 187L174 210" stroke="black" stroke-width="3" stroke-linecap="round"/>
<path d="M221.5 170L212.5 222.5" stroke="black" stroke-width="3" stroke-linecap="round" stroke-linejoin="round"/>
<path d="M244 175.5V226" stroke="black" stroke-width="3" stroke-linecap="round" stroke-linejoin="round"/>
<path d="M314.488 222.32L313.932 231.795" stroke="black" stroke-width="3" stroke-linecap="round"/>
<path d="M34.5567 204.085C47.4218 204.84 59.6781 206.732 72.3905 208.187C89.7645 210.175 106.836 207.361 124.154 208.378C150.55 209.928 176.945 211.477 203.341 213.027C214.237 213.667 224.953 214.393 235.713 215.841C246.875 217.344 258.456 219.164 269.559 219.816C283.992 220.664 298.812 220.567 313.021 221.401" stroke="black" stroke-width="3" stroke-linecap="round"/>
<path d="M34.8536 216.122C47.7187 216.877 59.975 218.769 72.6874 220.224C90.0614 222.212 107.133 219.398 124.451 220.415C150.847 221.965 177.242 223.515 203.638 225.064C214.534 225.704 225.25 226.43 236.01 227.878C247.172 229.381 258.753 231.202 269.856 231.853C284.289 232.701 299.109 232.604 313.317 233.438" stroke="black" stroke-width="3" stroke-linecap="round"/>
<path d="M34.7969 203.961L34.1721 214.603" stroke="black" stroke-width="3" stroke-linecap="round"/>
<path d="M52.1859 47.7266C52.363 47.7266 52.488 47.7682 52.5609 47.8516C52.6391 47.9297 52.6781 48.0651 52.6781 48.2578V51.2031C52.6781 51.3854 52.6339 51.5156 52.5453 51.5938C52.4568 51.6719 52.3057 51.7109 52.0922 51.7109C51.8786 51.7109 51.7276 51.6719 51.6391 51.5938C51.5505 51.5156 51.5062 51.3854 51.5062 51.2031V48.7891H49.4203V55.9375H51.2641C51.4411 55.9375 51.5661 55.9792 51.6391 56.0625C51.7172 56.1406 51.7562 56.276 51.7562 56.4688C51.7562 56.6615 51.7172 56.7995 51.6391 56.8828C51.5661 56.9609 51.4411 57 51.2641 57H46.4047C46.2276 57 46.1 56.9609 46.0219 56.8828C45.949 56.7995 45.9125 56.6615 45.9125 56.4688C45.9125 56.276 45.949 56.1406 46.0219 56.0625C46.1 55.9792 46.2276 55.9375 46.4047 55.9375H48.2484V48.7891H46.1625V51.2031C46.1625 51.3854 46.1182 51.5156 46.0297 51.5938C45.9411 51.6719 45.7901 51.7109 45.5766 51.7109C45.363 51.7109 45.212 51.6719 45.1234 51.5938C45.0349 51.5156 44.9906 51.3854 44.9906 51.2031V48.2578C44.9906 48.0651 45.0271 47.9297 45.1 47.8516C45.1781 47.7682 45.3057 47.7266 45.4828 47.7266H52.1859ZM56.9234 46.75C57.1005 46.75 57.2255 46.7917 57.2984 46.875C57.3766 46.9531 57.4156 47.0885 57.4156 47.2812V51.1719C57.7542 50.6667 58.1448 50.2812 58.5875 50.0156C59.0354 49.7448 59.5172 49.6094 60.0328 49.6094C60.5068 49.6094 60.9182 49.7135 61.2672 49.9219C61.6161 50.125 61.8844 50.4193 62.0719 50.8047C62.2594 51.1901 62.3531 51.6406 62.3531 52.1562V55.9375H62.9937C63.1708 55.9375 63.2958 55.9792 63.3687 56.0625C63.4469 56.1406 63.4859 56.276 63.4859 56.4688C63.4859 56.6615 63.4469 56.7995 63.3687 56.8828C63.2958 56.9609 63.1708 57 62.9937 57H60.4625C60.2854 57 60.1578 56.9609 60.0797 56.8828C60.0068 56.7995 59.9703 56.6615 59.9703 56.4688C59.9703 56.276 60.0068 56.1406 60.0797 56.0625C60.1578 55.9792 60.2854 55.9375 60.4625 55.9375H61.1812V52.2734C61.1812 51.8099 61.0745 51.4427 60.8609 51.1719C60.6474 50.901 60.3323 50.7656 59.9156 50.7656C59.4729 50.7656 59.0589 50.8932 58.6734 51.1484C58.2932 51.4036 57.9885 51.7552 57.7594 52.2031C57.5302 52.651 57.4156 53.151 57.4156 53.7031V55.9375H58.1344C58.3115 55.9375 58.4365 55.9792 58.5094 56.0625C58.5875 56.1406 58.6266 56.276 58.6266 56.4688C58.6266 56.6615 58.5875 56.7995 58.5094 56.8828C58.4365 56.9609 58.3115 57 58.1344 57H55.6031C55.426 57 55.2984 56.9609 55.2203 56.8828C55.1474 56.7995 55.1109 56.6615 55.1109 56.4688C55.1109 56.276 55.1474 56.1406 55.2203 56.0625C55.2984 55.9792 55.426 55.9375 55.6031 55.9375H56.2437V47.8125H55.525C55.3479 47.8125 55.2203 47.7734 55.1422 47.6953C55.0693 47.612 55.0328 47.474 55.0328 47.2812C55.0328 47.0885 55.0693 46.9531 55.1422 46.875C55.2203 46.7917 55.3479 46.75 55.525 46.75H56.9234ZM69.9031 49.7812C70.0802 49.7812 70.2052 49.8229 70.2781 49.9062C70.3562 49.9844 70.3953 50.1198 70.3953 50.3125V55.9375H72.9031C73.0802 55.9375 73.2052 55.9792 73.2781 56.0625C73.3562 56.1406 73.3953 56.276 73.3953 56.4688C73.3953 56.6615 73.3562 56.7995 73.2781 56.8828C73.2052 56.9609 73.0802 57 72.9031 57H66.7781C66.601 57 66.4734 56.9609 66.3953 56.8828C66.3224 56.7995 66.2859 56.6615 66.2859 56.4688C66.2859 56.276 66.3224 56.1406 66.3953 56.0625C66.4734 55.9792 66.601 55.9375 66.7781 55.9375H69.2234V50.8438H67.2469C67.0698 50.8438 66.9422 50.8047 66.8641 50.7266C66.7911 50.6432 66.7547 50.5052 66.7547 50.3125C66.7547 50.1198 66.7911 49.9844 66.8641 49.9062C66.9422 49.8229 67.0698 49.7812 67.2469 49.7812H69.9031ZM69.6531 46.3516C69.9396 46.3516 70.1349 46.3906 70.2391 46.4688C70.3432 46.5417 70.3953 46.6719 70.3953 46.8594V47.875C70.3953 48.0625 70.3432 48.1953 70.2391 48.2734C70.1349 48.3464 69.9396 48.3828 69.6531 48.3828C69.3667 48.3828 69.1714 48.3464 69.0672 48.2734C68.963 48.1953 68.9109 48.0625 68.9109 47.875V46.8594C68.9109 46.6719 68.963 46.5417 69.0672 46.4688C69.1714 46.3906 69.3667 46.3516 69.6531 46.3516ZM82.4766 49.6094C82.6901 49.6094 82.8411 49.6484 82.9297 49.7266C83.0182 49.8047 83.0625 49.9349 83.0625 50.1172V51.6016C83.0625 51.7839 83.0182 51.9141 82.9297 51.9922C82.8411 52.0703 82.6901 52.1094 82.4766 52.1094C82.2995 52.1094 82.1745 52.0417 82.1016 51.9062C81.8776 51.4792 81.5521 51.1797 81.125 51.0078C80.6979 50.8307 80.1562 50.7422 79.5 50.7422C78.9948 50.7422 78.599 50.8333 78.3125 51.0156C78.0312 51.1927 77.8906 51.4427 77.8906 51.7656C77.8906 51.9323 77.9427 52.0677 78.0469 52.1719C78.1562 52.276 78.3151 52.362 78.5234 52.4297C78.6953 52.487 78.8932 52.5312 79.1172 52.5625C79.3464 52.5938 79.6406 52.6276 80 52.6641C80.5052 52.7214 80.9115 52.776 81.2188 52.8281C81.5312 52.875 81.8255 52.9479 82.1016 53.0469C82.5182 53.1979 82.8411 53.4167 83.0703 53.7031C83.3047 53.9896 83.4219 54.3672 83.4219 54.8359C83.4219 55.3047 83.3021 55.7161 83.0625 56.0703C82.8281 56.4193 82.4818 56.6901 82.0234 56.8828C81.5703 57.0755 81.026 57.1719 80.3906 57.1719C79.8281 57.1719 79.3333 57.0938 78.9062 56.9375C78.4792 56.7812 78.1068 56.5443 77.7891 56.2266V56.6641C77.7891 56.8464 77.7448 56.9766 77.6562 57.0547C77.5677 57.1328 77.4167 57.1719 77.2031 57.1719C76.9896 57.1719 76.8385 57.1328 76.75 57.0547C76.6615 56.9766 76.6172 56.8464 76.6172 56.6641V54.7891C76.6172 54.6068 76.6615 54.4766 76.75 54.3984C76.8385 54.3203 76.9896 54.2812 77.2031 54.2812C77.3125 54.2812 77.3984 54.3073 77.4609 54.3594C77.5234 54.4062 77.5781 54.487 77.625 54.6016C77.8125 55.1016 78.125 55.4661 78.5625 55.6953C79 55.9245 79.5833 56.0391 80.3125 56.0391C80.9167 56.0391 81.3802 55.9297 81.7031 55.7109C82.026 55.4922 82.1875 55.2005 82.1875 54.8359C82.1875 54.6589 82.1302 54.513 82.0156 54.3984C81.901 54.2839 81.737 54.1901 81.5234 54.1172C81.3411 54.0599 81.1302 54.013 80.8906 53.9766C80.6562 53.9349 80.3568 53.8958 79.9922 53.8594C79.5026 53.8073 79.0938 53.7526 78.7656 53.6953C78.4375 53.638 78.1354 53.5547 77.8594 53.4453C77.4792 53.2943 77.1823 53.0859 76.9688 52.8203C76.7604 52.5495 76.6562 52.1979 76.6562 51.7656C76.6562 51.3125 76.7734 50.9245 77.0078 50.6016C77.2474 50.2734 77.5755 50.026 77.9922 49.8594C78.4141 49.6927 78.8906 49.6094 79.4219 49.6094C79.9271 49.6094 80.388 49.6849 80.8047 49.8359C81.2266 49.987 81.5885 50.1979 81.8906 50.4688V50.1172C81.8906 49.9349 81.9349 49.8047 82.0234 49.7266C82.112 49.6484 82.263 49.6094 82.4766 49.6094ZM101.084 49.7812C101.261 49.7812 101.386 49.8229 101.459 49.9062C101.537 49.9844 101.577 50.1198 101.577 50.3125V55.9375H104.084C104.261 55.9375 104.386 55.9792 104.459 56.0625C104.537 56.1406 104.577 56.276 104.577 56.4688C104.577 56.6615 104.537 56.7995 104.459 56.8828C104.386 56.9609 104.261 57 104.084 57H97.9594C97.7823 57 97.6547 56.9609 97.5766 56.8828C97.5036 56.7995 97.4672 56.6615 97.4672 56.4688C97.4672 56.276 97.5036 56.1406 97.5766 56.0625C97.6547 55.9792 97.7823 55.9375 97.9594 55.9375H100.405V50.8438H98.4281C98.251 50.8438 98.1234 50.8047 98.0453 50.7266C97.9724 50.6432 97.9359 50.5052 97.9359 50.3125C97.9359 50.1198 97.9724 49.9844 98.0453 49.9062C98.1234 49.8229 98.251 49.7812 98.4281 49.7812H101.084ZM100.834 46.3516C101.121 46.3516 101.316 46.3906 101.42 46.4688C101.524 46.5417 101.577 46.6719 101.577 46.8594V47.875C101.577 48.0625 101.524 48.1953 101.42 48.2734C101.316 48.3464 101.121 48.3828 100.834 48.3828C100.548 48.3828 100.353 48.3464 100.248 48.2734C100.144 48.1953 100.092 48.0625 100.092 47.875V46.8594C100.092 46.6719 100.144 46.5417 100.248 46.4688C100.353 46.3906 100.548 46.3516 100.834 46.3516ZM113.658 49.6094C113.871 49.6094 114.022 49.6484 114.111 49.7266C114.199 49.8047 114.244 49.9349 114.244 50.1172V51.6016C114.244 51.7839 114.199 51.9141 114.111 51.9922C114.022 52.0703 113.871 52.1094 113.658 52.1094C113.481 52.1094 113.356 52.0417 113.283 51.9062C113.059 51.4792 112.733 51.1797 112.306 51.0078C111.879 50.8307 111.337 50.7422 110.681 50.7422C110.176 50.7422 109.78 50.8333 109.494 51.0156C109.212 51.1927 109.072 51.4427 109.072 51.7656C109.072 51.9323 109.124 52.0677 109.228 52.1719C109.337 52.276 109.496 52.362 109.705 52.4297C109.877 52.487 110.074 52.5312 110.298 52.5625C110.528 52.5938 110.822 52.6276 111.181 52.6641C111.686 52.7214 112.093 52.776 112.4 52.8281C112.712 52.875 113.007 52.9479 113.283 53.0469C113.699 53.1979 114.022 53.4167 114.252 53.7031C114.486 53.9896 114.603 54.3672 114.603 54.8359C114.603 55.3047 114.483 55.7161 114.244 56.0703C114.009 56.4193 113.663 56.6901 113.205 56.8828C112.752 57.0755 112.207 57.1719 111.572 57.1719C111.009 57.1719 110.515 57.0938 110.087 56.9375C109.66 56.7812 109.288 56.5443 108.97 56.2266V56.6641C108.97 56.8464 108.926 56.9766 108.837 57.0547C108.749 57.1328 108.598 57.1719 108.384 57.1719C108.171 57.1719 108.02 57.1328 107.931 57.0547C107.843 56.9766 107.798 56.8464 107.798 56.6641V54.7891C107.798 54.6068 107.843 54.4766 107.931 54.3984C108.02 54.3203 108.171 54.2812 108.384 54.2812C108.494 54.2812 108.58 54.3073 108.642 54.3594C108.705 54.4062 108.759 54.487 108.806 54.6016C108.994 55.1016 109.306 55.4661 109.744 55.6953C110.181 55.9245 110.765 56.0391 111.494 56.0391C112.098 56.0391 112.561 55.9297 112.884 55.7109C113.207 55.4922 113.369 55.2005 113.369 54.8359C113.369 54.6589 113.311 54.513 113.197 54.3984C113.082 54.2839 112.918 54.1901 112.705 54.1172C112.522 54.0599 112.311 54.013 112.072 53.9766C111.837 53.9349 111.538 53.8958 111.173 53.8594C110.684 53.8073 110.275 53.7526 109.947 53.6953C109.619 53.638 109.317 53.5547 109.041 53.4453C108.66 53.2943 108.364 53.0859 108.15 52.8203C107.942 52.5495 107.837 52.1979 107.837 51.7656C107.837 51.3125 107.955 50.9245 108.189 50.6016C108.429 50.2734 108.757 50.026 109.173 49.8594C109.595 49.6927 110.072 49.6094 110.603 49.6094C111.108 49.6094 111.569 49.6849 111.986 49.8359C112.408 49.987 112.77 50.1979 113.072 50.4688V50.1172C113.072 49.9349 113.116 49.8047 113.205 49.7266C113.293 49.6484 113.444 49.6094 113.658 49.6094ZM133.438 46.7109C134.135 46.7109 134.828 46.8438 135.516 47.1094C135.766 47.2031 135.891 47.375 135.891 47.625C135.891 47.6823 135.883 47.75 135.867 47.8281C135.794 48.125 135.664 48.2734 135.477 48.2734C135.419 48.2734 135.357 48.2604 135.289 48.2344C134.628 47.9792 134.01 47.8516 133.438 47.8516C132.385 47.8516 131.859 48.4167 131.859 49.5469V50.4062H134.562C134.74 50.4062 134.865 50.4479 134.938 50.5312C135.016 50.6094 135.055 50.7448 135.055 50.9375C135.055 51.1302 135.016 51.2682 134.938 51.3516C134.865 51.4297 134.74 51.4688 134.562 51.4688H131.859V55.9375H134.562C134.74 55.9375 134.865 55.9792 134.938 56.0625C135.016 56.1406 135.055 56.276 135.055 56.4688C135.055 56.6615 135.016 56.7995 134.938 56.8828C134.865 56.9609 134.74 57 134.562 57H129.141C128.964 57 128.836 56.9609 128.758 56.8828C128.685 56.7995 128.648 56.6615 128.648 56.4688C128.648 56.276 128.685 56.1406 128.758 56.0625C128.836 55.9792 128.964 55.9375 129.141 55.9375H130.688V51.4688H129.141C128.964 51.4688 128.836 51.4297 128.758 51.3516C128.685 51.2682 128.648 51.1302 128.648 50.9375C128.648 50.7448 128.685 50.6094 128.758 50.5312C128.836 50.4479 128.964 50.4062 129.141 50.4062H130.688V49.4453C130.688 48.5859 130.927 47.9167 131.406 47.4375C131.891 46.9531 132.568 46.7109 133.438 46.7109ZM142.659 49.7812C142.836 49.7812 142.961 49.8229 143.034 49.9062C143.112 49.9844 143.152 50.1198 143.152 50.3125V55.9375H145.659C145.836 55.9375 145.961 55.9792 146.034 56.0625C146.112 56.1406 146.152 56.276 146.152 56.4688C146.152 56.6615 146.112 56.7995 146.034 56.8828C145.961 56.9609 145.836 57 145.659 57H139.534C139.357 57 139.23 56.9609 139.152 56.8828C139.079 56.7995 139.042 56.6615 139.042 56.4688C139.042 56.276 139.079 56.1406 139.152 56.0625C139.23 55.9792 139.357 55.9375 139.534 55.9375H141.98V50.8438H140.003C139.826 50.8438 139.698 50.8047 139.62 50.7266C139.547 50.6432 139.511 50.5052 139.511 50.3125C139.511 50.1198 139.547 49.9844 139.62 49.9062C139.698 49.8229 139.826 49.7812 140.003 49.7812H142.659ZM142.409 46.3516C142.696 46.3516 142.891 46.3906 142.995 46.4688C143.099 46.5417 143.152 46.6719 143.152 46.8594V47.875C143.152 48.0625 143.099 48.1953 142.995 48.2734C142.891 48.3464 142.696 48.3828 142.409 48.3828C142.123 48.3828 141.928 48.3464 141.823 48.2734C141.719 48.1953 141.667 48.0625 141.667 47.875V46.8594C141.667 46.6719 141.719 46.5417 141.823 46.4688C141.928 46.3906 142.123 46.3516 142.409 46.3516ZM153.655 49.6094C154.129 49.6094 154.54 49.7135 154.889 49.9219C155.238 50.125 155.506 50.4193 155.694 50.8047C155.881 51.1901 155.975 51.6406 155.975 52.1562V55.9375H156.616C156.793 55.9375 156.918 55.9792 156.991 56.0625C157.069 56.1406 157.108 56.276 157.108 56.4688C157.108 56.6615 157.069 56.7995 156.991 56.8828C156.918 56.9609 156.793 57 156.616 57H154.084C153.907 57 153.78 56.9609 153.702 56.8828C153.629 56.7995 153.592 56.6615 153.592 56.4688C153.592 56.276 153.629 56.1406 153.702 56.0625C153.78 55.9792 153.907 55.9375 154.084 55.9375H154.803V52.2734C154.803 51.8099 154.696 51.4427 154.483 51.1719C154.269 50.901 153.954 50.7656 153.538 50.7656C153.095 50.7656 152.681 50.8932 152.295 51.1484C151.915 51.4036 151.61 51.7552 151.381 52.2031C151.152 52.651 151.038 53.151 151.038 53.7031V55.9375H151.756C151.933 55.9375 152.058 55.9792 152.131 56.0625C152.209 56.1406 152.248 56.276 152.248 56.4688C152.248 56.6615 152.209 56.7995 152.131 56.8828C152.058 56.9609 151.933 57 151.756 57H149.225C149.048 57 148.92 56.9609 148.842 56.8828C148.769 56.7995 148.733 56.6615 148.733 56.4688C148.733 56.276 148.769 56.1406 148.842 56.0625C148.92 55.9792 149.048 55.9375 149.225 55.9375H149.866V50.8438H149.069C148.892 50.8438 148.764 50.8047 148.686 50.7266C148.613 50.6432 148.577 50.5052 148.577 50.3125C148.577 50.1198 148.613 49.9844 148.686 49.9062C148.764 49.8229 148.892 49.7812 149.069 49.7812H150.467C150.644 49.7812 150.769 49.8229 150.842 49.9062C150.92 49.9844 150.959 50.1198 150.959 50.3125V51.25C151.303 50.7188 151.704 50.3125 152.163 50.0312C152.626 49.75 153.123 49.6094 153.655 49.6094ZM163.236 49.6094C163.991 49.6094 164.634 49.763 165.166 50.0703C165.702 50.3724 166.114 50.7943 166.4 51.3359C166.686 51.8724 166.851 52.4922 166.892 53.1953C166.892 53.3724 166.853 53.4974 166.775 53.5703C166.702 53.6432 166.577 53.6797 166.4 53.6797H160.744C160.78 54.4557 161.009 55.0443 161.431 55.4453C161.858 55.8411 162.46 56.0391 163.236 56.0391C163.715 56.0391 164.189 55.9792 164.658 55.8594C165.127 55.7344 165.538 55.5703 165.892 55.3672C165.981 55.3203 166.061 55.2969 166.134 55.2969C166.317 55.2969 166.465 55.4349 166.58 55.7109C166.627 55.8203 166.65 55.9193 166.65 56.0078C166.65 56.2161 166.535 56.3776 166.306 56.4922C165.905 56.6953 165.431 56.8594 164.884 56.9844C164.337 57.1094 163.788 57.1719 163.236 57.1719C162.449 57.1719 161.778 57.0208 161.22 56.7188C160.663 56.4167 160.239 55.9818 159.947 55.4141C159.655 54.8464 159.509 54.1719 159.509 53.3906C159.509 52.6458 159.668 51.987 159.986 51.4141C160.304 50.8411 160.744 50.3984 161.306 50.0859C161.869 49.7682 162.512 49.6094 163.236 49.6094ZM163.236 50.7422C162.595 50.7422 162.064 50.9062 161.642 51.2344C161.226 51.5573 160.952 52.0078 160.822 52.5859H165.595C165.486 51.987 165.233 51.5312 164.837 51.2188C164.447 50.901 163.913 50.7422 163.236 50.7422Z" fill="black"/>
<path d="M113.325 79C109.851 79 106.377 79 102.903 79C97.2497 79 91.6927 78.1425 86.0712 78.063C75.3203 77.9112 64.3711 79.1307 53.8709 76.4234C50.6365 75.5894 47.45 74.407 44.2814 73.3782C40.6108 72.1865 37.3448 71.1113 34.2882 68.5893C32.3249 66.9695 29.7335 63.9833 28.6102 61.6663C27.494 59.3638 27.6644 56.0174 27.4494 53.4679C27.0469 48.694 25.8817 45.3453 30.2001 42.4586C36.3234 38.3653 43.9356 34.8748 51.1202 33.3493C55.3072 32.4602 59.4804 31.8648 63.7127 31.3192C66.0051 31.0236 68.3341 31.4066 70.6272 31.111C73.3098 30.7651 75.7176 30.3069 78.4501 30.2781C93.2401 30.1225 108.06 28.548 122.839 27.9617C140.577 27.2581 160.649 25.029 177.726 31.3192C179.635 32.0222 180.891 33.131 182.571 34.2342C183.991 35.1659 186.049 35.6596 187.114 37.0711C189.364 40.0554 191 43.0658 191 47.1434C191 52.1618 189.277 53.2495 185.776 56.3048C180.151 61.214 173.933 64.3769 167.38 67.7565C159.132 72.0097 150.863 76.0038 141.968 78.2973C139.903 78.8297 137.598 78.483 135.482 78.5315C132.34 78.6035 129.217 79 126.044 79" stroke="black" stroke-width="3" stroke-linecap="round"/>
<path d="M113.883 77.2637C113.883 85.2103 120.787 87.6384 126.571 91.2804C131.739 94.5343 137.566 94.9907 143.565 94.9907" stroke="black" stroke-width="3" stroke-linecap="round"/>
<path d="M125 79C125 83.8248 125.131 87.9064 131.263 90.4988C134.839 92.0105 138.501 93.6687 142 95" stroke="black" stroke-width="3" stroke-linecap="round"/>


  </g>
  <animate xlink:href="#group1" attributeName="display" from="inline" to="none" dur="1s" begin="0s" repeatCount="indefinite" />
  <animate xlink:href="#group2" attributeName="display" from="none" to="inline" dur="1s" begin="0s" repeatCount="indefinite" />
</svg>