<svg width="359" height="240" viewBox="0 0 359 240" fill="none" xmlns="http://www.w3.org/2000/svg" xmlns:xlink="http://www.w3.org/1999/xlink">
  <g id="group1">
<path d="M273.273 84.2949C271.01 79.8001 269.925 78.3811 265.86 76.0935C260.871 73.9696 249.698 76.3474 246.714 81.9269C243.717 87.5305 246.254 97.6768 249.833 102.37C255.112 109.294 266.972 107.029 270.676 99.5811C273.015 94.88 275.891 89.4955 273.273 84.2949Z" stroke="black" stroke-width="3" stroke-linecap="round" stroke-linejoin="round"/>
<path d="M289.911 141.211C289.093 136.56 287.227 127.498 285.421 123.151C281.639 114.05 277.782 107.028 270.567 100.373" stroke="black" stroke-width="3" stroke-linecap="round" stroke-linejoin="round"/>
<path d="M243.788 88.8129C238.264 87.762 235.972 87.8727 230.454 87.2097C223.954 87.266 219.318 88.0004 214.597 89.7772C210.352 91.3746 206.866 92.1392 204.111 96.1091C192.663 112.601 191.157 132.907 191.322 152.422" stroke="black" stroke-width="3" stroke-linecap="round" stroke-linejoin="round"/>
<path d="M207.039 78.7809C212.38 80.0032 214.11 86.6371 214.509 91.2939C215.323 100.775 202.49 108.371 194.476 103.575C189.3 100.478 185.928 91.3136 189.94 86.0519C193.622 81.2213 195.38 78.879 206.379 78.7867" stroke="black" stroke-width="3" stroke-linecap="round" stroke-linejoin="round"/>
<path d="M271.556 89.5967C273.049 85.1464 270.659 76.8191 265.404 76.9188C260.853 75.4543 256.428 80.1723 255.602 82.3602C254.073 86.4122 256.583 89.5726 259.483 91.9557C261.344 93.4854 263.13 95.2157 265.724 94.7815C268.365 94.3393 270.722 92.0824 271.556 89.5967Z" stroke="black" stroke-width="3" stroke-linecap="round" stroke-linejoin="round"/>
<path d="M290.421 141.767C293.935 144.179 298.713 147.996 301.905 151.514C309.074 159.416 312.134 167.747 312.223 178.286C312.453 205.657 267.91 216.241 247.606 213.953C233.085 212.317 218.574 209.238 205.061 203.615C195.458 199.619 185.995 192.752 183.89 181.84C181.506 169.481 186.5 160.5 191.502 152.54" stroke="black" stroke-width="3" stroke-linecap="round" stroke-linejoin="round"/>
<path d="M264.524 134.306C253.494 128.008 242.02 122.447 230.05 118.164C223.879 115.955 217.507 114.033 210.958 113.421C204.995 112.864 197.032 111.95 191.694 115.297C188.545 117.271 185.973 120.279 184.58 123.704" stroke="black" stroke-width="3" stroke-linecap="round" stroke-linejoin="round"/>
<path d="M234.926 177.68C230.416 190.346 230.562 205.904 230.673 219.15" stroke="black" stroke-width="3" stroke-linecap="round" stroke-linejoin="round"/>
<path d="M215 176.5C209.5 184 198.942 204.579 199 211.5" stroke="black" stroke-width="3" stroke-linecap="round" stroke-linejoin="round"/>
<path d="M203.559 86.3183C202.38 85.3428 198.852 82.5425 193.68 87.8028C188.508 93.0631 197.29 103.584 203.518 96.5194C205.5 94.2702 206.073 88.3989 203.559 86.3183Z" stroke="black" stroke-width="3" stroke-linecap="round" stroke-linejoin="round"/>
<path d="M192.23 180.035L180.227 210.164" stroke="black" stroke-width="3" stroke-linecap="round" stroke-linejoin="round"/>
<path d="M296.574 184.658L305.276 215.081" stroke="black" stroke-width="3" stroke-linecap="round" stroke-linejoin="round"/>
<path d="M311.141 51.1597C312.697 49.5308 314.528 50.463 315.214 52.0064C315.77 53.2548 314.943 53.7903 315.036 53.0576C315.317 50.8373 316.259 52.7136 315.866 53.0189C315.046 53.6562 314.725 52.2664 315.319 52.0285" stroke="black" stroke-width="3" stroke-linecap="round" stroke-linejoin="round"/>
<path d="M314.445 52.8982C314.445 53.1852 315.128 54.0514 314.697 54.3138C313.672 54.9382 312.37 53.8918 311.767 53.1398C310.43 51.4702 315.295 50.5766 314.964 53.2224" stroke="black" stroke-width="3" stroke-linecap="round" stroke-linejoin="round"/>
<path d="M315.062 53.2828C315.062 54.6679 321.867 51.7706 321.867 49.8085C321.867 47.9563 319.588 47.1904 318.124 46.8376C315.396 46.1803 314.604 48.2245 314.604 50.542" stroke="black" stroke-width="3" stroke-linecap="round" stroke-linejoin="round"/>
<path d="M311.731 51.9989C313.156 51.8607 310.184 41.6869 306.294 46.1161C303.381 49.4335 307.214 51.9189 310.666 52.06" stroke="black" stroke-width="3" stroke-linecap="round" stroke-linejoin="round"/>
<path d="M314.523 217.424L314.298 226.912" stroke="black" stroke-width="3" stroke-linecap="round"/>
<path d="M34.1255 208.965C47.0092 209.271 59.324 210.734 72.0794 211.745C89.5122 213.126 106.475 209.718 123.818 210.13C150.252 210.758 176.685 211.386 203.119 212.014C214.031 212.273 224.766 212.625 235.57 213.697C246.777 214.809 258.414 216.224 269.533 216.489C283.987 216.832 298.795 216.218 313.024 216.556" stroke="black" stroke-width="3" stroke-linecap="round"/>
<path d="M34.8404 220.985C47.724 221.291 60.0388 222.754 72.7942 223.764C90.227 225.145 107.19 221.738 124.533 222.15C150.967 222.777 177.4 223.405 203.834 224.033C214.746 224.292 225.481 224.644 236.285 225.716C247.492 226.828 259.129 228.244 270.248 228.508C284.702 228.851 299.51 228.237 313.739 228.575" stroke="black" stroke-width="3" stroke-linecap="round"/>
<path d="M34.3633 208.834L34.1101 219.492" stroke="black" stroke-width="3" stroke-linecap="round"/>
<path d="M46.2234 47.7266C46.4005 47.7266 46.5255 47.7682 46.5984 47.8516C46.6766 47.9297 46.7156 48.0651 46.7156 48.2578C46.7156 48.4505 46.6766 48.5885 46.5984 48.6719C46.5255 48.75 46.4005 48.7891 46.2234 48.7891H44.2234V55.9375H46.3797C46.5568 55.9375 46.6818 55.9792 46.7547 56.0625C46.8328 56.1406 46.8719 56.276 46.8719 56.4688C46.8719 56.6615 46.8328 56.7995 46.7547 56.8828C46.6818 56.9609 46.5568 57 46.3797 57H40.8953C40.7182 57 40.5906 56.9609 40.5125 56.8828C40.4396 56.7995 40.4031 56.6615 40.4031 56.4688C40.4031 56.276 40.4396 56.1406 40.5125 56.0625C40.5906 55.9792 40.7182 55.9375 40.8953 55.9375H43.0516V48.7891H41.0516C40.8745 48.7891 40.7469 48.75 40.6687 48.6719C40.5958 48.5885 40.5594 48.4505 40.5594 48.2578C40.5594 48.0651 40.5958 47.9297 40.6687 47.8516C40.7469 47.7682 40.8745 47.7266 41.0516 47.7266H46.2234ZM55.2266 47.0859C55.3151 47.0859 55.3828 47.1094 55.4297 47.1562C55.4818 47.2031 55.5078 47.2656 55.5078 47.3438C55.5078 47.4062 55.487 47.4844 55.4453 47.5781L53.7266 51.0859C53.6172 51.3099 53.4245 51.4219 53.1484 51.4219C52.9974 51.4219 52.875 51.3854 52.7812 51.3125C52.6927 51.2396 52.6484 51.1406 52.6484 51.0156C52.6484 50.9896 52.6536 50.9453 52.6641 50.8828L53.4531 47.3984C53.5 47.1901 53.6354 47.0859 53.8594 47.0859H55.2266ZM68.9328 55.9375C69.1099 55.9375 69.2349 55.9792 69.3078 56.0625C69.3859 56.1406 69.425 56.276 69.425 56.4688C69.425 56.6615 69.3859 56.7995 69.3078 56.8828C69.2349 56.9609 69.1099 57 68.9328 57H67.7687C67.5917 57 67.4641 56.9609 67.3859 56.8828C67.313 56.7995 67.2766 56.6615 67.2766 56.4688V51.8438C67.2766 51.4844 67.2167 51.2161 67.0969 51.0391C66.9823 50.8568 66.7948 50.7656 66.5344 50.7656C66.2896 50.7656 66.063 50.8802 65.8547 51.1094C65.6463 51.3333 65.4797 51.6484 65.3547 52.0547C65.2349 52.4557 65.175 52.9141 65.175 53.4297V55.9375H65.6203C65.7974 55.9375 65.9224 55.9792 65.9953 56.0625C66.0734 56.1406 66.1125 56.276 66.1125 56.4688C66.1125 56.6615 66.0734 56.7995 65.9953 56.8828C65.9224 56.9609 65.7974 57 65.6203 57H64.4953C64.3182 57 64.1906 56.9609 64.1125 56.8828C64.0396 56.7995 64.0031 56.6615 64.0031 56.4688V51.8438C64.0031 51.4844 63.9432 51.2161 63.8234 51.0391C63.7088 50.8568 63.5213 50.7656 63.2609 50.7656C63.0161 50.7656 62.7896 50.8802 62.5812 51.1094C62.3729 51.3333 62.2062 51.6484 62.0812 52.0547C61.9615 52.4557 61.9016 52.9141 61.9016 53.4297V55.9375H62.3078C62.4849 55.9375 62.6099 55.9792 62.6828 56.0625C62.7609 56.1406 62.8 56.276 62.8 56.4688C62.8 56.6615 62.7609 56.7995 62.6828 56.8828C62.6099 56.9609 62.4849 57 62.3078 57H60.0891C59.912 57 59.7844 56.9609 59.7062 56.8828C59.6333 56.7995 59.5969 56.6615 59.5969 56.4688C59.5969 56.276 59.6333 56.1406 59.7062 56.0625C59.7844 55.9792 59.912 55.9375 60.0891 55.9375H60.7297V50.8438H60.0891C59.912 50.8438 59.7844 50.8047 59.7062 50.7266C59.6333 50.6432 59.5969 50.5052 59.5969 50.3125C59.5969 50.1198 59.6333 49.9844 59.7062 49.9062C59.7844 49.8229 59.912 49.7812 60.0891 49.7812H61.2531C61.4302 49.7812 61.5552 49.8229 61.6281 49.9062C61.7062 49.9844 61.7453 50.1198 61.7453 50.3125V51.0859C61.9693 50.5964 62.2375 50.2292 62.55 49.9844C62.8625 49.7344 63.201 49.6094 63.5656 49.6094C63.9198 49.6094 64.2297 49.7292 64.4953 49.9688C64.7609 50.2083 64.9406 50.5599 65.0344 51.0234C65.4979 50.0807 66.0969 49.6094 66.8312 49.6094C67.1385 49.6094 67.412 49.6875 67.6516 49.8438C67.8963 49.9948 68.0891 50.2292 68.2297 50.5469C68.3755 50.8594 68.4484 51.2448 68.4484 51.7031V55.9375H68.9328ZM85.4937 49.7812C85.6708 49.7812 85.7958 49.8229 85.8687 49.9062C85.9469 49.9844 85.9859 50.1198 85.9859 50.3125V55.9375H88.4937C88.6708 55.9375 88.7958 55.9792 88.8687 56.0625C88.9469 56.1406 88.9859 56.276 88.9859 56.4688C88.9859 56.6615 88.9469 56.7995 88.8687 56.8828C88.7958 56.9609 88.6708 57 88.4937 57H82.3687C82.1917 57 82.0641 56.9609 81.9859 56.8828C81.913 56.7995 81.8766 56.6615 81.8766 56.4688C81.8766 56.276 81.913 56.1406 81.9859 56.0625C82.0641 55.9792 82.1917 55.9375 82.3687 55.9375H84.8141V50.8438H82.8375C82.6604 50.8438 82.5328 50.8047 82.4547 50.7266C82.3818 50.6432 82.3453 50.5052 82.3453 50.3125C82.3453 50.1198 82.3818 49.9844 82.4547 49.9062C82.5328 49.8229 82.6604 49.7812 82.8375 49.7812H85.4937ZM85.2437 46.3516C85.5302 46.3516 85.7255 46.3906 85.8297 46.4688C85.9338 46.5417 85.9859 46.6719 85.9859 46.8594V47.875C85.9859 48.0625 85.9338 48.1953 85.8297 48.2734C85.7255 48.3464 85.5302 48.3828 85.2437 48.3828C84.9573 48.3828 84.762 48.3464 84.6578 48.2734C84.5536 48.1953 84.5016 48.0625 84.5016 47.875V46.8594C84.5016 46.6719 84.5536 46.5417 84.6578 46.4688C84.762 46.3906 84.9573 46.3516 85.2437 46.3516ZM96.4891 49.6094C96.963 49.6094 97.3745 49.7135 97.7234 49.9219C98.0724 50.125 98.3406 50.4193 98.5281 50.8047C98.7156 51.1901 98.8094 51.6406 98.8094 52.1562V55.9375H99.45C99.6271 55.9375 99.7521 55.9792 99.825 56.0625C99.9031 56.1406 99.9422 56.276 99.9422 56.4688C99.9422 56.6615 99.9031 56.7995 99.825 56.8828C99.7521 56.9609 99.6271 57 99.45 57H96.9187C96.7417 57 96.6141 56.9609 96.5359 56.8828C96.463 56.7995 96.4266 56.6615 96.4266 56.4688C96.4266 56.276 96.463 56.1406 96.5359 56.0625C96.6141 55.9792 96.7417 55.9375 96.9187 55.9375H97.6375V52.2734C97.6375 51.8099 97.5307 51.4427 97.3172 51.1719C97.1036 50.901 96.7885 50.7656 96.3719 50.7656C95.9292 50.7656 95.5151 50.8932 95.1297 51.1484C94.7495 51.4036 94.4448 51.7552 94.2156 52.2031C93.9865 52.651 93.8719 53.151 93.8719 53.7031V55.9375H94.5906C94.7677 55.9375 94.8927 55.9792 94.9656 56.0625C95.0437 56.1406 95.0828 56.276 95.0828 56.4688C95.0828 56.6615 95.0437 56.7995 94.9656 56.8828C94.8927 56.9609 94.7677 57 94.5906 57H92.0594C91.8823 57 91.7547 56.9609 91.6766 56.8828C91.6036 56.7995 91.5672 56.6615 91.5672 56.4688C91.5672 56.276 91.6036 56.1406 91.6766 56.0625C91.7547 55.9792 91.8823 55.9375 92.0594 55.9375H92.7V50.8438H91.9031C91.726 50.8438 91.5984 50.8047 91.5203 50.7266C91.4474 50.6432 91.4109 50.5052 91.4109 50.3125C91.4109 50.1198 91.4474 49.9844 91.5203 49.9062C91.5984 49.8229 91.726 49.7812 91.9031 49.7812H93.3016C93.4786 49.7812 93.6036 49.8229 93.6766 49.9062C93.7547 49.9844 93.7937 50.1198 93.7937 50.3125V51.25C94.1375 50.7188 94.5385 50.3125 94.9969 50.0312C95.4604 49.75 95.9578 49.6094 96.4891 49.6094ZM119.12 46.75C119.297 46.75 119.422 46.7917 119.495 46.875C119.573 46.9531 119.612 47.0885 119.612 47.2812V55.9375H120.253C120.43 55.9375 120.555 55.9792 120.628 56.0625C120.706 56.1406 120.745 56.276 120.745 56.4688C120.745 56.6615 120.706 56.7995 120.628 56.8828C120.555 56.9609 120.43 57 120.253 57H119.011C118.834 57 118.706 56.9609 118.628 56.8828C118.555 56.7995 118.519 56.6615 118.519 56.4688V55.8438C118.191 56.2708 117.81 56.599 117.378 56.8281C116.946 57.0573 116.474 57.1719 115.964 57.1719C115.318 57.1719 114.74 57.0208 114.23 56.7188C113.719 56.4115 113.318 55.974 113.027 55.4062C112.735 54.8333 112.589 54.1615 112.589 53.3906C112.589 52.6198 112.735 51.9505 113.027 51.3828C113.318 50.8099 113.719 50.3724 114.23 50.0703C114.74 49.763 115.318 49.6094 115.964 49.6094C116.943 49.6094 117.769 50.0391 118.441 50.8984V47.8125H117.175C116.998 47.8125 116.87 47.7734 116.792 47.6953C116.719 47.612 116.683 47.474 116.683 47.2812C116.683 47.0885 116.719 46.9531 116.792 46.875C116.87 46.7917 116.998 46.75 117.175 46.75H119.12ZM116.042 50.7656C115.579 50.7656 115.18 50.8776 114.847 51.1016C114.514 51.3203 114.258 51.6276 114.081 52.0234C113.909 52.4193 113.823 52.875 113.823 53.3906C113.823 53.9062 113.909 54.362 114.081 54.7578C114.258 55.1536 114.514 55.4635 114.847 55.6875C115.18 55.9062 115.579 56.0156 116.042 56.0156C116.506 56.0156 116.917 55.9115 117.277 55.7031C117.641 55.4948 117.925 55.1927 118.128 54.7969C118.336 54.401 118.441 53.9323 118.441 53.3906C118.441 52.849 118.336 52.3802 118.128 51.9844C117.925 51.5885 117.641 51.2865 117.277 51.0781C116.917 50.8698 116.506 50.7656 116.042 50.7656ZM126.819 49.6094C127.798 49.6094 128.532 49.8281 129.022 50.2656C129.511 50.7031 129.756 51.3516 129.756 52.2109V55.3203C129.756 55.7318 129.928 55.9375 130.272 55.9375H130.545C130.722 55.9375 130.847 55.9792 130.92 56.0625C130.998 56.1406 131.037 56.276 131.037 56.4688C131.037 56.6615 130.998 56.7995 130.92 56.8828C130.847 56.9609 130.722 57 130.545 57H130.045C129.707 57 129.415 56.9167 129.17 56.75C128.931 56.5781 128.774 56.3281 128.702 56C128.274 56.375 127.811 56.6641 127.311 56.8672C126.816 57.0703 126.29 57.1719 125.733 57.1719C125.207 57.1719 124.741 57.0833 124.334 56.9062C123.933 56.724 123.618 56.4609 123.389 56.1172C123.16 55.7734 123.045 55.3646 123.045 54.8906C123.045 54.0677 123.34 53.4609 123.928 53.0703C124.517 52.6745 125.277 52.4766 126.209 52.4766C127.037 52.4766 127.829 52.6094 128.584 52.875V52.2109C128.584 51.7057 128.441 51.3359 128.155 51.1016C127.873 50.862 127.418 50.7422 126.787 50.7422C126.397 50.7422 125.991 50.7969 125.569 50.9062C125.147 51.0156 124.746 51.1667 124.366 51.3594C124.277 51.4062 124.196 51.4297 124.123 51.4297C123.952 51.4297 123.808 51.3047 123.694 51.0547C123.636 50.9297 123.608 50.8255 123.608 50.7422C123.608 50.5599 123.704 50.4193 123.897 50.3203C124.334 50.0911 124.803 49.9167 125.303 49.7969C125.808 49.6719 126.314 49.6094 126.819 49.6094ZM126.217 53.5781C125.618 53.5781 125.144 53.6823 124.795 53.8906C124.452 54.0938 124.28 54.4193 124.28 54.8672C124.28 55.2474 124.41 55.5443 124.67 55.7578C124.936 55.9661 125.306 56.0703 125.78 56.0703C126.816 56.0703 127.751 55.6406 128.584 54.7812V53.9297C128.23 53.8151 127.85 53.7292 127.444 53.6719C127.037 53.6094 126.629 53.5781 126.217 53.5781ZM138.064 49.6094C138.538 49.6094 138.949 49.7135 139.298 49.9219C139.647 50.125 139.916 50.4193 140.103 50.8047C140.291 51.1901 140.384 51.6406 140.384 52.1562V55.9375H141.025C141.202 55.9375 141.327 55.9792 141.4 56.0625C141.478 56.1406 141.517 56.276 141.517 56.4688C141.517 56.6615 141.478 56.7995 141.4 56.8828C141.327 56.9609 141.202 57 141.025 57H138.494C138.317 57 138.189 56.9609 138.111 56.8828C138.038 56.7995 138.002 56.6615 138.002 56.4688C138.002 56.276 138.038 56.1406 138.111 56.0625C138.189 55.9792 138.317 55.9375 138.494 55.9375H139.212V52.2734C139.212 51.8099 139.106 51.4427 138.892 51.1719C138.679 50.901 138.364 50.7656 137.947 50.7656C137.504 50.7656 137.09 50.8932 136.705 51.1484C136.324 51.4036 136.02 51.7552 135.791 52.2031C135.561 52.651 135.447 53.151 135.447 53.7031V55.9375H136.166C136.343 55.9375 136.468 55.9792 136.541 56.0625C136.619 56.1406 136.658 56.276 136.658 56.4688C136.658 56.6615 136.619 56.7995 136.541 56.8828C136.468 56.9609 136.343 57 136.166 57H133.634C133.457 57 133.33 56.9609 133.252 56.8828C133.179 56.7995 133.142 56.6615 133.142 56.4688C133.142 56.276 133.179 56.1406 133.252 56.0625C133.33 55.9792 133.457 55.9375 133.634 55.9375H134.275V50.8438H133.478C133.301 50.8438 133.173 50.8047 133.095 50.7266C133.022 50.6432 132.986 50.5052 132.986 50.3125C132.986 50.1198 133.022 49.9844 133.095 49.9062C133.173 49.8229 133.301 49.7812 133.478 49.7812H134.877C135.054 49.7812 135.179 49.8229 135.252 49.9062C135.33 49.9844 135.369 50.1198 135.369 50.3125V51.25C135.712 50.7188 136.114 50.3125 136.572 50.0312C137.035 49.75 137.533 49.6094 138.064 49.6094ZM147.145 49.6094C147.656 49.6094 148.127 49.724 148.559 49.9531C148.992 50.1823 149.372 50.5104 149.7 50.9375V50.3125C149.7 50.1198 149.736 49.9844 149.809 49.9062C149.887 49.8229 150.015 49.7812 150.192 49.7812H151.434C151.611 49.7812 151.736 49.8229 151.809 49.9062C151.887 49.9844 151.927 50.1198 151.927 50.3125C151.927 50.5052 151.887 50.6432 151.809 50.7266C151.736 50.8047 151.611 50.8438 151.434 50.8438H150.794V57.2344C150.794 57.8542 150.661 58.3854 150.395 58.8281C150.135 59.276 149.755 59.6172 149.255 59.8516C148.755 60.0859 148.153 60.2031 147.45 60.2031C146.95 60.2031 146.445 60.1589 145.934 60.0703C145.424 59.987 144.947 59.8646 144.505 59.7031C144.302 59.6302 144.2 59.4922 144.2 59.2891C144.2 59.2057 144.221 59.1016 144.262 58.9766C144.356 58.6901 144.505 58.5469 144.708 58.5469C144.765 58.5469 144.822 58.5573 144.88 58.5781C145.286 58.724 145.713 58.8385 146.161 58.9219C146.609 59.0052 147.039 59.0469 147.45 59.0469C148.169 59.0469 148.71 58.875 149.075 58.5312C149.44 58.1927 149.622 57.7266 149.622 57.1328V55.5625C148.976 56.375 148.151 56.7812 147.145 56.7812C146.499 56.7812 145.921 56.638 145.411 56.3516C144.901 56.0599 144.499 55.6432 144.208 55.1016C143.916 54.5599 143.77 53.9245 143.77 53.1953C143.77 52.4661 143.916 51.8307 144.208 51.2891C144.499 50.7474 144.901 50.3333 145.411 50.0469C145.921 49.7552 146.499 49.6094 147.145 49.6094ZM147.223 50.7656C146.76 50.7656 146.361 50.8698 146.028 51.0781C145.695 51.2812 145.44 51.5677 145.262 51.9375C145.091 52.3021 145.005 52.7214 145.005 53.1953C145.005 53.6693 145.091 54.0911 145.262 54.4609C145.44 54.8255 145.695 55.112 146.028 55.3203C146.361 55.5234 146.76 55.625 147.223 55.625C147.687 55.625 148.098 55.5286 148.458 55.3359C148.822 55.1432 149.106 54.8646 149.309 54.5C149.518 54.1302 149.622 53.6953 149.622 53.1953C149.622 52.6953 149.518 52.263 149.309 51.8984C149.106 51.5286 148.822 51.2474 148.458 51.0547C148.098 50.862 147.687 50.7656 147.223 50.7656ZM158.039 49.6094C158.794 49.6094 159.438 49.763 159.969 50.0703C160.505 50.3724 160.917 50.7943 161.203 51.3359C161.49 51.8724 161.654 52.4922 161.695 53.1953C161.695 53.3724 161.656 53.4974 161.578 53.5703C161.505 53.6432 161.38 53.6797 161.203 53.6797H155.547C155.583 54.4557 155.812 55.0443 156.234 55.4453C156.661 55.8411 157.263 56.0391 158.039 56.0391C158.518 56.0391 158.992 55.9792 159.461 55.8594C159.93 55.7344 160.341 55.5703 160.695 55.3672C160.784 55.3203 160.865 55.2969 160.938 55.2969C161.12 55.2969 161.268 55.4349 161.383 55.7109C161.43 55.8203 161.453 55.9193 161.453 56.0078C161.453 56.2161 161.339 56.3776 161.109 56.4922C160.708 56.6953 160.234 56.8594 159.688 56.9844C159.141 57.1094 158.591 57.1719 158.039 57.1719C157.253 57.1719 156.581 57.0208 156.023 56.7188C155.466 56.4167 155.042 55.9818 154.75 55.4141C154.458 54.8464 154.312 54.1719 154.312 53.3906C154.312 52.6458 154.471 51.987 154.789 51.4141C155.107 50.8411 155.547 50.3984 156.109 50.0859C156.672 49.7682 157.315 49.6094 158.039 49.6094ZM158.039 50.7422C157.398 50.7422 156.867 50.9062 156.445 51.2344C156.029 51.5573 155.755 52.0078 155.625 52.5859H160.398C160.289 51.987 160.036 51.5312 159.641 51.2188C159.25 50.901 158.716 50.7422 158.039 50.7422ZM170.753 49.6094C171.159 49.6094 171.54 49.7135 171.894 49.9219C172.102 50.0469 172.206 50.2083 172.206 50.4062C172.206 50.5 172.183 50.6094 172.136 50.7344C172.027 51.0312 171.876 51.1797 171.683 51.1797C171.605 51.1797 171.532 51.1589 171.464 51.1172C171.209 50.9766 170.935 50.9062 170.644 50.9062C170.175 50.9062 169.704 51.0703 169.23 51.3984C168.756 51.7214 168.365 52.1536 168.058 52.6953C167.756 53.237 167.605 53.8125 167.605 54.4219V55.9375H170.237C170.415 55.9375 170.54 55.9792 170.612 56.0625C170.691 56.1406 170.73 56.276 170.73 56.4688C170.73 56.6615 170.691 56.7995 170.612 56.8828C170.54 56.9609 170.415 57 170.237 57H165.206C165.029 57 164.902 56.9609 164.823 56.8828C164.751 56.7995 164.714 56.6615 164.714 56.4688C164.714 56.276 164.751 56.1406 164.823 56.0625C164.902 55.9792 165.029 55.9375 165.206 55.9375H166.433V50.8438H165.441C165.264 50.8438 165.136 50.8047 165.058 50.7266C164.985 50.6432 164.948 50.5052 164.948 50.3125C164.948 50.1198 164.985 49.9844 165.058 49.9062C165.136 49.8229 165.264 49.7812 165.441 49.7812H167.034C167.211 49.7812 167.336 49.8229 167.409 49.9062C167.487 49.9844 167.527 50.1198 167.527 50.3125V51.8906C167.777 51.4323 168.079 51.0312 168.433 50.6875C168.787 50.3438 169.165 50.0781 169.566 49.8906C169.967 49.7031 170.362 49.6094 170.753 49.6094Z" fill="black"/>
<path d="M113.325 79C109.851 79 106.377 79 102.903 79C97.2497 79 91.6927 78.1425 86.0712 78.063C75.3203 77.9112 64.3711 79.1307 53.8709 76.4234C50.6365 75.5894 47.45 74.407 44.2814 73.3782C40.6108 72.1865 37.3448 71.1113 34.2882 68.5893C32.3249 66.9695 29.7335 63.9833 28.6102 61.6663C27.494 59.3638 27.6644 56.0174 27.4494 53.4679C27.0469 48.694 25.8817 45.3453 30.2001 42.4586C36.3234 38.3653 43.9356 34.8748 51.1202 33.3493C55.3072 32.4602 59.4804 31.8648 63.7127 31.3192C66.0051 31.0236 68.3341 31.4066 70.6272 31.111C73.3098 30.7651 75.7176 30.3069 78.4501 30.2781C93.2401 30.1225 108.06 28.548 122.839 27.9617C140.577 27.2581 160.649 25.029 177.726 31.3192C179.635 32.0222 180.891 33.131 182.571 34.2342C183.991 35.1659 186.049 35.6596 187.114 37.0711C189.364 40.0554 191 43.0658 191 47.1434C191 52.1618 189.277 53.2495 185.776 56.3048C180.151 61.214 173.933 64.3769 167.38 67.7565C159.132 72.0097 150.863 76.0038 141.968 78.2973C139.903 78.8297 137.598 78.483 135.482 78.5315C132.34 78.6035 129.217 79 126.044 79" stroke="black" stroke-width="3" stroke-linecap="round"/>
<path d="M113.883 77.2637C113.883 85.2103 120.787 87.6384 126.571 91.2804C131.739 94.5343 137.566 94.9907 143.565 94.9907" stroke="black" stroke-width="3" stroke-linecap="round"/>
<path d="M125 79C125 83.8248 125.131 87.9064 131.263 90.4988C134.839 92.0105 138.501 93.6687 142 95" stroke="black" stroke-width="3" stroke-linecap="round"/>

  </g>
  <g id="group2" style="display:none">
<path d="M273.335 85.4082C271.072 80.9134 269.987 79.4944 265.923 77.2068C260.933 75.0829 249.76 77.4606 246.776 83.0402C243.78 88.6438 246.316 98.7901 249.895 103.483C255.175 110.407 267.035 108.143 270.739 100.694C273.077 95.9933 275.954 90.6088 273.335 85.4082Z" stroke="black" stroke-width="3" stroke-linecap="round" stroke-linejoin="round"/>
<path d="M289.974 142.325C289.155 137.674 287.29 128.611 285.483 124.264C281.701 115.163 277.845 108.141 270.63 101.486" stroke="black" stroke-width="3" stroke-linecap="round" stroke-linejoin="round"/>
<path d="M243.85 89.9262C238.327 88.8753 236.034 88.986 230.516 88.3229C224.016 88.3792 219.381 89.1137 214.659 90.8905C210.414 92.4879 206.929 93.2524 204.173 97.2224C192.725 113.715 191.22 134.02 191.384 153.535" stroke="black" stroke-width="3" stroke-linecap="round" stroke-linejoin="round"/>
<path d="M206.109 79.8063C211.45 81.0286 213.18 87.6625 213.58 92.3193C214.393 101.8 201.56 109.396 193.547 104.601C188.37 101.503 184.999 92.339 189.01 87.0773C192.693 82.2467 194.45 79.9044 205.45 79.812" stroke="black" stroke-width="3" stroke-linecap="round" stroke-linejoin="round"/>
<path d="M272.529 91.794C274.022 87.3437 271.631 79.0163 266.377 79.116C261.826 77.6515 257.4 82.3695 256.575 84.5575C255.046 88.6095 257.556 91.7699 260.455 94.153C262.317 95.6827 264.103 97.4129 266.696 96.9788C269.338 96.5365 271.694 94.2797 272.529 91.794Z" stroke="black" stroke-width="3" stroke-linecap="round" stroke-linejoin="round"/>
<path d="M288.587 142.894C292.04 145.366 296.734 149.276 299.87 152.88C306.915 160.975 309.924 169.507 310.015 180.301C310.251 208.331 266.501 219.154 246.555 216.803C232.291 215.122 218.035 211.964 204.76 206.201C195.325 202.106 186.027 195.07 183.955 183.895C181.609 171.237 187.5 164.5 191.422 153.892" stroke="black" stroke-width="3" stroke-linecap="round" stroke-linejoin="round"/>
<path d="M265.409 137.499C254.378 131.201 242.083 123.561 230.113 119.278C223.942 117.07 217.57 115.148 211.02 114.535C205.058 113.978 197.095 113.064 191.757 116.411C188.608 118.385 186.1 121.944 185.708 126.427" stroke="black" stroke-width="3" stroke-linecap="round" stroke-linejoin="round"/>
<path d="M234.992 178.793C230.483 191.459 227.628 209.018 227.74 222.263" stroke="black" stroke-width="3" stroke-linecap="round" stroke-linejoin="round"/>
<path d="M201.719 86.2616C200.541 85.2862 197.012 82.4859 191.84 87.7462C186.668 93.0065 195.451 103.527 201.678 96.4628C203.66 94.2136 204.233 88.3423 201.719 86.2616Z" stroke="black" stroke-width="3" stroke-linecap="round" stroke-linejoin="round"/>
<path d="M192.695 184.256L180.293 211.278" stroke="black" stroke-width="3" stroke-linecap="round" stroke-linejoin="round"/>
<path d="M294.469 188.59L303.171 219.013" stroke="black" stroke-width="3" stroke-linecap="round" stroke-linejoin="round"/>
<path d="M215 177.5C209.5 185 198.942 205.579 199 212.5" stroke="black" stroke-width="3" stroke-linecap="round" stroke-linejoin="round"/>
<path d="M317.141 55.1597C318.697 53.5308 320.528 54.463 321.214 56.0064C321.77 57.2548 320.943 57.7903 321.036 57.0576C321.317 54.8373 322.259 56.7136 321.866 57.0189C321.046 57.6562 320.725 56.2664 321.319 56.0285" stroke="black" stroke-width="3" stroke-linecap="round" stroke-linejoin="round"/>
<path d="M320.445 56.8982C320.445 57.1852 321.128 58.0514 320.697 58.3138C319.672 58.9382 318.37 57.8918 317.767 57.1398C316.43 55.4702 321.295 54.5766 320.964 57.2224" stroke="black" stroke-width="3" stroke-linecap="round" stroke-linejoin="round"/>
<path d="M321.062 57.2828C321.062 58.6679 327.867 55.7706 327.867 53.8085C327.867 51.9563 325.588 51.1904 324.124 50.8376C321.396 50.1803 320.604 52.2245 320.604 54.542" stroke="black" stroke-width="3" stroke-linecap="round" stroke-linejoin="round"/>
<path d="M317.731 55.9989C319.156 55.8607 316.184 45.6869 312.294 50.1161C309.381 53.4335 313.214 55.9189 316.666 56.06" stroke="black" stroke-width="3" stroke-linecap="round" stroke-linejoin="round"/>
<path d="M314.488 222.32L313.932 231.795" stroke="black" stroke-width="3" stroke-linecap="round"/>
<path d="M34.5567 204.085C47.4218 204.84 59.6781 206.732 72.3905 208.187C89.7645 210.175 106.836 207.361 124.154 208.378C150.55 209.928 176.945 211.477 203.341 213.027C214.237 213.667 224.953 214.393 235.713 215.841C246.875 217.344 258.456 219.164 269.559 219.816C283.992 220.664 298.812 220.567 313.021 221.401" stroke="black" stroke-width="3" stroke-linecap="round"/>
<path d="M34.8536 216.122C47.7187 216.877 59.975 218.769 72.6874 220.224C90.0614 222.212 107.133 219.398 124.451 220.415C150.847 221.965 177.242 223.515 203.638 225.064C214.534 225.704 225.25 226.43 236.01 227.878C247.172 229.381 258.753 231.202 269.856 231.853C284.289 232.701 299.109 232.604 313.317 233.438" stroke="black" stroke-width="3" stroke-linecap="round"/>
<path d="M34.7969 203.961L34.1721 214.603" stroke="black" stroke-width="3" stroke-linecap="round"/>
<path d="M46.2234 47.7266C46.4005 47.7266 46.5255 47.7682 46.5984 47.8516C46.6766 47.9297 46.7156 48.0651 46.7156 48.2578C46.7156 48.4505 46.6766 48.5885 46.5984 48.6719C46.5255 48.75 46.4005 48.7891 46.2234 48.7891H44.2234V55.9375H46.3797C46.5568 55.9375 46.6818 55.9792 46.7547 56.0625C46.8328 56.1406 46.8719 56.276 46.8719 56.4688C46.8719 56.6615 46.8328 56.7995 46.7547 56.8828C46.6818 56.9609 46.5568 57 46.3797 57H40.8953C40.7182 57 40.5906 56.9609 40.5125 56.8828C40.4396 56.7995 40.4031 56.6615 40.4031 56.4688C40.4031 56.276 40.4396 56.1406 40.5125 56.0625C40.5906 55.9792 40.7182 55.9375 40.8953 55.9375H43.0516V48.7891H41.0516C40.8745 48.7891 40.7469 48.75 40.6687 48.6719C40.5958 48.5885 40.5594 48.4505 40.5594 48.2578C40.5594 48.0651 40.5958 47.9297 40.6687 47.8516C40.7469 47.7682 40.8745 47.7266 41.0516 47.7266H46.2234ZM55.2266 47.0859C55.3151 47.0859 55.3828 47.1094 55.4297 47.1562C55.4818 47.2031 55.5078 47.2656 55.5078 47.3438C55.5078 47.4062 55.487 47.4844 55.4453 47.5781L53.7266 51.0859C53.6172 51.3099 53.4245 51.4219 53.1484 51.4219C52.9974 51.4219 52.875 51.3854 52.7812 51.3125C52.6927 51.2396 52.6484 51.1406 52.6484 51.0156C52.6484 50.9896 52.6536 50.9453 52.6641 50.8828L53.4531 47.3984C53.5 47.1901 53.6354 47.0859 53.8594 47.0859H55.2266ZM68.9328 55.9375C69.1099 55.9375 69.2349 55.9792 69.3078 56.0625C69.3859 56.1406 69.425 56.276 69.425 56.4688C69.425 56.6615 69.3859 56.7995 69.3078 56.8828C69.2349 56.9609 69.1099 57 68.9328 57H67.7687C67.5917 57 67.4641 56.9609 67.3859 56.8828C67.313 56.7995 67.2766 56.6615 67.2766 56.4688V51.8438C67.2766 51.4844 67.2167 51.2161 67.0969 51.0391C66.9823 50.8568 66.7948 50.7656 66.5344 50.7656C66.2896 50.7656 66.063 50.8802 65.8547 51.1094C65.6463 51.3333 65.4797 51.6484 65.3547 52.0547C65.2349 52.4557 65.175 52.9141 65.175 53.4297V55.9375H65.6203C65.7974 55.9375 65.9224 55.9792 65.9953 56.0625C66.0734 56.1406 66.1125 56.276 66.1125 56.4688C66.1125 56.6615 66.0734 56.7995 65.9953 56.8828C65.9224 56.9609 65.7974 57 65.6203 57H64.4953C64.3182 57 64.1906 56.9609 64.1125 56.8828C64.0396 56.7995 64.0031 56.6615 64.0031 56.4688V51.8438C64.0031 51.4844 63.9432 51.2161 63.8234 51.0391C63.7088 50.8568 63.5213 50.7656 63.2609 50.7656C63.0161 50.7656 62.7896 50.8802 62.5812 51.1094C62.3729 51.3333 62.2062 51.6484 62.0812 52.0547C61.9615 52.4557 61.9016 52.9141 61.9016 53.4297V55.9375H62.3078C62.4849 55.9375 62.6099 55.9792 62.6828 56.0625C62.7609 56.1406 62.8 56.276 62.8 56.4688C62.8 56.6615 62.7609 56.7995 62.6828 56.8828C62.6099 56.9609 62.4849 57 62.3078 57H60.0891C59.912 57 59.7844 56.9609 59.7062 56.8828C59.6333 56.7995 59.5969 56.6615 59.5969 56.4688C59.5969 56.276 59.6333 56.1406 59.7062 56.0625C59.7844 55.9792 59.912 55.9375 60.0891 55.9375H60.7297V50.8438H60.0891C59.912 50.8438 59.7844 50.8047 59.7062 50.7266C59.6333 50.6432 59.5969 50.5052 59.5969 50.3125C59.5969 50.1198 59.6333 49.9844 59.7062 49.9062C59.7844 49.8229 59.912 49.7812 60.0891 49.7812H61.2531C61.4302 49.7812 61.5552 49.8229 61.6281 49.9062C61.7062 49.9844 61.7453 50.1198 61.7453 50.3125V51.0859C61.9693 50.5964 62.2375 50.2292 62.55 49.9844C62.8625 49.7344 63.201 49.6094 63.5656 49.6094C63.9198 49.6094 64.2297 49.7292 64.4953 49.9688C64.7609 50.2083 64.9406 50.5599 65.0344 51.0234C65.4979 50.0807 66.0969 49.6094 66.8312 49.6094C67.1385 49.6094 67.412 49.6875 67.6516 49.8438C67.8963 49.9948 68.0891 50.2292 68.2297 50.5469C68.3755 50.8594 68.4484 51.2448 68.4484 51.7031V55.9375H68.9328ZM85.4937 49.7812C85.6708 49.7812 85.7958 49.8229 85.8687 49.9062C85.9469 49.9844 85.9859 50.1198 85.9859 50.3125V55.9375H88.4937C88.6708 55.9375 88.7958 55.9792 88.8687 56.0625C88.9469 56.1406 88.9859 56.276 88.9859 56.4688C88.9859 56.6615 88.9469 56.7995 88.8687 56.8828C88.7958 56.9609 88.6708 57 88.4937 57H82.3687C82.1917 57 82.0641 56.9609 81.9859 56.8828C81.913 56.7995 81.8766 56.6615 81.8766 56.4688C81.8766 56.276 81.913 56.1406 81.9859 56.0625C82.0641 55.9792 82.1917 55.9375 82.3687 55.9375H84.8141V50.8438H82.8375C82.6604 50.8438 82.5328 50.8047 82.4547 50.7266C82.3818 50.6432 82.3453 50.5052 82.3453 50.3125C82.3453 50.1198 82.3818 49.9844 82.4547 49.9062C82.5328 49.8229 82.6604 49.7812 82.8375 49.7812H85.4937ZM85.2437 46.3516C85.5302 46.3516 85.7255 46.3906 85.8297 46.4688C85.9338 46.5417 85.9859 46.6719 85.9859 46.8594V47.875C85.9859 48.0625 85.9338 48.1953 85.8297 48.2734C85.7255 48.3464 85.5302 48.3828 85.2437 48.3828C84.9573 48.3828 84.762 48.3464 84.6578 48.2734C84.5536 48.1953 84.5016 48.0625 84.5016 47.875V46.8594C84.5016 46.6719 84.5536 46.5417 84.6578 46.4688C84.762 46.3906 84.9573 46.3516 85.2437 46.3516ZM96.4891 49.6094C96.963 49.6094 97.3745 49.7135 97.7234 49.9219C98.0724 50.125 98.3406 50.4193 98.5281 50.8047C98.7156 51.1901 98.8094 51.6406 98.8094 52.1562V55.9375H99.45C99.6271 55.9375 99.7521 55.9792 99.825 56.0625C99.9031 56.1406 99.9422 56.276 99.9422 56.4688C99.9422 56.6615 99.9031 56.7995 99.825 56.8828C99.7521 56.9609 99.6271 57 99.45 57H96.9187C96.7417 57 96.6141 56.9609 96.5359 56.8828C96.463 56.7995 96.4266 56.6615 96.4266 56.4688C96.4266 56.276 96.463 56.1406 96.5359 56.0625C96.6141 55.9792 96.7417 55.9375 96.9187 55.9375H97.6375V52.2734C97.6375 51.8099 97.5307 51.4427 97.3172 51.1719C97.1036 50.901 96.7885 50.7656 96.3719 50.7656C95.9292 50.7656 95.5151 50.8932 95.1297 51.1484C94.7495 51.4036 94.4448 51.7552 94.2156 52.2031C93.9865 52.651 93.8719 53.151 93.8719 53.7031V55.9375H94.5906C94.7677 55.9375 94.8927 55.9792 94.9656 56.0625C95.0437 56.1406 95.0828 56.276 95.0828 56.4688C95.0828 56.6615 95.0437 56.7995 94.9656 56.8828C94.8927 56.9609 94.7677 57 94.5906 57H92.0594C91.8823 57 91.7547 56.9609 91.6766 56.8828C91.6036 56.7995 91.5672 56.6615 91.5672 56.4688C91.5672 56.276 91.6036 56.1406 91.6766 56.0625C91.7547 55.9792 91.8823 55.9375 92.0594 55.9375H92.7V50.8438H91.9031C91.726 50.8438 91.5984 50.8047 91.5203 50.7266C91.4474 50.6432 91.4109 50.5052 91.4109 50.3125C91.4109 50.1198 91.4474 49.9844 91.5203 49.9062C91.5984 49.8229 91.726 49.7812 91.9031 49.7812H93.3016C93.4786 49.7812 93.6036 49.8229 93.6766 49.9062C93.7547 49.9844 93.7937 50.1198 93.7937 50.3125V51.25C94.1375 50.7188 94.5385 50.3125 94.9969 50.0312C95.4604 49.75 95.9578 49.6094 96.4891 49.6094ZM119.12 46.75C119.297 46.75 119.422 46.7917 119.495 46.875C119.573 46.9531 119.612 47.0885 119.612 47.2812V55.9375H120.253C120.43 55.9375 120.555 55.9792 120.628 56.0625C120.706 56.1406 120.745 56.276 120.745 56.4688C120.745 56.6615 120.706 56.7995 120.628 56.8828C120.555 56.9609 120.43 57 120.253 57H119.011C118.834 57 118.706 56.9609 118.628 56.8828C118.555 56.7995 118.519 56.6615 118.519 56.4688V55.8438C118.191 56.2708 117.81 56.599 117.378 56.8281C116.946 57.0573 116.474 57.1719 115.964 57.1719C115.318 57.1719 114.74 57.0208 114.23 56.7188C113.719 56.4115 113.318 55.974 113.027 55.4062C112.735 54.8333 112.589 54.1615 112.589 53.3906C112.589 52.6198 112.735 51.9505 113.027 51.3828C113.318 50.8099 113.719 50.3724 114.23 50.0703C114.74 49.763 115.318 49.6094 115.964 49.6094C116.943 49.6094 117.769 50.0391 118.441 50.8984V47.8125H117.175C116.998 47.8125 116.87 47.7734 116.792 47.6953C116.719 47.612 116.683 47.474 116.683 47.2812C116.683 47.0885 116.719 46.9531 116.792 46.875C116.87 46.7917 116.998 46.75 117.175 46.75H119.12ZM116.042 50.7656C115.579 50.7656 115.18 50.8776 114.847 51.1016C114.514 51.3203 114.258 51.6276 114.081 52.0234C113.909 52.4193 113.823 52.875 113.823 53.3906C113.823 53.9062 113.909 54.362 114.081 54.7578C114.258 55.1536 114.514 55.4635 114.847 55.6875C115.18 55.9062 115.579 56.0156 116.042 56.0156C116.506 56.0156 116.917 55.9115 117.277 55.7031C117.641 55.4948 117.925 55.1927 118.128 54.7969C118.336 54.401 118.441 53.9323 118.441 53.3906C118.441 52.849 118.336 52.3802 118.128 51.9844C117.925 51.5885 117.641 51.2865 117.277 51.0781C116.917 50.8698 116.506 50.7656 116.042 50.7656ZM126.819 49.6094C127.798 49.6094 128.532 49.8281 129.022 50.2656C129.511 50.7031 129.756 51.3516 129.756 52.2109V55.3203C129.756 55.7318 129.928 55.9375 130.272 55.9375H130.545C130.722 55.9375 130.847 55.9792 130.92 56.0625C130.998 56.1406 131.037 56.276 131.037 56.4688C131.037 56.6615 130.998 56.7995 130.92 56.8828C130.847 56.9609 130.722 57 130.545 57H130.045C129.707 57 129.415 56.9167 129.17 56.75C128.931 56.5781 128.774 56.3281 128.702 56C128.274 56.375 127.811 56.6641 127.311 56.8672C126.816 57.0703 126.29 57.1719 125.733 57.1719C125.207 57.1719 124.741 57.0833 124.334 56.9062C123.933 56.724 123.618 56.4609 123.389 56.1172C123.16 55.7734 123.045 55.3646 123.045 54.8906C123.045 54.0677 123.34 53.4609 123.928 53.0703C124.517 52.6745 125.277 52.4766 126.209 52.4766C127.037 52.4766 127.829 52.6094 128.584 52.875V52.2109C128.584 51.7057 128.441 51.3359 128.155 51.1016C127.873 50.862 127.418 50.7422 126.787 50.7422C126.397 50.7422 125.991 50.7969 125.569 50.9062C125.147 51.0156 124.746 51.1667 124.366 51.3594C124.277 51.4062 124.196 51.4297 124.123 51.4297C123.952 51.4297 123.808 51.3047 123.694 51.0547C123.636 50.9297 123.608 50.8255 123.608 50.7422C123.608 50.5599 123.704 50.4193 123.897 50.3203C124.334 50.0911 124.803 49.9167 125.303 49.7969C125.808 49.6719 126.314 49.6094 126.819 49.6094ZM126.217 53.5781C125.618 53.5781 125.144 53.6823 124.795 53.8906C124.452 54.0938 124.28 54.4193 124.28 54.8672C124.28 55.2474 124.41 55.5443 124.67 55.7578C124.936 55.9661 125.306 56.0703 125.78 56.0703C126.816 56.0703 127.751 55.6406 128.584 54.7812V53.9297C128.23 53.8151 127.85 53.7292 127.444 53.6719C127.037 53.6094 126.629 53.5781 126.217 53.5781ZM138.064 49.6094C138.538 49.6094 138.949 49.7135 139.298 49.9219C139.647 50.125 139.916 50.4193 140.103 50.8047C140.291 51.1901 140.384 51.6406 140.384 52.1562V55.9375H141.025C141.202 55.9375 141.327 55.9792 141.4 56.0625C141.478 56.1406 141.517 56.276 141.517 56.4688C141.517 56.6615 141.478 56.7995 141.4 56.8828C141.327 56.9609 141.202 57 141.025 57H138.494C138.317 57 138.189 56.9609 138.111 56.8828C138.038 56.7995 138.002 56.6615 138.002 56.4688C138.002 56.276 138.038 56.1406 138.111 56.0625C138.189 55.9792 138.317 55.9375 138.494 55.9375H139.212V52.2734C139.212 51.8099 139.106 51.4427 138.892 51.1719C138.679 50.901 138.364 50.7656 137.947 50.7656C137.504 50.7656 137.09 50.8932 136.705 51.1484C136.324 51.4036 136.02 51.7552 135.791 52.2031C135.561 52.651 135.447 53.151 135.447 53.7031V55.9375H136.166C136.343 55.9375 136.468 55.9792 136.541 56.0625C136.619 56.1406 136.658 56.276 136.658 56.4688C136.658 56.6615 136.619 56.7995 136.541 56.8828C136.468 56.9609 136.343 57 136.166 57H133.634C133.457 57 133.33 56.9609 133.252 56.8828C133.179 56.7995 133.142 56.6615 133.142 56.4688C133.142 56.276 133.179 56.1406 133.252 56.0625C133.33 55.9792 133.457 55.9375 133.634 55.9375H134.275V50.8438H133.478C133.301 50.8438 133.173 50.8047 133.095 50.7266C133.022 50.6432 132.986 50.5052 132.986 50.3125C132.986 50.1198 133.022 49.9844 133.095 49.9062C133.173 49.8229 133.301 49.7812 133.478 49.7812H134.877C135.054 49.7812 135.179 49.8229 135.252 49.9062C135.33 49.9844 135.369 50.1198 135.369 50.3125V51.25C135.712 50.7188 136.114 50.3125 136.572 50.0312C137.035 49.75 137.533 49.6094 138.064 49.6094ZM147.145 49.6094C147.656 49.6094 148.127 49.724 148.559 49.9531C148.992 50.1823 149.372 50.5104 149.7 50.9375V50.3125C149.7 50.1198 149.736 49.9844 149.809 49.9062C149.887 49.8229 150.015 49.7812 150.192 49.7812H151.434C151.611 49.7812 151.736 49.8229 151.809 49.9062C151.887 49.9844 151.927 50.1198 151.927 50.3125C151.927 50.5052 151.887 50.6432 151.809 50.7266C151.736 50.8047 151.611 50.8438 151.434 50.8438H150.794V57.2344C150.794 57.8542 150.661 58.3854 150.395 58.8281C150.135 59.276 149.755 59.6172 149.255 59.8516C148.755 60.0859 148.153 60.2031 147.45 60.2031C146.95 60.2031 146.445 60.1589 145.934 60.0703C145.424 59.987 144.947 59.8646 144.505 59.7031C144.302 59.6302 144.2 59.4922 144.2 59.2891C144.2 59.2057 144.221 59.1016 144.262 58.9766C144.356 58.6901 144.505 58.5469 144.708 58.5469C144.765 58.5469 144.822 58.5573 144.88 58.5781C145.286 58.724 145.713 58.8385 146.161 58.9219C146.609 59.0052 147.039 59.0469 147.45 59.0469C148.169 59.0469 148.71 58.875 149.075 58.5312C149.44 58.1927 149.622 57.7266 149.622 57.1328V55.5625C148.976 56.375 148.151 56.7812 147.145 56.7812C146.499 56.7812 145.921 56.638 145.411 56.3516C144.901 56.0599 144.499 55.6432 144.208 55.1016C143.916 54.5599 143.77 53.9245 143.77 53.1953C143.77 52.4661 143.916 51.8307 144.208 51.2891C144.499 50.7474 144.901 50.3333 145.411 50.0469C145.921 49.7552 146.499 49.6094 147.145 49.6094ZM147.223 50.7656C146.76 50.7656 146.361 50.8698 146.028 51.0781C145.695 51.2812 145.44 51.5677 145.262 51.9375C145.091 52.3021 145.005 52.7214 145.005 53.1953C145.005 53.6693 145.091 54.0911 145.262 54.4609C145.44 54.8255 145.695 55.112 146.028 55.3203C146.361 55.5234 146.76 55.625 147.223 55.625C147.687 55.625 148.098 55.5286 148.458 55.3359C148.822 55.1432 149.106 54.8646 149.309 54.5C149.518 54.1302 149.622 53.6953 149.622 53.1953C149.622 52.6953 149.518 52.263 149.309 51.8984C149.106 51.5286 148.822 51.2474 148.458 51.0547C148.098 50.862 147.687 50.7656 147.223 50.7656ZM158.039 49.6094C158.794 49.6094 159.438 49.763 159.969 50.0703C160.505 50.3724 160.917 50.7943 161.203 51.3359C161.49 51.8724 161.654 52.4922 161.695 53.1953C161.695 53.3724 161.656 53.4974 161.578 53.5703C161.505 53.6432 161.38 53.6797 161.203 53.6797H155.547C155.583 54.4557 155.812 55.0443 156.234 55.4453C156.661 55.8411 157.263 56.0391 158.039 56.0391C158.518 56.0391 158.992 55.9792 159.461 55.8594C159.93 55.7344 160.341 55.5703 160.695 55.3672C160.784 55.3203 160.865 55.2969 160.938 55.2969C161.12 55.2969 161.268 55.4349 161.383 55.7109C161.43 55.8203 161.453 55.9193 161.453 56.0078C161.453 56.2161 161.339 56.3776 161.109 56.4922C160.708 56.6953 160.234 56.8594 159.688 56.9844C159.141 57.1094 158.591 57.1719 158.039 57.1719C157.253 57.1719 156.581 57.0208 156.023 56.7188C155.466 56.4167 155.042 55.9818 154.75 55.4141C154.458 54.8464 154.312 54.1719 154.312 53.3906C154.312 52.6458 154.471 51.987 154.789 51.4141C155.107 50.8411 155.547 50.3984 156.109 50.0859C156.672 49.7682 157.315 49.6094 158.039 49.6094ZM158.039 50.7422C157.398 50.7422 156.867 50.9062 156.445 51.2344C156.029 51.5573 155.755 52.0078 155.625 52.5859H160.398C160.289 51.987 160.036 51.5312 159.641 51.2188C159.25 50.901 158.716 50.7422 158.039 50.7422ZM170.753 49.6094C171.159 49.6094 171.54 49.7135 171.894 49.9219C172.102 50.0469 172.206 50.2083 172.206 50.4062C172.206 50.5 172.183 50.6094 172.136 50.7344C172.027 51.0312 171.876 51.1797 171.683 51.1797C171.605 51.1797 171.532 51.1589 171.464 51.1172C171.209 50.9766 170.935 50.9062 170.644 50.9062C170.175 50.9062 169.704 51.0703 169.23 51.3984C168.756 51.7214 168.365 52.1536 168.058 52.6953C167.756 53.237 167.605 53.8125 167.605 54.4219V55.9375H170.237C170.415 55.9375 170.54 55.9792 170.612 56.0625C170.691 56.1406 170.73 56.276 170.73 56.4688C170.73 56.6615 170.691 56.7995 170.612 56.8828C170.54 56.9609 170.415 57 170.237 57H165.206C165.029 57 164.902 56.9609 164.823 56.8828C164.751 56.7995 164.714 56.6615 164.714 56.4688C164.714 56.276 164.751 56.1406 164.823 56.0625C164.902 55.9792 165.029 55.9375 165.206 55.9375H166.433V50.8438H165.441C165.264 50.8438 165.136 50.8047 165.058 50.7266C164.985 50.6432 164.948 50.5052 164.948 50.3125C164.948 50.1198 164.985 49.9844 165.058 49.9062C165.136 49.8229 165.264 49.7812 165.441 49.7812H167.034C167.211 49.7812 167.336 49.8229 167.409 49.9062C167.487 49.9844 167.527 50.1198 167.527 50.3125V51.8906C167.777 51.4323 168.079 51.0312 168.433 50.6875C168.787 50.3438 169.165 50.0781 169.566 49.8906C169.967 49.7031 170.362 49.6094 170.753 49.6094Z" fill="black"/>
<path d="M113.325 79C109.851 79 106.377 79 102.903 79C97.2497 79 91.6927 78.1425 86.0712 78.063C75.3203 77.9112 64.3711 79.1307 53.8709 76.4234C50.6365 75.5894 47.45 74.407 44.2814 73.3782C40.6108 72.1865 37.3448 71.1113 34.2882 68.5893C32.3249 66.9695 29.7335 63.9833 28.6102 61.6663C27.494 59.3638 27.6644 56.0174 27.4494 53.4679C27.0469 48.694 25.8817 45.3453 30.2001 42.4586C36.3234 38.3653 43.9356 34.8748 51.1202 33.3493C55.3072 32.4602 59.4804 31.8648 63.7127 31.3192C66.0051 31.0236 68.3341 31.4066 70.6272 31.111C73.3098 30.7651 75.7176 30.3069 78.4501 30.2781C93.2401 30.1225 108.06 28.548 122.839 27.9617C140.577 27.2581 160.649 25.029 177.726 31.3192C179.635 32.0222 180.891 33.131 182.571 34.2342C183.991 35.1659 186.049 35.6596 187.114 37.0711C189.364 40.0554 191 43.0658 191 47.1434C191 52.1618 189.277 53.2495 185.776 56.3048C180.151 61.214 173.933 64.3769 167.38 67.7565C159.132 72.0097 150.863 76.0038 141.968 78.2973C139.903 78.8297 137.598 78.483 135.482 78.5315C132.34 78.6035 129.217 79 126.044 79" stroke="black" stroke-width="3" stroke-linecap="round"/>
<path d="M113.883 77.2637C113.883 85.2103 120.787 87.6384 126.571 91.2804C131.739 94.5343 137.566 94.9907 143.565 94.9907" stroke="black" stroke-width="3" stroke-linecap="round"/>
<path d="M125 79C125 83.8248 125.131 87.9064 131.263 90.4988C134.839 92.0105 138.501 93.6687 142 95" stroke="black" stroke-width="3" stroke-linecap="round"/>

  </g>
  <animate xlink:href="#group1" attributeName="display" from="inline" to="none" dur="1s" begin="0s" repeatCount="indefinite" />
  <animate xlink:href="#group2" attributeName="display" from="none" to="inline" dur="1s" begin="0s" repeatCount="indefinite" />
</svg>