<svg width="359" height="240" viewBox="0 0 359 240" fill="none" xmlns="http://www.w3.org/2000/svg" xmlns:xlink="http://www.w3.org/1999/xlink">
  <g id="group1">
<path d="M289.744 96.7354C289.316 91.4181 285.985 83.3999 279.094 81.5848C272.204 79.7698 268.756 85.958 266.798 88.349C262.622 93.4467 264.617 103.899 270.147 107.091C278.368 111.835 290.595 107.334 289.744 96.7354Z" stroke="black" stroke-width="3" stroke-linecap="round" stroke-linejoin="round"/>
<path d="M299.723 141.51C299.317 136.459 298.003 122.462 297.247 119.918C295.148 112.855 292.183 109.769 288.578 103.63" stroke="black" stroke-width="3" stroke-linecap="round" stroke-linejoin="round"/>
<path d="M265.544 88.9873C258.444 85.5643 245.452 82.05 237.96 85.3251C228.295 89.5503 218.091 97.7468 215.447 108.264C213.844 114.641 213.326 120.907 212.646 127.423C212.326 130.489 211.87 133.511 211.655 136.59C211.583 137.621 211.396 142.452 211.544 142.2" stroke="black" stroke-width="3" stroke-linecap="round" stroke-linejoin="round"/>
<path d="M226.79 91.5858C230.027 91.8121 223.937 87.2491 223.569 87.0644C218.323 84.4294 215.237 84.0577 210.249 87.0964C202.641 91.7316 205.144 106.542 214.632 107.206" stroke="black" stroke-width="3" stroke-linecap="round" stroke-linejoin="round"/>
<path d="M288.323 100.102C284.65 105.359 276.187 99.0962 278.925 92.7547C282.965 83.3954 292.779 93.7241 288.323 100.102Z" stroke="black" stroke-width="3" stroke-linecap="round" stroke-linejoin="round"/>
<path d="M217.464 95.65C219.1 93.3504 221.654 85.9186 210.798 86.662C205.808 90.324 207.107 94.9215 210.084 96.8646C211.999 98.1142 215.798 97.9915 217.464 95.65Z" stroke="black" stroke-width="3" stroke-linecap="round" stroke-linejoin="round"/>
<path d="M300.084 142.026C303.808 145.994 309.217 152.917 312.298 157.331C318.839 166.703 319.231 180.991 313.797 190.68C307.923 201.154 301.377 207.162 289.432 211.741C274.586 217.432 261.417 215.908 246.245 213.808C226.969 211.14 196.625 199.238 193.911 177.978C191.743 160.992 200.663 154.04 211.722 142.418" stroke="black" stroke-width="3" stroke-linecap="round" stroke-linejoin="round"/>
<path d="M234.609 67.0247C237.269 65.4275 239.935 53.6155 234.463 53.2329C230.519 52.3065 233.975 60.2143 234.609 67.026" stroke="black" stroke-width="3" stroke-linecap="round" stroke-linejoin="round"/>
<path d="M223.597 62.8105C223.664 61.863 223.829 59.5044 220.903 60.8029" stroke="black" stroke-width="3" stroke-linecap="round" stroke-linejoin="round"/>
<path d="M312.756 110.624C316.58 110.891 324.058 114.403 323.681 118.835C323.475 121.247 320.734 121.776 319.296 120.144C317.084 117.636 316.082 114.356 313.819 111.811" stroke="black" stroke-width="3" stroke-linecap="round" stroke-linejoin="round"/>
<path d="M302.497 191.314L305.209 214.996" stroke="black" stroke-width="3" stroke-linecap="round" stroke-linejoin="round"/>
<path d="M200.977 195.242L186.161 210.484" stroke="black" stroke-width="3" stroke-linecap="round" stroke-linejoin="round"/>
<path d="M250.215 121.166C248.933 122.949 242.97 121.087 240.224 121.364C236.558 121.733 233.132 126.41 229.369 123.78C228.386 123.093 228.868 121.529 229.58 120.618C232.816 116.485 245.403 115.512 249.341 117.678C250.742 118.448 251.14 119.881 250.215 121.166Z" stroke="black" stroke-width="3" stroke-linecap="round" stroke-linejoin="round"/>
<path d="M224.109 179.818C223.571 181.786 210.289 206.896 204.715 219.705" stroke="black" stroke-width="3" stroke-linecap="round" stroke-linejoin="round"/>
<path d="M240.281 178.871C239.782 186.007 233.558 208.12 230.508 218.285" stroke="black" stroke-width="3" stroke-linecap="round" stroke-linejoin="round"/>
<path d="M297.141 32.1597C298.697 30.5308 300.528 31.463 301.214 33.0064C301.77 34.2548 300.943 34.7903 301.036 34.0576C301.317 31.8373 302.259 33.7136 301.866 34.0189C301.046 34.6562 300.725 33.2664 301.319 33.0285" stroke="black" stroke-width="3" stroke-linecap="round" stroke-linejoin="round"/>
<path d="M300.445 33.8982C300.445 34.1852 301.128 35.0514 300.697 35.3138C299.672 35.9382 298.37 34.8918 297.767 34.1398C296.43 32.4702 301.295 31.5766 300.964 34.2224" stroke="black" stroke-width="3" stroke-linecap="round" stroke-linejoin="round"/>
<path d="M301.062 34.2828C301.062 35.6679 307.867 32.7706 307.867 30.8085C307.867 28.9563 305.588 28.1904 304.124 27.8376C301.396 27.1803 300.604 29.2245 300.604 31.542" stroke="black" stroke-width="3" stroke-linecap="round" stroke-linejoin="round"/>
<path d="M297.731 32.9989C299.156 32.8607 296.184 22.6869 292.294 27.1161C289.381 30.4335 293.214 32.9189 296.666 33.06" stroke="black" stroke-width="3" stroke-linecap="round" stroke-linejoin="round"/>
<path d="M72.0828 49.6094C72.2964 49.6094 72.4474 49.6484 72.5359 49.7266C72.6245 49.8047 72.6687 49.9349 72.6687 50.1172V51.6016C72.6687 51.7839 72.6245 51.9141 72.5359 51.9922C72.4474 52.0703 72.2964 52.1094 72.0828 52.1094C71.9057 52.1094 71.7807 52.0417 71.7078 51.9062C71.4839 51.4792 71.1583 51.1797 70.7312 51.0078C70.3042 50.8307 69.7625 50.7422 69.1062 50.7422C68.601 50.7422 68.2052 50.8333 67.9187 51.0156C67.6375 51.1927 67.4969 51.4427 67.4969 51.7656C67.4969 51.9323 67.549 52.0677 67.6531 52.1719C67.7625 52.276 67.9214 52.362 68.1297 52.4297C68.3016 52.487 68.4995 52.5312 68.7234 52.5625C68.9526 52.5938 69.2469 52.6276 69.6062 52.6641C70.1115 52.7214 70.5177 52.776 70.825 52.8281C71.1375 52.875 71.4318 52.9479 71.7078 53.0469C72.1245 53.1979 72.4474 53.4167 72.6766 53.7031C72.9109 53.9896 73.0281 54.3672 73.0281 54.8359C73.0281 55.3047 72.9083 55.7161 72.6687 56.0703C72.4344 56.4193 72.088 56.6901 71.6297 56.8828C71.1766 57.0755 70.6323 57.1719 69.9969 57.1719C69.4344 57.1719 68.9396 57.0938 68.5125 56.9375C68.0854 56.7812 67.713 56.5443 67.3953 56.2266V56.6641C67.3953 56.8464 67.351 56.9766 67.2625 57.0547C67.174 57.1328 67.0229 57.1719 66.8094 57.1719C66.5958 57.1719 66.4448 57.1328 66.3562 57.0547C66.2677 56.9766 66.2234 56.8464 66.2234 56.6641V54.7891C66.2234 54.6068 66.2677 54.4766 66.3562 54.3984C66.4448 54.3203 66.5958 54.2812 66.8094 54.2812C66.9187 54.2812 67.0047 54.3073 67.0672 54.3594C67.1297 54.4062 67.1844 54.487 67.2312 54.6016C67.4187 55.1016 67.7312 55.4661 68.1687 55.6953C68.6062 55.9245 69.1896 56.0391 69.9187 56.0391C70.5229 56.0391 70.9865 55.9297 71.3094 55.7109C71.6323 55.4922 71.7937 55.2005 71.7937 54.8359C71.7937 54.6589 71.7365 54.513 71.6219 54.3984C71.5073 54.2839 71.3432 54.1901 71.1297 54.1172C70.9474 54.0599 70.7365 54.013 70.4969 53.9766C70.2625 53.9349 69.963 53.8958 69.5984 53.8594C69.1089 53.8073 68.7 53.7526 68.3719 53.6953C68.0437 53.638 67.7417 53.5547 67.4656 53.4453C67.0854 53.2943 66.7885 53.0859 66.575 52.8203C66.3667 52.5495 66.2625 52.1979 66.2625 51.7656C66.2625 51.3125 66.3797 50.9245 66.6141 50.6016C66.8536 50.2734 67.1818 50.026 67.5984 49.8594C68.0203 49.6927 68.4969 49.6094 69.0281 49.6094C69.5333 49.6094 69.9943 49.6849 70.4109 49.8359C70.8328 49.987 71.1948 50.1979 71.4969 50.4688V50.1172C71.4969 49.9349 71.5411 49.8047 71.6297 49.7266C71.7182 49.6484 71.8693 49.6094 72.0828 49.6094ZM80.0469 49.6094C81.026 49.6094 81.7604 49.8281 82.25 50.2656C82.7396 50.7031 82.9844 51.3516 82.9844 52.2109V55.3203C82.9844 55.7318 83.1562 55.9375 83.5 55.9375H83.7734C83.9505 55.9375 84.0755 55.9792 84.1484 56.0625C84.2266 56.1406 84.2656 56.276 84.2656 56.4688C84.2656 56.6615 84.2266 56.7995 84.1484 56.8828C84.0755 56.9609 83.9505 57 83.7734 57H83.2734C82.9349 57 82.6432 56.9167 82.3984 56.75C82.1589 56.5781 82.0026 56.3281 81.9297 56C81.5026 56.375 81.0391 56.6641 80.5391 56.8672C80.0443 57.0703 79.5182 57.1719 78.9609 57.1719C78.4349 57.1719 77.9688 57.0833 77.5625 56.9062C77.1615 56.724 76.8464 56.4609 76.6172 56.1172C76.388 55.7734 76.2734 55.3646 76.2734 54.8906C76.2734 54.0677 76.5677 53.4609 77.1562 53.0703C77.7448 52.6745 78.5052 52.4766 79.4375 52.4766C80.2656 52.4766 81.0573 52.6094 81.8125 52.875V52.2109C81.8125 51.7057 81.6693 51.3359 81.3828 51.1016C81.1016 50.862 80.6458 50.7422 80.0156 50.7422C79.625 50.7422 79.2188 50.7969 78.7969 50.9062C78.375 51.0156 77.974 51.1667 77.5938 51.3594C77.5052 51.4062 77.4245 51.4297 77.3516 51.4297C77.1797 51.4297 77.0365 51.3047 76.9219 51.0547C76.8646 50.9297 76.8359 50.8255 76.8359 50.7422C76.8359 50.5599 76.9323 50.4193 77.125 50.3203C77.5625 50.0911 78.0312 49.9167 78.5312 49.7969C79.0365 49.6719 79.5417 49.6094 80.0469 49.6094ZM79.4453 53.5781C78.8464 53.5781 78.3724 53.6823 78.0234 53.8906C77.6797 54.0938 77.5078 54.4193 77.5078 54.8672C77.5078 55.2474 77.638 55.5443 77.8984 55.7578C78.1641 55.9661 78.5339 56.0703 79.0078 56.0703C80.0443 56.0703 80.9792 55.6406 81.8125 54.7812V53.9297C81.4583 53.8151 81.0781 53.7292 80.6719 53.6719C80.2656 53.6094 79.8568 53.5781 79.4453 53.5781ZM94.3234 49.7812C94.5005 49.7812 94.6255 49.8229 94.6984 49.9062C94.7766 49.9844 94.8156 50.1198 94.8156 50.3125C94.8156 50.5052 94.7766 50.6432 94.6984 50.7266C94.6255 50.8047 94.5005 50.8438 94.3234 50.8438H93.8312L91.3078 56.6641C91.2349 56.8411 91.1255 56.9688 90.9797 57.0469C90.8391 57.1302 90.6411 57.1719 90.3859 57.1719C90.1359 57.1719 89.9406 57.1302 89.8 57.0469C89.6646 56.9688 89.5578 56.8411 89.4797 56.6641L86.9797 50.8438H86.4953C86.3182 50.8438 86.1906 50.8047 86.1125 50.7266C86.0396 50.6432 86.0031 50.5052 86.0031 50.3125C86.0031 50.1198 86.0396 49.9844 86.1125 49.9062C86.1906 49.8229 86.3182 49.7812 86.4953 49.7812H89.2609C89.438 49.7812 89.563 49.8229 89.6359 49.9062C89.7141 49.9844 89.7531 50.1198 89.7531 50.3125C89.7531 50.5052 89.7141 50.6432 89.6359 50.7266C89.563 50.8047 89.438 50.8438 89.2609 50.8438H88.2609L90.3937 55.9375L92.55 50.8438H91.8703C91.6932 50.8438 91.5656 50.8047 91.4875 50.7266C91.4146 50.6432 91.3781 50.5052 91.3781 50.3125C91.3781 50.1198 91.4146 49.9844 91.4875 49.9062C91.5656 49.8229 91.6932 49.7812 91.8703 49.7812H94.3234ZM100.873 49.6094C101.629 49.6094 102.272 49.763 102.803 50.0703C103.34 50.3724 103.751 50.7943 104.037 51.3359C104.324 51.8724 104.488 52.4922 104.53 53.1953C104.53 53.3724 104.491 53.4974 104.412 53.5703C104.34 53.6432 104.215 53.6797 104.037 53.6797H98.3812C98.4177 54.4557 98.6469 55.0443 99.0687 55.4453C99.4958 55.8411 100.097 56.0391 100.873 56.0391C101.353 56.0391 101.827 55.9792 102.295 55.8594C102.764 55.7344 103.176 55.5703 103.53 55.3672C103.618 55.3203 103.699 55.2969 103.772 55.2969C103.954 55.2969 104.103 55.4349 104.217 55.7109C104.264 55.8203 104.287 55.9193 104.287 56.0078C104.287 56.2161 104.173 56.3776 103.944 56.4922C103.543 56.6953 103.069 56.8594 102.522 56.9844C101.975 57.1094 101.426 57.1719 100.873 57.1719C100.087 57.1719 99.4151 57.0208 98.8578 56.7188C98.3005 56.4167 97.876 55.9818 97.5844 55.4141C97.2927 54.8464 97.1469 54.1719 97.1469 53.3906C97.1469 52.6458 97.3057 51.987 97.6234 51.4141C97.9411 50.8411 98.3812 50.3984 98.9437 50.0859C99.5062 49.7682 100.149 49.6094 100.873 49.6094ZM100.873 50.7422C100.233 50.7422 99.7016 50.9062 99.2797 51.2344C98.863 51.5573 98.5896 52.0078 98.4594 52.5859H103.233C103.123 51.987 102.871 51.5312 102.475 51.2188C102.084 50.901 101.551 50.7422 100.873 50.7422ZM126.098 55.9375C126.276 55.9375 126.401 55.9792 126.473 56.0625C126.552 56.1406 126.591 56.276 126.591 56.4688C126.591 56.6615 126.552 56.7995 126.473 56.8828C126.401 56.9609 126.276 57 126.098 57H124.934C124.757 57 124.63 56.9609 124.552 56.8828C124.479 56.7995 124.442 56.6615 124.442 56.4688V51.8438C124.442 51.4844 124.382 51.2161 124.262 51.0391C124.148 50.8568 123.96 50.7656 123.7 50.7656C123.455 50.7656 123.229 50.8802 123.02 51.1094C122.812 51.3333 122.645 51.6484 122.52 52.0547C122.401 52.4557 122.341 52.9141 122.341 53.4297V55.9375H122.786C122.963 55.9375 123.088 55.9792 123.161 56.0625C123.239 56.1406 123.278 56.276 123.278 56.4688C123.278 56.6615 123.239 56.7995 123.161 56.8828C123.088 56.9609 122.963 57 122.786 57H121.661C121.484 57 121.356 56.9609 121.278 56.8828C121.205 56.7995 121.169 56.6615 121.169 56.4688V51.8438C121.169 51.4844 121.109 51.2161 120.989 51.0391C120.874 50.8568 120.687 50.7656 120.427 50.7656C120.182 50.7656 119.955 50.8802 119.747 51.1094C119.539 51.3333 119.372 51.6484 119.247 52.0547C119.127 52.4557 119.067 52.9141 119.067 53.4297V55.9375H119.473C119.651 55.9375 119.776 55.9792 119.848 56.0625C119.927 56.1406 119.966 56.276 119.966 56.4688C119.966 56.6615 119.927 56.7995 119.848 56.8828C119.776 56.9609 119.651 57 119.473 57H117.255C117.078 57 116.95 56.9609 116.872 56.8828C116.799 56.7995 116.762 56.6615 116.762 56.4688C116.762 56.276 116.799 56.1406 116.872 56.0625C116.95 55.9792 117.078 55.9375 117.255 55.9375H117.895V50.8438H117.255C117.078 50.8438 116.95 50.8047 116.872 50.7266C116.799 50.6432 116.762 50.5052 116.762 50.3125C116.762 50.1198 116.799 49.9844 116.872 49.9062C116.95 49.8229 117.078 49.7812 117.255 49.7812H118.419C118.596 49.7812 118.721 49.8229 118.794 49.9062C118.872 49.9844 118.911 50.1198 118.911 50.3125V51.0859C119.135 50.5964 119.403 50.2292 119.716 49.9844C120.028 49.7344 120.367 49.6094 120.731 49.6094C121.085 49.6094 121.395 49.7292 121.661 49.9688C121.927 50.2083 122.106 50.5599 122.2 51.0234C122.664 50.0807 123.262 49.6094 123.997 49.6094C124.304 49.6094 124.578 49.6875 124.817 49.8438C125.062 49.9948 125.255 50.2292 125.395 50.5469C125.541 50.8594 125.614 51.2448 125.614 51.7031V55.9375H126.098ZM132.055 49.6094C132.81 49.6094 133.453 49.763 133.984 50.0703C134.521 50.3724 134.932 50.7943 135.219 51.3359C135.505 51.8724 135.669 52.4922 135.711 53.1953C135.711 53.3724 135.672 53.4974 135.594 53.5703C135.521 53.6432 135.396 53.6797 135.219 53.6797H129.562C129.599 54.4557 129.828 55.0443 130.25 55.4453C130.677 55.8411 131.279 56.0391 132.055 56.0391C132.534 56.0391 133.008 55.9792 133.477 55.8594C133.945 55.7344 134.357 55.5703 134.711 55.3672C134.799 55.3203 134.88 55.2969 134.953 55.2969C135.135 55.2969 135.284 55.4349 135.398 55.7109C135.445 55.8203 135.469 55.9193 135.469 56.0078C135.469 56.2161 135.354 56.3776 135.125 56.4922C134.724 56.6953 134.25 56.8594 133.703 56.9844C133.156 57.1094 132.607 57.1719 132.055 57.1719C131.268 57.1719 130.596 57.0208 130.039 56.7188C129.482 56.4167 129.057 55.9818 128.766 55.4141C128.474 54.8464 128.328 54.1719 128.328 53.3906C128.328 52.6458 128.487 51.987 128.805 51.4141C129.122 50.8411 129.562 50.3984 130.125 50.0859C130.688 49.7682 131.331 49.6094 132.055 49.6094ZM132.055 50.7422C131.414 50.7422 130.883 50.9062 130.461 51.2344C130.044 51.5573 129.771 52.0078 129.641 52.5859H134.414C134.305 51.987 134.052 51.5312 133.656 51.2188C133.266 50.901 132.732 50.7422 132.055 50.7422ZM142.886 47.0859C143.006 47.0859 143.092 47.1172 143.144 47.1797C143.196 47.2422 143.217 47.3411 143.206 47.4766L142.823 53C142.813 53.1198 142.769 53.2135 142.691 53.2812C142.618 53.3438 142.514 53.375 142.378 53.375C142.243 53.375 142.133 53.3438 142.05 53.2812C141.972 53.2135 141.93 53.1198 141.925 53L141.55 47.4766C141.54 47.3411 141.56 47.2422 141.612 47.1797C141.665 47.1172 141.751 47.0859 141.87 47.0859H142.886ZM142.378 54.8906C142.722 54.8906 142.969 54.9297 143.12 55.0078C143.277 55.0807 143.355 55.2057 143.355 55.3828V56.5859C143.355 56.763 143.277 56.8906 143.12 56.9688C142.969 57.0417 142.722 57.0781 142.378 57.0781C142.034 57.0781 141.784 57.0417 141.628 56.9688C141.477 56.8906 141.402 56.763 141.402 56.5859V55.3828C141.402 55.2057 141.477 55.0807 141.628 55.0078C141.784 54.9297 142.034 54.8906 142.378 54.8906Z" fill="black"/>
<path d="M113.325 79C109.851 79 106.377 79 102.903 79C97.2497 79 91.6927 78.1425 86.0712 78.063C75.3203 77.9112 64.3711 79.1307 53.8709 76.4234C50.6365 75.5894 47.45 74.407 44.2814 73.3782C40.6108 72.1865 37.3448 71.1113 34.2882 68.5893C32.3249 66.9695 29.7335 63.9833 28.6102 61.6663C27.494 59.3638 27.6644 56.0174 27.4494 53.4679C27.0469 48.694 25.8817 45.3453 30.2001 42.4586C36.3234 38.3653 43.9356 34.8748 51.1202 33.3493C55.3072 32.4602 59.4804 31.8648 63.7127 31.3192C66.0051 31.0236 68.3341 31.4066 70.6272 31.111C73.3098 30.7651 75.7176 30.3069 78.4501 30.2781C93.2401 30.1225 108.06 28.548 122.839 27.9617C140.577 27.2581 160.649 25.029 177.726 31.3192C179.635 32.0222 180.891 33.131 182.571 34.2342C183.991 35.1659 186.049 35.6596 187.114 37.0711C189.364 40.0554 191 43.0658 191 47.1434C191 52.1618 189.277 53.2495 185.776 56.3048C180.151 61.214 173.933 64.3769 167.38 67.7565C159.132 72.0097 150.863 76.0038 141.968 78.2973C139.903 78.8297 137.598 78.483 135.482 78.5315C132.34 78.6035 129.217 79 126.044 79" stroke="black" stroke-width="3" stroke-linecap="round"/>
<path d="M113.883 77.2637C113.883 85.2103 120.787 87.6384 126.571 91.2804C131.739 94.5343 137.566 94.9907 143.565 94.9907" stroke="black" stroke-width="3" stroke-linecap="round"/>
<path d="M125 79C125 83.8248 125.131 87.9064 131.263 90.4988C134.839 92.0105 138.501 93.6687 142 95" stroke="black" stroke-width="3" stroke-linecap="round"/>
<path d="M314.523 217.424L314.298 226.912" stroke="black" stroke-width="3" stroke-linecap="round"/>
<path d="M34.1255 208.965C47.0092 209.271 59.324 210.734 72.0794 211.745C89.5122 213.126 106.475 209.718 123.818 210.13C150.252 210.758 176.685 211.386 203.119 212.014C214.031 212.273 224.766 212.625 235.57 213.697C246.777 214.809 258.414 216.224 269.533 216.489C283.987 216.832 298.795 216.218 313.024 216.556" stroke="black" stroke-width="3" stroke-linecap="round"/>
<path d="M34.8404 220.985C47.724 221.291 60.0388 222.754 72.7942 223.764C90.227 225.145 107.19 221.738 124.533 222.15C150.967 222.777 177.4 223.405 203.834 224.033C214.746 224.292 225.481 224.644 236.285 225.716C247.492 226.828 259.129 228.244 270.248 228.508C284.702 228.851 299.51 228.237 313.739 228.575" stroke="black" stroke-width="3" stroke-linecap="round"/>
<path d="M34.3633 208.834L34.1101 219.492" stroke="black" stroke-width="3" stroke-linecap="round"/>ß
  </g>
  <g id="group2" style="display:none">
<path d="M292.792 98.8261C292.319 93.441 288.748 85.3109 281.415 83.4486C274.082 81.5863 270.437 87.8393 268.363 90.2532C263.941 95.3994 266.1 105.989 271.992 109.24C280.75 114.073 293.735 109.56 292.792 98.8261Z" stroke="black" stroke-width="3" stroke-linecap="round" stroke-linejoin="round"/>
<path d="M299.833 143.699C299.523 138.656 298.501 124.683 297.864 122.148C296.094 115.11 293.535 112.054 290.443 105.952" stroke="black" stroke-width="3" stroke-linecap="round" stroke-linejoin="round"/>
<path d="M267.443 90.8095C260.342 87.3866 247.351 83.8722 239.859 87.1474C230.193 91.3726 219.989 99.5691 217.346 110.086C215.743 116.464 215.224 122.729 214.544 129.245C214.224 132.311 213.769 135.333 213.553 138.412C213.481 139.443 213.295 144.274 213.442 144.022" stroke="black" stroke-width="3" stroke-linecap="round" stroke-linejoin="round"/>
<path d="M229.187 93.1463C229.187 93.1463 226.182 89.1083 223.807 87.9513C218.216 85.2275 214.931 84.8374 209.63 87.9509C201.544 92.7001 204.244 107.942 214.345 108.649" stroke="black" stroke-width="3" stroke-linecap="round" stroke-linejoin="round"/>
<path d="M290.362 99.9305C286.689 105.188 278.226 98.9243 280.964 92.5828C285.004 83.2235 294.818 93.5522 290.362 99.9305Z" stroke="black" stroke-width="3" stroke-linecap="round" stroke-linejoin="round"/>
<path d="M216.3 98.2613C217.936 95.9617 220.49 88.53 209.634 89.2734C204.644 92.9353 205.943 97.5328 208.92 99.4759C210.835 100.725 214.634 100.603 216.3 98.2613Z" stroke="black" stroke-width="3" stroke-linecap="round" stroke-linejoin="round"/>
<path d="M299.835 143.698C303.559 147.666 311.116 154.739 314.196 159.153C320.738 168.525 321.13 182.813 315.695 192.503C309.821 202.976 303.275 208.984 291.33 213.563C276.485 219.254 263.315 217.73 248.144 215.63C228.867 212.962 198.523 201.06 195.809 179.8C193.641 162.814 202.561 155.862 213.621 144.24" stroke="black" stroke-width="3" stroke-linecap="round" stroke-linejoin="round"/>
<path d="M236.788 64.8567C239.449 63.2595 242.115 51.4475 236.643 51.0649C232.698 50.1385 236.155 58.0463 236.788 64.8581" stroke="black" stroke-width="3" stroke-linecap="round" stroke-linejoin="round"/>
<path d="M225.636 62.6387C225.703 61.6911 225.868 59.3325 222.942 60.6311" stroke="black" stroke-width="3" stroke-linecap="round" stroke-linejoin="round"/>
<path d="M318.576 113.723C322.4 113.991 329.878 117.502 329.501 121.935C329.296 124.347 326.555 124.876 325.116 123.244C322.905 120.736 321.902 117.456 319.64 114.91" stroke="black" stroke-width="3" stroke-linecap="round" stroke-linejoin="round"/>
<path d="M304.395 193.137L306.107 218.819" stroke="black" stroke-width="3" stroke-linecap="round" stroke-linejoin="round"/>
<path d="M203.941 196.137L189 211" stroke="black" stroke-width="3" stroke-linecap="round" stroke-linejoin="round"/>
<path d="M252.114 122.99C250.831 124.772 244.478 121.315 241.732 121.592C235.685 122.064 235.03 128.234 231.267 125.604C230.284 124.916 230.766 123.352 231.479 122.441C234.715 118.308 247.301 117.335 251.239 119.501C252.641 120.271 253.038 121.704 252.114 122.99Z" stroke="black" stroke-width="3" stroke-linecap="round" stroke-linejoin="round"/>
<path d="M223.941 182.498C223.403 184.465 212.121 210.575 206.547 223.384" stroke="black" stroke-width="3" stroke-linecap="round" stroke-linejoin="round"/>
<path d="M244.246 181.766C243.8 188.138 241.563 206.41 239 215.5" stroke="black" stroke-width="3" stroke-linecap="round" stroke-linejoin="round"/>
<path d="M294.141 31.1597C295.697 29.5308 297.528 30.463 298.214 32.0064C298.77 33.2548 297.943 33.7903 298.036 33.0576C298.317 30.8373 299.259 32.7136 298.866 33.0189C298.046 33.6562 297.725 32.2664 298.319 32.0285" stroke="black" stroke-width="3" stroke-linecap="round" stroke-linejoin="round"/>
<path d="M297.445 32.8982C297.445 33.1852 298.128 34.0514 297.697 34.3138C296.672 34.9382 295.37 33.8918 294.767 33.1398C293.43 31.4702 298.295 30.5766 297.964 33.2224" stroke="black" stroke-width="3" stroke-linecap="round" stroke-linejoin="round"/>
<path d="M298.062 33.2828C298.062 34.6679 304.867 31.7706 304.867 29.8085C304.867 27.9563 302.588 27.1904 301.124 26.8376C298.396 26.1803 297.604 28.2245 297.604 30.542" stroke="black" stroke-width="3" stroke-linecap="round" stroke-linejoin="round"/>
<path d="M294.731 31.9989C296.156 31.8607 293.184 21.6869 289.294 26.1161C286.381 29.4335 290.214 31.9189 293.666 32.06" stroke="black" stroke-width="3" stroke-linecap="round" stroke-linejoin="round"/>
<path d="M72.0828 49.6094C72.2964 49.6094 72.4474 49.6484 72.5359 49.7266C72.6245 49.8047 72.6687 49.9349 72.6687 50.1172V51.6016C72.6687 51.7839 72.6245 51.9141 72.5359 51.9922C72.4474 52.0703 72.2964 52.1094 72.0828 52.1094C71.9057 52.1094 71.7807 52.0417 71.7078 51.9062C71.4839 51.4792 71.1583 51.1797 70.7312 51.0078C70.3042 50.8307 69.7625 50.7422 69.1062 50.7422C68.601 50.7422 68.2052 50.8333 67.9187 51.0156C67.6375 51.1927 67.4969 51.4427 67.4969 51.7656C67.4969 51.9323 67.549 52.0677 67.6531 52.1719C67.7625 52.276 67.9214 52.362 68.1297 52.4297C68.3016 52.487 68.4995 52.5312 68.7234 52.5625C68.9526 52.5938 69.2469 52.6276 69.6062 52.6641C70.1115 52.7214 70.5177 52.776 70.825 52.8281C71.1375 52.875 71.4318 52.9479 71.7078 53.0469C72.1245 53.1979 72.4474 53.4167 72.6766 53.7031C72.9109 53.9896 73.0281 54.3672 73.0281 54.8359C73.0281 55.3047 72.9083 55.7161 72.6687 56.0703C72.4344 56.4193 72.088 56.6901 71.6297 56.8828C71.1766 57.0755 70.6323 57.1719 69.9969 57.1719C69.4344 57.1719 68.9396 57.0938 68.5125 56.9375C68.0854 56.7812 67.713 56.5443 67.3953 56.2266V56.6641C67.3953 56.8464 67.351 56.9766 67.2625 57.0547C67.174 57.1328 67.0229 57.1719 66.8094 57.1719C66.5958 57.1719 66.4448 57.1328 66.3562 57.0547C66.2677 56.9766 66.2234 56.8464 66.2234 56.6641V54.7891C66.2234 54.6068 66.2677 54.4766 66.3562 54.3984C66.4448 54.3203 66.5958 54.2812 66.8094 54.2812C66.9187 54.2812 67.0047 54.3073 67.0672 54.3594C67.1297 54.4062 67.1844 54.487 67.2312 54.6016C67.4187 55.1016 67.7312 55.4661 68.1687 55.6953C68.6062 55.9245 69.1896 56.0391 69.9187 56.0391C70.5229 56.0391 70.9865 55.9297 71.3094 55.7109C71.6323 55.4922 71.7937 55.2005 71.7937 54.8359C71.7937 54.6589 71.7365 54.513 71.6219 54.3984C71.5073 54.2839 71.3432 54.1901 71.1297 54.1172C70.9474 54.0599 70.7365 54.013 70.4969 53.9766C70.2625 53.9349 69.963 53.8958 69.5984 53.8594C69.1089 53.8073 68.7 53.7526 68.3719 53.6953C68.0437 53.638 67.7417 53.5547 67.4656 53.4453C67.0854 53.2943 66.7885 53.0859 66.575 52.8203C66.3667 52.5495 66.2625 52.1979 66.2625 51.7656C66.2625 51.3125 66.3797 50.9245 66.6141 50.6016C66.8536 50.2734 67.1818 50.026 67.5984 49.8594C68.0203 49.6927 68.4969 49.6094 69.0281 49.6094C69.5333 49.6094 69.9943 49.6849 70.4109 49.8359C70.8328 49.987 71.1948 50.1979 71.4969 50.4688V50.1172C71.4969 49.9349 71.5411 49.8047 71.6297 49.7266C71.7182 49.6484 71.8693 49.6094 72.0828 49.6094ZM80.0469 49.6094C81.026 49.6094 81.7604 49.8281 82.25 50.2656C82.7396 50.7031 82.9844 51.3516 82.9844 52.2109V55.3203C82.9844 55.7318 83.1562 55.9375 83.5 55.9375H83.7734C83.9505 55.9375 84.0755 55.9792 84.1484 56.0625C84.2266 56.1406 84.2656 56.276 84.2656 56.4688C84.2656 56.6615 84.2266 56.7995 84.1484 56.8828C84.0755 56.9609 83.9505 57 83.7734 57H83.2734C82.9349 57 82.6432 56.9167 82.3984 56.75C82.1589 56.5781 82.0026 56.3281 81.9297 56C81.5026 56.375 81.0391 56.6641 80.5391 56.8672C80.0443 57.0703 79.5182 57.1719 78.9609 57.1719C78.4349 57.1719 77.9688 57.0833 77.5625 56.9062C77.1615 56.724 76.8464 56.4609 76.6172 56.1172C76.388 55.7734 76.2734 55.3646 76.2734 54.8906C76.2734 54.0677 76.5677 53.4609 77.1562 53.0703C77.7448 52.6745 78.5052 52.4766 79.4375 52.4766C80.2656 52.4766 81.0573 52.6094 81.8125 52.875V52.2109C81.8125 51.7057 81.6693 51.3359 81.3828 51.1016C81.1016 50.862 80.6458 50.7422 80.0156 50.7422C79.625 50.7422 79.2188 50.7969 78.7969 50.9062C78.375 51.0156 77.974 51.1667 77.5938 51.3594C77.5052 51.4062 77.4245 51.4297 77.3516 51.4297C77.1797 51.4297 77.0365 51.3047 76.9219 51.0547C76.8646 50.9297 76.8359 50.8255 76.8359 50.7422C76.8359 50.5599 76.9323 50.4193 77.125 50.3203C77.5625 50.0911 78.0312 49.9167 78.5312 49.7969C79.0365 49.6719 79.5417 49.6094 80.0469 49.6094ZM79.4453 53.5781C78.8464 53.5781 78.3724 53.6823 78.0234 53.8906C77.6797 54.0938 77.5078 54.4193 77.5078 54.8672C77.5078 55.2474 77.638 55.5443 77.8984 55.7578C78.1641 55.9661 78.5339 56.0703 79.0078 56.0703C80.0443 56.0703 80.9792 55.6406 81.8125 54.7812V53.9297C81.4583 53.8151 81.0781 53.7292 80.6719 53.6719C80.2656 53.6094 79.8568 53.5781 79.4453 53.5781ZM94.3234 49.7812C94.5005 49.7812 94.6255 49.8229 94.6984 49.9062C94.7766 49.9844 94.8156 50.1198 94.8156 50.3125C94.8156 50.5052 94.7766 50.6432 94.6984 50.7266C94.6255 50.8047 94.5005 50.8438 94.3234 50.8438H93.8312L91.3078 56.6641C91.2349 56.8411 91.1255 56.9688 90.9797 57.0469C90.8391 57.1302 90.6411 57.1719 90.3859 57.1719C90.1359 57.1719 89.9406 57.1302 89.8 57.0469C89.6646 56.9688 89.5578 56.8411 89.4797 56.6641L86.9797 50.8438H86.4953C86.3182 50.8438 86.1906 50.8047 86.1125 50.7266C86.0396 50.6432 86.0031 50.5052 86.0031 50.3125C86.0031 50.1198 86.0396 49.9844 86.1125 49.9062C86.1906 49.8229 86.3182 49.7812 86.4953 49.7812H89.2609C89.438 49.7812 89.563 49.8229 89.6359 49.9062C89.7141 49.9844 89.7531 50.1198 89.7531 50.3125C89.7531 50.5052 89.7141 50.6432 89.6359 50.7266C89.563 50.8047 89.438 50.8438 89.2609 50.8438H88.2609L90.3937 55.9375L92.55 50.8438H91.8703C91.6932 50.8438 91.5656 50.8047 91.4875 50.7266C91.4146 50.6432 91.3781 50.5052 91.3781 50.3125C91.3781 50.1198 91.4146 49.9844 91.4875 49.9062C91.5656 49.8229 91.6932 49.7812 91.8703 49.7812H94.3234ZM100.873 49.6094C101.629 49.6094 102.272 49.763 102.803 50.0703C103.34 50.3724 103.751 50.7943 104.037 51.3359C104.324 51.8724 104.488 52.4922 104.53 53.1953C104.53 53.3724 104.491 53.4974 104.412 53.5703C104.34 53.6432 104.215 53.6797 104.037 53.6797H98.3812C98.4177 54.4557 98.6469 55.0443 99.0687 55.4453C99.4958 55.8411 100.097 56.0391 100.873 56.0391C101.353 56.0391 101.827 55.9792 102.295 55.8594C102.764 55.7344 103.176 55.5703 103.53 55.3672C103.618 55.3203 103.699 55.2969 103.772 55.2969C103.954 55.2969 104.103 55.4349 104.217 55.7109C104.264 55.8203 104.287 55.9193 104.287 56.0078C104.287 56.2161 104.173 56.3776 103.944 56.4922C103.543 56.6953 103.069 56.8594 102.522 56.9844C101.975 57.1094 101.426 57.1719 100.873 57.1719C100.087 57.1719 99.4151 57.0208 98.8578 56.7188C98.3005 56.4167 97.876 55.9818 97.5844 55.4141C97.2927 54.8464 97.1469 54.1719 97.1469 53.3906C97.1469 52.6458 97.3057 51.987 97.6234 51.4141C97.9411 50.8411 98.3812 50.3984 98.9437 50.0859C99.5062 49.7682 100.149 49.6094 100.873 49.6094ZM100.873 50.7422C100.233 50.7422 99.7016 50.9062 99.2797 51.2344C98.863 51.5573 98.5896 52.0078 98.4594 52.5859H103.233C103.123 51.987 102.871 51.5312 102.475 51.2188C102.084 50.901 101.551 50.7422 100.873 50.7422ZM126.098 55.9375C126.276 55.9375 126.401 55.9792 126.473 56.0625C126.552 56.1406 126.591 56.276 126.591 56.4688C126.591 56.6615 126.552 56.7995 126.473 56.8828C126.401 56.9609 126.276 57 126.098 57H124.934C124.757 57 124.63 56.9609 124.552 56.8828C124.479 56.7995 124.442 56.6615 124.442 56.4688V51.8438C124.442 51.4844 124.382 51.2161 124.262 51.0391C124.148 50.8568 123.96 50.7656 123.7 50.7656C123.455 50.7656 123.229 50.8802 123.02 51.1094C122.812 51.3333 122.645 51.6484 122.52 52.0547C122.401 52.4557 122.341 52.9141 122.341 53.4297V55.9375H122.786C122.963 55.9375 123.088 55.9792 123.161 56.0625C123.239 56.1406 123.278 56.276 123.278 56.4688C123.278 56.6615 123.239 56.7995 123.161 56.8828C123.088 56.9609 122.963 57 122.786 57H121.661C121.484 57 121.356 56.9609 121.278 56.8828C121.205 56.7995 121.169 56.6615 121.169 56.4688V51.8438C121.169 51.4844 121.109 51.2161 120.989 51.0391C120.874 50.8568 120.687 50.7656 120.427 50.7656C120.182 50.7656 119.955 50.8802 119.747 51.1094C119.539 51.3333 119.372 51.6484 119.247 52.0547C119.127 52.4557 119.067 52.9141 119.067 53.4297V55.9375H119.473C119.651 55.9375 119.776 55.9792 119.848 56.0625C119.927 56.1406 119.966 56.276 119.966 56.4688C119.966 56.6615 119.927 56.7995 119.848 56.8828C119.776 56.9609 119.651 57 119.473 57H117.255C117.078 57 116.95 56.9609 116.872 56.8828C116.799 56.7995 116.762 56.6615 116.762 56.4688C116.762 56.276 116.799 56.1406 116.872 56.0625C116.95 55.9792 117.078 55.9375 117.255 55.9375H117.895V50.8438H117.255C117.078 50.8438 116.95 50.8047 116.872 50.7266C116.799 50.6432 116.762 50.5052 116.762 50.3125C116.762 50.1198 116.799 49.9844 116.872 49.9062C116.95 49.8229 117.078 49.7812 117.255 49.7812H118.419C118.596 49.7812 118.721 49.8229 118.794 49.9062C118.872 49.9844 118.911 50.1198 118.911 50.3125V51.0859C119.135 50.5964 119.403 50.2292 119.716 49.9844C120.028 49.7344 120.367 49.6094 120.731 49.6094C121.085 49.6094 121.395 49.7292 121.661 49.9688C121.927 50.2083 122.106 50.5599 122.2 51.0234C122.664 50.0807 123.262 49.6094 123.997 49.6094C124.304 49.6094 124.578 49.6875 124.817 49.8438C125.062 49.9948 125.255 50.2292 125.395 50.5469C125.541 50.8594 125.614 51.2448 125.614 51.7031V55.9375H126.098ZM132.055 49.6094C132.81 49.6094 133.453 49.763 133.984 50.0703C134.521 50.3724 134.932 50.7943 135.219 51.3359C135.505 51.8724 135.669 52.4922 135.711 53.1953C135.711 53.3724 135.672 53.4974 135.594 53.5703C135.521 53.6432 135.396 53.6797 135.219 53.6797H129.562C129.599 54.4557 129.828 55.0443 130.25 55.4453C130.677 55.8411 131.279 56.0391 132.055 56.0391C132.534 56.0391 133.008 55.9792 133.477 55.8594C133.945 55.7344 134.357 55.5703 134.711 55.3672C134.799 55.3203 134.88 55.2969 134.953 55.2969C135.135 55.2969 135.284 55.4349 135.398 55.7109C135.445 55.8203 135.469 55.9193 135.469 56.0078C135.469 56.2161 135.354 56.3776 135.125 56.4922C134.724 56.6953 134.25 56.8594 133.703 56.9844C133.156 57.1094 132.607 57.1719 132.055 57.1719C131.268 57.1719 130.596 57.0208 130.039 56.7188C129.482 56.4167 129.057 55.9818 128.766 55.4141C128.474 54.8464 128.328 54.1719 128.328 53.3906C128.328 52.6458 128.487 51.987 128.805 51.4141C129.122 50.8411 129.562 50.3984 130.125 50.0859C130.688 49.7682 131.331 49.6094 132.055 49.6094ZM132.055 50.7422C131.414 50.7422 130.883 50.9062 130.461 51.2344C130.044 51.5573 129.771 52.0078 129.641 52.5859H134.414C134.305 51.987 134.052 51.5312 133.656 51.2188C133.266 50.901 132.732 50.7422 132.055 50.7422ZM142.886 47.0859C143.006 47.0859 143.092 47.1172 143.144 47.1797C143.196 47.2422 143.217 47.3411 143.206 47.4766L142.823 53C142.813 53.1198 142.769 53.2135 142.691 53.2812C142.618 53.3438 142.514 53.375 142.378 53.375C142.243 53.375 142.133 53.3438 142.05 53.2812C141.972 53.2135 141.93 53.1198 141.925 53L141.55 47.4766C141.54 47.3411 141.56 47.2422 141.612 47.1797C141.665 47.1172 141.751 47.0859 141.87 47.0859H142.886ZM142.378 54.8906C142.722 54.8906 142.969 54.9297 143.12 55.0078C143.277 55.0807 143.355 55.2057 143.355 55.3828V56.5859C143.355 56.763 143.277 56.8906 143.12 56.9688C142.969 57.0417 142.722 57.0781 142.378 57.0781C142.034 57.0781 141.784 57.0417 141.628 56.9688C141.477 56.8906 141.402 56.763 141.402 56.5859V55.3828C141.402 55.2057 141.477 55.0807 141.628 55.0078C141.784 54.9297 142.034 54.8906 142.378 54.8906Z" fill="black"/>
<path d="M113.325 79C109.851 79 106.377 79 102.903 79C97.2497 79 91.6927 78.1425 86.0712 78.063C75.3203 77.9112 64.3711 79.1307 53.8709 76.4234C50.6365 75.5894 47.45 74.407 44.2814 73.3782C40.6108 72.1865 37.3448 71.1113 34.2882 68.5893C32.3249 66.9695 29.7335 63.9833 28.6102 61.6663C27.494 59.3638 27.6644 56.0174 27.4494 53.4679C27.0469 48.694 25.8817 45.3453 30.2001 42.4586C36.3234 38.3653 43.9356 34.8748 51.1202 33.3493C55.3072 32.4602 59.4804 31.8648 63.7127 31.3192C66.0051 31.0236 68.3341 31.4066 70.6272 31.111C73.3098 30.7651 75.7176 30.3069 78.4501 30.2781C93.2401 30.1225 108.06 28.548 122.839 27.9617C140.577 27.2581 160.649 25.029 177.726 31.3192C179.635 32.0222 180.891 33.131 182.571 34.2342C183.991 35.1659 186.049 35.6596 187.114 37.0711C189.364 40.0554 191 43.0658 191 47.1434C191 52.1618 189.277 53.2495 185.776 56.3048C180.151 61.214 173.933 64.3769 167.38 67.7565C159.132 72.0097 150.863 76.0038 141.968 78.2973C139.903 78.8297 137.598 78.483 135.482 78.5315C132.34 78.6035 129.217 79 126.044 79" stroke="black" stroke-width="3" stroke-linecap="round"/>
<path d="M113.883 77.2637C113.883 85.2103 120.787 87.6384 126.571 91.2804C131.739 94.5343 137.566 94.9907 143.565 94.9907" stroke="black" stroke-width="3" stroke-linecap="round"/>
<path d="M125 79C125 83.8248 125.131 87.9064 131.263 90.4988C134.839 92.0105 138.501 93.6687 142 95" stroke="black" stroke-width="3" stroke-linecap="round"/>
<path d="M314.488 222.32L313.932 231.795" stroke="black" stroke-width="3" stroke-linecap="round"/>
<path d="M34.5567 204.085C47.4218 204.84 59.6781 206.732 72.3905 208.187C89.7645 210.175 106.836 207.361 124.154 208.378C150.55 209.928 176.945 211.477 203.341 213.027C214.237 213.667 224.953 214.393 235.713 215.841C246.875 217.344 258.456 219.164 269.559 219.816C283.992 220.664 298.812 220.567 313.021 221.401" stroke="black" stroke-width="3" stroke-linecap="round"/>
<path d="M34.8536 216.122C47.7187 216.877 59.975 218.769 72.6874 220.224C90.0614 222.212 107.133 219.398 124.451 220.415C150.847 221.965 177.242 223.515 203.638 225.064C214.534 225.704 225.25 226.43 236.01 227.878C247.172 229.381 258.753 231.202 269.856 231.853C284.289 232.701 299.109 232.604 313.317 233.438" stroke="black" stroke-width="3" stroke-linecap="round"/>
<path d="M34.7969 203.961L34.1721 214.603" stroke="black" stroke-width="3" stroke-linecap="round"/>
  </g>
  <animate xlink:href="#group1" attributeName="display" from="inline" to="none" dur="1s" begin="0s" repeatCount="indefinite" />
  <animate xlink:href="#group2" attributeName="display" from="none" to="inline" dur="1s" begin="0s" repeatCount="indefinite" />
</svg>