<svg width="16" height="16" viewBox="0 0 16 16" fill="none" xmlns="http://www.w3.org/2000/svg">
<path d="M7.80469 15.1484C8.83073 15.1484 9.79427 14.9531 10.6953 14.5625C11.5964 14.1719 12.3906 13.6328 13.0781 12.9453C13.7708 12.2578 14.3125 11.4635 14.7031 10.5625C15.0938 9.65625 15.2891 8.6901 15.2891 7.66406C15.2891 6.64323 15.0911 5.68229 14.6953 4.78125C14.3047 3.875 13.763 3.07812 13.0703 2.39062C12.3828 1.69792 11.5885 1.15625 10.6875 0.765625C9.78646 0.375 8.82292 0.179688 7.79688 0.179688C6.77604 0.179688 5.8151 0.375 4.91406 0.765625C4.01302 1.15625 3.21615 1.69792 2.52344 2.39062C1.83594 3.07812 1.29688 3.875 0.90625 4.78125C0.515625 5.68229 0.320312 6.64323 0.320312 7.66406C0.320312 8.6901 0.515625 9.65625 0.90625 10.5625C1.30208 11.4635 1.84375 12.2578 2.53125 12.9453C3.21875 13.6328 4.01302 14.1719 4.91406 14.5625C5.8151 14.9531 6.77865 15.1484 7.80469 15.1484ZM7.80469 14.0156C6.92448 14.0156 6.09896 13.8516 5.32812 13.5234C4.5625 13.1953 3.89062 12.7422 3.3125 12.1641C2.73438 11.5807 2.28125 10.9062 1.95312 10.1406C1.625 9.36979 1.46094 8.54427 1.46094 7.66406C1.46094 6.78906 1.625 5.96875 1.95312 5.20312C2.28125 4.43229 2.73438 3.75781 3.3125 3.17969C3.89062 2.59635 4.5625 2.14062 5.32812 1.8125C6.09375 1.48438 6.91667 1.32031 7.79688 1.32031C8.68229 1.32031 9.50781 1.48438 10.2734 1.8125C11.0391 2.14062 11.7109 2.59635 12.2891 3.17969C12.8724 3.75781 13.3281 4.43229 13.6562 5.20312C13.9844 5.96875 14.1484 6.78906 14.1484 7.66406C14.1536 8.54427 13.9922 9.36979 13.6641 10.1406C13.3359 10.9062 12.8802 11.5807 12.2969 12.1641C11.7188 12.7422 11.0443 13.1953 10.2734 13.5234C9.50781 13.8516 8.6849 14.0156 7.80469 14.0156ZM7.64844 11.3594C7.85156 11.3594 8.02604 11.2891 8.17188 11.1484C8.32292 11.0078 8.39844 10.8359 8.39844 10.6328C8.39844 10.4297 8.32292 10.2578 8.17188 10.1172C8.02604 9.97135 7.85156 9.89844 7.64844 9.89844C7.4401 9.89844 7.26302 9.97135 7.11719 10.1172C6.97135 10.2578 6.89844 10.4297 6.89844 10.6328C6.89844 10.8307 6.97135 11.0026 7.11719 11.1484C7.26823 11.2891 7.44531 11.3594 7.64844 11.3594ZM7.66406 9.19531C7.83073 9.19531 7.96094 9.14844 8.05469 9.05469C8.15365 8.95573 8.20312 8.84115 8.20312 8.71094C8.20312 8.69531 8.20312 8.67708 8.20312 8.65625C8.20312 8.63542 8.20312 8.61458 8.20312 8.59375C8.20312 8.38542 8.26302 8.20573 8.38281 8.05469C8.50781 7.90365 8.70052 7.73958 8.96094 7.5625C9.32552 7.32292 9.61719 7.07552 9.83594 6.82031C10.0547 6.5651 10.1641 6.22396 10.1641 5.79688C10.1641 5.40104 10.0599 5.06771 9.85156 4.79688C9.64323 4.52083 9.36458 4.3125 9.01562 4.17188C8.67188 4.02604 8.29167 3.95312 7.875 3.95312C7.25 3.95312 6.74219 4.08594 6.35156 4.35156C5.96094 4.61198 5.71875 4.91406 5.625 5.25781C5.60417 5.32031 5.58854 5.38021 5.57812 5.4375C5.57292 5.49479 5.57031 5.55208 5.57031 5.60938C5.57031 5.76562 5.61719 5.88281 5.71094 5.96094C5.8099 6.03906 5.91667 6.07812 6.03125 6.07812C6.22396 6.07812 6.35417 6.03385 6.42188 5.94531C6.49479 5.85677 6.58333 5.7474 6.6875 5.61719C6.79688 5.39323 6.94531 5.21354 7.13281 5.07812C7.32552 4.94271 7.5599 4.875 7.83594 4.875C8.1901 4.875 8.47396 4.96615 8.6875 5.14844C8.90104 5.32552 9.00781 5.5599 9.00781 5.85156C9.00781 6.10156 8.92708 6.3099 8.76562 6.47656C8.60938 6.63802 8.36719 6.83594 8.03906 7.07031C7.76823 7.25781 7.54688 7.46094 7.375 7.67969C7.20833 7.89844 7.125 8.1849 7.125 8.53906C7.125 8.55469 7.125 8.57552 7.125 8.60156C7.125 8.6224 7.125 8.64323 7.125 8.66406C7.125 9.01823 7.30469 9.19531 7.66406 9.19531Z" fill="white"/>
</svg>