<svg wwidth="301" height="323" viewBox="0 0 301 323" fill="none" xmlns="http://www.w3.org/2000/svg" xmlns:xlink="http://www.w3.org/1999/xlink">
  <g id="group1">

<ellipse cx="148.5" cy="173" rx="148.5" ry="149.025" fill="white"/>
<path d="M112.667 86.25C108.088 86.25 102.566 91.0519 100.096 94.3567C96.7816 98.7922 93.7804 106.263 95.046 111.897C96.4841 118.3 99.5112 123.259 106.081 125.535C111.011 127.244 118.116 130.844 123.253 127.129C130.598 121.818 138.693 111.784 135.135 102.079C131.666 92.6183 121.364 85.0289 111.052 87.7702" stroke="black" stroke-width="3.75" stroke-linecap="round" stroke-linejoin="round"/>
<path d="M99.8859 97.6787C98.0477 98.4178 98.568 102.707 98.568 104.117C98.568 107.633 100.392 111.38 103.466 113.308C111.799 118.535 119.814 110.626 122.907 103.487C125.289 97.9875 120.109 89.4005 114.273 88.8154C106.437 88.0299 100.059 94.4387 98.7749 101.604" stroke="black" stroke-width="3.75" stroke-linecap="round" stroke-linejoin="round"/>
<path d="M82.9148 171.25C81.0601 169.653 83.6321 162.906 84.037 161.092C85.3312 155.292 86.0627 149.464 88.3215 143.911C91.2607 136.684 94.6931 130.466 98.5 123.75" stroke="black" stroke-width="3.75" stroke-linecap="round" stroke-linejoin="round"/>
<path d="M137.25 104.395C137.25 105.024 140.988 101.784 142.282 100.909C144.863 99.163 149.958 97.2378 153.07 97.1011C155.401 96.9988 157.644 96.25 159.983 96.25C162.369 96.25 164.551 97.0556 166.956 97.172C172.186 97.4254 177.473 98.8223 182.068 101.387C193.82 107.945 199.871 120.224 203.945 132.679C206.284 139.833 207.112 147.442 208.429 154.831C208.942 157.71 208.973 160.711 209.281 163.623C209.563 166.29 210.347 171.372 208.916 173.75" stroke="black" stroke-width="3.75" stroke-linecap="round" stroke-linejoin="round"/>
<path d="M184.75 103.042C184.75 96.4436 189.673 88.5249 195.623 85.3512C203.053 81.388 212.759 85.2048 216.529 92.1606C219.798 98.1929 218.776 106.946 215.116 112.49C211.615 117.792 203.706 119.657 197.801 120" stroke="black" stroke-width="3.75" stroke-linecap="round" stroke-linejoin="round"/>
<path d="M211.187 88.857C211.497 85.4392 206.472 89.4658 205.329 90.205C201.912 92.415 199.373 97.057 202.249 100.844C208.055 108.489 218.302 104.92 218.5 95.5658" stroke="black" stroke-width="3.75" stroke-linecap="round" stroke-linejoin="round"/>
<path d="M82.8699 172.5C81.275 172.621 80.3277 173.304 78.7788 174.422C74.1519 177.76 69.0601 180.123 64.9795 184.223C55.5215 193.726 51.5643 203.647 54.3998 217.123C55.917 224.333 58.46 231.68 63.3026 237.322C65.5847 239.981 68.1157 242.512 71.145 244.287C74.3941 246.191 76.7648 249.547 80.1716 251.084C97.7913 259.036 118.543 259.672 137.624 259.85C156.031 260.021 176.218 260.935 193.922 254.911C207.929 250.145 223.588 240.558 229.824 226.376C234.185 216.458 232.466 201.691 226.28 192.731C221.663 186.044 215.037 181.549 209.681 175.727" stroke="black" stroke-width="3.75" stroke-linecap="round" stroke-linejoin="round"/>
<path d="M106.098 35.4549C104.211 35.4549 102.602 35.052 102.361 37.5038C101.881 42.3708 108.519 39.6271 108.694 35.7852C108.805 33.3567 103.03 34.6678 102.763 37.1285C102.494 39.6026 106.655 41.7714 106.655 39.216" stroke="black" stroke-width="3.75" stroke-linecap="round" stroke-linejoin="round"/>
<path d="M102.978 36.2038C102.978 33.2903 98.0598 23.8281 94.7134 28.2676C90.7535 33.521 94.3701 36.6618 100.43 36.6618" stroke="black" stroke-width="3.75" stroke-linecap="round" stroke-linejoin="round"/>
<path d="M108.001 35.4114C107.512 35.4397 109.668 24.9929 110.887 23.8595C113.793 21.1573 115.028 23.0127 117.184 24.8588C118.631 26.0983 119.29 28.324 118.696 30.2146C117.485 34.067 110.423 34.2428 107.266 35.2705" stroke="black" stroke-width="3.75" stroke-linecap="round" stroke-linejoin="round"/>
<path d="M69.75 227.5L39.75 250" stroke="black" stroke-width="3.75" stroke-linecap="round"/>
<path d="M223.5 236.25L257.25 242.5" stroke="black" stroke-width="3.75" stroke-linecap="round"/>
<path d="M151 212.5L159.75 271.25" stroke="black" stroke-width="3.75" stroke-linecap="round"/>
<path d="M178.5 212.5L197.25 263.75" stroke="black" stroke-width="3.75" stroke-linecap="round"/>
<path d="M116 156.25L236 130" stroke="black" stroke-width="3.75" stroke-linecap="round"/>

  </g>
  <g id="group2" style="display:none">
<ellipse cx="148.5" cy="173" rx="148.5" ry="149.025" fill="white"/>
<path d="M112.667 86.25C108.088 86.25 102.566 91.0519 100.096 94.3567C96.7816 98.7922 93.7804 106.263 95.046 111.897C96.4841 118.3 99.5112 123.259 106.081 125.535C111.011 127.244 118.116 130.844 123.253 127.129C130.598 121.818 138.693 111.784 135.135 102.079C131.666 92.6183 121.364 85.0289 111.052 87.7702" stroke="black" stroke-width="3.75" stroke-linecap="round" stroke-linejoin="round"/>
<path d="M99.8859 97.6787C98.0477 98.4178 98.568 102.707 98.568 104.117C98.568 107.633 100.392 111.38 103.466 113.308C111.799 118.535 119.814 110.626 122.907 103.487C125.289 97.9875 120.109 89.4005 114.273 88.8154C106.437 88.0299 100.059 94.4387 98.7749 101.604" stroke="black" stroke-width="3.75" stroke-linecap="round" stroke-linejoin="round"/>
<path d="M82.9148 171.25C81.0601 169.653 83.6321 162.906 84.037 161.092C85.3312 155.292 86.0627 149.464 88.3215 143.911C91.2607 136.684 94.6931 130.466 98.5 123.75" stroke="black" stroke-width="3.75" stroke-linecap="round" stroke-linejoin="round"/>
<path d="M137.25 104.395C137.25 105.024 140.988 101.784 142.282 100.909C144.863 99.163 149.958 97.2378 153.07 97.1011C155.401 96.9988 157.644 96.25 159.983 96.25C162.369 96.25 164.551 97.0556 166.956 97.172C172.186 97.4254 177.473 98.8223 182.068 101.387C193.82 107.945 199.871 120.224 203.945 132.679C206.284 139.833 207.112 147.442 208.429 154.831C208.942 157.71 208.973 160.711 209.281 163.623C209.563 166.29 210.347 171.372 208.916 173.75" stroke="black" stroke-width="3.75" stroke-linecap="round" stroke-linejoin="round"/>
<path d="M184.75 103.042C184.75 96.4436 189.673 88.5249 195.623 85.3512C203.053 81.388 212.759 85.2048 216.529 92.1606C219.798 98.1929 218.776 106.946 215.116 112.49C211.615 117.792 203.706 119.657 197.801 120" stroke="black" stroke-width="3.75" stroke-linecap="round" stroke-linejoin="round"/>
<path d="M211.187 88.857C211.497 85.4392 206.472 89.4658 205.329 90.205C201.912 92.415 199.373 97.057 202.249 100.844C208.055 108.489 218.302 104.92 218.5 95.5658" stroke="black" stroke-width="3.75" stroke-linecap="round" stroke-linejoin="round"/>
<path d="M82.8699 172.5C81.275 172.621 80.3277 173.304 78.7788 174.422C74.1519 177.76 69.0601 180.123 64.9795 184.223C55.5215 193.726 51.5643 203.647 54.3998 217.123C55.917 224.333 58.46 231.68 63.3026 237.322C65.5847 239.981 68.1157 242.512 71.145 244.287C74.3941 246.191 76.7648 249.547 80.1716 251.084C97.7913 259.036 118.543 259.672 137.624 259.85C156.031 260.021 176.218 260.935 193.922 254.911C207.929 250.145 223.588 240.558 229.824 226.376C234.185 216.458 232.466 201.691 226.28 192.731C221.663 186.044 215.037 181.549 209.681 175.727" stroke="black" stroke-width="3.75" stroke-linecap="round" stroke-linejoin="round"/>
<path d="M102.348 37.9549C100.461 37.9549 98.8521 37.552 98.6107 40.0038C98.1315 44.8708 104.769 42.1271 104.944 38.2852C105.055 35.8567 99.2799 37.1678 99.0128 39.6285C98.7442 42.1026 102.905 44.2714 102.905 41.716" stroke="black" stroke-width="3.75" stroke-linecap="round" stroke-linejoin="round"/>
<path d="M99.2277 38.7038C99.2277 35.7903 94.3098 26.3281 90.9634 30.7676C87.0035 36.021 90.6201 39.1618 96.6799 39.1618" stroke="black" stroke-width="3.75" stroke-linecap="round" stroke-linejoin="round"/>
<path d="M104.251 37.9114C103.762 37.9397 105.918 27.4929 107.137 26.3595C110.043 23.6573 111.278 25.5127 113.434 27.3588C114.881 28.5983 115.54 30.824 114.946 32.7146C113.735 36.567 106.673 36.7428 103.516 37.7705" stroke="black" stroke-width="3.75" stroke-linecap="round" stroke-linejoin="round"/>
<path d="M69.75 227.5L39.75 250" stroke="black" stroke-width="3.75" stroke-linecap="round"/>
<path d="M223.5 236.25L257.25 242.5" stroke="black" stroke-width="3.75" stroke-linecap="round"/>
<path d="M151 212.5L159.75 271.25" stroke="black" stroke-width="3.75" stroke-linecap="round"/>
<path d="M178.5 212.5L197.25 263.75" stroke="black" stroke-width="3.75" stroke-linecap="round"/>
<path d="M116 156.25L236 130" stroke="black" stroke-width="3.75" stroke-linecap="round"/>

  </g>
  <animate xlink:href="#group1" attributeName="display" from="inline" to="none" dur="1s" begin="0s" repeatCount="indefinite" />
  <animate xlink:href="#group2" attributeName="display" from="none" to="inline" dur="1s" begin="0s" repeatCount="indefinite" />
</svg>