<svg width="170" height="164" viewBox="0 0 170 164" fill="none" xmlns="http://www.w3.org/2000/svg">
<path d="M91.5542 67.1468C76.7403 67.1468 59.6786 64.9579 45.5251 69.1516C42.2622 70.1184 38.2452 70.6936 34.8999 71.437C30.9693 72.3105 26.8909 74.2025 23.3526 76.1682C20.6412 77.6745 17.7576 78.77 15.6142 80.6989C14.7809 81.4489 12.8212 81.5573 12.1661 82.7037C11.4672 83.9266 9.71766 85.3466 8.5575 86.0717C5.13758 88.2091 4.92002 94.1271 3.86638 97.4988C2.28013 102.575 2.0621 107.383 2.0621 112.655C2.0621 117.083 1.65101 121.563 2.94419 125.766C4.36071 130.369 8.27975 135.308 11.6047 138.757C27.0627 154.787 49.6496 160.484 71.5067 160.969C77.4277 161.101 83.3806 161.691 89.3891 161.691C92.2719 161.691 95.1678 161.769 98.0496 161.691C100.876 161.615 103.022 160.047 105.668 159.566C110.987 158.599 116.901 157.27 121.866 155.035C126.441 152.976 130.718 150.28 135.418 148.54C138.141 147.531 144.224 145.158 145.683 142.606C146.272 141.574 148.378 140.231 149.291 139.318C150.635 137.974 152.227 135.768 153.982 134.988C156.749 133.758 160.404 128.96 161.721 126.327C163.688 122.393 164.639 119.021 165.73 114.78C167.561 107.66 168.958 98.6374 165.169 92.0057C162.75 87.7731 160.049 86.211 156.508 83.0245C153.36 80.1913 149.323 78.5643 146.404 75.8074C144.367 73.8829 139.69 72.5399 137.022 72.1587C133.249 71.6197 129.339 70.1473 125.836 68.5902C120.18 66.0766 112.787 64.9817 106.71 64.9817" stroke="black" stroke-width="3" stroke-linecap="round"/>
<path d="M92.2734 67.8685C92.2734 61.9433 94.5206 56.3252 96.9646 50.9484C99.9079 44.4731 102.783 36.2617 103.861 29.257C104.903 22.4854 106.708 15.511 106.708 8.68822C106.708 6.33598 106.708 3.98373 106.708 1.63149C106.708 -2.76877 106.708 2.97353 106.708 4.35795C106.708 15.4242 106.708 26.4904 106.708 37.5566C106.708 46.3988 105.264 55.2269 105.264 64.2599" stroke="black" stroke-width="3" stroke-linecap="round"/>
</svg>
