<svg width="154" height="164" viewBox="0 0 154 164" fill="none" xmlns="http://www.w3.org/2000/svg">
<path d="M63.0523 35C55.1651 35 47.278 35 39.3909 35C31.6567 35 20.5065 39.6831 14.6868 47.8823C10.813 53.3399 8.87217 59.9113 6.42533 66.6691C5.36746 69.5907 5.0211 73.2317 4.2196 76.3308C3.36143 79.649 3.79861 83.4724 2.97638 86.5293C1.50762 91.99 1.80672 103.037 3.13679 108.477C4.74257 115.044 5.79891 125.37 8.91178 130.544C12.0101 135.694 14.1682 140.62 17.9352 144.977C20.3636 147.786 24.6745 152.726 27.8409 153.088C32.2764 153.595 36.8764 157.555 41.3961 158.515C44.994 159.28 48.5691 161.676 52.2242 161.676C67.8682 161.676 84.4416 163.494 99.5068 158.515C114.391 153.597 129.964 153.419 141.375 136.448C151.145 121.92 153.507 97.6101 151.161 78.4182C149.978 68.7394 145.026 57.8808 138.448 54.3235C135.091 52.508 131.86 50.1814 128.743 48.1209C125.486 45.9686 121.368 46.7849 117.955 45.1985C111.714 42.2984 104.383 44.6628 98.0631 42.5743C94.9459 41.5442 92.0646 42.6055 89.0397 40.6062C87.0783 39.3098 82.4717 38.2206 80.3772 38.2206" stroke="black" stroke-width="3" stroke-linecap="round"/>
<path d="M63.0156 34.8887C63.399 31.4384 66.5729 26.4727 68.6289 23.9026C70.1792 21.9648 71.697 18.5084 72.9592 16.1242C74.1227 13.9264 76.6182 10.7812 78.3319 9.06748C80.477 6.92244 82.6086 4.34708 85.0278 2.4117C86.9579 0.867645 84.6669 8.41717 84.6669 9.98967C84.6669 13.1867 83.2235 16.1576 83.2235 19.3719C83.2235 22.4958 82.6185 26.0001 81.8202 28.7942C81.4797 29.9858 82.4609 32.612 81.4193 33.4453C80.9576 33.8146 80.3367 37.0921 80.3367 37.7755" stroke="black" stroke-width="3" stroke-linecap="round"/>
</svg>
