<svg width="226" height="147" viewBox="0 0 226 147" fill="none" xmlns="http://www.w3.org/2000/svg">
<path d="M112.858 99.7152C103.636 99.7152 94.7067 99.7416 85.5661 98.3508C72.6266 96.382 62.3328 90.197 49.9815 85.9661C33.2324 80.2288 17.0005 72.0576 5.36961 58.153C0.530828 52.3683 2.3255 44.0276 2.3255 36.9521C2.3255 30.6866 2.49411 26.9645 7.99384 22.993C12.2621 19.9108 18.3227 18.5115 23.1094 16.1185C31.4496 11.9489 40.5068 11.0288 49.3517 8.2993C67.4103 2.72642 85.5991 2.42181 104.356 2.42181C114.555 2.42181 124.755 2.42181 134.954 2.42181C142.944 2.42181 152.139 1.09123 159.884 3.1565C168.721 5.5125 177.275 7.53999 185.234 12.3926C198.706 20.6059 207.984 30.4455 216.988 43.2494C225.288 55.0533 229.199 82.0013 211.477 87.9078C196.382 92.9387 182.677 95.9369 166.76 95.9369C159.771 95.9369 152.596 96.8815 145.451 96.8815C138.265 96.8815 149.09 108.409 149.65 112.887C150.344 118.441 151.603 130.811 149.23 136.03C147.947 138.851 144.979 151.033 144.979 141.277C144.979 132.264 142.73 127.142 136.949 120.077C130.953 112.75 123.196 102.994 114.748 98.7707" stroke="black" stroke-width="3" stroke-linecap="round"/>
</svg>
