<svg width="297" height="338" viewBox="0 0 297 338" fill="none" xmlns="http://www.w3.org/2000/svg" xmlns:xlink="http://www.w3.org/1999/xlink">
  <g id="group1">
<circle cx="148.5" cy="189.5" r="148.5" fill="white"/>
<path d="M184.598 142.24C184.188 137.067 182.356 130.158 177.505 127.291C174.485 126.633 172.002 125.369 168.729 124.975C165.368 123.658 162.184 127.318 159.49 128.872C152.735 132.769 152.407 141.903 154.13 148.548C157.278 160.689 168.532 155.995 176.845 152.982C182.371 150.98 185.077 148.279 184.598 142.24Z" stroke="black" stroke-width="3" stroke-linecap="round" stroke-linejoin="round"/>
<path d="M199.282 193.865C199.283 191.369 199.364 187.721 199.077 185.945C198.24 180.757 197.739 175.639 196.223 170.582C194.786 165.786 193.375 161.508 190.222 157.542C187.887 154.605 184.57 152.286 182.534 149.287" stroke="black" stroke-width="3" stroke-linecap="round" stroke-linejoin="round"/>
<path d="M152.48 142.249C151.252 142.249 149.684 141.163 148.365 140.756C144.612 139.596 140.622 138.921 136.701 138.921C133.18 138.921 129.746 138.392 126.597 140.099C122.569 142.282 119.283 144.244 115.909 147.423C108.815 154.108 103.47 162.662 102.66 172.546C102.239 177.666 101.353 182.704 101.031 187.851C100.889 190.116 100.5 195.87 101.5 200.37" stroke="black" stroke-width="3" stroke-linecap="round" stroke-linejoin="round"/>
<path d="M124.5 140.869C124.5 136.689 121.65 135.058 118.61 132.814C114.26 129.603 105.981 130.437 102.403 134.665C99.4458 138.16 97.6341 145.816 99.3446 150.214C100.878 154.156 104.093 156.869 108 156.869" stroke="black" stroke-width="3" stroke-linecap="round" stroke-linejoin="round"/>
<path d="M176.963 128.642C182.545 128.642 182.757 136.726 181.392 140.794C178.636 149.009 168.789 146.75 164.233 141.932C162.037 139.611 162.719 132.322 164.217 129.632C167.63 123.504 177.702 128.777 181.394 131.21" stroke="black" stroke-width="3" stroke-linecap="round" stroke-linejoin="round"/>
<path d="M104.32 132.85C110.588 129.809 114.494 141.72 110.732 145.505C105.261 151.01 100.886 145.193 100 140.369" stroke="black" stroke-width="3" stroke-linecap="round" stroke-linejoin="round"/>
<path d="M199.5 193.869C201 195.369 203.269 198.299 203.999 199.15C207.883 203.671 211.367 209.246 213.41 214.84C218.542 228.9 216.858 243.764 207.694 255.969C203.201 261.953 196.656 266.732 189.808 269.389C182.443 272.247 174.742 272.116 167.175 273.877C160.017 275.543 152.986 275.501 145.639 275.501C138.466 275.501 130.605 272.347 123.748 270.253C112.377 266.781 98.9746 259.348 93.5525 248.407C89.8164 240.867 90.3881 231.958 92.4538 224.052C94.5781 215.921 98.5575 208.78 101.276 200.999" stroke="black" stroke-width="3" stroke-linecap="round" stroke-linejoin="round"/>
<path d="M139.85 184.401C140.277 183.491 142.902 183.729 143.605 183.729C148.456 183.729 153.111 181.908 157.85 181.116C162.356 180.363 167.606 180.113 170.227 184.607C172.117 187.848 171.925 192.274 169.911 195.331C164.25 203.923 143.692 208.242 137.191 197.971C135.759 195.708 134.495 191.397 135.862 188.822C136.548 187.531 137.378 184.86 139.39 185.833" stroke="black" stroke-width="3" stroke-linecap="round" stroke-linejoin="round"/>
<path d="M157.531 182.674C157.331 182.674 157.81 184.726 157.841 185.115C157.957 186.605 158.293 189.047 157.324 190.323C156.311 191.659 152.86 191.06 152.004 189.855C151.063 188.531 150.306 186.852 149.864 185.283C149.625 184.434 150.406 187.598 150.406 188.489C150.406 192.105 147.939 195.097 144.355 192.826C142.054 191.368 141.038 187.821 140.231 185.409" stroke="black" stroke-width="3" stroke-linecap="round" stroke-linejoin="round"/>
<path d="M88.2046 94.7696C88.2046 93.7246 89.2626 94.262 89.5303 94.9075C90.8217 98.0211 87.2004 98.9899 87.1854 96.3917C87.1684 93.4272 91.0833 96.0594 89.3477 97.6184C87.8583 98.9563 86.7678 96.3384 89.0015 95.8986" stroke="black" stroke-width="3" stroke-linecap="round" stroke-linejoin="round"/>
<path d="M89.9833 95.5378C89.9833 96.2923 90.8962 96.3532 91.4291 96.4191C93.9783 96.7341 96.957 93.4836 96.957 90.9516C96.957 89.1147 93.2867 89 92.0336 89C89.4059 89 89.5236 93.8724 89.5236 95.6358" stroke="black" stroke-width="3" stroke-linecap="round" stroke-linejoin="round"/>
<path d="M87.8431 95.6141C88.6103 94.2281 85.537 90.9943 84.6044 89.8826C83.989 89.1491 82.8277 89.1834 81.9336 89.0876C80.6273 88.9478 80.9614 89.5818 80.6198 90.5675C78.8293 95.7339 83.3264 97.1168 87.6707 96.2857" stroke="black" stroke-width="3" stroke-linecap="round" stroke-linejoin="round"/>
<path d="M104 260.869L79 275.869" stroke="black" stroke-width="3" stroke-linecap="round"/>
<path d="M157 237.869L148 289.869" stroke="black" stroke-width="3" stroke-linecap="round"/>
<path d="M129.5 236.869L113 284.869" stroke="black" stroke-width="3" stroke-linecap="round"/>
<path d="M194 259.369V281.369" stroke="black" stroke-width="3" stroke-linecap="round"/>
<path d="M186.941 82.2336C190.434 82.7204 194.044 82.5092 197.578 82.4736C197.579 84.7441 198.466 86.4709 198.466 88.8216C198.466 91.9901 197.892 95.3827 197.035 98.4685C196.516 100.339 194.68 102.212 194.468 104.115C194.388 104.833 193.58 104.915 193.58 105.527C193.58 106.083 194.189 106.132 194.468 105.762C195.623 104.233 197.949 103.174 199.355 101.763C200.714 100.399 201.75 98.8544 203.353 97.7626C205.236 96.4802 206.052 94.6685 207.573 93.0568C208.848 91.7073 210.905 89.668 210.905 87.6452C210.905 83.8768 213.843 87.6452 216.014 87.6452C219.757 87.6452 223.23 86.9199 226.898 86.704C229.535 86.5489 232.466 85.1682 234.895 84.1159C238.527 82.542 242.408 81.1938 245.557 78.7042C254.08 71.9641 262.268 63.1352 264.437 51.646C266.866 38.7836 261.069 24.9779 254.096 14.7056C246.744 3.87565 232.299 2 220.605 2C209.165 2 197.821 4.07719 186.768 7.17636C181.933 8.53214 177.94 11.2719 173.539 13.0847C165.942 16.2141 160.67 21.6694 155.029 27.7772C148.785 34.5382 147.745 44.47 150.29 53.293C153.527 64.5124 161.585 71.8426 171.367 76.8219C176.348 79.3573 181.461 81.4699 186.941 82.2336Z" fill="white"/>
<path d="M198.466 82.4688C194.651 82.4688 190.727 82.7613 186.941 82.2336C181.461 81.4699 176.348 79.3573 171.367 76.8219C161.585 71.8426 153.527 64.5124 150.29 53.293C147.745 44.47 148.785 34.5382 155.029 27.7772C160.67 21.6694 165.942 16.2141 173.539 13.0847C177.94 11.2719 181.933 8.53214 186.768 7.17636C197.821 4.07719 209.165 2 220.605 2C232.299 2 246.744 3.87565 254.096 14.7056C261.069 24.9779 266.866 38.7836 264.437 51.646C262.268 63.1352 254.08 71.9641 245.557 78.7042C242.408 81.1938 238.527 82.542 234.895 84.1159C232.466 85.1682 229.535 86.5489 226.898 86.704C223.23 86.9199 219.757 87.6452 216.014 87.6452C213.843 87.6452 210.905 83.8768 210.905 87.6452C210.905 89.668 208.848 91.7073 207.573 93.0568C206.052 94.6685 205.236 96.4802 203.353 97.7626C201.75 98.8544 200.714 100.399 199.355 101.763C197.949 103.174 195.623 104.233 194.468 105.762C194.189 106.132 193.58 106.083 193.58 105.527C193.58 104.915 194.388 104.833 194.468 104.115C194.68 102.212 196.516 100.339 197.035 98.4685C197.892 95.3827 198.466 91.9901 198.466 88.8216C198.466 86.4692 197.578 84.7417 197.578 82.4688" stroke="black" stroke-width="3" stroke-linecap="round"/>
<path d="M171.555 29.6094C172.201 29.6094 172.779 29.763 173.289 30.0703C173.799 30.3724 174.201 30.8099 174.492 31.3828C174.784 31.9505 174.93 32.6198 174.93 33.3906C174.93 34.1615 174.784 34.8333 174.492 35.4062C174.201 35.974 173.799 36.4115 173.289 36.7188C172.779 37.0208 172.201 37.1719 171.555 37.1719C170.576 37.1719 169.75 36.7422 169.078 35.8828V38.9688H170.422C170.599 38.9688 170.724 39.0078 170.797 39.0859C170.875 39.1693 170.914 39.3073 170.914 39.5C170.914 39.6927 170.875 39.8281 170.797 39.9062C170.724 39.9896 170.599 40.0312 170.422 40.0312H167.109C166.932 40.0312 166.805 39.9896 166.727 39.9062C166.654 39.8281 166.617 39.6927 166.617 39.5C166.617 39.3073 166.654 39.1693 166.727 39.0859C166.805 39.0078 166.932 38.9688 167.109 38.9688H167.906V30.8438H167.266C167.089 30.8438 166.961 30.8047 166.883 30.7266C166.81 30.6432 166.773 30.5052 166.773 30.3125C166.773 30.1198 166.81 29.9844 166.883 29.9062C166.961 29.8229 167.089 29.7812 167.266 29.7812H168.508C168.685 29.7812 168.81 29.8229 168.883 29.9062C168.961 29.9844 169 30.1198 169 30.3125V30.9375C169.328 30.5104 169.708 30.1823 170.141 29.9531C170.573 29.724 171.044 29.6094 171.555 29.6094ZM171.477 30.7656C171.013 30.7656 170.599 30.8698 170.234 31.0781C169.875 31.2865 169.591 31.5885 169.383 31.9844C169.18 32.3802 169.078 32.849 169.078 33.3906C169.078 33.9323 169.18 34.401 169.383 34.7969C169.591 35.1927 169.875 35.4948 170.234 35.7031C170.599 35.9115 171.013 36.0156 171.477 36.0156C171.94 36.0156 172.339 35.9062 172.672 35.6875C173.005 35.4635 173.258 35.1536 173.43 34.7578C173.607 34.362 173.695 33.9062 173.695 33.3906C173.695 32.875 173.607 32.4193 173.43 32.0234C173.258 31.6276 173.005 31.3203 172.672 31.1016C172.339 30.8776 171.94 30.7656 171.477 30.7656ZM183.234 29.7812C183.411 29.7812 183.536 29.8229 183.609 29.9062C183.688 29.9844 183.727 30.1198 183.727 30.3125V35.9375H184.367C184.544 35.9375 184.669 35.9792 184.742 36.0625C184.82 36.1406 184.859 36.276 184.859 36.4688C184.859 36.6615 184.82 36.7995 184.742 36.8828C184.669 36.9609 184.544 37 184.367 37H183.125C182.948 37 182.82 36.9609 182.742 36.8828C182.669 36.8047 182.633 36.6693 182.633 36.4766V35.5312C182.289 36.0625 181.885 36.4688 181.422 36.75C180.964 37.0312 180.469 37.1719 179.938 37.1719C179.464 37.1719 179.052 37.0703 178.703 36.8672C178.354 36.6589 178.086 36.362 177.898 35.9766C177.711 35.5911 177.617 35.1406 177.617 34.625V30.8438H176.977C176.799 30.8438 176.672 30.8047 176.594 30.7266C176.521 30.6432 176.484 30.5052 176.484 30.3125C176.484 30.1198 176.521 29.9844 176.594 29.9062C176.672 29.8229 176.799 29.7812 176.977 29.7812H178.297C178.474 29.7812 178.599 29.8229 178.672 29.9062C178.75 29.9844 178.789 30.1198 178.789 30.3125V34.5078C178.789 34.9714 178.896 35.3385 179.109 35.6094C179.323 35.8802 179.638 36.0156 180.055 36.0156C180.497 36.0156 180.909 35.888 181.289 35.6328C181.674 35.3776 181.982 35.026 182.211 34.5781C182.44 34.1302 182.555 33.6302 182.555 33.0781V30.8438H181.445C181.268 30.8438 181.141 30.8047 181.062 30.7266C180.99 30.6432 180.953 30.5052 180.953 30.3125C180.953 30.1198 180.99 29.9844 181.062 29.9062C181.141 29.8229 181.268 29.7812 181.445 29.7812H183.234ZM189.094 27.5547C189.307 27.5547 189.458 27.5938 189.547 27.6719C189.635 27.75 189.68 27.8802 189.68 28.0625V30.4062H192.891C193.068 30.4062 193.193 30.4479 193.266 30.5312C193.344 30.6094 193.383 30.7448 193.383 30.9375C193.383 31.1302 193.344 31.2682 193.266 31.3516C193.193 31.4297 193.068 31.4688 192.891 31.4688H189.68V34.3125C189.68 34.9062 189.781 35.3411 189.984 35.6172C190.193 35.8932 190.552 36.0312 191.062 36.0312C191.411 36.0312 191.779 35.9609 192.164 35.8203C192.549 35.6797 192.922 35.4922 193.281 35.2578C193.354 35.2057 193.435 35.1797 193.523 35.1797C193.701 35.1797 193.852 35.2995 193.977 35.5391C194.044 35.6745 194.078 35.7917 194.078 35.8906C194.078 36.0573 193.992 36.1927 193.82 36.2969C193.414 36.5521 192.961 36.763 192.461 36.9297C191.961 37.0911 191.495 37.1719 191.062 37.1719C190.177 37.1719 189.529 36.9427 189.117 36.4844C188.711 36.0208 188.508 35.3307 188.508 34.4141V31.4688H186.922C186.745 31.4688 186.617 31.4297 186.539 31.3516C186.466 31.2682 186.43 31.1302 186.43 30.9375C186.43 30.7448 186.466 30.6094 186.539 30.5312C186.617 30.4479 186.745 30.4062 186.922 30.4062H188.508V28.0625C188.508 27.8802 188.552 27.75 188.641 27.6719C188.729 27.5938 188.88 27.5547 189.094 27.5547ZM214.008 35.9375C214.185 35.9375 214.31 35.9792 214.383 36.0625C214.461 36.1406 214.5 36.276 214.5 36.4688C214.5 36.6615 214.461 36.7995 214.383 36.8828C214.31 36.9609 214.185 37 214.008 37H212.844C212.667 37 212.539 36.9609 212.461 36.8828C212.388 36.7995 212.352 36.6615 212.352 36.4688V31.8438C212.352 31.4844 212.292 31.2161 212.172 31.0391C212.057 30.8568 211.87 30.7656 211.609 30.7656C211.365 30.7656 211.138 30.8802 210.93 31.1094C210.721 31.3333 210.555 31.6484 210.43 32.0547C210.31 32.4557 210.25 32.9141 210.25 33.4297V35.9375H210.695C210.872 35.9375 210.997 35.9792 211.07 36.0625C211.148 36.1406 211.188 36.276 211.188 36.4688C211.188 36.6615 211.148 36.7995 211.07 36.8828C210.997 36.9609 210.872 37 210.695 37H209.57C209.393 37 209.266 36.9609 209.188 36.8828C209.115 36.7995 209.078 36.6615 209.078 36.4688V31.8438C209.078 31.4844 209.018 31.2161 208.898 31.0391C208.784 30.8568 208.596 30.7656 208.336 30.7656C208.091 30.7656 207.865 30.8802 207.656 31.1094C207.448 31.3333 207.281 31.6484 207.156 32.0547C207.036 32.4557 206.977 32.9141 206.977 33.4297V35.9375H207.383C207.56 35.9375 207.685 35.9792 207.758 36.0625C207.836 36.1406 207.875 36.276 207.875 36.4688C207.875 36.6615 207.836 36.7995 207.758 36.8828C207.685 36.9609 207.56 37 207.383 37H205.164C204.987 37 204.859 36.9609 204.781 36.8828C204.708 36.7995 204.672 36.6615 204.672 36.4688C204.672 36.276 204.708 36.1406 204.781 36.0625C204.859 35.9792 204.987 35.9375 205.164 35.9375H205.805V30.8438H205.164C204.987 30.8438 204.859 30.8047 204.781 30.7266C204.708 30.6432 204.672 30.5052 204.672 30.3125C204.672 30.1198 204.708 29.9844 204.781 29.9062C204.859 29.8229 204.987 29.7812 205.164 29.7812H206.328C206.505 29.7812 206.63 29.8229 206.703 29.9062C206.781 29.9844 206.82 30.1198 206.82 30.3125V31.0859C207.044 30.5964 207.312 30.2292 207.625 29.9844C207.938 29.7344 208.276 29.6094 208.641 29.6094C208.995 29.6094 209.305 29.7292 209.57 29.9688C209.836 30.2083 210.016 30.5599 210.109 31.0234C210.573 30.0807 211.172 29.6094 211.906 29.6094C212.214 29.6094 212.487 29.6875 212.727 29.8438C212.971 29.9948 213.164 30.2292 213.305 30.5469C213.451 30.8594 213.523 31.2448 213.523 31.7031V35.9375H214.008ZM219.164 29.6094C219.919 29.6094 220.562 29.763 221.094 30.0703C221.63 30.3724 222.042 30.7943 222.328 31.3359C222.615 31.8724 222.779 32.4922 222.82 33.1953C222.82 33.3724 222.781 33.4974 222.703 33.5703C222.63 33.6432 222.505 33.6797 222.328 33.6797H216.672C216.708 34.4557 216.938 35.0443 217.359 35.4453C217.786 35.8411 218.388 36.0391 219.164 36.0391C219.643 36.0391 220.117 35.9792 220.586 35.8594C221.055 35.7344 221.466 35.5703 221.82 35.3672C221.909 35.3203 221.99 35.2969 222.062 35.2969C222.245 35.2969 222.393 35.4349 222.508 35.7109C222.555 35.8203 222.578 35.9193 222.578 36.0078C222.578 36.2161 222.464 36.3776 222.234 36.4922C221.833 36.6953 221.359 36.8594 220.812 36.9844C220.266 37.1094 219.716 37.1719 219.164 37.1719C218.378 37.1719 217.706 37.0208 217.148 36.7188C216.591 36.4167 216.167 35.9818 215.875 35.4141C215.583 34.8464 215.438 34.1719 215.438 33.3906C215.438 32.6458 215.596 31.987 215.914 31.4141C216.232 30.8411 216.672 30.3984 217.234 30.0859C217.797 29.7682 218.44 29.6094 219.164 29.6094ZM219.164 30.7422C218.523 30.7422 217.992 30.9062 217.57 31.2344C217.154 31.5573 216.88 32.0078 216.75 32.5859H221.523C221.414 31.987 221.161 31.5312 220.766 31.2188C220.375 30.901 219.841 30.7422 219.164 30.7422ZM238.562 29.7812C238.74 29.7812 238.865 29.8229 238.938 29.9062C239.016 29.9844 239.055 30.1198 239.055 30.3125V35.9375H241.562C241.74 35.9375 241.865 35.9792 241.938 36.0625C242.016 36.1406 242.055 36.276 242.055 36.4688C242.055 36.6615 242.016 36.7995 241.938 36.8828C241.865 36.9609 241.74 37 241.562 37H235.438C235.26 37 235.133 36.9609 235.055 36.8828C234.982 36.7995 234.945 36.6615 234.945 36.4688C234.945 36.276 234.982 36.1406 235.055 36.0625C235.133 35.9792 235.26 35.9375 235.438 35.9375H237.883V30.8438H235.906C235.729 30.8438 235.602 30.8047 235.523 30.7266C235.451 30.6432 235.414 30.5052 235.414 30.3125C235.414 30.1198 235.451 29.9844 235.523 29.9062C235.602 29.8229 235.729 29.7812 235.906 29.7812H238.562ZM238.312 26.3516C238.599 26.3516 238.794 26.3906 238.898 26.4688C239.003 26.5417 239.055 26.6719 239.055 26.8594V27.875C239.055 28.0625 239.003 28.1953 238.898 28.2734C238.794 28.3464 238.599 28.3828 238.312 28.3828C238.026 28.3828 237.831 28.3464 237.727 28.2734C237.622 28.1953 237.57 28.0625 237.57 27.875V26.8594C237.57 26.6719 237.622 26.5417 237.727 26.4688C237.831 26.3906 238.026 26.3516 238.312 26.3516ZM248.758 29.6094C249.232 29.6094 249.643 29.7135 249.992 29.9219C250.341 30.125 250.609 30.4193 250.797 30.8047C250.984 31.1901 251.078 31.6406 251.078 32.1562V35.9375H251.719C251.896 35.9375 252.021 35.9792 252.094 36.0625C252.172 36.1406 252.211 36.276 252.211 36.4688C252.211 36.6615 252.172 36.7995 252.094 36.8828C252.021 36.9609 251.896 37 251.719 37H249.188C249.01 37 248.883 36.9609 248.805 36.8828C248.732 36.7995 248.695 36.6615 248.695 36.4688C248.695 36.276 248.732 36.1406 248.805 36.0625C248.883 35.9792 249.01 35.9375 249.188 35.9375H249.906V32.2734C249.906 31.8099 249.799 31.4427 249.586 31.1719C249.372 30.901 249.057 30.7656 248.641 30.7656C248.198 30.7656 247.784 30.8932 247.398 31.1484C247.018 31.4036 246.714 31.7552 246.484 32.2031C246.255 32.651 246.141 33.151 246.141 33.7031V35.9375H246.859C247.036 35.9375 247.161 35.9792 247.234 36.0625C247.312 36.1406 247.352 36.276 247.352 36.4688C247.352 36.6615 247.312 36.7995 247.234 36.8828C247.161 36.9609 247.036 37 246.859 37H244.328C244.151 37 244.023 36.9609 243.945 36.8828C243.872 36.7995 243.836 36.6615 243.836 36.4688C243.836 36.276 243.872 36.1406 243.945 36.0625C244.023 35.9792 244.151 35.9375 244.328 35.9375H244.969V30.8438H244.172C243.995 30.8438 243.867 30.8047 243.789 30.7266C243.716 30.6432 243.68 30.5052 243.68 30.3125C243.68 30.1198 243.716 29.9844 243.789 29.9062C243.867 29.8229 243.995 29.7812 244.172 29.7812H245.57C245.747 29.7812 245.872 29.8229 245.945 29.9062C246.023 29.9844 246.062 30.1198 246.062 30.3125V31.25C246.406 30.7188 246.807 30.3125 247.266 30.0312C247.729 29.75 248.227 29.6094 248.758 29.6094ZM188.328 59.6094C188.542 59.6094 188.693 59.6484 188.781 59.7266C188.87 59.8047 188.914 59.9349 188.914 60.1172V62.3828C188.914 62.5651 188.87 62.6953 188.781 62.7734C188.693 62.8516 188.542 62.8906 188.328 62.8906C188.115 62.8906 187.964 62.8516 187.875 62.7734C187.786 62.6953 187.742 62.5651 187.742 62.3828C187.742 62.0651 187.659 61.7839 187.492 61.5391C187.326 61.2943 187.076 61.1042 186.742 60.9688C186.414 60.8333 186.018 60.7656 185.555 60.7656C185.055 60.7656 184.607 60.8776 184.211 61.1016C183.815 61.3255 183.505 61.638 183.281 62.0391C183.057 62.4401 182.945 62.8906 182.945 63.3906C182.945 63.8958 183.049 64.349 183.258 64.75C183.471 65.1458 183.768 65.4557 184.148 65.6797C184.534 65.9036 184.977 66.0156 185.477 66.0156C185.956 66.0156 186.419 65.9427 186.867 65.7969C187.32 65.6458 187.732 65.4297 188.102 65.1484C188.211 65.0651 188.312 65.0234 188.406 65.0234C188.557 65.0234 188.698 65.1302 188.828 65.3438C188.906 65.474 188.945 65.599 188.945 65.7188C188.945 65.901 188.862 66.0521 188.695 66.1719C188.279 66.4844 187.786 66.7292 187.219 66.9062C186.651 67.0833 186.07 67.1719 185.477 67.1719C184.732 67.1719 184.073 67.0078 183.5 66.6797C182.932 66.3516 182.492 65.901 182.18 65.3281C181.867 64.7552 181.711 64.1094 181.711 63.3906C181.711 62.6719 181.87 62.026 182.188 61.4531C182.505 60.8802 182.948 60.4297 183.516 60.1016C184.089 59.7734 184.742 59.6094 185.477 59.6094C185.94 59.6094 186.365 59.6953 186.75 59.8672C187.141 60.0339 187.471 60.2734 187.742 60.5859V60.1172C187.742 59.9349 187.786 59.8047 187.875 59.7266C187.964 59.6484 188.115 59.6094 188.328 59.6094ZM195.109 59.6094C195.823 59.6094 196.466 59.7708 197.039 60.0938C197.612 60.4167 198.06 60.8672 198.383 61.4453C198.711 62.0182 198.875 62.6667 198.875 63.3906C198.875 64.1146 198.711 64.7656 198.383 65.3438C198.06 65.9167 197.612 66.3646 197.039 66.6875C196.466 67.0104 195.823 67.1719 195.109 67.1719C194.396 67.1719 193.753 67.0104 193.18 66.6875C192.607 66.3646 192.156 65.9167 191.828 65.3438C191.505 64.7656 191.344 64.1146 191.344 63.3906C191.344 62.6667 191.505 62.0182 191.828 61.4453C192.156 60.8672 192.607 60.4167 193.18 60.0938C193.753 59.7708 194.396 59.6094 195.109 59.6094ZM195.109 60.7656C194.604 60.7656 194.159 60.8776 193.773 61.1016C193.393 61.3203 193.099 61.6302 192.891 62.0312C192.682 62.4271 192.578 62.8802 192.578 63.3906C192.578 63.901 192.682 64.3568 192.891 64.7578C193.099 65.1536 193.393 65.4635 193.773 65.6875C194.159 65.9062 194.604 66.0156 195.109 66.0156C195.615 66.0156 196.057 65.9062 196.438 65.6875C196.823 65.4635 197.12 65.1536 197.328 64.7578C197.536 64.3568 197.641 63.901 197.641 63.3906C197.641 62.8802 197.536 62.4271 197.328 62.0312C197.12 61.6302 196.823 61.3203 196.438 61.1016C196.057 60.8776 195.615 60.7656 195.109 60.7656ZM204.734 59.6094C205.714 59.6094 206.448 59.8281 206.938 60.2656C207.427 60.7031 207.672 61.3516 207.672 62.2109V65.3203C207.672 65.7318 207.844 65.9375 208.188 65.9375H208.461C208.638 65.9375 208.763 65.9792 208.836 66.0625C208.914 66.1406 208.953 66.276 208.953 66.4688C208.953 66.6615 208.914 66.7995 208.836 66.8828C208.763 66.9609 208.638 67 208.461 67H207.961C207.622 67 207.331 66.9167 207.086 66.75C206.846 66.5781 206.69 66.3281 206.617 66C206.19 66.375 205.727 66.6641 205.227 66.8672C204.732 67.0703 204.206 67.1719 203.648 67.1719C203.122 67.1719 202.656 67.0833 202.25 66.9062C201.849 66.724 201.534 66.4609 201.305 66.1172C201.076 65.7734 200.961 65.3646 200.961 64.8906C200.961 64.0677 201.255 63.4609 201.844 63.0703C202.432 62.6745 203.193 62.4766 204.125 62.4766C204.953 62.4766 205.745 62.6094 206.5 62.875V62.2109C206.5 61.7057 206.357 61.3359 206.07 61.1016C205.789 60.862 205.333 60.7422 204.703 60.7422C204.312 60.7422 203.906 60.7969 203.484 60.9062C203.062 61.0156 202.661 61.1667 202.281 61.3594C202.193 61.4062 202.112 61.4297 202.039 61.4297C201.867 61.4297 201.724 61.3047 201.609 61.0547C201.552 60.9297 201.523 60.8255 201.523 60.7422C201.523 60.5599 201.62 60.4193 201.812 60.3203C202.25 60.0911 202.719 59.9167 203.219 59.7969C203.724 59.6719 204.229 59.6094 204.734 59.6094ZM204.133 63.5781C203.534 63.5781 203.06 63.6823 202.711 63.8906C202.367 64.0938 202.195 64.4193 202.195 64.8672C202.195 65.2474 202.326 65.5443 202.586 65.7578C202.852 65.9661 203.221 66.0703 203.695 66.0703C204.732 66.0703 205.667 65.6406 206.5 64.7812V63.9297C206.146 63.8151 205.766 63.7292 205.359 63.6719C204.953 63.6094 204.544 63.5781 204.133 63.5781ZM217.109 59.6094C217.323 59.6094 217.474 59.6484 217.562 59.7266C217.651 59.8047 217.695 59.9349 217.695 60.1172V62.3828C217.695 62.5651 217.651 62.6953 217.562 62.7734C217.474 62.8516 217.323 62.8906 217.109 62.8906C216.896 62.8906 216.745 62.8516 216.656 62.7734C216.568 62.6953 216.523 62.5651 216.523 62.3828C216.523 62.0651 216.44 61.7839 216.273 61.5391C216.107 61.2943 215.857 61.1042 215.523 60.9688C215.195 60.8333 214.799 60.7656 214.336 60.7656C213.836 60.7656 213.388 60.8776 212.992 61.1016C212.596 61.3255 212.286 61.638 212.062 62.0391C211.839 62.4401 211.727 62.8906 211.727 63.3906C211.727 63.8958 211.831 64.349 212.039 64.75C212.253 65.1458 212.549 65.4557 212.93 65.6797C213.315 65.9036 213.758 66.0156 214.258 66.0156C214.737 66.0156 215.201 65.9427 215.648 65.7969C216.102 65.6458 216.513 65.4297 216.883 65.1484C216.992 65.0651 217.094 65.0234 217.188 65.0234C217.339 65.0234 217.479 65.1302 217.609 65.3438C217.688 65.474 217.727 65.599 217.727 65.7188C217.727 65.901 217.643 66.0521 217.477 66.1719C217.06 66.4844 216.568 66.7292 216 66.9062C215.432 67.0833 214.852 67.1719 214.258 67.1719C213.513 67.1719 212.854 67.0078 212.281 66.6797C211.714 66.3516 211.273 65.901 210.961 65.3281C210.648 64.7552 210.492 64.1094 210.492 63.3906C210.492 62.6719 210.651 62.026 210.969 61.4531C211.286 60.8802 211.729 60.4297 212.297 60.1016C212.87 59.7734 213.523 59.6094 214.258 59.6094C214.721 59.6094 215.146 59.6953 215.531 59.8672C215.922 60.0339 216.253 60.2734 216.523 60.5859V60.1172C216.523 59.9349 216.568 59.8047 216.656 59.7266C216.745 59.6484 216.896 59.6094 217.109 59.6094ZM221.586 56.75C221.763 56.75 221.888 56.7917 221.961 56.875C222.039 56.9531 222.078 57.0885 222.078 57.2812V61.1719C222.417 60.6667 222.807 60.2812 223.25 60.0156C223.698 59.7448 224.18 59.6094 224.695 59.6094C225.169 59.6094 225.581 59.7135 225.93 59.9219C226.279 60.125 226.547 60.4193 226.734 60.8047C226.922 61.1901 227.016 61.6406 227.016 62.1562V65.9375H227.656C227.833 65.9375 227.958 65.9792 228.031 66.0625C228.109 66.1406 228.148 66.276 228.148 66.4688C228.148 66.6615 228.109 66.7995 228.031 66.8828C227.958 66.9609 227.833 67 227.656 67H225.125C224.948 67 224.82 66.9609 224.742 66.8828C224.669 66.7995 224.633 66.6615 224.633 66.4688C224.633 66.276 224.669 66.1406 224.742 66.0625C224.82 65.9792 224.948 65.9375 225.125 65.9375H225.844V62.2734C225.844 61.8099 225.737 61.4427 225.523 61.1719C225.31 60.901 224.995 60.7656 224.578 60.7656C224.135 60.7656 223.721 60.8932 223.336 61.1484C222.956 61.4036 222.651 61.7552 222.422 62.2031C222.193 62.651 222.078 63.151 222.078 63.7031V65.9375H222.797C222.974 65.9375 223.099 65.9792 223.172 66.0625C223.25 66.1406 223.289 66.276 223.289 66.4688C223.289 66.6615 223.25 66.7995 223.172 66.8828C223.099 66.9609 222.974 67 222.797 67H220.266C220.089 67 219.961 66.9609 219.883 66.8828C219.81 66.7995 219.773 66.6615 219.773 66.4688C219.773 66.276 219.81 66.1406 219.883 66.0625C219.961 65.9792 220.089 65.9375 220.266 65.9375H220.906V57.8125H220.188C220.01 57.8125 219.883 57.7734 219.805 57.6953C219.732 57.612 219.695 57.474 219.695 57.2812C219.695 57.0885 219.732 56.9531 219.805 56.875C219.883 56.7917 220.01 56.75 220.188 56.75H221.586ZM233.992 57.0859C234.112 57.0859 234.198 57.1172 234.25 57.1797C234.302 57.2422 234.323 57.3411 234.312 57.4766L233.93 63C233.919 63.1198 233.875 63.2135 233.797 63.2812C233.724 63.3438 233.62 63.375 233.484 63.375C233.349 63.375 233.24 63.3438 233.156 63.2812C233.078 63.2135 233.036 63.1198 233.031 63L232.656 57.4766C232.646 57.3411 232.667 57.2422 232.719 57.1797C232.771 57.1172 232.857 57.0859 232.977 57.0859H233.992ZM233.484 64.8906C233.828 64.8906 234.076 64.9297 234.227 65.0078C234.383 65.0807 234.461 65.2057 234.461 65.3828V66.5859C234.461 66.763 234.383 66.8906 234.227 66.9688C234.076 67.0417 233.828 67.0781 233.484 67.0781C233.141 67.0781 232.891 67.0417 232.734 66.9688C232.583 66.8906 232.508 66.763 232.508 66.5859V65.3828C232.508 65.2057 232.583 65.0807 232.734 65.0078C232.891 64.9297 233.141 64.8906 233.484 64.8906Z" fill="black"/>

  </g>
  <g id="group2" style="display:none">
<circle cx="148.5" cy="189.5" r="148.5" fill="white"/>
<path d="M185.595 138.24C185.185 133.067 182.353 126.158 177.502 123.291C174.482 122.633 171.999 121.369 168.726 120.975C165.365 119.658 162.181 122.318 159.487 123.872C152.732 127.769 152.404 137.903 154.127 144.548C157.275 156.689 168.529 152.995 176.842 149.982C182.368 147.98 186.074 144.279 185.595 138.24Z" stroke="black" stroke-width="3" stroke-linecap="round" stroke-linejoin="round"/>
<path d="M199 193C199.002 184.576 198.234 176.038 196.078 167.93C194.705 162.765 193.357 158.159 190.344 153.889C188.114 150.726 184.945 148.23 183 145" stroke="black" stroke-width="3" stroke-linecap="round" stroke-linejoin="round"/>
<path d="M152.48 138.249C151.252 138.249 149.684 137.163 148.365 136.756C144.612 135.596 140.622 134.921 136.701 134.921C133.18 134.921 129.746 134.392 126.597 136.099C122.569 138.282 119.283 140.244 115.909 143.423C108.815 150.108 103.311 157.117 102.5 167C101.755 176.085 100.98 188.912 103 198" stroke="black" stroke-width="3" stroke-linecap="round" stroke-linejoin="round"/>
<path d="M123.5 135.869C123.5 131.689 120.65 130.058 117.61 127.814C113.26 124.603 104.981 125.437 101.403 129.665C98.4458 133.16 96.6341 140.816 98.3446 145.214C99.8781 149.156 103.093 151.869 107 151.869" stroke="black" stroke-width="3" stroke-linecap="round" stroke-linejoin="round"/>
<path d="M177.673 123.916C183.469 123.916 183.688 132.214 182.271 136.39C179.411 144.823 169.188 142.503 164.458 137.558C162.178 135.175 162.886 127.693 164.441 124.932C167.984 118.642 178.44 124.055 182.274 126.552" stroke="black" stroke-width="3" stroke-linecap="round" stroke-linejoin="round"/>
<path d="M103.32 127.85C109.588 124.809 113.494 136.72 109.732 140.505C104.261 146.01 99.8856 140.193 99 135.369" stroke="black" stroke-width="3" stroke-linecap="round" stroke-linejoin="round"/>
<path d="M199.382 194C216.787 208.956 222.268 236.297 207.337 256.918C202.868 263.09 196.552 266.956 189.74 269.697C182.415 272.644 174.754 272.509 167.227 274.325C160.108 276.043 153.114 276 145.806 276C138.671 276 130.852 272.747 124.031 270.588C112.72 267.006 100.332 259.952 94.9389 248.666C91.2227 240.89 90.3922 230.067 92.4469 221.912C94.5599 213.526 98.0265 206.236 103 198.5" stroke="black" stroke-width="3" stroke-linecap="round" stroke-linejoin="round"/>
<path d="M138.668 179.991C139.103 179.013 141.782 179.269 142.499 179.269C147.448 179.269 152.198 177.312 157.033 176.461C161.63 175.652 166.987 175.384 169.661 180.212C171.59 183.693 171.394 188.448 169.339 191.732C163.563 200.963 142.587 205.603 135.955 194.568C134.494 192.137 133.203 187.506 134.598 184.74C135.298 183.353 136.145 180.484 138.198 181.529" stroke="black" stroke-width="3" stroke-linecap="round" stroke-linejoin="round"/>
<path d="M156.531 177.674C156.331 177.674 156.81 179.726 156.841 180.115C156.957 181.605 157.293 184.047 156.324 185.323C155.311 186.659 151.86 186.06 151.004 184.855C150.063 183.531 149.306 181.852 148.864 180.283C148.625 179.434 149.406 182.598 149.406 183.489C149.406 187.105 146.939 190.097 143.355 187.826C141.054 186.368 140.038 182.821 139.231 180.409" stroke="black" stroke-width="3" stroke-linecap="round" stroke-linejoin="round"/>
<path d="M84.2046 93.7696C84.2046 92.7246 85.2626 93.262 85.5303 93.9075C86.8217 97.0211 83.2004 97.9899 83.1854 95.3917C83.1684 92.4272 87.0833 95.0594 85.3477 96.6184C83.8583 97.9563 82.7678 95.3384 85.0015 94.8986" stroke="black" stroke-width="3" stroke-linecap="round" stroke-linejoin="round"/>
<path d="M85.9833 94.5378C85.9833 95.2923 86.8962 95.3532 87.4291 95.4191C89.9783 95.7341 92.957 92.4836 92.957 89.9516C92.957 88.1147 89.2867 88 88.0336 88C85.4059 88 85.5236 92.8724 85.5236 94.6358" stroke="black" stroke-width="3" stroke-linecap="round" stroke-linejoin="round"/>
<path d="M83.8431 94.6141C84.6103 93.2281 81.537 89.9943 80.6044 88.8826C79.989 88.1491 78.8277 88.1834 77.9336 88.0876C76.6273 87.9478 76.9614 88.5818 76.6198 89.5675C74.8293 94.7339 79.3264 96.1168 83.6707 95.2857" stroke="black" stroke-width="3" stroke-linecap="round" stroke-linejoin="round"/>
<path d="M194 259.369L196 282" stroke="black" stroke-width="3" stroke-linecap="round"/>
<path d="M128.5 234.869L113 284.869" stroke="black" stroke-width="3" stroke-linecap="round"/>
<path d="M156 236.869L148 289.869" stroke="black" stroke-width="3" stroke-linecap="round"/>
<path d="M104 260.869L80 276.869" stroke="black" stroke-width="3" stroke-linecap="round"/>
<path d="M186.941 82.2336C190.434 82.7204 194.044 82.5092 197.578 82.4736C197.579 84.7441 198.466 86.4709 198.466 88.8216C198.466 91.9901 197.892 95.3827 197.035 98.4685C196.516 100.339 194.68 102.212 194.468 104.115C194.388 104.833 193.58 104.915 193.58 105.527C193.58 106.083 194.189 106.132 194.468 105.762C195.623 104.233 197.949 103.174 199.355 101.763C200.714 100.399 201.75 98.8544 203.353 97.7626C205.236 96.4802 206.052 94.6685 207.573 93.0568C208.848 91.7073 210.905 89.668 210.905 87.6452C210.905 83.8768 213.843 87.6452 216.014 87.6452C219.757 87.6452 223.23 86.9199 226.898 86.704C229.535 86.5489 232.466 85.1682 234.895 84.1159C238.527 82.542 242.408 81.1938 245.557 78.7042C254.08 71.9641 262.268 63.1352 264.437 51.646C266.866 38.7836 261.069 24.9779 254.096 14.7056C246.744 3.87565 232.299 2 220.605 2C209.165 2 197.821 4.07719 186.768 7.17636C181.933 8.53214 177.94 11.2719 173.539 13.0847C165.942 16.2141 160.67 21.6694 155.029 27.7772C148.785 34.5382 147.745 44.47 150.29 53.293C153.527 64.5124 161.585 71.8426 171.367 76.8219C176.348 79.3573 181.461 81.4699 186.941 82.2336Z" fill="white"/>
<path d="M198.466 82.4688C194.651 82.4688 190.727 82.7613 186.941 82.2336C181.461 81.4699 176.348 79.3573 171.367 76.8219C161.585 71.8426 153.527 64.5124 150.29 53.293C147.745 44.47 148.785 34.5382 155.029 27.7772C160.67 21.6694 165.942 16.2141 173.539 13.0847C177.94 11.2719 181.933 8.53214 186.768 7.17636C197.821 4.07719 209.165 2 220.605 2C232.299 2 246.744 3.87565 254.096 14.7056C261.069 24.9779 266.866 38.7836 264.437 51.646C262.268 63.1352 254.08 71.9641 245.557 78.7042C242.408 81.1938 238.527 82.542 234.895 84.1159C232.466 85.1682 229.535 86.5489 226.898 86.704C223.23 86.9199 219.757 87.6452 216.014 87.6452C213.843 87.6452 210.905 83.8768 210.905 87.6452C210.905 89.668 208.848 91.7073 207.573 93.0568C206.052 94.6685 205.236 96.4802 203.353 97.7626C201.75 98.8544 200.714 100.399 199.355 101.763C197.949 103.174 195.623 104.233 194.468 105.762C194.189 106.132 193.58 106.083 193.58 105.527C193.58 104.915 194.388 104.833 194.468 104.115C194.68 102.212 196.516 100.339 197.035 98.4685C197.892 95.3827 198.466 91.9901 198.466 88.8216C198.466 86.4692 197.578 84.7417 197.578 82.4688" stroke="black" stroke-width="3" stroke-linecap="round"/>
<path d="M171.555 29.6094C172.201 29.6094 172.779 29.763 173.289 30.0703C173.799 30.3724 174.201 30.8099 174.492 31.3828C174.784 31.9505 174.93 32.6198 174.93 33.3906C174.93 34.1615 174.784 34.8333 174.492 35.4062C174.201 35.974 173.799 36.4115 173.289 36.7188C172.779 37.0208 172.201 37.1719 171.555 37.1719C170.576 37.1719 169.75 36.7422 169.078 35.8828V38.9688H170.422C170.599 38.9688 170.724 39.0078 170.797 39.0859C170.875 39.1693 170.914 39.3073 170.914 39.5C170.914 39.6927 170.875 39.8281 170.797 39.9062C170.724 39.9896 170.599 40.0312 170.422 40.0312H167.109C166.932 40.0312 166.805 39.9896 166.727 39.9062C166.654 39.8281 166.617 39.6927 166.617 39.5C166.617 39.3073 166.654 39.1693 166.727 39.0859C166.805 39.0078 166.932 38.9688 167.109 38.9688H167.906V30.8438H167.266C167.089 30.8438 166.961 30.8047 166.883 30.7266C166.81 30.6432 166.773 30.5052 166.773 30.3125C166.773 30.1198 166.81 29.9844 166.883 29.9062C166.961 29.8229 167.089 29.7812 167.266 29.7812H168.508C168.685 29.7812 168.81 29.8229 168.883 29.9062C168.961 29.9844 169 30.1198 169 30.3125V30.9375C169.328 30.5104 169.708 30.1823 170.141 29.9531C170.573 29.724 171.044 29.6094 171.555 29.6094ZM171.477 30.7656C171.013 30.7656 170.599 30.8698 170.234 31.0781C169.875 31.2865 169.591 31.5885 169.383 31.9844C169.18 32.3802 169.078 32.849 169.078 33.3906C169.078 33.9323 169.18 34.401 169.383 34.7969C169.591 35.1927 169.875 35.4948 170.234 35.7031C170.599 35.9115 171.013 36.0156 171.477 36.0156C171.94 36.0156 172.339 35.9062 172.672 35.6875C173.005 35.4635 173.258 35.1536 173.43 34.7578C173.607 34.362 173.695 33.9062 173.695 33.3906C173.695 32.875 173.607 32.4193 173.43 32.0234C173.258 31.6276 173.005 31.3203 172.672 31.1016C172.339 30.8776 171.94 30.7656 171.477 30.7656ZM183.234 29.7812C183.411 29.7812 183.536 29.8229 183.609 29.9062C183.688 29.9844 183.727 30.1198 183.727 30.3125V35.9375H184.367C184.544 35.9375 184.669 35.9792 184.742 36.0625C184.82 36.1406 184.859 36.276 184.859 36.4688C184.859 36.6615 184.82 36.7995 184.742 36.8828C184.669 36.9609 184.544 37 184.367 37H183.125C182.948 37 182.82 36.9609 182.742 36.8828C182.669 36.8047 182.633 36.6693 182.633 36.4766V35.5312C182.289 36.0625 181.885 36.4688 181.422 36.75C180.964 37.0312 180.469 37.1719 179.938 37.1719C179.464 37.1719 179.052 37.0703 178.703 36.8672C178.354 36.6589 178.086 36.362 177.898 35.9766C177.711 35.5911 177.617 35.1406 177.617 34.625V30.8438H176.977C176.799 30.8438 176.672 30.8047 176.594 30.7266C176.521 30.6432 176.484 30.5052 176.484 30.3125C176.484 30.1198 176.521 29.9844 176.594 29.9062C176.672 29.8229 176.799 29.7812 176.977 29.7812H178.297C178.474 29.7812 178.599 29.8229 178.672 29.9062C178.75 29.9844 178.789 30.1198 178.789 30.3125V34.5078C178.789 34.9714 178.896 35.3385 179.109 35.6094C179.323 35.8802 179.638 36.0156 180.055 36.0156C180.497 36.0156 180.909 35.888 181.289 35.6328C181.674 35.3776 181.982 35.026 182.211 34.5781C182.44 34.1302 182.555 33.6302 182.555 33.0781V30.8438H181.445C181.268 30.8438 181.141 30.8047 181.062 30.7266C180.99 30.6432 180.953 30.5052 180.953 30.3125C180.953 30.1198 180.99 29.9844 181.062 29.9062C181.141 29.8229 181.268 29.7812 181.445 29.7812H183.234ZM189.094 27.5547C189.307 27.5547 189.458 27.5938 189.547 27.6719C189.635 27.75 189.68 27.8802 189.68 28.0625V30.4062H192.891C193.068 30.4062 193.193 30.4479 193.266 30.5312C193.344 30.6094 193.383 30.7448 193.383 30.9375C193.383 31.1302 193.344 31.2682 193.266 31.3516C193.193 31.4297 193.068 31.4688 192.891 31.4688H189.68V34.3125C189.68 34.9062 189.781 35.3411 189.984 35.6172C190.193 35.8932 190.552 36.0312 191.062 36.0312C191.411 36.0312 191.779 35.9609 192.164 35.8203C192.549 35.6797 192.922 35.4922 193.281 35.2578C193.354 35.2057 193.435 35.1797 193.523 35.1797C193.701 35.1797 193.852 35.2995 193.977 35.5391C194.044 35.6745 194.078 35.7917 194.078 35.8906C194.078 36.0573 193.992 36.1927 193.82 36.2969C193.414 36.5521 192.961 36.763 192.461 36.9297C191.961 37.0911 191.495 37.1719 191.062 37.1719C190.177 37.1719 189.529 36.9427 189.117 36.4844C188.711 36.0208 188.508 35.3307 188.508 34.4141V31.4688H186.922C186.745 31.4688 186.617 31.4297 186.539 31.3516C186.466 31.2682 186.43 31.1302 186.43 30.9375C186.43 30.7448 186.466 30.6094 186.539 30.5312C186.617 30.4479 186.745 30.4062 186.922 30.4062H188.508V28.0625C188.508 27.8802 188.552 27.75 188.641 27.6719C188.729 27.5938 188.88 27.5547 189.094 27.5547ZM214.008 35.9375C214.185 35.9375 214.31 35.9792 214.383 36.0625C214.461 36.1406 214.5 36.276 214.5 36.4688C214.5 36.6615 214.461 36.7995 214.383 36.8828C214.31 36.9609 214.185 37 214.008 37H212.844C212.667 37 212.539 36.9609 212.461 36.8828C212.388 36.7995 212.352 36.6615 212.352 36.4688V31.8438C212.352 31.4844 212.292 31.2161 212.172 31.0391C212.057 30.8568 211.87 30.7656 211.609 30.7656C211.365 30.7656 211.138 30.8802 210.93 31.1094C210.721 31.3333 210.555 31.6484 210.43 32.0547C210.31 32.4557 210.25 32.9141 210.25 33.4297V35.9375H210.695C210.872 35.9375 210.997 35.9792 211.07 36.0625C211.148 36.1406 211.188 36.276 211.188 36.4688C211.188 36.6615 211.148 36.7995 211.07 36.8828C210.997 36.9609 210.872 37 210.695 37H209.57C209.393 37 209.266 36.9609 209.188 36.8828C209.115 36.7995 209.078 36.6615 209.078 36.4688V31.8438C209.078 31.4844 209.018 31.2161 208.898 31.0391C208.784 30.8568 208.596 30.7656 208.336 30.7656C208.091 30.7656 207.865 30.8802 207.656 31.1094C207.448 31.3333 207.281 31.6484 207.156 32.0547C207.036 32.4557 206.977 32.9141 206.977 33.4297V35.9375H207.383C207.56 35.9375 207.685 35.9792 207.758 36.0625C207.836 36.1406 207.875 36.276 207.875 36.4688C207.875 36.6615 207.836 36.7995 207.758 36.8828C207.685 36.9609 207.56 37 207.383 37H205.164C204.987 37 204.859 36.9609 204.781 36.8828C204.708 36.7995 204.672 36.6615 204.672 36.4688C204.672 36.276 204.708 36.1406 204.781 36.0625C204.859 35.9792 204.987 35.9375 205.164 35.9375H205.805V30.8438H205.164C204.987 30.8438 204.859 30.8047 204.781 30.7266C204.708 30.6432 204.672 30.5052 204.672 30.3125C204.672 30.1198 204.708 29.9844 204.781 29.9062C204.859 29.8229 204.987 29.7812 205.164 29.7812H206.328C206.505 29.7812 206.63 29.8229 206.703 29.9062C206.781 29.9844 206.82 30.1198 206.82 30.3125V31.0859C207.044 30.5964 207.312 30.2292 207.625 29.9844C207.938 29.7344 208.276 29.6094 208.641 29.6094C208.995 29.6094 209.305 29.7292 209.57 29.9688C209.836 30.2083 210.016 30.5599 210.109 31.0234C210.573 30.0807 211.172 29.6094 211.906 29.6094C212.214 29.6094 212.487 29.6875 212.727 29.8438C212.971 29.9948 213.164 30.2292 213.305 30.5469C213.451 30.8594 213.523 31.2448 213.523 31.7031V35.9375H214.008ZM219.164 29.6094C219.919 29.6094 220.562 29.763 221.094 30.0703C221.63 30.3724 222.042 30.7943 222.328 31.3359C222.615 31.8724 222.779 32.4922 222.82 33.1953C222.82 33.3724 222.781 33.4974 222.703 33.5703C222.63 33.6432 222.505 33.6797 222.328 33.6797H216.672C216.708 34.4557 216.938 35.0443 217.359 35.4453C217.786 35.8411 218.388 36.0391 219.164 36.0391C219.643 36.0391 220.117 35.9792 220.586 35.8594C221.055 35.7344 221.466 35.5703 221.82 35.3672C221.909 35.3203 221.99 35.2969 222.062 35.2969C222.245 35.2969 222.393 35.4349 222.508 35.7109C222.555 35.8203 222.578 35.9193 222.578 36.0078C222.578 36.2161 222.464 36.3776 222.234 36.4922C221.833 36.6953 221.359 36.8594 220.812 36.9844C220.266 37.1094 219.716 37.1719 219.164 37.1719C218.378 37.1719 217.706 37.0208 217.148 36.7188C216.591 36.4167 216.167 35.9818 215.875 35.4141C215.583 34.8464 215.438 34.1719 215.438 33.3906C215.438 32.6458 215.596 31.987 215.914 31.4141C216.232 30.8411 216.672 30.3984 217.234 30.0859C217.797 29.7682 218.44 29.6094 219.164 29.6094ZM219.164 30.7422C218.523 30.7422 217.992 30.9062 217.57 31.2344C217.154 31.5573 216.88 32.0078 216.75 32.5859H221.523C221.414 31.987 221.161 31.5312 220.766 31.2188C220.375 30.901 219.841 30.7422 219.164 30.7422ZM238.562 29.7812C238.74 29.7812 238.865 29.8229 238.938 29.9062C239.016 29.9844 239.055 30.1198 239.055 30.3125V35.9375H241.562C241.74 35.9375 241.865 35.9792 241.938 36.0625C242.016 36.1406 242.055 36.276 242.055 36.4688C242.055 36.6615 242.016 36.7995 241.938 36.8828C241.865 36.9609 241.74 37 241.562 37H235.438C235.26 37 235.133 36.9609 235.055 36.8828C234.982 36.7995 234.945 36.6615 234.945 36.4688C234.945 36.276 234.982 36.1406 235.055 36.0625C235.133 35.9792 235.26 35.9375 235.438 35.9375H237.883V30.8438H235.906C235.729 30.8438 235.602 30.8047 235.523 30.7266C235.451 30.6432 235.414 30.5052 235.414 30.3125C235.414 30.1198 235.451 29.9844 235.523 29.9062C235.602 29.8229 235.729 29.7812 235.906 29.7812H238.562ZM238.312 26.3516C238.599 26.3516 238.794 26.3906 238.898 26.4688C239.003 26.5417 239.055 26.6719 239.055 26.8594V27.875C239.055 28.0625 239.003 28.1953 238.898 28.2734C238.794 28.3464 238.599 28.3828 238.312 28.3828C238.026 28.3828 237.831 28.3464 237.727 28.2734C237.622 28.1953 237.57 28.0625 237.57 27.875V26.8594C237.57 26.6719 237.622 26.5417 237.727 26.4688C237.831 26.3906 238.026 26.3516 238.312 26.3516ZM248.758 29.6094C249.232 29.6094 249.643 29.7135 249.992 29.9219C250.341 30.125 250.609 30.4193 250.797 30.8047C250.984 31.1901 251.078 31.6406 251.078 32.1562V35.9375H251.719C251.896 35.9375 252.021 35.9792 252.094 36.0625C252.172 36.1406 252.211 36.276 252.211 36.4688C252.211 36.6615 252.172 36.7995 252.094 36.8828C252.021 36.9609 251.896 37 251.719 37H249.188C249.01 37 248.883 36.9609 248.805 36.8828C248.732 36.7995 248.695 36.6615 248.695 36.4688C248.695 36.276 248.732 36.1406 248.805 36.0625C248.883 35.9792 249.01 35.9375 249.188 35.9375H249.906V32.2734C249.906 31.8099 249.799 31.4427 249.586 31.1719C249.372 30.901 249.057 30.7656 248.641 30.7656C248.198 30.7656 247.784 30.8932 247.398 31.1484C247.018 31.4036 246.714 31.7552 246.484 32.2031C246.255 32.651 246.141 33.151 246.141 33.7031V35.9375H246.859C247.036 35.9375 247.161 35.9792 247.234 36.0625C247.312 36.1406 247.352 36.276 247.352 36.4688C247.352 36.6615 247.312 36.7995 247.234 36.8828C247.161 36.9609 247.036 37 246.859 37H244.328C244.151 37 244.023 36.9609 243.945 36.8828C243.872 36.7995 243.836 36.6615 243.836 36.4688C243.836 36.276 243.872 36.1406 243.945 36.0625C244.023 35.9792 244.151 35.9375 244.328 35.9375H244.969V30.8438H244.172C243.995 30.8438 243.867 30.8047 243.789 30.7266C243.716 30.6432 243.68 30.5052 243.68 30.3125C243.68 30.1198 243.716 29.9844 243.789 29.9062C243.867 29.8229 243.995 29.7812 244.172 29.7812H245.57C245.747 29.7812 245.872 29.8229 245.945 29.9062C246.023 29.9844 246.062 30.1198 246.062 30.3125V31.25C246.406 30.7188 246.807 30.3125 247.266 30.0312C247.729 29.75 248.227 29.6094 248.758 29.6094ZM188.328 59.6094C188.542 59.6094 188.693 59.6484 188.781 59.7266C188.87 59.8047 188.914 59.9349 188.914 60.1172V62.3828C188.914 62.5651 188.87 62.6953 188.781 62.7734C188.693 62.8516 188.542 62.8906 188.328 62.8906C188.115 62.8906 187.964 62.8516 187.875 62.7734C187.786 62.6953 187.742 62.5651 187.742 62.3828C187.742 62.0651 187.659 61.7839 187.492 61.5391C187.326 61.2943 187.076 61.1042 186.742 60.9688C186.414 60.8333 186.018 60.7656 185.555 60.7656C185.055 60.7656 184.607 60.8776 184.211 61.1016C183.815 61.3255 183.505 61.638 183.281 62.0391C183.057 62.4401 182.945 62.8906 182.945 63.3906C182.945 63.8958 183.049 64.349 183.258 64.75C183.471 65.1458 183.768 65.4557 184.148 65.6797C184.534 65.9036 184.977 66.0156 185.477 66.0156C185.956 66.0156 186.419 65.9427 186.867 65.7969C187.32 65.6458 187.732 65.4297 188.102 65.1484C188.211 65.0651 188.312 65.0234 188.406 65.0234C188.557 65.0234 188.698 65.1302 188.828 65.3438C188.906 65.474 188.945 65.599 188.945 65.7188C188.945 65.901 188.862 66.0521 188.695 66.1719C188.279 66.4844 187.786 66.7292 187.219 66.9062C186.651 67.0833 186.07 67.1719 185.477 67.1719C184.732 67.1719 184.073 67.0078 183.5 66.6797C182.932 66.3516 182.492 65.901 182.18 65.3281C181.867 64.7552 181.711 64.1094 181.711 63.3906C181.711 62.6719 181.87 62.026 182.188 61.4531C182.505 60.8802 182.948 60.4297 183.516 60.1016C184.089 59.7734 184.742 59.6094 185.477 59.6094C185.94 59.6094 186.365 59.6953 186.75 59.8672C187.141 60.0339 187.471 60.2734 187.742 60.5859V60.1172C187.742 59.9349 187.786 59.8047 187.875 59.7266C187.964 59.6484 188.115 59.6094 188.328 59.6094ZM195.109 59.6094C195.823 59.6094 196.466 59.7708 197.039 60.0938C197.612 60.4167 198.06 60.8672 198.383 61.4453C198.711 62.0182 198.875 62.6667 198.875 63.3906C198.875 64.1146 198.711 64.7656 198.383 65.3438C198.06 65.9167 197.612 66.3646 197.039 66.6875C196.466 67.0104 195.823 67.1719 195.109 67.1719C194.396 67.1719 193.753 67.0104 193.18 66.6875C192.607 66.3646 192.156 65.9167 191.828 65.3438C191.505 64.7656 191.344 64.1146 191.344 63.3906C191.344 62.6667 191.505 62.0182 191.828 61.4453C192.156 60.8672 192.607 60.4167 193.18 60.0938C193.753 59.7708 194.396 59.6094 195.109 59.6094ZM195.109 60.7656C194.604 60.7656 194.159 60.8776 193.773 61.1016C193.393 61.3203 193.099 61.6302 192.891 62.0312C192.682 62.4271 192.578 62.8802 192.578 63.3906C192.578 63.901 192.682 64.3568 192.891 64.7578C193.099 65.1536 193.393 65.4635 193.773 65.6875C194.159 65.9062 194.604 66.0156 195.109 66.0156C195.615 66.0156 196.057 65.9062 196.438 65.6875C196.823 65.4635 197.12 65.1536 197.328 64.7578C197.536 64.3568 197.641 63.901 197.641 63.3906C197.641 62.8802 197.536 62.4271 197.328 62.0312C197.12 61.6302 196.823 61.3203 196.438 61.1016C196.057 60.8776 195.615 60.7656 195.109 60.7656ZM204.734 59.6094C205.714 59.6094 206.448 59.8281 206.938 60.2656C207.427 60.7031 207.672 61.3516 207.672 62.2109V65.3203C207.672 65.7318 207.844 65.9375 208.188 65.9375H208.461C208.638 65.9375 208.763 65.9792 208.836 66.0625C208.914 66.1406 208.953 66.276 208.953 66.4688C208.953 66.6615 208.914 66.7995 208.836 66.8828C208.763 66.9609 208.638 67 208.461 67H207.961C207.622 67 207.331 66.9167 207.086 66.75C206.846 66.5781 206.69 66.3281 206.617 66C206.19 66.375 205.727 66.6641 205.227 66.8672C204.732 67.0703 204.206 67.1719 203.648 67.1719C203.122 67.1719 202.656 67.0833 202.25 66.9062C201.849 66.724 201.534 66.4609 201.305 66.1172C201.076 65.7734 200.961 65.3646 200.961 64.8906C200.961 64.0677 201.255 63.4609 201.844 63.0703C202.432 62.6745 203.193 62.4766 204.125 62.4766C204.953 62.4766 205.745 62.6094 206.5 62.875V62.2109C206.5 61.7057 206.357 61.3359 206.07 61.1016C205.789 60.862 205.333 60.7422 204.703 60.7422C204.312 60.7422 203.906 60.7969 203.484 60.9062C203.062 61.0156 202.661 61.1667 202.281 61.3594C202.193 61.4062 202.112 61.4297 202.039 61.4297C201.867 61.4297 201.724 61.3047 201.609 61.0547C201.552 60.9297 201.523 60.8255 201.523 60.7422C201.523 60.5599 201.62 60.4193 201.812 60.3203C202.25 60.0911 202.719 59.9167 203.219 59.7969C203.724 59.6719 204.229 59.6094 204.734 59.6094ZM204.133 63.5781C203.534 63.5781 203.06 63.6823 202.711 63.8906C202.367 64.0938 202.195 64.4193 202.195 64.8672C202.195 65.2474 202.326 65.5443 202.586 65.7578C202.852 65.9661 203.221 66.0703 203.695 66.0703C204.732 66.0703 205.667 65.6406 206.5 64.7812V63.9297C206.146 63.8151 205.766 63.7292 205.359 63.6719C204.953 63.6094 204.544 63.5781 204.133 63.5781ZM217.109 59.6094C217.323 59.6094 217.474 59.6484 217.562 59.7266C217.651 59.8047 217.695 59.9349 217.695 60.1172V62.3828C217.695 62.5651 217.651 62.6953 217.562 62.7734C217.474 62.8516 217.323 62.8906 217.109 62.8906C216.896 62.8906 216.745 62.8516 216.656 62.7734C216.568 62.6953 216.523 62.5651 216.523 62.3828C216.523 62.0651 216.44 61.7839 216.273 61.5391C216.107 61.2943 215.857 61.1042 215.523 60.9688C215.195 60.8333 214.799 60.7656 214.336 60.7656C213.836 60.7656 213.388 60.8776 212.992 61.1016C212.596 61.3255 212.286 61.638 212.062 62.0391C211.839 62.4401 211.727 62.8906 211.727 63.3906C211.727 63.8958 211.831 64.349 212.039 64.75C212.253 65.1458 212.549 65.4557 212.93 65.6797C213.315 65.9036 213.758 66.0156 214.258 66.0156C214.737 66.0156 215.201 65.9427 215.648 65.7969C216.102 65.6458 216.513 65.4297 216.883 65.1484C216.992 65.0651 217.094 65.0234 217.188 65.0234C217.339 65.0234 217.479 65.1302 217.609 65.3438C217.688 65.474 217.727 65.599 217.727 65.7188C217.727 65.901 217.643 66.0521 217.477 66.1719C217.06 66.4844 216.568 66.7292 216 66.9062C215.432 67.0833 214.852 67.1719 214.258 67.1719C213.513 67.1719 212.854 67.0078 212.281 66.6797C211.714 66.3516 211.273 65.901 210.961 65.3281C210.648 64.7552 210.492 64.1094 210.492 63.3906C210.492 62.6719 210.651 62.026 210.969 61.4531C211.286 60.8802 211.729 60.4297 212.297 60.1016C212.87 59.7734 213.523 59.6094 214.258 59.6094C214.721 59.6094 215.146 59.6953 215.531 59.8672C215.922 60.0339 216.253 60.2734 216.523 60.5859V60.1172C216.523 59.9349 216.568 59.8047 216.656 59.7266C216.745 59.6484 216.896 59.6094 217.109 59.6094ZM221.586 56.75C221.763 56.75 221.888 56.7917 221.961 56.875C222.039 56.9531 222.078 57.0885 222.078 57.2812V61.1719C222.417 60.6667 222.807 60.2812 223.25 60.0156C223.698 59.7448 224.18 59.6094 224.695 59.6094C225.169 59.6094 225.581 59.7135 225.93 59.9219C226.279 60.125 226.547 60.4193 226.734 60.8047C226.922 61.1901 227.016 61.6406 227.016 62.1562V65.9375H227.656C227.833 65.9375 227.958 65.9792 228.031 66.0625C228.109 66.1406 228.148 66.276 228.148 66.4688C228.148 66.6615 228.109 66.7995 228.031 66.8828C227.958 66.9609 227.833 67 227.656 67H225.125C224.948 67 224.82 66.9609 224.742 66.8828C224.669 66.7995 224.633 66.6615 224.633 66.4688C224.633 66.276 224.669 66.1406 224.742 66.0625C224.82 65.9792 224.948 65.9375 225.125 65.9375H225.844V62.2734C225.844 61.8099 225.737 61.4427 225.523 61.1719C225.31 60.901 224.995 60.7656 224.578 60.7656C224.135 60.7656 223.721 60.8932 223.336 61.1484C222.956 61.4036 222.651 61.7552 222.422 62.2031C222.193 62.651 222.078 63.151 222.078 63.7031V65.9375H222.797C222.974 65.9375 223.099 65.9792 223.172 66.0625C223.25 66.1406 223.289 66.276 223.289 66.4688C223.289 66.6615 223.25 66.7995 223.172 66.8828C223.099 66.9609 222.974 67 222.797 67H220.266C220.089 67 219.961 66.9609 219.883 66.8828C219.81 66.7995 219.773 66.6615 219.773 66.4688C219.773 66.276 219.81 66.1406 219.883 66.0625C219.961 65.9792 220.089 65.9375 220.266 65.9375H220.906V57.8125H220.188C220.01 57.8125 219.883 57.7734 219.805 57.6953C219.732 57.612 219.695 57.474 219.695 57.2812C219.695 57.0885 219.732 56.9531 219.805 56.875C219.883 56.7917 220.01 56.75 220.188 56.75H221.586ZM233.992 57.0859C234.112 57.0859 234.198 57.1172 234.25 57.1797C234.302 57.2422 234.323 57.3411 234.312 57.4766L233.93 63C233.919 63.1198 233.875 63.2135 233.797 63.2812C233.724 63.3438 233.62 63.375 233.484 63.375C233.349 63.375 233.24 63.3438 233.156 63.2812C233.078 63.2135 233.036 63.1198 233.031 63L232.656 57.4766C232.646 57.3411 232.667 57.2422 232.719 57.1797C232.771 57.1172 232.857 57.0859 232.977 57.0859H233.992ZM233.484 64.8906C233.828 64.8906 234.076 64.9297 234.227 65.0078C234.383 65.0807 234.461 65.2057 234.461 65.3828V66.5859C234.461 66.763 234.383 66.8906 234.227 66.9688C234.076 67.0417 233.828 67.0781 233.484 67.0781C233.141 67.0781 232.891 67.0417 232.734 66.9688C232.583 66.8906 232.508 66.763 232.508 66.5859V65.3828C232.508 65.2057 232.583 65.0807 232.734 65.0078C232.891 64.9297 233.141 64.8906 233.484 64.8906Z" fill="black"/>

  </g>
  <animate xlink:href="#group1" attributeName="display" from="inline" to="none" dur="1s" begin="0s" repeatCount="indefinite" />
  <animate xlink:href="#group2" attributeName="display" from="none" to="inline" dur="1s" begin="0s" repeatCount="indefinite" />
</svg>