<svg width="305" height="280" viewBox="0 0 305 280" fill="none" xmlns="http://www.w3.org/2000/svg" xmlns:xlink="http://www.w3.org/1999/xlink">
  <g id="group1">

<path d="M147.298 114.233C146.099 110.265 147.297 106 149.721 103.378C152.145 100.757 153.565 99.2268 159.596 99.0114C162.411 98.9108 164.836 99.4691 167.261 100.942C173.108 104.494 175.413 111.34 173.135 117.733C172.22 120.3 170.962 125.073 167.863 125.816C164.161 126.704 159.973 124.112 156.392 123.642C151.771 123.037 148.575 118.457 147.298 114.233Z" stroke="black" stroke-width="3" stroke-linecap="round" stroke-linejoin="round"/>
<path d="M207.751 114.533C211.441 106.852 216.696 103.286 225.191 103.286C229 103.5 233.643 106.096 234.541 109.99C235.141 112.592 235.198 114.328 234.44 117.022C233.382 120.779 232.779 124.506 230.273 127.691C227.083 131.743 224.511 131 219.73 130.851C215.527 130.72 209.656 130.648 207.137 126.62C205.062 123.302 206.167 117.831 207.751 114.533Z" stroke="black" stroke-width="3" stroke-linecap="round" stroke-linejoin="round"/>
<path d="M225.5 103.5C222.5 104 221.215 104.362 219.202 106.803C217.186 109.247 215.861 114.014 218.38 116.513C220.771 118.886 223.86 119.795 227.139 119.98C231.214 120.211 234.5 117.5 235 113" stroke="black" stroke-width="3" stroke-linecap="round" stroke-linejoin="round"/>
<path d="M150.003 103.5C149.004 105.5 151.183 119.63 159.442 115.209C165.335 112.053 164.76 105.207 161.956 100" stroke="black" stroke-width="3" stroke-linecap="round" stroke-linejoin="round"/>
<path d="M137.173 164C136.123 163.906 140.183 142.936 140.738 140.823C142.662 133.506 145.979 126.363 150 120" stroke="black" stroke-width="3" stroke-linecap="round" stroke-linejoin="round"/>
<path d="M174 109.614C174 109.614 179.5 107 189.5 107C193.973 107 205.466 109.791 207 115" stroke="black" stroke-width="3" stroke-linecap="round" stroke-linejoin="round"/>
<path d="M225 131.383C225 131.383 227.496 135 230.903 147.225C232.62 153.389 235 160.547 235 167" stroke="black" stroke-width="3" stroke-linecap="round" stroke-linejoin="round"/>
<path d="M137 164C133 167.5 129.502 170.004 126.845 173.682C121.251 181.427 117.668 189.989 119.469 199.833C122.043 213.9 129.668 222.507 141.033 230.375C154.203 239.492 170.5 242.5 187.477 241.536C210.5 239.5 240.877 234.24 251.039 208.685C254.634 199.644 255.787 186.594 249.695 178.391C246.25 173.752 240.781 170.143 235.403 168.015" stroke="black" stroke-width="3" stroke-linecap="round" stroke-linejoin="round"/>
<path d="M154 128C154 128 155.997 126.562 156.563 126.138C158.838 124.434 161.331 122.797 164.096 121.81C167.852 120.469 172.088 119.702 176 120.109" stroke="black" stroke-width="3" stroke-linecap="round" stroke-linejoin="round"/>
<path d="M198.867 125.664C198.867 125.664 207.835 124.194 211.978 125.629C216.269 127.115 221.63 128.782 224.999 132" stroke="black" stroke-width="3" stroke-linecap="round" stroke-linejoin="round"/>
<path d="M172.605 151.896C169.594 151.612 178.641 152.415 181.667 152.415C186.359 152.415 191.184 151.983 195.795 151.125C199.637 150.411 203.341 149.17 207.218 148.656C208.847 148.44 212.119 147.369 213.533 148.534C216.485 150.967 214.591 154.772 211.303 156.098C205.002 158.641 196.005 159 189.374 159" stroke="black" stroke-width="3" stroke-linecap="round" stroke-linejoin="round"/>
<path d="M188 153.156C188 151.971 189.794 157.907 190 159" stroke="black" stroke-width="3" stroke-linecap="round" stroke-linejoin="round"/>
<path d="M202.007 151.014C201.915 150.725 202.782 155.027 203 156" stroke="black" stroke-width="3" stroke-linecap="round" stroke-linejoin="round"/>
<path d="M287.726 99.1607C286.17 97.5317 284.34 98.464 283.653 100.007C283.098 101.256 283.924 101.791 283.831 101.059C283.55 98.8383 282.608 100.715 283.001 101.02C283.821 101.657 284.142 100.267 283.548 100.029" stroke="black" stroke-width="3" stroke-linecap="round" stroke-linejoin="round"/>
<path d="M284.422 100.898C284.422 101.185 283.739 102.051 284.17 102.314C285.195 102.938 286.498 101.892 287.1 101.14C288.437 99.4702 283.572 98.5766 283.903 101.222" stroke="black" stroke-width="3" stroke-linecap="round" stroke-linejoin="round"/>
<path d="M283.805 101.284C283.805 102.669 277 99.7716 277 97.8095C277 95.9573 279.279 95.1914 280.744 94.8386C283.472 94.1813 284.263 96.2254 284.263 98.543" stroke="black" stroke-width="3" stroke-linecap="round" stroke-linejoin="round"/>
<path d="M287.136 99.9989C285.711 99.8607 288.683 89.6869 292.573 94.1161C295.486 97.4335 291.654 99.9189 288.202 100.06" stroke="black" stroke-width="3" stroke-linecap="round" stroke-linejoin="round"/>
<path d="M136.5 214L111 231" stroke="black" stroke-width="3" stroke-linecap="round" stroke-linejoin="round"/>
<path d="M157 195L147 247" stroke="black" stroke-width="3" stroke-linecap="round" stroke-linejoin="round"/>
<path d="M174.5 199.5L173.5 250.5" stroke="black" stroke-width="3" stroke-linecap="round" stroke-linejoin="round"/>
<path d="M230 221.5L237 247" stroke="black" stroke-width="3" stroke-linecap="round" stroke-linejoin="round"/>
<path d="M114.405 84.1791C110.553 84.6013 107.466 84.3673 103.585 84.3673C102.681 86.0781 102.681 87.5673 102.681 89.449C102.681 91.9834 103.265 94.6972 104.137 97.1655L106.748 103C103.585 101.874 99.6989 99.5044 96.0114 96.3453C92.3239 93.1861 89.9773 89.7638 88.9716 87.921C79.0569 90.9325 62.9904 86.4619 54.7787 81.356C46.1078 75.9646 37.7793 68.9023 35.5727 59.712C33.1023 49.4234 38.9983 38.3801 46.092 30.1633C53.5709 21.5003 68.265 20 80.1608 20C91.7975 20 103.338 21.6616 114.581 24.1406C119.5 25.2251 123.561 27.4166 128.038 28.8667C135.765 31.3699 141.129 35.7336 146.867 40.6193C153.219 46.0275 154.276 53.9719 151.687 61.0295C148.395 70.0039 140.198 75.8674 130.247 79.8503C125.18 81.8784 119.979 83.5683 114.405 84.1791Z" fill="white" stroke="black" stroke-width="3" stroke-linecap="round"/>
<path d="M62.4297 56.9375C62.6068 56.9375 62.7318 56.9792 62.8047 57.0625C62.8828 57.1406 62.9219 57.276 62.9219 57.4688C62.9219 57.6615 62.8828 57.7995 62.8047 57.8828C62.7318 57.9609 62.6068 58 62.4297 58H61.2656C61.0885 58 60.9609 57.9609 60.8828 57.8828C60.8099 57.7995 60.7734 57.6615 60.7734 57.4688V52.8438C60.7734 52.4844 60.7135 52.2161 60.5938 52.0391C60.4792 51.8568 60.2917 51.7656 60.0312 51.7656C59.7865 51.7656 59.5599 51.8802 59.3516 52.1094C59.1432 52.3333 58.9766 52.6484 58.8516 53.0547C58.7318 53.4557 58.6719 53.9141 58.6719 54.4297V56.9375H59.1172C59.2943 56.9375 59.4193 56.9792 59.4922 57.0625C59.5703 57.1406 59.6094 57.276 59.6094 57.4688C59.6094 57.6615 59.5703 57.7995 59.4922 57.8828C59.4193 57.9609 59.2943 58 59.1172 58H57.9922C57.8151 58 57.6875 57.9609 57.6094 57.8828C57.5365 57.7995 57.5 57.6615 57.5 57.4688V52.8438C57.5 52.4844 57.4401 52.2161 57.3203 52.0391C57.2057 51.8568 57.0182 51.7656 56.7578 51.7656C56.513 51.7656 56.2865 51.8802 56.0781 52.1094C55.8698 52.3333 55.7031 52.6484 55.5781 53.0547C55.4583 53.4557 55.3984 53.9141 55.3984 54.4297V56.9375H55.8047C55.9818 56.9375 56.1068 56.9792 56.1797 57.0625C56.2578 57.1406 56.2969 57.276 56.2969 57.4688C56.2969 57.6615 56.2578 57.7995 56.1797 57.8828C56.1068 57.9609 55.9818 58 55.8047 58H53.5859C53.4089 58 53.2812 57.9609 53.2031 57.8828C53.1302 57.7995 53.0938 57.6615 53.0938 57.4688C53.0938 57.276 53.1302 57.1406 53.2031 57.0625C53.2812 56.9792 53.4089 56.9375 53.5859 56.9375H54.2266V51.8438H53.5859C53.4089 51.8438 53.2812 51.8047 53.2031 51.7266C53.1302 51.6432 53.0938 51.5052 53.0938 51.3125C53.0938 51.1198 53.1302 50.9844 53.2031 50.9062C53.2812 50.8229 53.4089 50.7812 53.5859 50.7812H54.75C54.9271 50.7812 55.0521 50.8229 55.125 50.9062C55.2031 50.9844 55.2422 51.1198 55.2422 51.3125V52.0859C55.4661 51.5964 55.7344 51.2292 56.0469 50.9844C56.3594 50.7344 56.6979 50.6094 57.0625 50.6094C57.4167 50.6094 57.7266 50.7292 57.9922 50.9688C58.2578 51.2083 58.4375 51.5599 58.5312 52.0234C58.9948 51.0807 59.5938 50.6094 60.3281 50.6094C60.6354 50.6094 60.9089 50.6875 61.1484 50.8438C61.3932 50.9948 61.5859 51.2292 61.7266 51.5469C61.8724 51.8594 61.9453 52.2448 61.9453 52.7031V56.9375H62.4297ZM71.4297 50.7812C71.6068 50.7812 71.7318 50.8229 71.8047 50.9062C71.8828 50.9844 71.9219 51.1198 71.9219 51.3125C71.9219 51.5052 71.8828 51.6432 71.8047 51.7266C71.7318 51.8047 71.6068 51.8438 71.4297 51.8438H70.9453L67.75 58.3906C67.4115 59.0833 67.0807 59.6276 66.7578 60.0234C66.4349 60.4193 66.0703 60.7083 65.6641 60.8906C65.263 61.0781 64.7734 61.1823 64.1953 61.2031C64.013 61.2083 63.8724 61.1615 63.7734 61.0625C63.6745 60.9688 63.625 60.7995 63.625 60.5547C63.625 60.2161 63.763 60.0391 64.0391 60.0234C64.5391 59.9974 64.9349 59.9141 65.2266 59.7734C65.5234 59.6328 65.7943 59.3906 66.0391 59.0469C66.2891 58.7083 66.5938 58.1771 66.9531 57.4531L64.0938 51.8438H63.6016C63.4245 51.8438 63.2969 51.8047 63.2188 51.7266C63.1458 51.6432 63.1094 51.5052 63.1094 51.3125C63.1094 51.1198 63.1458 50.9844 63.2188 50.9062C63.2969 50.8229 63.4245 50.7812 63.6016 50.7812H66.3672C66.5443 50.7812 66.6693 50.8229 66.7422 50.9062C66.8203 50.9844 66.8594 51.1198 66.8594 51.3125C66.8594 51.5052 66.8203 51.6432 66.7422 51.7266C66.6693 51.8047 66.5443 51.8438 66.3672 51.8438H65.3672L67.5703 56.2344L69.6719 51.8438H68.9766C68.7995 51.8438 68.6719 51.8047 68.5938 51.7266C68.5208 51.6432 68.4844 51.5052 68.4844 51.3125C68.4844 51.1198 68.5208 50.9844 68.5938 50.9062C68.6719 50.8229 68.7995 50.7812 68.9766 50.7812H71.4297ZM84.3984 47.75C84.5755 47.75 84.7005 47.7917 84.7734 47.875C84.8516 47.9531 84.8906 48.0885 84.8906 48.2812V52.1719C85.2292 51.6667 85.6198 51.2812 86.0625 51.0156C86.5104 50.7448 86.9922 50.6094 87.5078 50.6094C87.9818 50.6094 88.3932 50.7135 88.7422 50.9219C89.0911 51.125 89.3594 51.4193 89.5469 51.8047C89.7344 52.1901 89.8281 52.6406 89.8281 53.1562V56.9375H90.4688C90.6458 56.9375 90.7708 56.9792 90.8438 57.0625C90.9219 57.1406 90.9609 57.276 90.9609 57.4688C90.9609 57.6615 90.9219 57.7995 90.8438 57.8828C90.7708 57.9609 90.6458 58 90.4688 58H87.9375C87.7604 58 87.6328 57.9609 87.5547 57.8828C87.4818 57.7995 87.4453 57.6615 87.4453 57.4688C87.4453 57.276 87.4818 57.1406 87.5547 57.0625C87.6328 56.9792 87.7604 56.9375 87.9375 56.9375H88.6562V53.2734C88.6562 52.8099 88.5495 52.4427 88.3359 52.1719C88.1224 51.901 87.8073 51.7656 87.3906 51.7656C86.9479 51.7656 86.5339 51.8932 86.1484 52.1484C85.7682 52.4036 85.4635 52.7552 85.2344 53.2031C85.0052 53.651 84.8906 54.151 84.8906 54.7031V56.9375H85.6094C85.7865 56.9375 85.9115 56.9792 85.9844 57.0625C86.0625 57.1406 86.1016 57.276 86.1016 57.4688C86.1016 57.6615 86.0625 57.7995 85.9844 57.8828C85.9115 57.9609 85.7865 58 85.6094 58H83.0781C82.901 58 82.7734 57.9609 82.6953 57.8828C82.6224 57.7995 82.5859 57.6615 82.5859 57.4688C82.5859 57.276 82.6224 57.1406 82.6953 57.0625C82.7734 56.9792 82.901 56.9375 83.0781 56.9375H83.7188V48.8125H83C82.8229 48.8125 82.6953 48.7734 82.6172 48.6953C82.5443 48.612 82.5078 48.474 82.5078 48.2812C82.5078 48.0885 82.5443 47.9531 82.6172 47.875C82.6953 47.7917 82.8229 47.75 83 47.75H84.3984ZM96.3672 50.6094C97.1224 50.6094 97.7656 50.763 98.2969 51.0703C98.8333 51.3724 99.2448 51.7943 99.5312 52.3359C99.8177 52.8724 99.9818 53.4922 100.023 54.1953C100.023 54.3724 99.9844 54.4974 99.9062 54.5703C99.8333 54.6432 99.7083 54.6797 99.5312 54.6797H93.875C93.9115 55.4557 94.1406 56.0443 94.5625 56.4453C94.9896 56.8411 95.5911 57.0391 96.3672 57.0391C96.8464 57.0391 97.3203 56.9792 97.7891 56.8594C98.2578 56.7344 98.6693 56.5703 99.0234 56.3672C99.112 56.3203 99.1927 56.2969 99.2656 56.2969C99.4479 56.2969 99.5964 56.4349 99.7109 56.7109C99.7578 56.8203 99.7812 56.9193 99.7812 57.0078C99.7812 57.2161 99.6667 57.3776 99.4375 57.4922C99.0365 57.6953 98.5625 57.8594 98.0156 57.9844C97.4688 58.1094 96.9193 58.1719 96.3672 58.1719C95.5807 58.1719 94.9089 58.0208 94.3516 57.7188C93.7943 57.4167 93.3698 56.9818 93.0781 56.4141C92.7865 55.8464 92.6406 55.1719 92.6406 54.3906C92.6406 53.6458 92.7995 52.987 93.1172 52.4141C93.4349 51.8411 93.875 51.3984 94.4375 51.0859C95 50.7682 95.6432 50.6094 96.3672 50.6094ZM96.3672 51.7422C95.7266 51.7422 95.1953 51.9062 94.7734 52.2344C94.3568 52.5573 94.0833 53.0078 93.9531 53.5859H98.7266C98.6172 52.987 98.3646 52.5312 97.9688 52.2188C97.5781 51.901 97.0443 51.7422 96.3672 51.7422ZM108.281 50.6094C108.688 50.6094 109.068 50.7135 109.422 50.9219C109.63 51.0469 109.734 51.2083 109.734 51.4062C109.734 51.5 109.711 51.6094 109.664 51.7344C109.555 52.0312 109.404 52.1797 109.211 52.1797C109.133 52.1797 109.06 52.1589 108.992 52.1172C108.737 51.9766 108.464 51.9062 108.172 51.9062C107.703 51.9062 107.232 52.0703 106.758 52.3984C106.284 52.7214 105.893 53.1536 105.586 53.6953C105.284 54.237 105.133 54.8125 105.133 55.4219V56.9375H107.766C107.943 56.9375 108.068 56.9792 108.141 57.0625C108.219 57.1406 108.258 57.276 108.258 57.4688C108.258 57.6615 108.219 57.7995 108.141 57.8828C108.068 57.9609 107.943 58 107.766 58H102.734C102.557 58 102.43 57.9609 102.352 57.8828C102.279 57.7995 102.242 57.6615 102.242 57.4688C102.242 57.276 102.279 57.1406 102.352 57.0625C102.43 56.9792 102.557 56.9375 102.734 56.9375H103.961V51.8438H102.969C102.792 51.8438 102.664 51.8047 102.586 51.7266C102.513 51.6432 102.477 51.5052 102.477 51.3125C102.477 51.1198 102.513 50.9844 102.586 50.9062C102.664 50.8229 102.792 50.7812 102.969 50.7812H104.562C104.74 50.7812 104.865 50.8229 104.938 50.9062C105.016 50.9844 105.055 51.1198 105.055 51.3125V52.8906C105.305 52.4323 105.607 52.0312 105.961 51.6875C106.315 51.3438 106.693 51.0781 107.094 50.8906C107.495 50.7031 107.891 50.6094 108.281 50.6094ZM115.484 50.6094C116.198 50.6094 116.841 50.7708 117.414 51.0938C117.987 51.4167 118.435 51.8672 118.758 52.4453C119.086 53.0182 119.25 53.6667 119.25 54.3906C119.25 55.1146 119.086 55.7656 118.758 56.3438C118.435 56.9167 117.987 57.3646 117.414 57.6875C116.841 58.0104 116.198 58.1719 115.484 58.1719C114.771 58.1719 114.128 58.0104 113.555 57.6875C112.982 57.3646 112.531 56.9167 112.203 56.3438C111.88 55.7656 111.719 55.1146 111.719 54.3906C111.719 53.6667 111.88 53.0182 112.203 52.4453C112.531 51.8672 112.982 51.4167 113.555 51.0938C114.128 50.7708 114.771 50.6094 115.484 50.6094ZM115.484 51.7656C114.979 51.7656 114.534 51.8776 114.148 52.1016C113.768 52.3203 113.474 52.6302 113.266 53.0312C113.057 53.4271 112.953 53.8802 112.953 54.3906C112.953 54.901 113.057 55.3568 113.266 55.7578C113.474 56.1536 113.768 56.4635 114.148 56.6875C114.534 56.9062 114.979 57.0156 115.484 57.0156C115.99 57.0156 116.432 56.9062 116.812 56.6875C117.198 56.4635 117.495 56.1536 117.703 55.7578C117.911 55.3568 118.016 54.901 118.016 54.3906C118.016 53.8802 117.911 53.4271 117.703 53.0312C117.495 52.6302 117.198 52.3203 116.812 52.1016C116.432 51.8776 115.99 51.7656 115.484 51.7656ZM125.586 48.0859C125.706 48.0859 125.792 48.1172 125.844 48.1797C125.896 48.2422 125.917 48.3411 125.906 48.4766L125.523 54C125.513 54.1198 125.469 54.2135 125.391 54.2812C125.318 54.3438 125.214 54.375 125.078 54.375C124.943 54.375 124.833 54.3438 124.75 54.2812C124.672 54.2135 124.63 54.1198 124.625 54L124.25 48.4766C124.24 48.3411 124.26 48.2422 124.312 48.1797C124.365 48.1172 124.451 48.0859 124.57 48.0859H125.586ZM125.078 55.8906C125.422 55.8906 125.669 55.9297 125.82 56.0078C125.977 56.0807 126.055 56.2057 126.055 56.3828V57.5859C126.055 57.763 125.977 57.8906 125.82 57.9688C125.669 58.0417 125.422 58.0781 125.078 58.0781C124.734 58.0781 124.484 58.0417 124.328 57.9688C124.177 57.8906 124.102 57.763 124.102 57.5859V56.3828C124.102 56.2057 124.177 56.0807 124.328 56.0078C124.484 55.9297 124.734 55.8906 125.078 55.8906Z" fill="black"/>

  </g>
  <g id="group2" style="display:none">

<path d="M165.838 125.809C162.121 126.73 157.917 124.042 154.321 123.555C146.736 122.528 143.872 113.333 145.395 106.815C148.291 101.292 151.483 98.2352 157.538 98.0118C160.364 97.9075 162.798 98.4865 165.233 100.014C171.104 103.697 173.418 110.797 171.13 117.427C170.212 120.089 168.949 125.039 165.838 125.809Z" stroke="black" stroke-width="3" stroke-linecap="round" stroke-linejoin="round"/>
<path d="M207.63 116.709C211.065 109.577 215.958 106.266 223.868 106.266C228 106.266 231.736 108.875 232.573 112.491C233.131 114.907 233.185 116.519 232.478 119.02C231.493 122.509 230.933 125.97 228.599 128.927C225.629 132.69 223.234 132 218.783 131.862C214.87 131.74 209.404 131.673 207.059 127.933C205.127 124.851 206.155 119.771 207.63 116.709Z" stroke="black" stroke-width="3" stroke-linecap="round" stroke-linejoin="round"/>
<path d="M225.5 106.5C222.771 106.5 219.967 107.34 218.072 109.628C216.175 111.919 214.928 116.388 217.299 118.731C219.549 120.955 222.457 121.807 225.543 121.982C229.378 122.198 232.143 120.94 233 117" stroke="black" stroke-width="3" stroke-linecap="round" stroke-linejoin="round"/>
<path d="M148.119 102.984C147.473 104.522 149.291 118.552 157.479 114.148C163.322 111.005 162.752 104.186 159.972 99" stroke="black" stroke-width="3" stroke-linecap="round" stroke-linejoin="round"/>
<path d="M137.173 165C136.123 164.906 140.183 143.936 140.738 141.823C142.662 134.506 145.479 127.863 149.5 121.5" stroke="black" stroke-width="3" stroke-linecap="round" stroke-linejoin="round"/>
<path d="M172 110.941C172 110.941 177.833 108 188.439 108C193.183 108 205.373 111.14 207 117" stroke="black" stroke-width="3" stroke-linecap="round" stroke-linejoin="round"/>
<path d="M225 132.383C225 132.383 228.332 139 230.903 148.225C232.62 154.389 235 161.547 235 168" stroke="black" stroke-width="3" stroke-linecap="round" stroke-linejoin="round"/>
<path d="M137 165C132 167 129.657 169.874 126.961 173.456C121.285 181 117.648 189.34 119.476 198.928C122.035 212.351 130.003 221.132 141.359 228.677C148.796 233.618 154.137 236.127 163.007 237.718C177.12 240.25 193.688 241.361 207.82 237.839C226.085 233.289 244.983 226.89 252.995 207.551C256.644 198.744 257.813 186.033 251.632 178.043C248.093 173.47 240.907 170.054 235.5 168" stroke="black" stroke-width="3" stroke-linecap="round" stroke-linejoin="round"/>
<path d="M152 128C152 128 153.997 126.562 154.563 126.138C156.838 124.434 159.331 122.797 162.096 121.81C165.852 120.469 170.088 119.702 174 120.109" stroke="black" stroke-width="3" stroke-linecap="round" stroke-linejoin="round"/>
<path d="M198.867 126.664C198.867 126.664 207.835 125.194 211.978 126.629C216.269 128.115 221.63 129.782 224.999 133" stroke="black" stroke-width="3" stroke-linecap="round" stroke-linejoin="round"/>
<path d="M174.562 152.632C171.543 152.454 180.613 152.939 183.637 152.833C188.326 152.668 193.133 152.065 197.711 151.046C201.525 150.197 205.183 148.827 209.039 148.177C210.66 147.904 213.892 146.719 215.346 147.833C218.383 150.16 216.623 154.03 213.384 155.471C207.176 158.233 198.197 158.909 191.571 159.142" stroke="black" stroke-width="3" stroke-linecap="round" stroke-linejoin="round"/>
<path d="M189.99 152.349C189.948 151.165 191.95 157.035 192.194 158.119" stroke="black" stroke-width="3" stroke-linecap="round" stroke-linejoin="round"/>
<path d="M203.914 150.717C203.812 150.431 204.829 154.7 205.081 155.665" stroke="black" stroke-width="3" stroke-linecap="round" stroke-linejoin="round"/>
<path d="M287.726 96.1607C286.17 94.5317 284.34 95.464 283.653 97.0074C283.098 98.2557 283.924 98.7913 283.831 98.0586C283.55 95.8383 282.608 97.7145 283.001 98.0199C283.821 98.6572 284.142 97.2674 283.548 97.0295" stroke="black" stroke-width="3" stroke-linecap="round" stroke-linejoin="round"/>
<path d="M284.422 97.8982C284.422 98.1852 283.739 99.0514 284.17 99.3138C285.195 99.9382 286.498 98.8918 287.1 98.1398C288.437 96.4702 283.572 95.5766 283.903 98.2224" stroke="black" stroke-width="3" stroke-linecap="round" stroke-linejoin="round"/>
<path d="M283.805 98.2838C283.805 99.6689 277 96.7716 277 94.8095C277 92.9573 279.279 92.1914 280.744 91.8386C283.472 91.1813 284.263 93.2254 284.263 95.543" stroke="black" stroke-width="3" stroke-linecap="round" stroke-linejoin="round"/>
<path d="M287.136 96.9989C285.711 96.8607 288.683 86.6869 292.573 91.1161C295.486 94.4335 291.654 96.9189 288.202 97.06" stroke="black" stroke-width="3" stroke-linecap="round" stroke-linejoin="round"/>
<path d="M134.5 213L108 229" stroke="black" stroke-width="3" stroke-linecap="round" stroke-linejoin="round"/>
<path d="M157 195L145 247" stroke="black" stroke-width="3" stroke-linecap="round" stroke-linejoin="round"/>
<path d="M174.5 199.5V249.5" stroke="black" stroke-width="3" stroke-linecap="round" stroke-linejoin="round"/>
<path d="M228 220.5L235 246" stroke="black" stroke-width="3" stroke-linecap="round" stroke-linejoin="round"/>
<path d="M114.405 84.1791C110.553 84.6013 107.466 84.3673 103.585 84.3673C102.681 86.0781 102.681 87.5673 102.681 89.449C102.681 91.9834 103.265 94.6972 104.137 97.1655L106.748 103C103.585 101.874 99.6989 99.5044 96.0114 96.3453C92.3239 93.1861 89.9773 89.7638 88.9716 87.921C79.0569 90.9325 62.9904 86.4619 54.7787 81.356C46.1078 75.9646 37.7793 68.9023 35.5727 59.712C33.1023 49.4234 38.9983 38.3801 46.092 30.1633C53.5709 21.5003 68.265 20 80.1608 20C91.7975 20 103.338 21.6616 114.581 24.1406C119.5 25.2251 123.561 27.4166 128.038 28.8667C135.765 31.3699 141.129 35.7336 146.867 40.6193C153.219 46.0275 154.276 53.9719 151.687 61.0295C148.395 70.0039 140.198 75.8674 130.247 79.8503C125.18 81.8784 119.979 83.5683 114.405 84.1791Z" fill="white" stroke="black" stroke-width="3" stroke-linecap="round"/>
<path d="M62.4297 56.9375C62.6068 56.9375 62.7318 56.9792 62.8047 57.0625C62.8828 57.1406 62.9219 57.276 62.9219 57.4688C62.9219 57.6615 62.8828 57.7995 62.8047 57.8828C62.7318 57.9609 62.6068 58 62.4297 58H61.2656C61.0885 58 60.9609 57.9609 60.8828 57.8828C60.8099 57.7995 60.7734 57.6615 60.7734 57.4688V52.8438C60.7734 52.4844 60.7135 52.2161 60.5938 52.0391C60.4792 51.8568 60.2917 51.7656 60.0312 51.7656C59.7865 51.7656 59.5599 51.8802 59.3516 52.1094C59.1432 52.3333 58.9766 52.6484 58.8516 53.0547C58.7318 53.4557 58.6719 53.9141 58.6719 54.4297V56.9375H59.1172C59.2943 56.9375 59.4193 56.9792 59.4922 57.0625C59.5703 57.1406 59.6094 57.276 59.6094 57.4688C59.6094 57.6615 59.5703 57.7995 59.4922 57.8828C59.4193 57.9609 59.2943 58 59.1172 58H57.9922C57.8151 58 57.6875 57.9609 57.6094 57.8828C57.5365 57.7995 57.5 57.6615 57.5 57.4688V52.8438C57.5 52.4844 57.4401 52.2161 57.3203 52.0391C57.2057 51.8568 57.0182 51.7656 56.7578 51.7656C56.513 51.7656 56.2865 51.8802 56.0781 52.1094C55.8698 52.3333 55.7031 52.6484 55.5781 53.0547C55.4583 53.4557 55.3984 53.9141 55.3984 54.4297V56.9375H55.8047C55.9818 56.9375 56.1068 56.9792 56.1797 57.0625C56.2578 57.1406 56.2969 57.276 56.2969 57.4688C56.2969 57.6615 56.2578 57.7995 56.1797 57.8828C56.1068 57.9609 55.9818 58 55.8047 58H53.5859C53.4089 58 53.2812 57.9609 53.2031 57.8828C53.1302 57.7995 53.0938 57.6615 53.0938 57.4688C53.0938 57.276 53.1302 57.1406 53.2031 57.0625C53.2812 56.9792 53.4089 56.9375 53.5859 56.9375H54.2266V51.8438H53.5859C53.4089 51.8438 53.2812 51.8047 53.2031 51.7266C53.1302 51.6432 53.0938 51.5052 53.0938 51.3125C53.0938 51.1198 53.1302 50.9844 53.2031 50.9062C53.2812 50.8229 53.4089 50.7812 53.5859 50.7812H54.75C54.9271 50.7812 55.0521 50.8229 55.125 50.9062C55.2031 50.9844 55.2422 51.1198 55.2422 51.3125V52.0859C55.4661 51.5964 55.7344 51.2292 56.0469 50.9844C56.3594 50.7344 56.6979 50.6094 57.0625 50.6094C57.4167 50.6094 57.7266 50.7292 57.9922 50.9688C58.2578 51.2083 58.4375 51.5599 58.5312 52.0234C58.9948 51.0807 59.5938 50.6094 60.3281 50.6094C60.6354 50.6094 60.9089 50.6875 61.1484 50.8438C61.3932 50.9948 61.5859 51.2292 61.7266 51.5469C61.8724 51.8594 61.9453 52.2448 61.9453 52.7031V56.9375H62.4297ZM71.4297 50.7812C71.6068 50.7812 71.7318 50.8229 71.8047 50.9062C71.8828 50.9844 71.9219 51.1198 71.9219 51.3125C71.9219 51.5052 71.8828 51.6432 71.8047 51.7266C71.7318 51.8047 71.6068 51.8438 71.4297 51.8438H70.9453L67.75 58.3906C67.4115 59.0833 67.0807 59.6276 66.7578 60.0234C66.4349 60.4193 66.0703 60.7083 65.6641 60.8906C65.263 61.0781 64.7734 61.1823 64.1953 61.2031C64.013 61.2083 63.8724 61.1615 63.7734 61.0625C63.6745 60.9688 63.625 60.7995 63.625 60.5547C63.625 60.2161 63.763 60.0391 64.0391 60.0234C64.5391 59.9974 64.9349 59.9141 65.2266 59.7734C65.5234 59.6328 65.7943 59.3906 66.0391 59.0469C66.2891 58.7083 66.5938 58.1771 66.9531 57.4531L64.0938 51.8438H63.6016C63.4245 51.8438 63.2969 51.8047 63.2188 51.7266C63.1458 51.6432 63.1094 51.5052 63.1094 51.3125C63.1094 51.1198 63.1458 50.9844 63.2188 50.9062C63.2969 50.8229 63.4245 50.7812 63.6016 50.7812H66.3672C66.5443 50.7812 66.6693 50.8229 66.7422 50.9062C66.8203 50.9844 66.8594 51.1198 66.8594 51.3125C66.8594 51.5052 66.8203 51.6432 66.7422 51.7266C66.6693 51.8047 66.5443 51.8438 66.3672 51.8438H65.3672L67.5703 56.2344L69.6719 51.8438H68.9766C68.7995 51.8438 68.6719 51.8047 68.5938 51.7266C68.5208 51.6432 68.4844 51.5052 68.4844 51.3125C68.4844 51.1198 68.5208 50.9844 68.5938 50.9062C68.6719 50.8229 68.7995 50.7812 68.9766 50.7812H71.4297ZM84.3984 47.75C84.5755 47.75 84.7005 47.7917 84.7734 47.875C84.8516 47.9531 84.8906 48.0885 84.8906 48.2812V52.1719C85.2292 51.6667 85.6198 51.2812 86.0625 51.0156C86.5104 50.7448 86.9922 50.6094 87.5078 50.6094C87.9818 50.6094 88.3932 50.7135 88.7422 50.9219C89.0911 51.125 89.3594 51.4193 89.5469 51.8047C89.7344 52.1901 89.8281 52.6406 89.8281 53.1562V56.9375H90.4688C90.6458 56.9375 90.7708 56.9792 90.8438 57.0625C90.9219 57.1406 90.9609 57.276 90.9609 57.4688C90.9609 57.6615 90.9219 57.7995 90.8438 57.8828C90.7708 57.9609 90.6458 58 90.4688 58H87.9375C87.7604 58 87.6328 57.9609 87.5547 57.8828C87.4818 57.7995 87.4453 57.6615 87.4453 57.4688C87.4453 57.276 87.4818 57.1406 87.5547 57.0625C87.6328 56.9792 87.7604 56.9375 87.9375 56.9375H88.6562V53.2734C88.6562 52.8099 88.5495 52.4427 88.3359 52.1719C88.1224 51.901 87.8073 51.7656 87.3906 51.7656C86.9479 51.7656 86.5339 51.8932 86.1484 52.1484C85.7682 52.4036 85.4635 52.7552 85.2344 53.2031C85.0052 53.651 84.8906 54.151 84.8906 54.7031V56.9375H85.6094C85.7865 56.9375 85.9115 56.9792 85.9844 57.0625C86.0625 57.1406 86.1016 57.276 86.1016 57.4688C86.1016 57.6615 86.0625 57.7995 85.9844 57.8828C85.9115 57.9609 85.7865 58 85.6094 58H83.0781C82.901 58 82.7734 57.9609 82.6953 57.8828C82.6224 57.7995 82.5859 57.6615 82.5859 57.4688C82.5859 57.276 82.6224 57.1406 82.6953 57.0625C82.7734 56.9792 82.901 56.9375 83.0781 56.9375H83.7188V48.8125H83C82.8229 48.8125 82.6953 48.7734 82.6172 48.6953C82.5443 48.612 82.5078 48.474 82.5078 48.2812C82.5078 48.0885 82.5443 47.9531 82.6172 47.875C82.6953 47.7917 82.8229 47.75 83 47.75H84.3984ZM96.3672 50.6094C97.1224 50.6094 97.7656 50.763 98.2969 51.0703C98.8333 51.3724 99.2448 51.7943 99.5312 52.3359C99.8177 52.8724 99.9818 53.4922 100.023 54.1953C100.023 54.3724 99.9844 54.4974 99.9062 54.5703C99.8333 54.6432 99.7083 54.6797 99.5312 54.6797H93.875C93.9115 55.4557 94.1406 56.0443 94.5625 56.4453C94.9896 56.8411 95.5911 57.0391 96.3672 57.0391C96.8464 57.0391 97.3203 56.9792 97.7891 56.8594C98.2578 56.7344 98.6693 56.5703 99.0234 56.3672C99.112 56.3203 99.1927 56.2969 99.2656 56.2969C99.4479 56.2969 99.5964 56.4349 99.7109 56.7109C99.7578 56.8203 99.7812 56.9193 99.7812 57.0078C99.7812 57.2161 99.6667 57.3776 99.4375 57.4922C99.0365 57.6953 98.5625 57.8594 98.0156 57.9844C97.4688 58.1094 96.9193 58.1719 96.3672 58.1719C95.5807 58.1719 94.9089 58.0208 94.3516 57.7188C93.7943 57.4167 93.3698 56.9818 93.0781 56.4141C92.7865 55.8464 92.6406 55.1719 92.6406 54.3906C92.6406 53.6458 92.7995 52.987 93.1172 52.4141C93.4349 51.8411 93.875 51.3984 94.4375 51.0859C95 50.7682 95.6432 50.6094 96.3672 50.6094ZM96.3672 51.7422C95.7266 51.7422 95.1953 51.9062 94.7734 52.2344C94.3568 52.5573 94.0833 53.0078 93.9531 53.5859H98.7266C98.6172 52.987 98.3646 52.5312 97.9688 52.2188C97.5781 51.901 97.0443 51.7422 96.3672 51.7422ZM108.281 50.6094C108.688 50.6094 109.068 50.7135 109.422 50.9219C109.63 51.0469 109.734 51.2083 109.734 51.4062C109.734 51.5 109.711 51.6094 109.664 51.7344C109.555 52.0312 109.404 52.1797 109.211 52.1797C109.133 52.1797 109.06 52.1589 108.992 52.1172C108.737 51.9766 108.464 51.9062 108.172 51.9062C107.703 51.9062 107.232 52.0703 106.758 52.3984C106.284 52.7214 105.893 53.1536 105.586 53.6953C105.284 54.237 105.133 54.8125 105.133 55.4219V56.9375H107.766C107.943 56.9375 108.068 56.9792 108.141 57.0625C108.219 57.1406 108.258 57.276 108.258 57.4688C108.258 57.6615 108.219 57.7995 108.141 57.8828C108.068 57.9609 107.943 58 107.766 58H102.734C102.557 58 102.43 57.9609 102.352 57.8828C102.279 57.7995 102.242 57.6615 102.242 57.4688C102.242 57.276 102.279 57.1406 102.352 57.0625C102.43 56.9792 102.557 56.9375 102.734 56.9375H103.961V51.8438H102.969C102.792 51.8438 102.664 51.8047 102.586 51.7266C102.513 51.6432 102.477 51.5052 102.477 51.3125C102.477 51.1198 102.513 50.9844 102.586 50.9062C102.664 50.8229 102.792 50.7812 102.969 50.7812H104.562C104.74 50.7812 104.865 50.8229 104.938 50.9062C105.016 50.9844 105.055 51.1198 105.055 51.3125V52.8906C105.305 52.4323 105.607 52.0312 105.961 51.6875C106.315 51.3438 106.693 51.0781 107.094 50.8906C107.495 50.7031 107.891 50.6094 108.281 50.6094ZM115.484 50.6094C116.198 50.6094 116.841 50.7708 117.414 51.0938C117.987 51.4167 118.435 51.8672 118.758 52.4453C119.086 53.0182 119.25 53.6667 119.25 54.3906C119.25 55.1146 119.086 55.7656 118.758 56.3438C118.435 56.9167 117.987 57.3646 117.414 57.6875C116.841 58.0104 116.198 58.1719 115.484 58.1719C114.771 58.1719 114.128 58.0104 113.555 57.6875C112.982 57.3646 112.531 56.9167 112.203 56.3438C111.88 55.7656 111.719 55.1146 111.719 54.3906C111.719 53.6667 111.88 53.0182 112.203 52.4453C112.531 51.8672 112.982 51.4167 113.555 51.0938C114.128 50.7708 114.771 50.6094 115.484 50.6094ZM115.484 51.7656C114.979 51.7656 114.534 51.8776 114.148 52.1016C113.768 52.3203 113.474 52.6302 113.266 53.0312C113.057 53.4271 112.953 53.8802 112.953 54.3906C112.953 54.901 113.057 55.3568 113.266 55.7578C113.474 56.1536 113.768 56.4635 114.148 56.6875C114.534 56.9062 114.979 57.0156 115.484 57.0156C115.99 57.0156 116.432 56.9062 116.812 56.6875C117.198 56.4635 117.495 56.1536 117.703 55.7578C117.911 55.3568 118.016 54.901 118.016 54.3906C118.016 53.8802 117.911 53.4271 117.703 53.0312C117.495 52.6302 117.198 52.3203 116.812 52.1016C116.432 51.8776 115.99 51.7656 115.484 51.7656ZM125.586 48.0859C125.706 48.0859 125.792 48.1172 125.844 48.1797C125.896 48.2422 125.917 48.3411 125.906 48.4766L125.523 54C125.513 54.1198 125.469 54.2135 125.391 54.2812C125.318 54.3438 125.214 54.375 125.078 54.375C124.943 54.375 124.833 54.3438 124.75 54.2812C124.672 54.2135 124.63 54.1198 124.625 54L124.25 48.4766C124.24 48.3411 124.26 48.2422 124.312 48.1797C124.365 48.1172 124.451 48.0859 124.57 48.0859H125.586ZM125.078 55.8906C125.422 55.8906 125.669 55.9297 125.82 56.0078C125.977 56.0807 126.055 56.2057 126.055 56.3828V57.5859C126.055 57.763 125.977 57.8906 125.82 57.9688C125.669 58.0417 125.422 58.0781 125.078 58.0781C124.734 58.0781 124.484 58.0417 124.328 57.9688C124.177 57.8906 124.102 57.763 124.102 57.5859V56.3828C124.102 56.2057 124.177 56.0807 124.328 56.0078C124.484 55.9297 124.734 55.8906 125.078 55.8906Z" fill="black"/>
  </g>
  <animate xlink:href="#group1" attributeName="display" from="inline" to="none" dur="1s" begin="0s" repeatCount="indefinite" />
  <animate xlink:href="#group2" attributeName="display" from="none" to="inline" dur="1s" begin="0s" repeatCount="indefinite" />
</svg>