<svg width="376" height="234" viewBox="0 0 376 234" fill="none" xmlns="http://www.w3.org/2000/svg" xmlns:xlink="http://www.w3.org/1999/xlink">
  <g id="group1">
<path d="M248.875 103.714C234.252 103.714 217.186 97.9116 204.238 91.5C190.498 84.6962 179.465 75.874 174.442 59.7041C171.672 50.7908 168.706 39.0172 170.596 29.6588C171.58 24.7843 175.032 15.3392 179.654 12.4779C187.391 7.68897 202.591 5.65061 211.359 5.45324C236.387 4.88989 257.703 2 282.738 2C309.811 2 341.607 11.4013 366.164 22.2109C372.978 25.2101 374.24 35.9177 374.24 42.3963C374.24 53.3708 368.894 72.3756 359.738 79.5C346.678 89.6625 336.23 93.5911 321.171 101.048C310.809 106.179 295.343 105.999 283.869 105.999C276.812 105.999 269.537 105.238 262.719 105.238" stroke="black" stroke-width="3" stroke-linecap="round"/>
<path d="M249.204 104C249.204 111.162 247.366 118.522 244.145 124.922C242.757 127.68 238.727 135 238.73 135C238.734 135 252.179 124.864 255.204 121C258.346 116.988 261.704 111 262.704 105.5" stroke="black" stroke-width="3" stroke-linecap="round"/>
<path d="M202.633 33.7266C202.81 33.7266 202.935 33.7682 203.008 33.8516C203.086 33.9297 203.125 34.0651 203.125 34.2578C203.125 34.4505 203.086 34.5885 203.008 34.6719C202.935 34.75 202.81 34.7891 202.633 34.7891H200.633V41.9375H202.789C202.966 41.9375 203.091 41.9792 203.164 42.0625C203.242 42.1406 203.281 42.276 203.281 42.4688C203.281 42.6615 203.242 42.7995 203.164 42.8828C203.091 42.9609 202.966 43 202.789 43H197.305C197.128 43 197 42.9609 196.922 42.8828C196.849 42.7995 196.812 42.6615 196.812 42.4688C196.812 42.276 196.849 42.1406 196.922 42.0625C197 41.9792 197.128 41.9375 197.305 41.9375H199.461V34.7891H197.461C197.284 34.7891 197.156 34.75 197.078 34.6719C197.005 34.5885 196.969 34.4505 196.969 34.2578C196.969 34.0651 197.005 33.9297 197.078 33.8516C197.156 33.7682 197.284 33.7266 197.461 33.7266H202.633ZM219.266 35.6094C220.245 35.6094 220.979 35.8281 221.469 36.2656C221.958 36.7031 222.203 37.3516 222.203 38.2109V41.3203C222.203 41.7318 222.375 41.9375 222.719 41.9375H222.992C223.169 41.9375 223.294 41.9792 223.367 42.0625C223.445 42.1406 223.484 42.276 223.484 42.4688C223.484 42.6615 223.445 42.7995 223.367 42.8828C223.294 42.9609 223.169 43 222.992 43H222.492C222.154 43 221.862 42.9167 221.617 42.75C221.378 42.5781 221.221 42.3281 221.148 42C220.721 42.375 220.258 42.6641 219.758 42.8672C219.263 43.0703 218.737 43.1719 218.18 43.1719C217.654 43.1719 217.188 43.0833 216.781 42.9062C216.38 42.724 216.065 42.4609 215.836 42.1172C215.607 41.7734 215.492 41.3646 215.492 40.8906C215.492 40.0677 215.786 39.4609 216.375 39.0703C216.964 38.6745 217.724 38.4766 218.656 38.4766C219.484 38.4766 220.276 38.6094 221.031 38.875V38.2109C221.031 37.7057 220.888 37.3359 220.602 37.1016C220.32 36.862 219.865 36.7422 219.234 36.7422C218.844 36.7422 218.438 36.7969 218.016 36.9062C217.594 37.0156 217.193 37.1667 216.812 37.3594C216.724 37.4062 216.643 37.4297 216.57 37.4297C216.398 37.4297 216.255 37.3047 216.141 37.0547C216.083 36.9297 216.055 36.8255 216.055 36.7422C216.055 36.5599 216.151 36.4193 216.344 36.3203C216.781 36.0911 217.25 35.9167 217.75 35.7969C218.255 35.6719 218.76 35.6094 219.266 35.6094ZM218.664 39.5781C218.065 39.5781 217.591 39.6823 217.242 39.8906C216.898 40.0938 216.727 40.4193 216.727 40.8672C216.727 41.2474 216.857 41.5443 217.117 41.7578C217.383 41.9661 217.753 42.0703 218.227 42.0703C219.263 42.0703 220.198 41.6406 221.031 40.7812V39.9297C220.677 39.8151 220.297 39.7292 219.891 39.6719C219.484 39.6094 219.076 39.5781 218.664 39.5781ZM233.336 41.9375C233.513 41.9375 233.638 41.9792 233.711 42.0625C233.789 42.1406 233.828 42.276 233.828 42.4688C233.828 42.6615 233.789 42.7995 233.711 42.8828C233.638 42.9609 233.513 43 233.336 43H232.172C231.995 43 231.867 42.9609 231.789 42.8828C231.716 42.7995 231.68 42.6615 231.68 42.4688V37.8438C231.68 37.4844 231.62 37.2161 231.5 37.0391C231.385 36.8568 231.198 36.7656 230.938 36.7656C230.693 36.7656 230.466 36.8802 230.258 37.1094C230.049 37.3333 229.883 37.6484 229.758 38.0547C229.638 38.4557 229.578 38.9141 229.578 39.4297V41.9375H230.023C230.201 41.9375 230.326 41.9792 230.398 42.0625C230.477 42.1406 230.516 42.276 230.516 42.4688C230.516 42.6615 230.477 42.7995 230.398 42.8828C230.326 42.9609 230.201 43 230.023 43H228.898C228.721 43 228.594 42.9609 228.516 42.8828C228.443 42.7995 228.406 42.6615 228.406 42.4688V37.8438C228.406 37.4844 228.346 37.2161 228.227 37.0391C228.112 36.8568 227.924 36.7656 227.664 36.7656C227.419 36.7656 227.193 36.8802 226.984 37.1094C226.776 37.3333 226.609 37.6484 226.484 38.0547C226.365 38.4557 226.305 38.9141 226.305 39.4297V41.9375H226.711C226.888 41.9375 227.013 41.9792 227.086 42.0625C227.164 42.1406 227.203 42.276 227.203 42.4688C227.203 42.6615 227.164 42.7995 227.086 42.8828C227.013 42.9609 226.888 43 226.711 43H224.492C224.315 43 224.188 42.9609 224.109 42.8828C224.036 42.7995 224 42.6615 224 42.4688C224 42.276 224.036 42.1406 224.109 42.0625C224.188 41.9792 224.315 41.9375 224.492 41.9375H225.133V36.8438H224.492C224.315 36.8438 224.188 36.8047 224.109 36.7266C224.036 36.6432 224 36.5052 224 36.3125C224 36.1198 224.036 35.9844 224.109 35.9062C224.188 35.8229 224.315 35.7812 224.492 35.7812H225.656C225.833 35.7812 225.958 35.8229 226.031 35.9062C226.109 35.9844 226.148 36.1198 226.148 36.3125V37.0859C226.372 36.5964 226.641 36.2292 226.953 35.9844C227.266 35.7344 227.604 35.6094 227.969 35.6094C228.323 35.6094 228.633 35.7292 228.898 35.9688C229.164 36.2083 229.344 36.5599 229.438 37.0234C229.901 36.0807 230.5 35.6094 231.234 35.6094C231.542 35.6094 231.815 35.6875 232.055 35.8438C232.299 35.9948 232.492 36.2292 232.633 36.5469C232.779 36.8594 232.852 37.2448 232.852 37.7031V41.9375H233.336ZM248.047 35.6094C249.026 35.6094 249.76 35.8281 250.25 36.2656C250.74 36.7031 250.984 37.3516 250.984 38.2109V41.3203C250.984 41.7318 251.156 41.9375 251.5 41.9375H251.773C251.951 41.9375 252.076 41.9792 252.148 42.0625C252.227 42.1406 252.266 42.276 252.266 42.4688C252.266 42.6615 252.227 42.7995 252.148 42.8828C252.076 42.9609 251.951 43 251.773 43H251.273C250.935 43 250.643 42.9167 250.398 42.75C250.159 42.5781 250.003 42.3281 249.93 42C249.503 42.375 249.039 42.6641 248.539 42.8672C248.044 43.0703 247.518 43.1719 246.961 43.1719C246.435 43.1719 245.969 43.0833 245.562 42.9062C245.161 42.724 244.846 42.4609 244.617 42.1172C244.388 41.7734 244.273 41.3646 244.273 40.8906C244.273 40.0677 244.568 39.4609 245.156 39.0703C245.745 38.6745 246.505 38.4766 247.438 38.4766C248.266 38.4766 249.057 38.6094 249.812 38.875V38.2109C249.812 37.7057 249.669 37.3359 249.383 37.1016C249.102 36.862 248.646 36.7422 248.016 36.7422C247.625 36.7422 247.219 36.7969 246.797 36.9062C246.375 37.0156 245.974 37.1667 245.594 37.3594C245.505 37.4062 245.424 37.4297 245.352 37.4297C245.18 37.4297 245.036 37.3047 244.922 37.0547C244.865 36.9297 244.836 36.8255 244.836 36.7422C244.836 36.5599 244.932 36.4193 245.125 36.3203C245.562 36.0911 246.031 35.9167 246.531 35.7969C247.036 35.6719 247.542 35.6094 248.047 35.6094ZM247.445 39.5781C246.846 39.5781 246.372 39.6823 246.023 39.8906C245.68 40.0938 245.508 40.4193 245.508 40.8672C245.508 41.2474 245.638 41.5443 245.898 41.7578C246.164 41.9661 246.534 42.0703 247.008 42.0703C248.044 42.0703 248.979 41.6406 249.812 40.7812V39.9297C249.458 39.8151 249.078 39.7292 248.672 39.6719C248.266 39.6094 247.857 39.5781 247.445 39.5781ZM268.656 32.7109C269.354 32.7109 270.047 32.8438 270.734 33.1094C270.984 33.2031 271.109 33.375 271.109 33.625C271.109 33.6823 271.102 33.75 271.086 33.8281C271.013 34.125 270.883 34.2734 270.695 34.2734C270.638 34.2734 270.576 34.2604 270.508 34.2344C269.846 33.9792 269.229 33.8516 268.656 33.8516C267.604 33.8516 267.078 34.4167 267.078 35.5469V36.4062H269.781C269.958 36.4062 270.083 36.4479 270.156 36.5312C270.234 36.6094 270.273 36.7448 270.273 36.9375C270.273 37.1302 270.234 37.2682 270.156 37.3516C270.083 37.4297 269.958 37.4688 269.781 37.4688H267.078V41.9375H269.781C269.958 41.9375 270.083 41.9792 270.156 42.0625C270.234 42.1406 270.273 42.276 270.273 42.4688C270.273 42.6615 270.234 42.7995 270.156 42.8828C270.083 42.9609 269.958 43 269.781 43H264.359C264.182 43 264.055 42.9609 263.977 42.8828C263.904 42.7995 263.867 42.6615 263.867 42.4688C263.867 42.276 263.904 42.1406 263.977 42.0625C264.055 41.9792 264.182 41.9375 264.359 41.9375H265.906V37.4688H264.359C264.182 37.4688 264.055 37.4297 263.977 37.3516C263.904 37.2682 263.867 37.1302 263.867 36.9375C263.867 36.7448 263.904 36.6094 263.977 36.5312C264.055 36.4479 264.182 36.4062 264.359 36.4062H265.906V35.4453C265.906 34.5859 266.146 33.9167 266.625 33.4375C267.109 32.9531 267.786 32.7109 268.656 32.7109ZM277.078 35.7812C277.255 35.7812 277.38 35.8229 277.453 35.9062C277.531 35.9844 277.57 36.1198 277.57 36.3125V41.9375H280.078C280.255 41.9375 280.38 41.9792 280.453 42.0625C280.531 42.1406 280.57 42.276 280.57 42.4688C280.57 42.6615 280.531 42.7995 280.453 42.8828C280.38 42.9609 280.255 43 280.078 43H273.953C273.776 43 273.648 42.9609 273.57 42.8828C273.497 42.7995 273.461 42.6615 273.461 42.4688C273.461 42.276 273.497 42.1406 273.57 42.0625C273.648 41.9792 273.776 41.9375 273.953 41.9375H276.398V36.8438H274.422C274.245 36.8438 274.117 36.8047 274.039 36.7266C273.966 36.6432 273.93 36.5052 273.93 36.3125C273.93 36.1198 273.966 35.9844 274.039 35.9062C274.117 35.8229 274.245 35.7812 274.422 35.7812H277.078ZM276.828 32.3516C277.115 32.3516 277.31 32.3906 277.414 32.4688C277.518 32.5417 277.57 32.6719 277.57 32.8594V33.875C277.57 34.0625 277.518 34.1953 277.414 34.2734C277.31 34.3464 277.115 34.3828 276.828 34.3828C276.542 34.3828 276.346 34.3464 276.242 34.2734C276.138 34.1953 276.086 34.0625 276.086 33.875V32.8594C276.086 32.6719 276.138 32.5417 276.242 32.4688C276.346 32.3906 276.542 32.3516 276.828 32.3516ZM287.273 35.6094C287.747 35.6094 288.159 35.7135 288.508 35.9219C288.857 36.125 289.125 36.4193 289.312 36.8047C289.5 37.1901 289.594 37.6406 289.594 38.1562V41.9375H290.234C290.411 41.9375 290.536 41.9792 290.609 42.0625C290.688 42.1406 290.727 42.276 290.727 42.4688C290.727 42.6615 290.688 42.7995 290.609 42.8828C290.536 42.9609 290.411 43 290.234 43H287.703C287.526 43 287.398 42.9609 287.32 42.8828C287.247 42.7995 287.211 42.6615 287.211 42.4688C287.211 42.276 287.247 42.1406 287.32 42.0625C287.398 41.9792 287.526 41.9375 287.703 41.9375H288.422V38.2734C288.422 37.8099 288.315 37.4427 288.102 37.1719C287.888 36.901 287.573 36.7656 287.156 36.7656C286.714 36.7656 286.299 36.8932 285.914 37.1484C285.534 37.4036 285.229 37.7552 285 38.2031C284.771 38.651 284.656 39.151 284.656 39.7031V41.9375H285.375C285.552 41.9375 285.677 41.9792 285.75 42.0625C285.828 42.1406 285.867 42.276 285.867 42.4688C285.867 42.6615 285.828 42.7995 285.75 42.8828C285.677 42.9609 285.552 43 285.375 43H282.844C282.667 43 282.539 42.9609 282.461 42.8828C282.388 42.7995 282.352 42.6615 282.352 42.4688C282.352 42.276 282.388 42.1406 282.461 42.0625C282.539 41.9792 282.667 41.9375 282.844 41.9375H283.484V36.8438H282.688C282.51 36.8438 282.383 36.8047 282.305 36.7266C282.232 36.6432 282.195 36.5052 282.195 36.3125C282.195 36.1198 282.232 35.9844 282.305 35.9062C282.383 35.8229 282.51 35.7812 282.688 35.7812H284.086C284.263 35.7812 284.388 35.8229 284.461 35.9062C284.539 35.9844 284.578 36.1198 284.578 36.3125V37.25C284.922 36.7188 285.323 36.3125 285.781 36.0312C286.245 35.75 286.742 35.6094 287.273 35.6094ZM296.016 35.6094C296.995 35.6094 297.729 35.8281 298.219 36.2656C298.708 36.7031 298.953 37.3516 298.953 38.2109V41.3203C298.953 41.7318 299.125 41.9375 299.469 41.9375H299.742C299.919 41.9375 300.044 41.9792 300.117 42.0625C300.195 42.1406 300.234 42.276 300.234 42.4688C300.234 42.6615 300.195 42.7995 300.117 42.8828C300.044 42.9609 299.919 43 299.742 43H299.242C298.904 43 298.612 42.9167 298.367 42.75C298.128 42.5781 297.971 42.3281 297.898 42C297.471 42.375 297.008 42.6641 296.508 42.8672C296.013 43.0703 295.487 43.1719 294.93 43.1719C294.404 43.1719 293.938 43.0833 293.531 42.9062C293.13 42.724 292.815 42.4609 292.586 42.1172C292.357 41.7734 292.242 41.3646 292.242 40.8906C292.242 40.0677 292.536 39.4609 293.125 39.0703C293.714 38.6745 294.474 38.4766 295.406 38.4766C296.234 38.4766 297.026 38.6094 297.781 38.875V38.2109C297.781 37.7057 297.638 37.3359 297.352 37.1016C297.07 36.862 296.615 36.7422 295.984 36.7422C295.594 36.7422 295.188 36.7969 294.766 36.9062C294.344 37.0156 293.943 37.1667 293.562 37.3594C293.474 37.4062 293.393 37.4297 293.32 37.4297C293.148 37.4297 293.005 37.3047 292.891 37.0547C292.833 36.9297 292.805 36.8255 292.805 36.7422C292.805 36.5599 292.901 36.4193 293.094 36.3203C293.531 36.0911 294 35.9167 294.5 35.7969C295.005 35.6719 295.51 35.6094 296.016 35.6094ZM295.414 39.5781C294.815 39.5781 294.341 39.6823 293.992 39.8906C293.648 40.0938 293.477 40.4193 293.477 40.8672C293.477 41.2474 293.607 41.5443 293.867 41.7578C294.133 41.9661 294.503 42.0703 294.977 42.0703C296.013 42.0703 296.948 41.6406 297.781 40.7812V39.9297C297.427 39.8151 297.047 39.7292 296.641 39.6719C296.234 39.6094 295.826 39.5781 295.414 39.5781ZM306.461 35.6094C306.935 35.6094 307.346 35.7135 307.695 35.9219C308.044 36.125 308.312 36.4193 308.5 36.8047C308.688 37.1901 308.781 37.6406 308.781 38.1562V41.9375H309.422C309.599 41.9375 309.724 41.9792 309.797 42.0625C309.875 42.1406 309.914 42.276 309.914 42.4688C309.914 42.6615 309.875 42.7995 309.797 42.8828C309.724 42.9609 309.599 43 309.422 43H306.891C306.714 43 306.586 42.9609 306.508 42.8828C306.435 42.7995 306.398 42.6615 306.398 42.4688C306.398 42.276 306.435 42.1406 306.508 42.0625C306.586 41.9792 306.714 41.9375 306.891 41.9375H307.609V38.2734C307.609 37.8099 307.503 37.4427 307.289 37.1719C307.076 36.901 306.76 36.7656 306.344 36.7656C305.901 36.7656 305.487 36.8932 305.102 37.1484C304.721 37.4036 304.417 37.7552 304.188 38.2031C303.958 38.651 303.844 39.151 303.844 39.7031V41.9375H304.562C304.74 41.9375 304.865 41.9792 304.938 42.0625C305.016 42.1406 305.055 42.276 305.055 42.4688C305.055 42.6615 305.016 42.7995 304.938 42.8828C304.865 42.9609 304.74 43 304.562 43H302.031C301.854 43 301.727 42.9609 301.648 42.8828C301.576 42.7995 301.539 42.6615 301.539 42.4688C301.539 42.276 301.576 42.1406 301.648 42.0625C301.727 41.9792 301.854 41.9375 302.031 41.9375H302.672V36.8438H301.875C301.698 36.8438 301.57 36.8047 301.492 36.7266C301.419 36.6432 301.383 36.5052 301.383 36.3125C301.383 36.1198 301.419 35.9844 301.492 35.9062C301.57 35.8229 301.698 35.7812 301.875 35.7812H303.273C303.451 35.7812 303.576 35.8229 303.648 35.9062C303.727 35.9844 303.766 36.1198 303.766 36.3125V37.25C304.109 36.7188 304.51 36.3125 304.969 36.0312C305.432 35.75 305.93 35.6094 306.461 35.6094ZM317.984 35.6094C318.198 35.6094 318.349 35.6484 318.438 35.7266C318.526 35.8047 318.57 35.9349 318.57 36.1172V38.3828C318.57 38.5651 318.526 38.6953 318.438 38.7734C318.349 38.8516 318.198 38.8906 317.984 38.8906C317.771 38.8906 317.62 38.8516 317.531 38.7734C317.443 38.6953 317.398 38.5651 317.398 38.3828C317.398 38.0651 317.315 37.7839 317.148 37.5391C316.982 37.2943 316.732 37.1042 316.398 36.9688C316.07 36.8333 315.674 36.7656 315.211 36.7656C314.711 36.7656 314.263 36.8776 313.867 37.1016C313.471 37.3255 313.161 37.638 312.938 38.0391C312.714 38.4401 312.602 38.8906 312.602 39.3906C312.602 39.8958 312.706 40.349 312.914 40.75C313.128 41.1458 313.424 41.4557 313.805 41.6797C314.19 41.9036 314.633 42.0156 315.133 42.0156C315.612 42.0156 316.076 41.9427 316.523 41.7969C316.977 41.6458 317.388 41.4297 317.758 41.1484C317.867 41.0651 317.969 41.0234 318.062 41.0234C318.214 41.0234 318.354 41.1302 318.484 41.3438C318.562 41.474 318.602 41.599 318.602 41.7188C318.602 41.901 318.518 42.0521 318.352 42.1719C317.935 42.4844 317.443 42.7292 316.875 42.9062C316.307 43.0833 315.727 43.1719 315.133 43.1719C314.388 43.1719 313.729 43.0078 313.156 42.6797C312.589 42.3516 312.148 41.901 311.836 41.3281C311.523 40.7552 311.367 40.1094 311.367 39.3906C311.367 38.6719 311.526 38.026 311.844 37.4531C312.161 36.8802 312.604 36.4297 313.172 36.1016C313.745 35.7734 314.398 35.6094 315.133 35.6094C315.596 35.6094 316.021 35.6953 316.406 35.8672C316.797 36.0339 317.128 36.2734 317.398 36.5859V36.1172C317.398 35.9349 317.443 35.8047 317.531 35.7266C317.62 35.6484 317.771 35.6094 317.984 35.6094ZM325.047 35.7812C325.224 35.7812 325.349 35.8229 325.422 35.9062C325.5 35.9844 325.539 36.1198 325.539 36.3125V41.9375H328.047C328.224 41.9375 328.349 41.9792 328.422 42.0625C328.5 42.1406 328.539 42.276 328.539 42.4688C328.539 42.6615 328.5 42.7995 328.422 42.8828C328.349 42.9609 328.224 43 328.047 43H321.922C321.745 43 321.617 42.9609 321.539 42.8828C321.466 42.7995 321.43 42.6615 321.43 42.4688C321.43 42.276 321.466 42.1406 321.539 42.0625C321.617 41.9792 321.745 41.9375 321.922 41.9375H324.367V36.8438H322.391C322.214 36.8438 322.086 36.8047 322.008 36.7266C321.935 36.6432 321.898 36.5052 321.898 36.3125C321.898 36.1198 321.935 35.9844 322.008 35.9062C322.086 35.8229 322.214 35.7812 322.391 35.7812H325.047ZM324.797 32.3516C325.083 32.3516 325.279 32.3906 325.383 32.4688C325.487 32.5417 325.539 32.6719 325.539 32.8594V33.875C325.539 34.0625 325.487 34.1953 325.383 34.2734C325.279 34.3464 325.083 34.3828 324.797 34.3828C324.51 34.3828 324.315 34.3464 324.211 34.2734C324.107 34.1953 324.055 34.0625 324.055 33.875V32.8594C324.055 32.6719 324.107 32.5417 324.211 32.4688C324.315 32.3906 324.51 32.3516 324.797 32.3516ZM334.391 35.6094C335.37 35.6094 336.104 35.8281 336.594 36.2656C337.083 36.7031 337.328 37.3516 337.328 38.2109V41.3203C337.328 41.7318 337.5 41.9375 337.844 41.9375H338.117C338.294 41.9375 338.419 41.9792 338.492 42.0625C338.57 42.1406 338.609 42.276 338.609 42.4688C338.609 42.6615 338.57 42.7995 338.492 42.8828C338.419 42.9609 338.294 43 338.117 43H337.617C337.279 43 336.987 42.9167 336.742 42.75C336.503 42.5781 336.346 42.3281 336.273 42C335.846 42.375 335.383 42.6641 334.883 42.8672C334.388 43.0703 333.862 43.1719 333.305 43.1719C332.779 43.1719 332.312 43.0833 331.906 42.9062C331.505 42.724 331.19 42.4609 330.961 42.1172C330.732 41.7734 330.617 41.3646 330.617 40.8906C330.617 40.0677 330.911 39.4609 331.5 39.0703C332.089 38.6745 332.849 38.4766 333.781 38.4766C334.609 38.4766 335.401 38.6094 336.156 38.875V38.2109C336.156 37.7057 336.013 37.3359 335.727 37.1016C335.445 36.862 334.99 36.7422 334.359 36.7422C333.969 36.7422 333.562 36.7969 333.141 36.9062C332.719 37.0156 332.318 37.1667 331.938 37.3594C331.849 37.4062 331.768 37.4297 331.695 37.4297C331.523 37.4297 331.38 37.3047 331.266 37.0547C331.208 36.9297 331.18 36.8255 331.18 36.7422C331.18 36.5599 331.276 36.4193 331.469 36.3203C331.906 36.0911 332.375 35.9167 332.875 35.7969C333.38 35.6719 333.885 35.6094 334.391 35.6094ZM333.789 39.5781C333.19 39.5781 332.716 39.6823 332.367 39.8906C332.023 40.0938 331.852 40.4193 331.852 40.8672C331.852 41.2474 331.982 41.5443 332.242 41.7578C332.508 41.9661 332.878 42.0703 333.352 42.0703C334.388 42.0703 335.323 41.6406 336.156 40.7812V39.9297C335.802 39.8151 335.422 39.7292 335.016 39.6719C334.609 39.6094 334.201 39.5781 333.789 39.5781ZM344.156 32.75C344.333 32.75 344.458 32.7917 344.531 32.875C344.609 32.9531 344.648 33.0885 344.648 33.2812V41.9375H347.156C347.333 41.9375 347.458 41.9792 347.531 42.0625C347.609 42.1406 347.648 42.276 347.648 42.4688C347.648 42.6615 347.609 42.7995 347.531 42.8828C347.458 42.9609 347.333 43 347.156 43H341.031C340.854 43 340.727 42.9609 340.648 42.8828C340.576 42.7995 340.539 42.6615 340.539 42.4688C340.539 42.276 340.576 42.1406 340.648 42.0625C340.727 41.9792 340.854 41.9375 341.031 41.9375H343.477V33.8125H341.344C341.167 33.8125 341.039 33.7734 340.961 33.6953C340.888 33.612 340.852 33.474 340.852 33.2812C340.852 33.0885 340.888 32.9531 340.961 32.875C341.039 32.7917 341.167 32.75 341.344 32.75H344.156ZM229.109 65.7812C229.286 65.7812 229.411 65.8229 229.484 65.9062C229.562 65.9844 229.602 66.1198 229.602 66.3125V71.9375H232.109C232.286 71.9375 232.411 71.9792 232.484 72.0625C232.562 72.1406 232.602 72.276 232.602 72.4688C232.602 72.6615 232.562 72.7995 232.484 72.8828C232.411 72.9609 232.286 73 232.109 73H225.984C225.807 73 225.68 72.9609 225.602 72.8828C225.529 72.7995 225.492 72.6615 225.492 72.4688C225.492 72.276 225.529 72.1406 225.602 72.0625C225.68 71.9792 225.807 71.9375 225.984 71.9375H228.43V66.8438H226.453C226.276 66.8438 226.148 66.8047 226.07 66.7266C225.997 66.6432 225.961 66.5052 225.961 66.3125C225.961 66.1198 225.997 65.9844 226.07 65.9062C226.148 65.8229 226.276 65.7812 226.453 65.7812H229.109ZM228.859 62.3516C229.146 62.3516 229.341 62.3906 229.445 62.4688C229.549 62.5417 229.602 62.6719 229.602 62.8594V63.875C229.602 64.0625 229.549 64.1953 229.445 64.2734C229.341 64.3464 229.146 64.3828 228.859 64.3828C228.573 64.3828 228.378 64.3464 228.273 64.2734C228.169 64.1953 228.117 64.0625 228.117 63.875V62.8594C228.117 62.6719 228.169 62.5417 228.273 62.4688C228.378 62.3906 228.573 62.3516 228.859 62.3516ZM239.305 65.6094C239.779 65.6094 240.19 65.7135 240.539 65.9219C240.888 66.125 241.156 66.4193 241.344 66.8047C241.531 67.1901 241.625 67.6406 241.625 68.1562V71.9375H242.266C242.443 71.9375 242.568 71.9792 242.641 72.0625C242.719 72.1406 242.758 72.276 242.758 72.4688C242.758 72.6615 242.719 72.7995 242.641 72.8828C242.568 72.9609 242.443 73 242.266 73H239.734C239.557 73 239.43 72.9609 239.352 72.8828C239.279 72.7995 239.242 72.6615 239.242 72.4688C239.242 72.276 239.279 72.1406 239.352 72.0625C239.43 71.9792 239.557 71.9375 239.734 71.9375H240.453V68.2734C240.453 67.8099 240.346 67.4427 240.133 67.1719C239.919 66.901 239.604 66.7656 239.188 66.7656C238.745 66.7656 238.331 66.8932 237.945 67.1484C237.565 67.4036 237.26 67.7552 237.031 68.2031C236.802 68.651 236.688 69.151 236.688 69.7031V71.9375H237.406C237.583 71.9375 237.708 71.9792 237.781 72.0625C237.859 72.1406 237.898 72.276 237.898 72.4688C237.898 72.6615 237.859 72.7995 237.781 72.8828C237.708 72.9609 237.583 73 237.406 73H234.875C234.698 73 234.57 72.9609 234.492 72.8828C234.419 72.7995 234.383 72.6615 234.383 72.4688C234.383 72.276 234.419 72.1406 234.492 72.0625C234.57 71.9792 234.698 71.9375 234.875 71.9375H235.516V66.8438H234.719C234.542 66.8438 234.414 66.8047 234.336 66.7266C234.263 66.6432 234.227 66.5052 234.227 66.3125C234.227 66.1198 234.263 65.9844 234.336 65.9062C234.414 65.8229 234.542 65.7812 234.719 65.7812H236.117C236.294 65.7812 236.419 65.8229 236.492 65.9062C236.57 65.9844 236.609 66.1198 236.609 66.3125V67.25C236.953 66.7188 237.354 66.3125 237.812 66.0312C238.276 65.75 238.773 65.6094 239.305 65.6094ZM250.477 65.6094C250.69 65.6094 250.841 65.6484 250.93 65.7266C251.018 65.8047 251.062 65.9349 251.062 66.1172V67.6016C251.062 67.7839 251.018 67.9141 250.93 67.9922C250.841 68.0703 250.69 68.1094 250.477 68.1094C250.299 68.1094 250.174 68.0417 250.102 67.9062C249.878 67.4792 249.552 67.1797 249.125 67.0078C248.698 66.8307 248.156 66.7422 247.5 66.7422C246.995 66.7422 246.599 66.8333 246.312 67.0156C246.031 67.1927 245.891 67.4427 245.891 67.7656C245.891 67.9323 245.943 68.0677 246.047 68.1719C246.156 68.276 246.315 68.362 246.523 68.4297C246.695 68.487 246.893 68.5312 247.117 68.5625C247.346 68.5938 247.641 68.6276 248 68.6641C248.505 68.7214 248.911 68.776 249.219 68.8281C249.531 68.875 249.826 68.9479 250.102 69.0469C250.518 69.1979 250.841 69.4167 251.07 69.7031C251.305 69.9896 251.422 70.3672 251.422 70.8359C251.422 71.3047 251.302 71.7161 251.062 72.0703C250.828 72.4193 250.482 72.6901 250.023 72.8828C249.57 73.0755 249.026 73.1719 248.391 73.1719C247.828 73.1719 247.333 73.0938 246.906 72.9375C246.479 72.7812 246.107 72.5443 245.789 72.2266V72.6641C245.789 72.8464 245.745 72.9766 245.656 73.0547C245.568 73.1328 245.417 73.1719 245.203 73.1719C244.99 73.1719 244.839 73.1328 244.75 73.0547C244.661 72.9766 244.617 72.8464 244.617 72.6641V70.7891C244.617 70.6068 244.661 70.4766 244.75 70.3984C244.839 70.3203 244.99 70.2812 245.203 70.2812C245.312 70.2812 245.398 70.3073 245.461 70.3594C245.523 70.4062 245.578 70.487 245.625 70.6016C245.812 71.1016 246.125 71.4661 246.562 71.6953C247 71.9245 247.583 72.0391 248.312 72.0391C248.917 72.0391 249.38 71.9297 249.703 71.7109C250.026 71.4922 250.188 71.2005 250.188 70.8359C250.188 70.6589 250.13 70.513 250.016 70.3984C249.901 70.2839 249.737 70.1901 249.523 70.1172C249.341 70.0599 249.13 70.013 248.891 69.9766C248.656 69.9349 248.357 69.8958 247.992 69.8594C247.503 69.8073 247.094 69.7526 246.766 69.6953C246.438 69.638 246.135 69.5547 245.859 69.4453C245.479 69.2943 245.182 69.0859 244.969 68.8203C244.76 68.5495 244.656 68.1979 244.656 67.7656C244.656 67.3125 244.773 66.9245 245.008 66.6016C245.247 66.2734 245.576 66.026 245.992 65.8594C246.414 65.6927 246.891 65.6094 247.422 65.6094C247.927 65.6094 248.388 65.6849 248.805 65.8359C249.227 65.987 249.589 66.1979 249.891 66.4688V66.1172C249.891 65.9349 249.935 65.8047 250.023 65.7266C250.112 65.6484 250.263 65.6094 250.477 65.6094ZM256.391 63.5547C256.604 63.5547 256.755 63.5938 256.844 63.6719C256.932 63.75 256.977 63.8802 256.977 64.0625V66.4062H260.188C260.365 66.4062 260.49 66.4479 260.562 66.5312C260.641 66.6094 260.68 66.7448 260.68 66.9375C260.68 67.1302 260.641 67.2682 260.562 67.3516C260.49 67.4297 260.365 67.4688 260.188 67.4688H256.977V70.3125C256.977 70.9062 257.078 71.3411 257.281 71.6172C257.49 71.8932 257.849 72.0312 258.359 72.0312C258.708 72.0312 259.076 71.9609 259.461 71.8203C259.846 71.6797 260.219 71.4922 260.578 71.2578C260.651 71.2057 260.732 71.1797 260.82 71.1797C260.997 71.1797 261.148 71.2995 261.273 71.5391C261.341 71.6745 261.375 71.7917 261.375 71.8906C261.375 72.0573 261.289 72.1927 261.117 72.2969C260.711 72.5521 260.258 72.763 259.758 72.9297C259.258 73.0911 258.792 73.1719 258.359 73.1719C257.474 73.1719 256.826 72.9427 256.414 72.4844C256.008 72.0208 255.805 71.3307 255.805 70.4141V67.4688H254.219C254.042 67.4688 253.914 67.4297 253.836 67.3516C253.763 67.2682 253.727 67.1302 253.727 66.9375C253.727 66.7448 253.763 66.6094 253.836 66.5312C253.914 66.4479 254.042 66.4062 254.219 66.4062H255.805V64.0625C255.805 63.8802 255.849 63.75 255.938 63.6719C256.026 63.5938 256.177 63.5547 256.391 63.5547ZM269.594 65.6094C270 65.6094 270.38 65.7135 270.734 65.9219C270.943 66.0469 271.047 66.2083 271.047 66.4062C271.047 66.5 271.023 66.6094 270.977 66.7344C270.867 67.0312 270.716 67.1797 270.523 67.1797C270.445 67.1797 270.372 67.1589 270.305 67.1172C270.049 66.9766 269.776 66.9062 269.484 66.9062C269.016 66.9062 268.544 67.0703 268.07 67.3984C267.596 67.7214 267.206 68.1536 266.898 68.6953C266.596 69.237 266.445 69.8125 266.445 70.4219V71.9375H269.078C269.255 71.9375 269.38 71.9792 269.453 72.0625C269.531 72.1406 269.57 72.276 269.57 72.4688C269.57 72.6615 269.531 72.7995 269.453 72.8828C269.38 72.9609 269.255 73 269.078 73H264.047C263.87 73 263.742 72.9609 263.664 72.8828C263.591 72.7995 263.555 72.6615 263.555 72.4688C263.555 72.276 263.591 72.1406 263.664 72.0625C263.742 71.9792 263.87 71.9375 264.047 71.9375H265.273V66.8438H264.281C264.104 66.8438 263.977 66.8047 263.898 66.7266C263.826 66.6432 263.789 66.5052 263.789 66.3125C263.789 66.1198 263.826 65.9844 263.898 65.9062C263.977 65.8229 264.104 65.7812 264.281 65.7812H265.875C266.052 65.7812 266.177 65.8229 266.25 65.9062C266.328 65.9844 266.367 66.1198 266.367 66.3125V67.8906C266.617 67.4323 266.919 67.0312 267.273 66.6875C267.628 66.3438 268.005 66.0781 268.406 65.8906C268.807 65.7031 269.203 65.6094 269.594 65.6094ZM279.312 65.7812C279.49 65.7812 279.615 65.8229 279.688 65.9062C279.766 65.9844 279.805 66.1198 279.805 66.3125V71.9375H280.445C280.622 71.9375 280.747 71.9792 280.82 72.0625C280.898 72.1406 280.938 72.276 280.938 72.4688C280.938 72.6615 280.898 72.7995 280.82 72.8828C280.747 72.9609 280.622 73 280.445 73H279.203C279.026 73 278.898 72.9609 278.82 72.8828C278.747 72.8047 278.711 72.6693 278.711 72.4766V71.5312C278.367 72.0625 277.964 72.4688 277.5 72.75C277.042 73.0312 276.547 73.1719 276.016 73.1719C275.542 73.1719 275.13 73.0703 274.781 72.8672C274.432 72.6589 274.164 72.362 273.977 71.9766C273.789 71.5911 273.695 71.1406 273.695 70.625V66.8438H273.055C272.878 66.8438 272.75 66.8047 272.672 66.7266C272.599 66.6432 272.562 66.5052 272.562 66.3125C272.562 66.1198 272.599 65.9844 272.672 65.9062C272.75 65.8229 272.878 65.7812 273.055 65.7812H274.375C274.552 65.7812 274.677 65.8229 274.75 65.9062C274.828 65.9844 274.867 66.1198 274.867 66.3125V70.5078C274.867 70.9714 274.974 71.3385 275.188 71.6094C275.401 71.8802 275.716 72.0156 276.133 72.0156C276.576 72.0156 276.987 71.888 277.367 71.6328C277.753 71.3776 278.06 71.026 278.289 70.5781C278.518 70.1302 278.633 69.6302 278.633 69.0781V66.8438H277.523C277.346 66.8438 277.219 66.8047 277.141 66.7266C277.068 66.6432 277.031 66.5052 277.031 66.3125C277.031 66.1198 277.068 65.9844 277.141 65.9062C277.219 65.8229 277.346 65.7812 277.523 65.7812H279.312ZM290.898 71.9375C291.076 71.9375 291.201 71.9792 291.273 72.0625C291.352 72.1406 291.391 72.276 291.391 72.4688C291.391 72.6615 291.352 72.7995 291.273 72.8828C291.201 72.9609 291.076 73 290.898 73H289.734C289.557 73 289.43 72.9609 289.352 72.8828C289.279 72.7995 289.242 72.6615 289.242 72.4688V67.8438C289.242 67.4844 289.182 67.2161 289.062 67.0391C288.948 66.8568 288.76 66.7656 288.5 66.7656C288.255 66.7656 288.029 66.8802 287.82 67.1094C287.612 67.3333 287.445 67.6484 287.32 68.0547C287.201 68.4557 287.141 68.9141 287.141 69.4297V71.9375H287.586C287.763 71.9375 287.888 71.9792 287.961 72.0625C288.039 72.1406 288.078 72.276 288.078 72.4688C288.078 72.6615 288.039 72.7995 287.961 72.8828C287.888 72.9609 287.763 73 287.586 73H286.461C286.284 73 286.156 72.9609 286.078 72.8828C286.005 72.7995 285.969 72.6615 285.969 72.4688V67.8438C285.969 67.4844 285.909 67.2161 285.789 67.0391C285.674 66.8568 285.487 66.7656 285.227 66.7656C284.982 66.7656 284.755 66.8802 284.547 67.1094C284.339 67.3333 284.172 67.6484 284.047 68.0547C283.927 68.4557 283.867 68.9141 283.867 69.4297V71.9375H284.273C284.451 71.9375 284.576 71.9792 284.648 72.0625C284.727 72.1406 284.766 72.276 284.766 72.4688C284.766 72.6615 284.727 72.7995 284.648 72.8828C284.576 72.9609 284.451 73 284.273 73H282.055C281.878 73 281.75 72.9609 281.672 72.8828C281.599 72.7995 281.562 72.6615 281.562 72.4688C281.562 72.276 281.599 72.1406 281.672 72.0625C281.75 71.9792 281.878 71.9375 282.055 71.9375H282.695V66.8438H282.055C281.878 66.8438 281.75 66.8047 281.672 66.7266C281.599 66.6432 281.562 66.5052 281.562 66.3125C281.562 66.1198 281.599 65.9844 281.672 65.9062C281.75 65.8229 281.878 65.7812 282.055 65.7812H283.219C283.396 65.7812 283.521 65.8229 283.594 65.9062C283.672 65.9844 283.711 66.1198 283.711 66.3125V67.0859C283.935 66.5964 284.203 66.2292 284.516 65.9844C284.828 65.7344 285.167 65.6094 285.531 65.6094C285.885 65.6094 286.195 65.7292 286.461 65.9688C286.727 66.2083 286.906 66.5599 287 67.0234C287.464 66.0807 288.062 65.6094 288.797 65.6094C289.104 65.6094 289.378 65.6875 289.617 65.8438C289.862 65.9948 290.055 66.2292 290.195 66.5469C290.341 66.8594 290.414 67.2448 290.414 67.7031V71.9375H290.898ZM296.055 65.6094C296.81 65.6094 297.453 65.763 297.984 66.0703C298.521 66.3724 298.932 66.7943 299.219 67.3359C299.505 67.8724 299.669 68.4922 299.711 69.1953C299.711 69.3724 299.672 69.4974 299.594 69.5703C299.521 69.6432 299.396 69.6797 299.219 69.6797H293.562C293.599 70.4557 293.828 71.0443 294.25 71.4453C294.677 71.8411 295.279 72.0391 296.055 72.0391C296.534 72.0391 297.008 71.9792 297.477 71.8594C297.945 71.7344 298.357 71.5703 298.711 71.3672C298.799 71.3203 298.88 71.2969 298.953 71.2969C299.135 71.2969 299.284 71.4349 299.398 71.7109C299.445 71.8203 299.469 71.9193 299.469 72.0078C299.469 72.2161 299.354 72.3776 299.125 72.4922C298.724 72.6953 298.25 72.8594 297.703 72.9844C297.156 73.1094 296.607 73.1719 296.055 73.1719C295.268 73.1719 294.596 73.0208 294.039 72.7188C293.482 72.4167 293.057 71.9818 292.766 71.4141C292.474 70.8464 292.328 70.1719 292.328 69.3906C292.328 68.6458 292.487 67.987 292.805 67.4141C293.122 66.8411 293.562 66.3984 294.125 66.0859C294.688 65.7682 295.331 65.6094 296.055 65.6094ZM296.055 66.7422C295.414 66.7422 294.883 66.9062 294.461 67.2344C294.044 67.5573 293.771 68.0078 293.641 68.5859H298.414C298.305 67.987 298.052 67.5312 297.656 67.2188C297.266 66.901 296.732 66.7422 296.055 66.7422ZM306.461 65.6094C306.935 65.6094 307.346 65.7135 307.695 65.9219C308.044 66.125 308.312 66.4193 308.5 66.8047C308.688 67.1901 308.781 67.6406 308.781 68.1562V71.9375H309.422C309.599 71.9375 309.724 71.9792 309.797 72.0625C309.875 72.1406 309.914 72.276 309.914 72.4688C309.914 72.6615 309.875 72.7995 309.797 72.8828C309.724 72.9609 309.599 73 309.422 73H306.891C306.714 73 306.586 72.9609 306.508 72.8828C306.435 72.7995 306.398 72.6615 306.398 72.4688C306.398 72.276 306.435 72.1406 306.508 72.0625C306.586 71.9792 306.714 71.9375 306.891 71.9375H307.609V68.2734C307.609 67.8099 307.503 67.4427 307.289 67.1719C307.076 66.901 306.76 66.7656 306.344 66.7656C305.901 66.7656 305.487 66.8932 305.102 67.1484C304.721 67.4036 304.417 67.7552 304.188 68.2031C303.958 68.651 303.844 69.151 303.844 69.7031V71.9375H304.562C304.74 71.9375 304.865 71.9792 304.938 72.0625C305.016 72.1406 305.055 72.276 305.055 72.4688C305.055 72.6615 305.016 72.7995 304.938 72.8828C304.865 72.9609 304.74 73 304.562 73H302.031C301.854 73 301.727 72.9609 301.648 72.8828C301.576 72.7995 301.539 72.6615 301.539 72.4688C301.539 72.276 301.576 72.1406 301.648 72.0625C301.727 71.9792 301.854 71.9375 302.031 71.9375H302.672V66.8438H301.875C301.698 66.8438 301.57 66.8047 301.492 66.7266C301.419 66.6432 301.383 66.5052 301.383 66.3125C301.383 66.1198 301.419 65.9844 301.492 65.9062C301.57 65.8229 301.698 65.7812 301.875 65.7812H303.273C303.451 65.7812 303.576 65.8229 303.648 65.9062C303.727 65.9844 303.766 66.1198 303.766 66.3125V67.25C304.109 66.7188 304.51 66.3125 304.969 66.0312C305.432 65.75 305.93 65.6094 306.461 65.6094ZM313.953 63.5547C314.167 63.5547 314.318 63.5938 314.406 63.6719C314.495 63.75 314.539 63.8802 314.539 64.0625V66.4062H317.75C317.927 66.4062 318.052 66.4479 318.125 66.5312C318.203 66.6094 318.242 66.7448 318.242 66.9375C318.242 67.1302 318.203 67.2682 318.125 67.3516C318.052 67.4297 317.927 67.4688 317.75 67.4688H314.539V70.3125C314.539 70.9062 314.641 71.3411 314.844 71.6172C315.052 71.8932 315.411 72.0312 315.922 72.0312C316.271 72.0312 316.638 71.9609 317.023 71.8203C317.409 71.6797 317.781 71.4922 318.141 71.2578C318.214 71.2057 318.294 71.1797 318.383 71.1797C318.56 71.1797 318.711 71.2995 318.836 71.5391C318.904 71.6745 318.938 71.7917 318.938 71.8906C318.938 72.0573 318.852 72.1927 318.68 72.2969C318.273 72.5521 317.82 72.763 317.32 72.9297C316.82 73.0911 316.354 73.1719 315.922 73.1719C315.036 73.1719 314.388 72.9427 313.977 72.4844C313.57 72.0208 313.367 71.3307 313.367 70.4141V67.4688H311.781C311.604 67.4688 311.477 67.4297 311.398 67.3516C311.326 67.2682 311.289 67.1302 311.289 66.9375C311.289 66.7448 311.326 66.6094 311.398 66.5312C311.477 66.4479 311.604 66.4062 311.781 66.4062H313.367V64.0625C313.367 63.8802 313.411 63.75 313.5 63.6719C313.589 63.5938 313.74 63.5547 313.953 63.5547Z" fill="black"/>
<path d="M141.664 138.787C137.192 136.302 135.224 133.27 133.142 128.585C130.658 122.997 137.097 104.807 142.798 104.403C148.499 104 148.953 103.419 154.499 106.5C165.161 112.423 163 131 153.965 138.241C151.506 140.973 144.558 140.395 141.664 138.787Z" stroke="black" stroke-width="3" stroke-linecap="round"/>
<path d="M69.1644 116.873C74.5 114 78.256 114.984 83.1025 114.984C89.8465 114.984 94 130.001 92.5485 139.207C91.097 148.414 87.9979 158.6 75.1679 155.748C63.1851 153.086 57.714 142.255 61.0199 130.685C62.6408 125.012 63.8289 119.746 69.1644 116.873Z" stroke="black" stroke-width="3" stroke-linecap="round"/>
<path d="M161.001 116.5C154.501 105.999 143.502 112.999 142.5 121.499C141.498 130 158.5 137 161.5 123" stroke="black" stroke-width="3" stroke-linecap="round"/>
<path d="M68.7422 132.742C68.7422 127.432 69.1093 123.58 77.0547 122.54C85 121.5 88.4202 140.676 78.566 140.676C73.9295 140.676 68.7422 138.151 68.7422 132.742Z" stroke="black" stroke-width="3" stroke-linecap="round"/>
<path d="M40.0273 214C40.0273 203.893 41.3555 197.371 43.8057 187.571C47.55 172.594 59.9912 158.469 71.1781 148.401C79.0383 141.327 91.0058 134.911 101.195 132.364C109.473 130.294 118.5 128.5 132 128.5" stroke="black" stroke-width="3" stroke-linecap="round"/>
<path d="M152.5 140C161.561 145.023 165.995 161.476 168 170.5C170.437 181.465 173.026 193.644 173.026 204.909" stroke="black" stroke-width="3" stroke-linecap="round"/>
<path d="M113.055 181.646C115.601 179.1 118.241 176.564 120.968 174.214C122.569 172.834 124.563 172.062 126.047 170.578" stroke="black" stroke-width="3" stroke-linecap="round"/>
<path d="M120.254 175.551C125 177.5 130.533 178.94 136.445 178.94C139.998 178.94 145.941 178.399 147.788 174.704" stroke="black" stroke-width="3" stroke-linecap="round"/>
<path d="M29.2921 64.4435C29.2921 63.0952 27.9271 63.7886 27.5817 64.6214C25.9155 68.6387 30.5878 69.8886 30.6072 66.5364C30.6292 62.7114 25.5779 66.1077 27.8173 68.1191C29.739 69.8453 31.146 66.4676 28.264 65.9001" stroke="black" stroke-width="3" stroke-linecap="round" stroke-linejoin="round"/>
<path d="M26.9978 65.4353C26.9978 66.4089 25.8199 66.4874 25.1323 66.5724C21.8433 66.9788 18 62.7849 18 59.518C18 57.148 22.7356 57 24.3524 57C27.7428 57 27.5909 63.2866 27.5909 65.5618" stroke="black" stroke-width="3" stroke-linecap="round" stroke-linejoin="round"/>
<path d="M29.7586 65.5335C28.7688 63.7452 32.734 59.5728 33.9374 58.1385C34.7314 57.1921 36.2298 57.2363 37.3833 57.1128C39.0687 56.9323 38.6377 57.7504 39.0784 59.0222C41.3886 65.6881 35.5863 67.4724 29.981 66.4" stroke="black" stroke-width="3" stroke-linecap="round" stroke-linejoin="round"/>

  </g>
  <g id="group2" style="display:none">
<path d="M248.875 103.714C234.252 103.714 217.186 97.9116 204.238 91.5C190.498 84.6962 179.465 75.874 174.442 59.7041C171.672 50.7908 168.706 39.0172 170.596 29.6588C171.58 24.7843 175.032 15.3392 179.654 12.4779C187.391 7.68897 202.591 5.65061 211.359 5.45324C236.387 4.88989 257.703 2 282.738 2C309.811 2 341.607 11.4013 366.164 22.2109C372.978 25.2101 374.24 35.9177 374.24 42.3963C374.24 53.3708 368.894 72.3756 359.738 79.5C346.678 89.6625 336.23 93.5911 321.171 101.048C310.809 106.179 295.343 105.999 283.869 105.999C276.812 105.999 269.537 105.238 262.719 105.238" stroke="black" stroke-width="3" stroke-linecap="round"/>
<path d="M249.204 104C249.204 111.162 247.366 118.522 244.145 124.922C242.757 127.68 238.727 135 238.73 135C238.734 135 252.179 124.864 255.204 121C258.346 116.988 261.704 111 262.704 105.5" stroke="black" stroke-width="3" stroke-linecap="round"/>
<path d="M202.633 33.7266C202.81 33.7266 202.935 33.7682 203.008 33.8516C203.086 33.9297 203.125 34.0651 203.125 34.2578C203.125 34.4505 203.086 34.5885 203.008 34.6719C202.935 34.75 202.81 34.7891 202.633 34.7891H200.633V41.9375H202.789C202.966 41.9375 203.091 41.9792 203.164 42.0625C203.242 42.1406 203.281 42.276 203.281 42.4688C203.281 42.6615 203.242 42.7995 203.164 42.8828C203.091 42.9609 202.966 43 202.789 43H197.305C197.128 43 197 42.9609 196.922 42.8828C196.849 42.7995 196.812 42.6615 196.812 42.4688C196.812 42.276 196.849 42.1406 196.922 42.0625C197 41.9792 197.128 41.9375 197.305 41.9375H199.461V34.7891H197.461C197.284 34.7891 197.156 34.75 197.078 34.6719C197.005 34.5885 196.969 34.4505 196.969 34.2578C196.969 34.0651 197.005 33.9297 197.078 33.8516C197.156 33.7682 197.284 33.7266 197.461 33.7266H202.633ZM219.266 35.6094C220.245 35.6094 220.979 35.8281 221.469 36.2656C221.958 36.7031 222.203 37.3516 222.203 38.2109V41.3203C222.203 41.7318 222.375 41.9375 222.719 41.9375H222.992C223.169 41.9375 223.294 41.9792 223.367 42.0625C223.445 42.1406 223.484 42.276 223.484 42.4688C223.484 42.6615 223.445 42.7995 223.367 42.8828C223.294 42.9609 223.169 43 222.992 43H222.492C222.154 43 221.862 42.9167 221.617 42.75C221.378 42.5781 221.221 42.3281 221.148 42C220.721 42.375 220.258 42.6641 219.758 42.8672C219.263 43.0703 218.737 43.1719 218.18 43.1719C217.654 43.1719 217.188 43.0833 216.781 42.9062C216.38 42.724 216.065 42.4609 215.836 42.1172C215.607 41.7734 215.492 41.3646 215.492 40.8906C215.492 40.0677 215.786 39.4609 216.375 39.0703C216.964 38.6745 217.724 38.4766 218.656 38.4766C219.484 38.4766 220.276 38.6094 221.031 38.875V38.2109C221.031 37.7057 220.888 37.3359 220.602 37.1016C220.32 36.862 219.865 36.7422 219.234 36.7422C218.844 36.7422 218.438 36.7969 218.016 36.9062C217.594 37.0156 217.193 37.1667 216.812 37.3594C216.724 37.4062 216.643 37.4297 216.57 37.4297C216.398 37.4297 216.255 37.3047 216.141 37.0547C216.083 36.9297 216.055 36.8255 216.055 36.7422C216.055 36.5599 216.151 36.4193 216.344 36.3203C216.781 36.0911 217.25 35.9167 217.75 35.7969C218.255 35.6719 218.76 35.6094 219.266 35.6094ZM218.664 39.5781C218.065 39.5781 217.591 39.6823 217.242 39.8906C216.898 40.0938 216.727 40.4193 216.727 40.8672C216.727 41.2474 216.857 41.5443 217.117 41.7578C217.383 41.9661 217.753 42.0703 218.227 42.0703C219.263 42.0703 220.198 41.6406 221.031 40.7812V39.9297C220.677 39.8151 220.297 39.7292 219.891 39.6719C219.484 39.6094 219.076 39.5781 218.664 39.5781ZM233.336 41.9375C233.513 41.9375 233.638 41.9792 233.711 42.0625C233.789 42.1406 233.828 42.276 233.828 42.4688C233.828 42.6615 233.789 42.7995 233.711 42.8828C233.638 42.9609 233.513 43 233.336 43H232.172C231.995 43 231.867 42.9609 231.789 42.8828C231.716 42.7995 231.68 42.6615 231.68 42.4688V37.8438C231.68 37.4844 231.62 37.2161 231.5 37.0391C231.385 36.8568 231.198 36.7656 230.938 36.7656C230.693 36.7656 230.466 36.8802 230.258 37.1094C230.049 37.3333 229.883 37.6484 229.758 38.0547C229.638 38.4557 229.578 38.9141 229.578 39.4297V41.9375H230.023C230.201 41.9375 230.326 41.9792 230.398 42.0625C230.477 42.1406 230.516 42.276 230.516 42.4688C230.516 42.6615 230.477 42.7995 230.398 42.8828C230.326 42.9609 230.201 43 230.023 43H228.898C228.721 43 228.594 42.9609 228.516 42.8828C228.443 42.7995 228.406 42.6615 228.406 42.4688V37.8438C228.406 37.4844 228.346 37.2161 228.227 37.0391C228.112 36.8568 227.924 36.7656 227.664 36.7656C227.419 36.7656 227.193 36.8802 226.984 37.1094C226.776 37.3333 226.609 37.6484 226.484 38.0547C226.365 38.4557 226.305 38.9141 226.305 39.4297V41.9375H226.711C226.888 41.9375 227.013 41.9792 227.086 42.0625C227.164 42.1406 227.203 42.276 227.203 42.4688C227.203 42.6615 227.164 42.7995 227.086 42.8828C227.013 42.9609 226.888 43 226.711 43H224.492C224.315 43 224.188 42.9609 224.109 42.8828C224.036 42.7995 224 42.6615 224 42.4688C224 42.276 224.036 42.1406 224.109 42.0625C224.188 41.9792 224.315 41.9375 224.492 41.9375H225.133V36.8438H224.492C224.315 36.8438 224.188 36.8047 224.109 36.7266C224.036 36.6432 224 36.5052 224 36.3125C224 36.1198 224.036 35.9844 224.109 35.9062C224.188 35.8229 224.315 35.7812 224.492 35.7812H225.656C225.833 35.7812 225.958 35.8229 226.031 35.9062C226.109 35.9844 226.148 36.1198 226.148 36.3125V37.0859C226.372 36.5964 226.641 36.2292 226.953 35.9844C227.266 35.7344 227.604 35.6094 227.969 35.6094C228.323 35.6094 228.633 35.7292 228.898 35.9688C229.164 36.2083 229.344 36.5599 229.438 37.0234C229.901 36.0807 230.5 35.6094 231.234 35.6094C231.542 35.6094 231.815 35.6875 232.055 35.8438C232.299 35.9948 232.492 36.2292 232.633 36.5469C232.779 36.8594 232.852 37.2448 232.852 37.7031V41.9375H233.336ZM248.047 35.6094C249.026 35.6094 249.76 35.8281 250.25 36.2656C250.74 36.7031 250.984 37.3516 250.984 38.2109V41.3203C250.984 41.7318 251.156 41.9375 251.5 41.9375H251.773C251.951 41.9375 252.076 41.9792 252.148 42.0625C252.227 42.1406 252.266 42.276 252.266 42.4688C252.266 42.6615 252.227 42.7995 252.148 42.8828C252.076 42.9609 251.951 43 251.773 43H251.273C250.935 43 250.643 42.9167 250.398 42.75C250.159 42.5781 250.003 42.3281 249.93 42C249.503 42.375 249.039 42.6641 248.539 42.8672C248.044 43.0703 247.518 43.1719 246.961 43.1719C246.435 43.1719 245.969 43.0833 245.562 42.9062C245.161 42.724 244.846 42.4609 244.617 42.1172C244.388 41.7734 244.273 41.3646 244.273 40.8906C244.273 40.0677 244.568 39.4609 245.156 39.0703C245.745 38.6745 246.505 38.4766 247.438 38.4766C248.266 38.4766 249.057 38.6094 249.812 38.875V38.2109C249.812 37.7057 249.669 37.3359 249.383 37.1016C249.102 36.862 248.646 36.7422 248.016 36.7422C247.625 36.7422 247.219 36.7969 246.797 36.9062C246.375 37.0156 245.974 37.1667 245.594 37.3594C245.505 37.4062 245.424 37.4297 245.352 37.4297C245.18 37.4297 245.036 37.3047 244.922 37.0547C244.865 36.9297 244.836 36.8255 244.836 36.7422C244.836 36.5599 244.932 36.4193 245.125 36.3203C245.562 36.0911 246.031 35.9167 246.531 35.7969C247.036 35.6719 247.542 35.6094 248.047 35.6094ZM247.445 39.5781C246.846 39.5781 246.372 39.6823 246.023 39.8906C245.68 40.0938 245.508 40.4193 245.508 40.8672C245.508 41.2474 245.638 41.5443 245.898 41.7578C246.164 41.9661 246.534 42.0703 247.008 42.0703C248.044 42.0703 248.979 41.6406 249.812 40.7812V39.9297C249.458 39.8151 249.078 39.7292 248.672 39.6719C248.266 39.6094 247.857 39.5781 247.445 39.5781ZM268.656 32.7109C269.354 32.7109 270.047 32.8438 270.734 33.1094C270.984 33.2031 271.109 33.375 271.109 33.625C271.109 33.6823 271.102 33.75 271.086 33.8281C271.013 34.125 270.883 34.2734 270.695 34.2734C270.638 34.2734 270.576 34.2604 270.508 34.2344C269.846 33.9792 269.229 33.8516 268.656 33.8516C267.604 33.8516 267.078 34.4167 267.078 35.5469V36.4062H269.781C269.958 36.4062 270.083 36.4479 270.156 36.5312C270.234 36.6094 270.273 36.7448 270.273 36.9375C270.273 37.1302 270.234 37.2682 270.156 37.3516C270.083 37.4297 269.958 37.4688 269.781 37.4688H267.078V41.9375H269.781C269.958 41.9375 270.083 41.9792 270.156 42.0625C270.234 42.1406 270.273 42.276 270.273 42.4688C270.273 42.6615 270.234 42.7995 270.156 42.8828C270.083 42.9609 269.958 43 269.781 43H264.359C264.182 43 264.055 42.9609 263.977 42.8828C263.904 42.7995 263.867 42.6615 263.867 42.4688C263.867 42.276 263.904 42.1406 263.977 42.0625C264.055 41.9792 264.182 41.9375 264.359 41.9375H265.906V37.4688H264.359C264.182 37.4688 264.055 37.4297 263.977 37.3516C263.904 37.2682 263.867 37.1302 263.867 36.9375C263.867 36.7448 263.904 36.6094 263.977 36.5312C264.055 36.4479 264.182 36.4062 264.359 36.4062H265.906V35.4453C265.906 34.5859 266.146 33.9167 266.625 33.4375C267.109 32.9531 267.786 32.7109 268.656 32.7109ZM277.078 35.7812C277.255 35.7812 277.38 35.8229 277.453 35.9062C277.531 35.9844 277.57 36.1198 277.57 36.3125V41.9375H280.078C280.255 41.9375 280.38 41.9792 280.453 42.0625C280.531 42.1406 280.57 42.276 280.57 42.4688C280.57 42.6615 280.531 42.7995 280.453 42.8828C280.38 42.9609 280.255 43 280.078 43H273.953C273.776 43 273.648 42.9609 273.57 42.8828C273.497 42.7995 273.461 42.6615 273.461 42.4688C273.461 42.276 273.497 42.1406 273.57 42.0625C273.648 41.9792 273.776 41.9375 273.953 41.9375H276.398V36.8438H274.422C274.245 36.8438 274.117 36.8047 274.039 36.7266C273.966 36.6432 273.93 36.5052 273.93 36.3125C273.93 36.1198 273.966 35.9844 274.039 35.9062C274.117 35.8229 274.245 35.7812 274.422 35.7812H277.078ZM276.828 32.3516C277.115 32.3516 277.31 32.3906 277.414 32.4688C277.518 32.5417 277.57 32.6719 277.57 32.8594V33.875C277.57 34.0625 277.518 34.1953 277.414 34.2734C277.31 34.3464 277.115 34.3828 276.828 34.3828C276.542 34.3828 276.346 34.3464 276.242 34.2734C276.138 34.1953 276.086 34.0625 276.086 33.875V32.8594C276.086 32.6719 276.138 32.5417 276.242 32.4688C276.346 32.3906 276.542 32.3516 276.828 32.3516ZM287.273 35.6094C287.747 35.6094 288.159 35.7135 288.508 35.9219C288.857 36.125 289.125 36.4193 289.312 36.8047C289.5 37.1901 289.594 37.6406 289.594 38.1562V41.9375H290.234C290.411 41.9375 290.536 41.9792 290.609 42.0625C290.688 42.1406 290.727 42.276 290.727 42.4688C290.727 42.6615 290.688 42.7995 290.609 42.8828C290.536 42.9609 290.411 43 290.234 43H287.703C287.526 43 287.398 42.9609 287.32 42.8828C287.247 42.7995 287.211 42.6615 287.211 42.4688C287.211 42.276 287.247 42.1406 287.32 42.0625C287.398 41.9792 287.526 41.9375 287.703 41.9375H288.422V38.2734C288.422 37.8099 288.315 37.4427 288.102 37.1719C287.888 36.901 287.573 36.7656 287.156 36.7656C286.714 36.7656 286.299 36.8932 285.914 37.1484C285.534 37.4036 285.229 37.7552 285 38.2031C284.771 38.651 284.656 39.151 284.656 39.7031V41.9375H285.375C285.552 41.9375 285.677 41.9792 285.75 42.0625C285.828 42.1406 285.867 42.276 285.867 42.4688C285.867 42.6615 285.828 42.7995 285.75 42.8828C285.677 42.9609 285.552 43 285.375 43H282.844C282.667 43 282.539 42.9609 282.461 42.8828C282.388 42.7995 282.352 42.6615 282.352 42.4688C282.352 42.276 282.388 42.1406 282.461 42.0625C282.539 41.9792 282.667 41.9375 282.844 41.9375H283.484V36.8438H282.688C282.51 36.8438 282.383 36.8047 282.305 36.7266C282.232 36.6432 282.195 36.5052 282.195 36.3125C282.195 36.1198 282.232 35.9844 282.305 35.9062C282.383 35.8229 282.51 35.7812 282.688 35.7812H284.086C284.263 35.7812 284.388 35.8229 284.461 35.9062C284.539 35.9844 284.578 36.1198 284.578 36.3125V37.25C284.922 36.7188 285.323 36.3125 285.781 36.0312C286.245 35.75 286.742 35.6094 287.273 35.6094ZM296.016 35.6094C296.995 35.6094 297.729 35.8281 298.219 36.2656C298.708 36.7031 298.953 37.3516 298.953 38.2109V41.3203C298.953 41.7318 299.125 41.9375 299.469 41.9375H299.742C299.919 41.9375 300.044 41.9792 300.117 42.0625C300.195 42.1406 300.234 42.276 300.234 42.4688C300.234 42.6615 300.195 42.7995 300.117 42.8828C300.044 42.9609 299.919 43 299.742 43H299.242C298.904 43 298.612 42.9167 298.367 42.75C298.128 42.5781 297.971 42.3281 297.898 42C297.471 42.375 297.008 42.6641 296.508 42.8672C296.013 43.0703 295.487 43.1719 294.93 43.1719C294.404 43.1719 293.938 43.0833 293.531 42.9062C293.13 42.724 292.815 42.4609 292.586 42.1172C292.357 41.7734 292.242 41.3646 292.242 40.8906C292.242 40.0677 292.536 39.4609 293.125 39.0703C293.714 38.6745 294.474 38.4766 295.406 38.4766C296.234 38.4766 297.026 38.6094 297.781 38.875V38.2109C297.781 37.7057 297.638 37.3359 297.352 37.1016C297.07 36.862 296.615 36.7422 295.984 36.7422C295.594 36.7422 295.188 36.7969 294.766 36.9062C294.344 37.0156 293.943 37.1667 293.562 37.3594C293.474 37.4062 293.393 37.4297 293.32 37.4297C293.148 37.4297 293.005 37.3047 292.891 37.0547C292.833 36.9297 292.805 36.8255 292.805 36.7422C292.805 36.5599 292.901 36.4193 293.094 36.3203C293.531 36.0911 294 35.9167 294.5 35.7969C295.005 35.6719 295.51 35.6094 296.016 35.6094ZM295.414 39.5781C294.815 39.5781 294.341 39.6823 293.992 39.8906C293.648 40.0938 293.477 40.4193 293.477 40.8672C293.477 41.2474 293.607 41.5443 293.867 41.7578C294.133 41.9661 294.503 42.0703 294.977 42.0703C296.013 42.0703 296.948 41.6406 297.781 40.7812V39.9297C297.427 39.8151 297.047 39.7292 296.641 39.6719C296.234 39.6094 295.826 39.5781 295.414 39.5781ZM306.461 35.6094C306.935 35.6094 307.346 35.7135 307.695 35.9219C308.044 36.125 308.312 36.4193 308.5 36.8047C308.688 37.1901 308.781 37.6406 308.781 38.1562V41.9375H309.422C309.599 41.9375 309.724 41.9792 309.797 42.0625C309.875 42.1406 309.914 42.276 309.914 42.4688C309.914 42.6615 309.875 42.7995 309.797 42.8828C309.724 42.9609 309.599 43 309.422 43H306.891C306.714 43 306.586 42.9609 306.508 42.8828C306.435 42.7995 306.398 42.6615 306.398 42.4688C306.398 42.276 306.435 42.1406 306.508 42.0625C306.586 41.9792 306.714 41.9375 306.891 41.9375H307.609V38.2734C307.609 37.8099 307.503 37.4427 307.289 37.1719C307.076 36.901 306.76 36.7656 306.344 36.7656C305.901 36.7656 305.487 36.8932 305.102 37.1484C304.721 37.4036 304.417 37.7552 304.188 38.2031C303.958 38.651 303.844 39.151 303.844 39.7031V41.9375H304.562C304.74 41.9375 304.865 41.9792 304.938 42.0625C305.016 42.1406 305.055 42.276 305.055 42.4688C305.055 42.6615 305.016 42.7995 304.938 42.8828C304.865 42.9609 304.74 43 304.562 43H302.031C301.854 43 301.727 42.9609 301.648 42.8828C301.576 42.7995 301.539 42.6615 301.539 42.4688C301.539 42.276 301.576 42.1406 301.648 42.0625C301.727 41.9792 301.854 41.9375 302.031 41.9375H302.672V36.8438H301.875C301.698 36.8438 301.57 36.8047 301.492 36.7266C301.419 36.6432 301.383 36.5052 301.383 36.3125C301.383 36.1198 301.419 35.9844 301.492 35.9062C301.57 35.8229 301.698 35.7812 301.875 35.7812H303.273C303.451 35.7812 303.576 35.8229 303.648 35.9062C303.727 35.9844 303.766 36.1198 303.766 36.3125V37.25C304.109 36.7188 304.51 36.3125 304.969 36.0312C305.432 35.75 305.93 35.6094 306.461 35.6094ZM317.984 35.6094C318.198 35.6094 318.349 35.6484 318.438 35.7266C318.526 35.8047 318.57 35.9349 318.57 36.1172V38.3828C318.57 38.5651 318.526 38.6953 318.438 38.7734C318.349 38.8516 318.198 38.8906 317.984 38.8906C317.771 38.8906 317.62 38.8516 317.531 38.7734C317.443 38.6953 317.398 38.5651 317.398 38.3828C317.398 38.0651 317.315 37.7839 317.148 37.5391C316.982 37.2943 316.732 37.1042 316.398 36.9688C316.07 36.8333 315.674 36.7656 315.211 36.7656C314.711 36.7656 314.263 36.8776 313.867 37.1016C313.471 37.3255 313.161 37.638 312.938 38.0391C312.714 38.4401 312.602 38.8906 312.602 39.3906C312.602 39.8958 312.706 40.349 312.914 40.75C313.128 41.1458 313.424 41.4557 313.805 41.6797C314.19 41.9036 314.633 42.0156 315.133 42.0156C315.612 42.0156 316.076 41.9427 316.523 41.7969C316.977 41.6458 317.388 41.4297 317.758 41.1484C317.867 41.0651 317.969 41.0234 318.062 41.0234C318.214 41.0234 318.354 41.1302 318.484 41.3438C318.562 41.474 318.602 41.599 318.602 41.7188C318.602 41.901 318.518 42.0521 318.352 42.1719C317.935 42.4844 317.443 42.7292 316.875 42.9062C316.307 43.0833 315.727 43.1719 315.133 43.1719C314.388 43.1719 313.729 43.0078 313.156 42.6797C312.589 42.3516 312.148 41.901 311.836 41.3281C311.523 40.7552 311.367 40.1094 311.367 39.3906C311.367 38.6719 311.526 38.026 311.844 37.4531C312.161 36.8802 312.604 36.4297 313.172 36.1016C313.745 35.7734 314.398 35.6094 315.133 35.6094C315.596 35.6094 316.021 35.6953 316.406 35.8672C316.797 36.0339 317.128 36.2734 317.398 36.5859V36.1172C317.398 35.9349 317.443 35.8047 317.531 35.7266C317.62 35.6484 317.771 35.6094 317.984 35.6094ZM325.047 35.7812C325.224 35.7812 325.349 35.8229 325.422 35.9062C325.5 35.9844 325.539 36.1198 325.539 36.3125V41.9375H328.047C328.224 41.9375 328.349 41.9792 328.422 42.0625C328.5 42.1406 328.539 42.276 328.539 42.4688C328.539 42.6615 328.5 42.7995 328.422 42.8828C328.349 42.9609 328.224 43 328.047 43H321.922C321.745 43 321.617 42.9609 321.539 42.8828C321.466 42.7995 321.43 42.6615 321.43 42.4688C321.43 42.276 321.466 42.1406 321.539 42.0625C321.617 41.9792 321.745 41.9375 321.922 41.9375H324.367V36.8438H322.391C322.214 36.8438 322.086 36.8047 322.008 36.7266C321.935 36.6432 321.898 36.5052 321.898 36.3125C321.898 36.1198 321.935 35.9844 322.008 35.9062C322.086 35.8229 322.214 35.7812 322.391 35.7812H325.047ZM324.797 32.3516C325.083 32.3516 325.279 32.3906 325.383 32.4688C325.487 32.5417 325.539 32.6719 325.539 32.8594V33.875C325.539 34.0625 325.487 34.1953 325.383 34.2734C325.279 34.3464 325.083 34.3828 324.797 34.3828C324.51 34.3828 324.315 34.3464 324.211 34.2734C324.107 34.1953 324.055 34.0625 324.055 33.875V32.8594C324.055 32.6719 324.107 32.5417 324.211 32.4688C324.315 32.3906 324.51 32.3516 324.797 32.3516ZM334.391 35.6094C335.37 35.6094 336.104 35.8281 336.594 36.2656C337.083 36.7031 337.328 37.3516 337.328 38.2109V41.3203C337.328 41.7318 337.5 41.9375 337.844 41.9375H338.117C338.294 41.9375 338.419 41.9792 338.492 42.0625C338.57 42.1406 338.609 42.276 338.609 42.4688C338.609 42.6615 338.57 42.7995 338.492 42.8828C338.419 42.9609 338.294 43 338.117 43H337.617C337.279 43 336.987 42.9167 336.742 42.75C336.503 42.5781 336.346 42.3281 336.273 42C335.846 42.375 335.383 42.6641 334.883 42.8672C334.388 43.0703 333.862 43.1719 333.305 43.1719C332.779 43.1719 332.312 43.0833 331.906 42.9062C331.505 42.724 331.19 42.4609 330.961 42.1172C330.732 41.7734 330.617 41.3646 330.617 40.8906C330.617 40.0677 330.911 39.4609 331.5 39.0703C332.089 38.6745 332.849 38.4766 333.781 38.4766C334.609 38.4766 335.401 38.6094 336.156 38.875V38.2109C336.156 37.7057 336.013 37.3359 335.727 37.1016C335.445 36.862 334.99 36.7422 334.359 36.7422C333.969 36.7422 333.562 36.7969 333.141 36.9062C332.719 37.0156 332.318 37.1667 331.938 37.3594C331.849 37.4062 331.768 37.4297 331.695 37.4297C331.523 37.4297 331.38 37.3047 331.266 37.0547C331.208 36.9297 331.18 36.8255 331.18 36.7422C331.18 36.5599 331.276 36.4193 331.469 36.3203C331.906 36.0911 332.375 35.9167 332.875 35.7969C333.38 35.6719 333.885 35.6094 334.391 35.6094ZM333.789 39.5781C333.19 39.5781 332.716 39.6823 332.367 39.8906C332.023 40.0938 331.852 40.4193 331.852 40.8672C331.852 41.2474 331.982 41.5443 332.242 41.7578C332.508 41.9661 332.878 42.0703 333.352 42.0703C334.388 42.0703 335.323 41.6406 336.156 40.7812V39.9297C335.802 39.8151 335.422 39.7292 335.016 39.6719C334.609 39.6094 334.201 39.5781 333.789 39.5781ZM344.156 32.75C344.333 32.75 344.458 32.7917 344.531 32.875C344.609 32.9531 344.648 33.0885 344.648 33.2812V41.9375H347.156C347.333 41.9375 347.458 41.9792 347.531 42.0625C347.609 42.1406 347.648 42.276 347.648 42.4688C347.648 42.6615 347.609 42.7995 347.531 42.8828C347.458 42.9609 347.333 43 347.156 43H341.031C340.854 43 340.727 42.9609 340.648 42.8828C340.576 42.7995 340.539 42.6615 340.539 42.4688C340.539 42.276 340.576 42.1406 340.648 42.0625C340.727 41.9792 340.854 41.9375 341.031 41.9375H343.477V33.8125H341.344C341.167 33.8125 341.039 33.7734 340.961 33.6953C340.888 33.612 340.852 33.474 340.852 33.2812C340.852 33.0885 340.888 32.9531 340.961 32.875C341.039 32.7917 341.167 32.75 341.344 32.75H344.156ZM229.109 65.7812C229.286 65.7812 229.411 65.8229 229.484 65.9062C229.562 65.9844 229.602 66.1198 229.602 66.3125V71.9375H232.109C232.286 71.9375 232.411 71.9792 232.484 72.0625C232.562 72.1406 232.602 72.276 232.602 72.4688C232.602 72.6615 232.562 72.7995 232.484 72.8828C232.411 72.9609 232.286 73 232.109 73H225.984C225.807 73 225.68 72.9609 225.602 72.8828C225.529 72.7995 225.492 72.6615 225.492 72.4688C225.492 72.276 225.529 72.1406 225.602 72.0625C225.68 71.9792 225.807 71.9375 225.984 71.9375H228.43V66.8438H226.453C226.276 66.8438 226.148 66.8047 226.07 66.7266C225.997 66.6432 225.961 66.5052 225.961 66.3125C225.961 66.1198 225.997 65.9844 226.07 65.9062C226.148 65.8229 226.276 65.7812 226.453 65.7812H229.109ZM228.859 62.3516C229.146 62.3516 229.341 62.3906 229.445 62.4688C229.549 62.5417 229.602 62.6719 229.602 62.8594V63.875C229.602 64.0625 229.549 64.1953 229.445 64.2734C229.341 64.3464 229.146 64.3828 228.859 64.3828C228.573 64.3828 228.378 64.3464 228.273 64.2734C228.169 64.1953 228.117 64.0625 228.117 63.875V62.8594C228.117 62.6719 228.169 62.5417 228.273 62.4688C228.378 62.3906 228.573 62.3516 228.859 62.3516ZM239.305 65.6094C239.779 65.6094 240.19 65.7135 240.539 65.9219C240.888 66.125 241.156 66.4193 241.344 66.8047C241.531 67.1901 241.625 67.6406 241.625 68.1562V71.9375H242.266C242.443 71.9375 242.568 71.9792 242.641 72.0625C242.719 72.1406 242.758 72.276 242.758 72.4688C242.758 72.6615 242.719 72.7995 242.641 72.8828C242.568 72.9609 242.443 73 242.266 73H239.734C239.557 73 239.43 72.9609 239.352 72.8828C239.279 72.7995 239.242 72.6615 239.242 72.4688C239.242 72.276 239.279 72.1406 239.352 72.0625C239.43 71.9792 239.557 71.9375 239.734 71.9375H240.453V68.2734C240.453 67.8099 240.346 67.4427 240.133 67.1719C239.919 66.901 239.604 66.7656 239.188 66.7656C238.745 66.7656 238.331 66.8932 237.945 67.1484C237.565 67.4036 237.26 67.7552 237.031 68.2031C236.802 68.651 236.688 69.151 236.688 69.7031V71.9375H237.406C237.583 71.9375 237.708 71.9792 237.781 72.0625C237.859 72.1406 237.898 72.276 237.898 72.4688C237.898 72.6615 237.859 72.7995 237.781 72.8828C237.708 72.9609 237.583 73 237.406 73H234.875C234.698 73 234.57 72.9609 234.492 72.8828C234.419 72.7995 234.383 72.6615 234.383 72.4688C234.383 72.276 234.419 72.1406 234.492 72.0625C234.57 71.9792 234.698 71.9375 234.875 71.9375H235.516V66.8438H234.719C234.542 66.8438 234.414 66.8047 234.336 66.7266C234.263 66.6432 234.227 66.5052 234.227 66.3125C234.227 66.1198 234.263 65.9844 234.336 65.9062C234.414 65.8229 234.542 65.7812 234.719 65.7812H236.117C236.294 65.7812 236.419 65.8229 236.492 65.9062C236.57 65.9844 236.609 66.1198 236.609 66.3125V67.25C236.953 66.7188 237.354 66.3125 237.812 66.0312C238.276 65.75 238.773 65.6094 239.305 65.6094ZM250.477 65.6094C250.69 65.6094 250.841 65.6484 250.93 65.7266C251.018 65.8047 251.062 65.9349 251.062 66.1172V67.6016C251.062 67.7839 251.018 67.9141 250.93 67.9922C250.841 68.0703 250.69 68.1094 250.477 68.1094C250.299 68.1094 250.174 68.0417 250.102 67.9062C249.878 67.4792 249.552 67.1797 249.125 67.0078C248.698 66.8307 248.156 66.7422 247.5 66.7422C246.995 66.7422 246.599 66.8333 246.312 67.0156C246.031 67.1927 245.891 67.4427 245.891 67.7656C245.891 67.9323 245.943 68.0677 246.047 68.1719C246.156 68.276 246.315 68.362 246.523 68.4297C246.695 68.487 246.893 68.5312 247.117 68.5625C247.346 68.5938 247.641 68.6276 248 68.6641C248.505 68.7214 248.911 68.776 249.219 68.8281C249.531 68.875 249.826 68.9479 250.102 69.0469C250.518 69.1979 250.841 69.4167 251.07 69.7031C251.305 69.9896 251.422 70.3672 251.422 70.8359C251.422 71.3047 251.302 71.7161 251.062 72.0703C250.828 72.4193 250.482 72.6901 250.023 72.8828C249.57 73.0755 249.026 73.1719 248.391 73.1719C247.828 73.1719 247.333 73.0938 246.906 72.9375C246.479 72.7812 246.107 72.5443 245.789 72.2266V72.6641C245.789 72.8464 245.745 72.9766 245.656 73.0547C245.568 73.1328 245.417 73.1719 245.203 73.1719C244.99 73.1719 244.839 73.1328 244.75 73.0547C244.661 72.9766 244.617 72.8464 244.617 72.6641V70.7891C244.617 70.6068 244.661 70.4766 244.75 70.3984C244.839 70.3203 244.99 70.2812 245.203 70.2812C245.312 70.2812 245.398 70.3073 245.461 70.3594C245.523 70.4062 245.578 70.487 245.625 70.6016C245.812 71.1016 246.125 71.4661 246.562 71.6953C247 71.9245 247.583 72.0391 248.312 72.0391C248.917 72.0391 249.38 71.9297 249.703 71.7109C250.026 71.4922 250.188 71.2005 250.188 70.8359C250.188 70.6589 250.13 70.513 250.016 70.3984C249.901 70.2839 249.737 70.1901 249.523 70.1172C249.341 70.0599 249.13 70.013 248.891 69.9766C248.656 69.9349 248.357 69.8958 247.992 69.8594C247.503 69.8073 247.094 69.7526 246.766 69.6953C246.438 69.638 246.135 69.5547 245.859 69.4453C245.479 69.2943 245.182 69.0859 244.969 68.8203C244.76 68.5495 244.656 68.1979 244.656 67.7656C244.656 67.3125 244.773 66.9245 245.008 66.6016C245.247 66.2734 245.576 66.026 245.992 65.8594C246.414 65.6927 246.891 65.6094 247.422 65.6094C247.927 65.6094 248.388 65.6849 248.805 65.8359C249.227 65.987 249.589 66.1979 249.891 66.4688V66.1172C249.891 65.9349 249.935 65.8047 250.023 65.7266C250.112 65.6484 250.263 65.6094 250.477 65.6094ZM256.391 63.5547C256.604 63.5547 256.755 63.5938 256.844 63.6719C256.932 63.75 256.977 63.8802 256.977 64.0625V66.4062H260.188C260.365 66.4062 260.49 66.4479 260.562 66.5312C260.641 66.6094 260.68 66.7448 260.68 66.9375C260.68 67.1302 260.641 67.2682 260.562 67.3516C260.49 67.4297 260.365 67.4688 260.188 67.4688H256.977V70.3125C256.977 70.9062 257.078 71.3411 257.281 71.6172C257.49 71.8932 257.849 72.0312 258.359 72.0312C258.708 72.0312 259.076 71.9609 259.461 71.8203C259.846 71.6797 260.219 71.4922 260.578 71.2578C260.651 71.2057 260.732 71.1797 260.82 71.1797C260.997 71.1797 261.148 71.2995 261.273 71.5391C261.341 71.6745 261.375 71.7917 261.375 71.8906C261.375 72.0573 261.289 72.1927 261.117 72.2969C260.711 72.5521 260.258 72.763 259.758 72.9297C259.258 73.0911 258.792 73.1719 258.359 73.1719C257.474 73.1719 256.826 72.9427 256.414 72.4844C256.008 72.0208 255.805 71.3307 255.805 70.4141V67.4688H254.219C254.042 67.4688 253.914 67.4297 253.836 67.3516C253.763 67.2682 253.727 67.1302 253.727 66.9375C253.727 66.7448 253.763 66.6094 253.836 66.5312C253.914 66.4479 254.042 66.4062 254.219 66.4062H255.805V64.0625C255.805 63.8802 255.849 63.75 255.938 63.6719C256.026 63.5938 256.177 63.5547 256.391 63.5547ZM269.594 65.6094C270 65.6094 270.38 65.7135 270.734 65.9219C270.943 66.0469 271.047 66.2083 271.047 66.4062C271.047 66.5 271.023 66.6094 270.977 66.7344C270.867 67.0312 270.716 67.1797 270.523 67.1797C270.445 67.1797 270.372 67.1589 270.305 67.1172C270.049 66.9766 269.776 66.9062 269.484 66.9062C269.016 66.9062 268.544 67.0703 268.07 67.3984C267.596 67.7214 267.206 68.1536 266.898 68.6953C266.596 69.237 266.445 69.8125 266.445 70.4219V71.9375H269.078C269.255 71.9375 269.38 71.9792 269.453 72.0625C269.531 72.1406 269.57 72.276 269.57 72.4688C269.57 72.6615 269.531 72.7995 269.453 72.8828C269.38 72.9609 269.255 73 269.078 73H264.047C263.87 73 263.742 72.9609 263.664 72.8828C263.591 72.7995 263.555 72.6615 263.555 72.4688C263.555 72.276 263.591 72.1406 263.664 72.0625C263.742 71.9792 263.87 71.9375 264.047 71.9375H265.273V66.8438H264.281C264.104 66.8438 263.977 66.8047 263.898 66.7266C263.826 66.6432 263.789 66.5052 263.789 66.3125C263.789 66.1198 263.826 65.9844 263.898 65.9062C263.977 65.8229 264.104 65.7812 264.281 65.7812H265.875C266.052 65.7812 266.177 65.8229 266.25 65.9062C266.328 65.9844 266.367 66.1198 266.367 66.3125V67.8906C266.617 67.4323 266.919 67.0312 267.273 66.6875C267.628 66.3438 268.005 66.0781 268.406 65.8906C268.807 65.7031 269.203 65.6094 269.594 65.6094ZM279.312 65.7812C279.49 65.7812 279.615 65.8229 279.688 65.9062C279.766 65.9844 279.805 66.1198 279.805 66.3125V71.9375H280.445C280.622 71.9375 280.747 71.9792 280.82 72.0625C280.898 72.1406 280.938 72.276 280.938 72.4688C280.938 72.6615 280.898 72.7995 280.82 72.8828C280.747 72.9609 280.622 73 280.445 73H279.203C279.026 73 278.898 72.9609 278.82 72.8828C278.747 72.8047 278.711 72.6693 278.711 72.4766V71.5312C278.367 72.0625 277.964 72.4688 277.5 72.75C277.042 73.0312 276.547 73.1719 276.016 73.1719C275.542 73.1719 275.13 73.0703 274.781 72.8672C274.432 72.6589 274.164 72.362 273.977 71.9766C273.789 71.5911 273.695 71.1406 273.695 70.625V66.8438H273.055C272.878 66.8438 272.75 66.8047 272.672 66.7266C272.599 66.6432 272.562 66.5052 272.562 66.3125C272.562 66.1198 272.599 65.9844 272.672 65.9062C272.75 65.8229 272.878 65.7812 273.055 65.7812H274.375C274.552 65.7812 274.677 65.8229 274.75 65.9062C274.828 65.9844 274.867 66.1198 274.867 66.3125V70.5078C274.867 70.9714 274.974 71.3385 275.188 71.6094C275.401 71.8802 275.716 72.0156 276.133 72.0156C276.576 72.0156 276.987 71.888 277.367 71.6328C277.753 71.3776 278.06 71.026 278.289 70.5781C278.518 70.1302 278.633 69.6302 278.633 69.0781V66.8438H277.523C277.346 66.8438 277.219 66.8047 277.141 66.7266C277.068 66.6432 277.031 66.5052 277.031 66.3125C277.031 66.1198 277.068 65.9844 277.141 65.9062C277.219 65.8229 277.346 65.7812 277.523 65.7812H279.312ZM290.898 71.9375C291.076 71.9375 291.201 71.9792 291.273 72.0625C291.352 72.1406 291.391 72.276 291.391 72.4688C291.391 72.6615 291.352 72.7995 291.273 72.8828C291.201 72.9609 291.076 73 290.898 73H289.734C289.557 73 289.43 72.9609 289.352 72.8828C289.279 72.7995 289.242 72.6615 289.242 72.4688V67.8438C289.242 67.4844 289.182 67.2161 289.062 67.0391C288.948 66.8568 288.76 66.7656 288.5 66.7656C288.255 66.7656 288.029 66.8802 287.82 67.1094C287.612 67.3333 287.445 67.6484 287.32 68.0547C287.201 68.4557 287.141 68.9141 287.141 69.4297V71.9375H287.586C287.763 71.9375 287.888 71.9792 287.961 72.0625C288.039 72.1406 288.078 72.276 288.078 72.4688C288.078 72.6615 288.039 72.7995 287.961 72.8828C287.888 72.9609 287.763 73 287.586 73H286.461C286.284 73 286.156 72.9609 286.078 72.8828C286.005 72.7995 285.969 72.6615 285.969 72.4688V67.8438C285.969 67.4844 285.909 67.2161 285.789 67.0391C285.674 66.8568 285.487 66.7656 285.227 66.7656C284.982 66.7656 284.755 66.8802 284.547 67.1094C284.339 67.3333 284.172 67.6484 284.047 68.0547C283.927 68.4557 283.867 68.9141 283.867 69.4297V71.9375H284.273C284.451 71.9375 284.576 71.9792 284.648 72.0625C284.727 72.1406 284.766 72.276 284.766 72.4688C284.766 72.6615 284.727 72.7995 284.648 72.8828C284.576 72.9609 284.451 73 284.273 73H282.055C281.878 73 281.75 72.9609 281.672 72.8828C281.599 72.7995 281.562 72.6615 281.562 72.4688C281.562 72.276 281.599 72.1406 281.672 72.0625C281.75 71.9792 281.878 71.9375 282.055 71.9375H282.695V66.8438H282.055C281.878 66.8438 281.75 66.8047 281.672 66.7266C281.599 66.6432 281.562 66.5052 281.562 66.3125C281.562 66.1198 281.599 65.9844 281.672 65.9062C281.75 65.8229 281.878 65.7812 282.055 65.7812H283.219C283.396 65.7812 283.521 65.8229 283.594 65.9062C283.672 65.9844 283.711 66.1198 283.711 66.3125V67.0859C283.935 66.5964 284.203 66.2292 284.516 65.9844C284.828 65.7344 285.167 65.6094 285.531 65.6094C285.885 65.6094 286.195 65.7292 286.461 65.9688C286.727 66.2083 286.906 66.5599 287 67.0234C287.464 66.0807 288.062 65.6094 288.797 65.6094C289.104 65.6094 289.378 65.6875 289.617 65.8438C289.862 65.9948 290.055 66.2292 290.195 66.5469C290.341 66.8594 290.414 67.2448 290.414 67.7031V71.9375H290.898ZM296.055 65.6094C296.81 65.6094 297.453 65.763 297.984 66.0703C298.521 66.3724 298.932 66.7943 299.219 67.3359C299.505 67.8724 299.669 68.4922 299.711 69.1953C299.711 69.3724 299.672 69.4974 299.594 69.5703C299.521 69.6432 299.396 69.6797 299.219 69.6797H293.562C293.599 70.4557 293.828 71.0443 294.25 71.4453C294.677 71.8411 295.279 72.0391 296.055 72.0391C296.534 72.0391 297.008 71.9792 297.477 71.8594C297.945 71.7344 298.357 71.5703 298.711 71.3672C298.799 71.3203 298.88 71.2969 298.953 71.2969C299.135 71.2969 299.284 71.4349 299.398 71.7109C299.445 71.8203 299.469 71.9193 299.469 72.0078C299.469 72.2161 299.354 72.3776 299.125 72.4922C298.724 72.6953 298.25 72.8594 297.703 72.9844C297.156 73.1094 296.607 73.1719 296.055 73.1719C295.268 73.1719 294.596 73.0208 294.039 72.7188C293.482 72.4167 293.057 71.9818 292.766 71.4141C292.474 70.8464 292.328 70.1719 292.328 69.3906C292.328 68.6458 292.487 67.987 292.805 67.4141C293.122 66.8411 293.562 66.3984 294.125 66.0859C294.688 65.7682 295.331 65.6094 296.055 65.6094ZM296.055 66.7422C295.414 66.7422 294.883 66.9062 294.461 67.2344C294.044 67.5573 293.771 68.0078 293.641 68.5859H298.414C298.305 67.987 298.052 67.5312 297.656 67.2188C297.266 66.901 296.732 66.7422 296.055 66.7422ZM306.461 65.6094C306.935 65.6094 307.346 65.7135 307.695 65.9219C308.044 66.125 308.312 66.4193 308.5 66.8047C308.688 67.1901 308.781 67.6406 308.781 68.1562V71.9375H309.422C309.599 71.9375 309.724 71.9792 309.797 72.0625C309.875 72.1406 309.914 72.276 309.914 72.4688C309.914 72.6615 309.875 72.7995 309.797 72.8828C309.724 72.9609 309.599 73 309.422 73H306.891C306.714 73 306.586 72.9609 306.508 72.8828C306.435 72.7995 306.398 72.6615 306.398 72.4688C306.398 72.276 306.435 72.1406 306.508 72.0625C306.586 71.9792 306.714 71.9375 306.891 71.9375H307.609V68.2734C307.609 67.8099 307.503 67.4427 307.289 67.1719C307.076 66.901 306.76 66.7656 306.344 66.7656C305.901 66.7656 305.487 66.8932 305.102 67.1484C304.721 67.4036 304.417 67.7552 304.188 68.2031C303.958 68.651 303.844 69.151 303.844 69.7031V71.9375H304.562C304.74 71.9375 304.865 71.9792 304.938 72.0625C305.016 72.1406 305.055 72.276 305.055 72.4688C305.055 72.6615 305.016 72.7995 304.938 72.8828C304.865 72.9609 304.74 73 304.562 73H302.031C301.854 73 301.727 72.9609 301.648 72.8828C301.576 72.7995 301.539 72.6615 301.539 72.4688C301.539 72.276 301.576 72.1406 301.648 72.0625C301.727 71.9792 301.854 71.9375 302.031 71.9375H302.672V66.8438H301.875C301.698 66.8438 301.57 66.8047 301.492 66.7266C301.419 66.6432 301.383 66.5052 301.383 66.3125C301.383 66.1198 301.419 65.9844 301.492 65.9062C301.57 65.8229 301.698 65.7812 301.875 65.7812H303.273C303.451 65.7812 303.576 65.8229 303.648 65.9062C303.727 65.9844 303.766 66.1198 303.766 66.3125V67.25C304.109 66.7188 304.51 66.3125 304.969 66.0312C305.432 65.75 305.93 65.6094 306.461 65.6094ZM313.953 63.5547C314.167 63.5547 314.318 63.5938 314.406 63.6719C314.495 63.75 314.539 63.8802 314.539 64.0625V66.4062H317.75C317.927 66.4062 318.052 66.4479 318.125 66.5312C318.203 66.6094 318.242 66.7448 318.242 66.9375C318.242 67.1302 318.203 67.2682 318.125 67.3516C318.052 67.4297 317.927 67.4688 317.75 67.4688H314.539V70.3125C314.539 70.9062 314.641 71.3411 314.844 71.6172C315.052 71.8932 315.411 72.0312 315.922 72.0312C316.271 72.0312 316.638 71.9609 317.023 71.8203C317.409 71.6797 317.781 71.4922 318.141 71.2578C318.214 71.2057 318.294 71.1797 318.383 71.1797C318.56 71.1797 318.711 71.2995 318.836 71.5391C318.904 71.6745 318.938 71.7917 318.938 71.8906C318.938 72.0573 318.852 72.1927 318.68 72.2969C318.273 72.5521 317.82 72.763 317.32 72.9297C316.82 73.0911 316.354 73.1719 315.922 73.1719C315.036 73.1719 314.388 72.9427 313.977 72.4844C313.57 72.0208 313.367 71.3307 313.367 70.4141V67.4688H311.781C311.604 67.4688 311.477 67.4297 311.398 67.3516C311.326 67.2682 311.289 67.1302 311.289 66.9375C311.289 66.7448 311.326 66.6094 311.398 66.5312C311.477 66.4479 311.604 66.4062 311.781 66.4062H313.367V64.0625C313.367 63.8802 313.411 63.75 313.5 63.6719C313.589 63.5938 313.74 63.5547 313.953 63.5547Z" fill="black"/>
<path d="M141.664 138.787C137.192 136.302 135.224 133.27 133.142 128.585C130.658 122.997 137.097 104.807 142.798 104.403C148.499 104 148.953 103.419 154.499 106.5C165.161 112.423 163 131 153.965 138.241C151.506 140.973 144.558 140.395 141.664 138.787Z" stroke="black" stroke-width="3" stroke-linecap="round"/>
<path d="M69.1644 116.873C74.5 114 78.256 114.984 83.1025 114.984C89.8465 114.984 94 130.001 92.5485 139.207C91.097 148.414 87.9979 158.6 75.1679 155.748C63.1851 153.086 57.714 142.255 61.0199 130.685C62.6408 125.012 63.8289 119.746 69.1644 116.873Z" stroke="black" stroke-width="3" stroke-linecap="round"/>
<path d="M161.001 118.5C154.501 107.999 143.502 114.999 142.5 123.499C141.498 132 158.5 139 161.5 125" stroke="black" stroke-width="3" stroke-linecap="round"/>
<path d="M68.7422 131.742C68.7422 126.432 69.1093 122.58 77.0547 121.54C85 120.5 88.4202 139.676 78.566 139.676C73.9295 139.676 68.7422 137.151 68.7422 131.742Z" stroke="black" stroke-width="3" stroke-linecap="round"/>
<path d="M40.0273 214C40.0273 203.893 41.3555 197.371 43.8057 187.571C47.55 172.594 59.9912 158.469 71.1781 148.401C79.0383 141.327 91.0058 134.911 101.195 132.364C109.473 130.294 118.5 128.5 132 128.5" stroke="black" stroke-width="3" stroke-linecap="round"/>
<path d="M152.5 140C161.561 145.023 165.995 161.476 168 170.5C170.437 181.465 172.026 193.644 172.026 204.909" stroke="black" stroke-width="3" stroke-linecap="round"/>
<path d="M112 181.068C114.546 178.522 116.274 175.85 119 173.5C120.601 172.12 123.508 171.484 124.993 170" stroke="black" stroke-width="3" stroke-linecap="round"/>
<path d="M118 174.704C122.746 176.653 130.533 178.94 136.445 178.94C139.998 178.94 145.941 178.399 147.788 174.704" stroke="black" stroke-width="3" stroke-linecap="round"/>
<path d="M36.2921 66.4435C36.2921 65.0952 34.9271 65.7886 34.5817 66.6214C32.9155 70.6387 37.5878 71.8886 37.6072 68.5364C37.6292 64.7114 32.5779 68.1077 34.8173 70.1191C36.739 71.8453 38.146 68.4676 35.264 67.9001" stroke="black" stroke-width="3" stroke-linecap="round" stroke-linejoin="round"/>
<path d="M33.9978 67.4353C33.9978 68.4089 32.8199 68.4874 32.1323 68.5724C28.8433 68.9788 25 64.7849 25 61.518C25 59.148 29.7356 59 31.3524 59C34.7428 59 34.5909 65.2866 34.5909 67.5618" stroke="black" stroke-width="3" stroke-linecap="round" stroke-linejoin="round"/>
<path d="M36.7586 67.5335C35.7688 65.7452 39.734 61.5728 40.9374 60.1385C41.7314 59.1921 43.2298 59.2363 44.3833 59.1128C46.0687 58.9323 45.6377 59.7504 46.0784 61.0222C48.3886 67.6881 42.5863 69.4724 36.981 68.4" stroke="black" stroke-width="3" stroke-linecap="round" stroke-linejoin="round"/>

  </g>
  <animate xlink:href="#group1" attributeName="display" from="inline" to="none" dur="1s" begin="0s" repeatCount="indefinite" />
  <animate xlink:href="#group2" attributeName="display" from="none" to="inline" dur="1s" begin="0s" repeatCount="indefinite" />
</svg>