<svg width="240" height="240" viewBox="0 0 240 240" fill="none" xmlns="http://www.w3.org/2000/svg" xmlns:xlink="http://www.w3.org/1999/xlink">
  <g id="group1">
    <path d="M62.1722 30.3908C60.0326 30.3908 60.2932 34.195 62.2267 34.6689C65.1857 35.3941 60.5399 29.8007 60.6838 33.9872C60.7683 36.4441 66.4432 32.6826 62.5292 32.6826C60.4505 32.6826 58.8229 32.2601 57.0176 31.0294C53.274 28.4773 52.2027 21.3337 58.5698 22.0502C60.7227 22.2925 61.6532 32.7408 61.9824 31.9879C63.6135 28.2573 62.8308 24.5144 68.0427 24.5144C70.8698 24.5144 71.4577 27.5278 71.4741 29.8254C71.498 33.183 68.1085 33.7036 65.3856 33.7992" stroke="black" stroke-width="3" stroke-linecap="round" stroke-linejoin="round"/>
<path d="M128 74.5C127 58.0003 111.501 57.1388 104.001 59.5003C92.6947 63.0608 88.9896 79.1438 100 85.9997" stroke="black" stroke-width="3" stroke-linecap="round" stroke-linejoin="round"/>
<path d="M102.916 76.2508C102.812 76.6798 102.003 76.9477 102.746 76.3528C104.241 75.1551 106.067 74.2682 107.742 73.3097C110.991 71.4508 121.226 66.6387 117.793 68.2008" stroke="black" stroke-width="3" stroke-linecap="round" stroke-linejoin="round"/>
<path d="M104.756 65.4059C104.062 65.28 104.906 65.3967 105.168 65.6323C106.739 67.0434 107.995 68.9352 109.266 70.6165C110.863 72.7302 112.383 74.8548 113.323 77.3689C113.43 77.6552 113.816 79.8229 114.091 79.8727" stroke="black" stroke-width="3" stroke-linecap="round" stroke-linejoin="round"/>
<path d="M83.566 124.095C83.357 116.704 85.3282 109.143 87.5273 102.008C88.2061 99.8049 91 90.5 97 84.5" stroke="black" stroke-width="3" stroke-linecap="round" stroke-linejoin="round"/>
<path d="M128.426 71.3601C131.958 71.3601 135.66 70.9081 139.27 70.9081C141.41 70.9081 143.521 70.6076 145.666 70.6776C147.425 70.7349 149.194 71.577 150.904 71.9416C154.748 72.7612 157.496 74.8971 160.622 77.0403C167.221 81.5642 171.346 91.06 172.904 98.2269C174.007 103.3 175.334 108.357 175.355 113.567C175.364 115.865 175.5 122.5 175.5 127" stroke="black" stroke-width="3" stroke-linecap="round" stroke-linejoin="round"/>
<path d="M83.5008 124C76.0008 128 69.7815 133.654 66 137C55.7391 146.079 50.8557 162.382 55.5621 175.205C60.8088 189.5 73.6176 198.207 88.6108 203.078C97.1956 205.868 106.314 207.986 115.467 208.283C125.149 208.598 134.737 209.779 144.271 207.97C153.374 206.244 161.512 203.538 169.025 198.477C175.697 193.981 181.075 191.545 183.729 183.811C187.789 171.985 187.391 160.33 181.773 148.942C179.541 144.418 174.825 140.052 174.825 134.975C174.825 132.15 175.001 130.5 175.501 127.5" stroke="black" stroke-width="3" stroke-linecap="round" stroke-linejoin="round"/>
<path d="M174.312 66.0176C174.312 66.0176 175.775 70.7396 175.997 73.173C176.396 77.5489 176.539 83.464 174.373 87.4659" stroke="black" stroke-width="3" stroke-linecap="round" stroke-linejoin="round"/>
<path d="M129.093 108.218C128.626 108.373 127.459 109.549 128.292 108.687C132.424 104.413 136.726 100.629 141.218 97.696C143.533 96.1843 145.926 94.8629 148.389 94.4165C150.632 94.0101 153.626 93.3541 155.646 95.5628C156.838 96.8655 157.816 98.8632 158.351 101.146C158.513 101.839 158.629 103.248 159 103.725" stroke="black" stroke-width="3" stroke-linecap="round" stroke-linejoin="round"/>
<path d="M77 198L73 221" stroke="black" stroke-width="3" stroke-linecap="round" stroke-linejoin="round"/>
<path d="M43 109L75 138" stroke="black" stroke-width="3" stroke-linecap="round" stroke-linejoin="round"/>
<path d="M176 148.579L218.574 128.104" stroke="black" stroke-width="3" stroke-linecap="round" stroke-linejoin="round"/>
<path d="M177.434 194.85L186.569 209.151" stroke="black" stroke-width="3" stroke-linecap="round" stroke-linejoin="round"/>
<path d="M167.778 77.3303C171.679 76.6185 175.728 75.9197 179.694 76.1823C182.566 76.3725 190.914 77.0776 190.498 81.571" stroke="black" stroke-width="3" stroke-linecap="round" stroke-linejoin="round"/>
  </g>
  <g id="group2" style="display:none">
<path d="M128 74.5C127 58.0003 111.501 57.1388 104.001 59.5003C92.6947 63.0608 88.9896 79.1438 100 85.9997" stroke="black" stroke-width="3" stroke-linecap="round" stroke-linejoin="round"/>
<path d="M102.916 76.2508C102.812 76.6798 102.003 76.9477 102.746 76.3528C104.241 75.1551 106.067 74.2682 107.742 73.3097C110.991 71.4508 121.226 66.6387 117.793 68.2008" stroke="black" stroke-width="3" stroke-linecap="round" stroke-linejoin="round"/>
<path d="M104.756 65.4059C104.062 65.28 104.906 65.3967 105.168 65.6323C106.739 67.0434 107.995 68.9352 109.266 70.6165C110.863 72.7302 112.383 74.8548 113.323 77.3689C113.43 77.6552 113.816 79.8229 114.091 79.8727" stroke="black" stroke-width="3" stroke-linecap="round" stroke-linejoin="round"/>
<path d="M83.566 124.095C83.357 116.704 85.3282 109.143 87.5273 102.008C88.2061 99.8049 91 90.5 97 84.5" stroke="black" stroke-width="3" stroke-linecap="round" stroke-linejoin="round"/>
<path d="M128.426 71.3601C131.958 71.3601 135.66 70.9081 139.27 70.9081C141.41 70.9081 143.521 70.6076 145.666 70.6776C147.425 70.7349 149.194 71.577 150.904 71.9416C154.748 72.7612 157.496 74.8971 160.622 77.0403C167.221 81.5642 171.346 91.06 172.904 98.2269C174.007 103.3 175.334 108.357 175.355 113.567C175.364 115.865 175.5 122.5 175.5 127" stroke="black" stroke-width="3" stroke-linecap="round" stroke-linejoin="round"/>
<path d="M83.5008 124C76.0008 128 69.7815 133.654 66 137C55.7391 146.079 50.8557 162.382 55.5621 175.205C60.8088 189.5 73.6176 198.207 88.6108 203.078C97.1956 205.868 106.314 207.986 115.467 208.283C125.149 208.598 134.737 209.779 144.271 207.97C153.374 206.244 161.512 203.538 169.025 198.477C175.697 193.981 181.075 191.545 183.729 183.811C187.789 171.985 187.391 160.33 181.773 148.942C179.541 144.418 174.825 140.052 174.825 134.975C174.825 132.15 175.001 130.5 175.501 127.5" stroke="black" stroke-width="3" stroke-linecap="round" stroke-linejoin="round"/>
<path d="M174.312 66.0176C174.312 66.0176 175.775 70.7396 175.997 73.173C176.396 77.5489 176.539 83.464 174.373 87.4659" stroke="black" stroke-width="3" stroke-linecap="round" stroke-linejoin="round"/>
<path d="M129.093 108.218C128.626 108.373 127.459 109.549 128.292 108.687C132.424 104.413 136.726 100.629 141.218 97.696C143.533 96.1843 145.926 94.8629 148.389 94.4165C150.632 94.0101 153.626 93.3541 155.646 95.5628C156.838 96.8655 157.816 98.8632 158.351 101.146C158.513 101.839 158.629 103.248 159 103.725" stroke="black" stroke-width="3" stroke-linecap="round" stroke-linejoin="round"/>
<path d="M77 198L73 221" stroke="black" stroke-width="3" stroke-linecap="round" stroke-linejoin="round"/>
<path d="M43 109L75 138" stroke="black" stroke-width="3" stroke-linecap="round" stroke-linejoin="round"/>
<path d="M176 148.579L218.574 128.104" stroke="black" stroke-width="3" stroke-linecap="round" stroke-linejoin="round"/>
<path d="M177.434 194.85L186.569 209.151" stroke="black" stroke-width="3" stroke-linecap="round" stroke-linejoin="round"/>
<path d="M167.778 77.3303C171.679 76.6185 175.728 75.9197 179.694 76.1823C182.566 76.3725 190.914 77.0776 190.498 81.571" stroke="black" stroke-width="3" stroke-linecap="round" stroke-linejoin="round"/>
<path d="M63.1722 33.3908C61.0326 33.3908 61.2932 37.195 63.2267 37.6689C66.1857 38.3941 61.5399 32.8007 61.6838 36.9872C61.7683 39.4441 67.4432 35.6826 63.5292 35.6826C61.4505 35.6826 59.8229 35.2601 58.0176 34.0294C54.274 31.4773 53.2027 24.3337 59.5698 25.0502C61.7227 25.2925 62.6532 35.7408 62.9824 34.9879C64.6135 31.2573 63.8308 27.5144 69.0427 27.5144C71.8698 27.5144 72.4577 30.5278 72.4741 32.8254C72.498 36.183 69.1085 36.7036 66.3856 36.7992" stroke="black" stroke-width="3" stroke-linecap="round" stroke-linejoin="round"/>
  </g>
  <animate xlink:href="#group1" attributeName="display" from="inline" to="none" dur="1s" begin="0s" repeatCount="indefinite" />
  <animate xlink:href="#group2" attributeName="display" from="none" to="inline" dur="1s" begin="0s" repeatCount="indefinite" />
</svg>