<svg width="38" height="53" viewBox="0 0 38 53" fill="none" xmlns="http://www.w3.org/2000/svg">
<path d="M10.5827 23.1712C8.50412 19.0141 8.32031 13.8106 8.32031 9.2325C8.32031 7.11514 8.56658 5.37804 9.01159 3.37548C9.21613 2.45505 10.7769 1 11.7139 1C13.1247 1 14.2339 1.59435 14.6047 3.03613C15.2832 5.67488 15.7861 8.65458 15.7861 11.4069C15.7861 15.2595 16.0124 19.0824 16.0124 22.945" stroke="black" stroke-width="2" stroke-linecap="round"/>
<path d="M22.7961 24.3024C22.7961 20.9926 22.4882 17.5313 22.9092 14.2475C23.3171 11.0663 23.8812 7.48704 25.7372 4.79582C26.9623 3.01946 31.6395 -0.958289 32.9265 2.75969C34.2303 6.52631 34.1804 10.8319 33.379 14.7502C32.6824 18.1557 30.9406 21.489 30.9406 24.9812" stroke="black" stroke-width="2" stroke-linecap="round"/>
<path d="M15.7812 17.9677C16.9583 17.9677 21.7963 17.3285 22.3421 18.4202" stroke="black" stroke-width="2" stroke-linecap="round"/>
<path d="M7.50636 19.7051C6.21343 19.7051 4.9205 19.7051 3.62757 19.7051C1.90919 19.7051 2.25122 20.2944 2.25122 21.9017C2.25122 24.2003 2.38466 26.9756 1.87586 29.2144C1.43569 31.1511 1.25024 33.7025 1.25024 35.6651C1.25024 40.3738 1 44.9912 1 49.7344" stroke="black" stroke-width="2" stroke-linecap="round"/>
<path d="M1 49.7344C4.02716 49.7344 6.65163 51.7363 9.70295 51.7363C13.5403 51.7363 17.312 51.4861 21.1308 51.4861C23.6485 51.4861 26.1024 50.7354 28.652 50.7354C30.9231 50.7354 33.2047 50.4851 35.5337 50.4851" stroke="black" stroke-width="2" stroke-linecap="round"/>
<path d="M31.5273 19.7051C32.9037 19.7051 34.28 19.7051 35.6564 19.7051C37.3676 19.7051 36.7825 21.7075 36.7825 23.0139C36.7825 27.0742 36.5322 31.1282 36.5322 35.2202C36.5322 39.9995 35.7815 45.1951 35.7815 49.9847" stroke="black" stroke-width="2" stroke-linecap="round"/>
<path d="M9.64062 34.0396C9.64062 32.1138 11.7175 30.45 13.5194 30.0496C15.0868 29.7013 17.8987 30.6496 17.8987 32.5381" stroke="black" stroke-width="2" stroke-linecap="round"/>
<path d="M22.4062 32.7883C23.933 31.2615 24.2293 30.0356 26.6604 30.0356C27.7158 30.0356 28.1725 30.284 29.0516 30.7864C29.9242 31.285 29.6497 32.0172 30.1638 32.7883" stroke="black" stroke-width="2" stroke-linecap="round"/>
<path d="M15.5586 39.5442C17.0348 41.0204 20.3402 41.1303 21.5645 39.2939" stroke="black" stroke-width="2" stroke-linecap="round"/>
<path d="M9.64062 42.7969C9.85009 44.6822 13.7154 44.5172 14.8958 43.9926C15.7951 43.5929 17.0678 43.189 17.5928 42.2965C18.1891 41.2829 18.2855 41.0427 19.0943 41.8516C19.7717 42.5289 20.587 42.7405 21.4021 43.1028C22.229 43.4703 23.5783 44.2011 24.405 44.2984C25.7914 44.4615 26.1106 44.5404 27.408 43.8535C28.2344 43.416 28.9979 42.6201 29.4099 41.796" stroke="black" stroke-width="2" stroke-linecap="round"/>
</svg>
