<svg width="346" height="67" viewBox="0 0 346 67" fill="none" xmlns="http://www.w3.org/2000/svg" xmlns:xlink="http://www.w3.org/1999/xlink">
  <g id="group1">
    <path d="M18.404 54C8.64115 47.5765 7 39.2637 7 33.3584C7 32.9074 7 29.0554 7 29.0554C12.4705 36.1152 16.3472 38.4704 19.0351 39.1765C21.4084 39.7999 17.394 32.7529 17.394 27.3176C17.394 20.8941 19.0351 17.2891 24.5056 12C23.3959 20.6528 25.5465 31.7614 31.6173 33.3584C37.0878 34.2353 38.7289 19.9059 39.5065 17.2891C39.5065 17.2891 44 30.8401 44 36.1152C44 40.2755 42.5596 48.0706 39.3927 53.5293" stroke="#FF3131" stroke-width="3" stroke-linecap="round"/>
    <path d="M54.264 51.1136C49.1034 45.8263 50.6185 31.7485 54.9459 25.8371C55.7162 35.2989 58.9675 40.2339 64.3864 40.2339C69.8054 40.2339 69.3582 32.2652 71.0291 27.9556C76.5459 32.9799 72.5171 49.5375 78.8101 52.5716C84.7171 55.4196 88.0858 50.6732 90.6104 46.6495C92.486 43.6603 91.805 37.2974 91.805 33.7634C93.6896 36.3603 99.1091 41.2149 101.912 37.1604C105.496 31.9766 107.545 25.7969 109.363 20C117.492 32.3377 111.662 52.0718 120.743 54.7484C125.078 56.0262 126.925 52.1741 127.715 49.117C128.778 45.0024 129.955 39.7404 130.497 35.2989C136.293 41.8967 137 46.7404 137 54.7484" stroke="#FF3131" stroke-width="3" stroke-linecap="round"/>
    <path d="M144.696 53C142.916 48.9057 142 42.2969 142 38C142 34.558 143.964 28.0022 143.964 28.0022C146.214 30.7096 151.173 38.4387 155.48 36C158.409 34.3419 159.023 30.5691 159.023 28.0022C159.023 24.3331 157.876 22.4966 157.022 19.1723C160.873 20 161.607 22.5 166.265 22.5C168.961 22.5 170.822 21.7237 172.735 20C174.95 18.0048 173.709 12.507 174.353 10C174.353 10 180.546 18.0703 181.363 22.5C182.868 30.6654 176.046 32.3444 176.046 40.05C176.046 44.5206 186.807 43.3573 187.833 40.05C189.99 35.442 188.186 31.3754 188.486 27.7705C188.486 27.7705 192.085 30.0749 192.559 30.4478C195.697 32.9148 196.997 39.811 196.997 43.5254C196.997 47.1576 197.163 49.7783 195.033 52.7929" stroke="#FF3131" stroke-width="3" stroke-linecap="round"/>
    <path d="M206.088 54C201.963 43.2253 203.772 34.2456 213.111 25.4023C215.704 31.6026 213.111 44.5303 221.249 45.0564C230.486 46.4509 228.948 18 228.948 18C236.334 21.7023 237.777 45.0564 244.664 44.5303C253.328 43.8685 252.48 27.6717 258.154 23.8794C258.154 23.8794 257.617 35.0491 261.452 38.7808C269.414 45.0564 271.374 28.5583 272.565 24.6138C279.529 31.4058 280.714 38.3288 279.669 47.2359" stroke="#FF3131" stroke-width="3" stroke-linecap="round"/>
    <path d="M335.907 50.1719C338.652 44.1391 340.586 29.4527 337.187 23.5166C335.06 28.7067 333.559 34.7395 326.742 36.1409C321.129 37.2947 318.811 34.9894 317.36 31.111C316.191 27.9865 315.017 19 315.017 19C308.559 24.974 307.901 33.2501 309.79 41.1148C310.416 43.7211 311.975 52.3912 307.253 54.1702C294.11 59.1217 296.603 40.4775 296.814 36.1409C290.866 39.1141 287.622 41.615 286 48.1175" stroke="#FF3131" stroke-width="3" stroke-linecap="round"/>
  </g>
  <g id="group2" style="display:none">
<path d="M18.404 54C8.64115 46.9647 7 37.8602 7 31.3925C7 30.8986 7 26.6798 7 26.6798C12.4705 34.4119 16.3472 36.9914 19.0351 37.7647C21.4084 38.4475 17.394 30.7294 17.394 24.7765C17.394 17.7412 19.0351 13.7929 24.5056 8C23.3959 17.4768 25.5465 33.6434 31.6173 35.3925C37.0878 36.3529 38.7289 16.6588 39.5065 13.7929C39.5065 13.7929 44 28.6344 44 34.4119C44 38.9684 42.5596 47.5059 39.3927 53.4845" stroke="#FF000F" stroke-width="3" stroke-linecap="round"/>
<path d="M54.264 51.6688C49.1034 47.1369 50.6185 35.0702 54.9459 30.0032C55.7162 38.1133 58.9675 42.3433 64.3864 42.3433C69.8054 42.3433 69.3582 35.513 71.0291 31.8191C76.5459 36.1256 72.5171 50.3178 78.8101 52.9185C84.7171 55.3597 88.0858 51.2913 90.6104 47.8424C92.486 45.2802 91.805 39.8264 91.805 36.7972C93.6896 39.0231 99.1091 43.1842 101.912 39.7089C105.496 35.2657 107.545 29.9688 109.363 25C117.492 35.5752 111.662 52.4901 120.743 54.7843C125.078 55.8796 126.925 52.5778 127.715 49.9575C128.778 46.4306 129.955 41.9203 130.497 38.1133C136.293 43.7686 137 47.9203 137 54.7843" stroke="#ED011D" stroke-width="3" stroke-linecap="round"/>
<path d="M144.696 53C142.916 48.7153 142 41.7991 142 37.3023C142 33.7002 143.964 26.8395 143.964 26.8395C146.214 29.6729 151.173 39.7614 155.48 37.2093C158.409 35.474 159.023 29.5258 159.023 26.8395C159.023 22.9998 157.876 21.0779 157.022 17.5989C160.873 18.4651 161.607 23.0814 166.265 23.0814C168.961 23.0814 170.822 22.269 172.735 20.4651C174.95 18.3771 173.709 10.6236 174.353 8C174.353 8 180.546 16.4456 181.363 21.0814C182.868 29.6265 176.046 33.3837 176.046 41.4477C176.046 46.1262 186.807 44.9088 187.833 41.4477C189.99 36.6254 188.186 30.3696 188.486 26.5971C188.486 26.5971 192.085 29.0086 192.559 29.3989C195.697 31.9806 196.997 39.1976 196.997 43.0847C196.997 46.8859 197.163 49.6285 195.033 52.7833" stroke="#FF000F" stroke-width="3" stroke-linecap="round"/>
<path d="M206.088 54C201.963 44.4224 203.772 36.4405 213.111 28.5799C215.704 34.0912 213.111 45.5825 221.249 46.0501C230.486 47.2897 228.948 22 228.948 22C236.334 25.2909 237.777 46.0501 244.664 45.5825C253.328 44.9942 252.48 30.597 258.154 27.2261C258.154 27.2261 257.617 37.1548 261.452 40.4718C269.414 46.0501 271.374 31.3852 272.565 27.8789C279.529 33.9163 280.714 40.0701 279.669 47.9875" stroke="#ED011D" stroke-width="3" stroke-linecap="round"/>
<path d="M335.907 49.3673C338.652 42.3289 340.586 25.1948 337.187 18.2694C335.06 24.3244 333.559 36.3627 326.742 37.9977C321.129 39.3438 318.811 31.6542 317.36 27.1295C316.191 23.4843 315.017 13 315.017 13C308.559 19.9697 307.901 29.6252 309.79 38.8006C310.416 41.8413 311.975 51.9564 307.253 54.0319C294.11 59.8086 296.603 38.0571 296.814 32.9977C290.866 36.4664 287.622 39.3842 286 46.9704" stroke="#FF000F" stroke-width="3" stroke-linecap="round"/>
  </g>
  <animate xlink:href="#group1" attributeName="display" from="inline" to="none" dur="1s" begin="0s" repeatCount="indefinite" />
  <animate xlink:href="#group2" attributeName="display" from="none" to="inline" dur="1s" begin="0s" repeatCount="indefinite" />
</svg>