<svg width="120" height="108" viewBox="0 0 120 108" fill="none" xmlns="http://www.w3.org/2000/svg">
<path d="M39.9406 82.2336C43.434 82.7204 47.0439 82.5092 50.5779 82.4736C50.5791 84.7441 51.4664 86.4709 51.4664 88.8216C51.4664 91.9901 50.8917 95.3827 50.0349 98.4685C49.5157 100.339 47.6795 102.212 47.4681 104.115C47.3884 104.833 46.5797 104.915 46.5797 105.527C46.5797 106.083 47.189 106.132 47.4681 105.762C48.6231 104.233 50.9486 103.174 52.3549 101.763C53.7141 100.399 54.7498 98.8544 56.3531 97.7626C58.2363 96.4802 59.0519 94.6685 60.5734 93.0568C61.8475 91.7073 63.9053 89.668 63.9053 87.6452C63.9053 83.8768 66.8429 87.6452 69.0141 87.6452C72.7568 87.6452 76.2299 86.9199 79.8982 86.704C82.535 86.5489 85.4661 85.1682 87.8946 84.1159C91.5267 82.542 95.4081 81.1938 98.5565 78.7042C107.08 71.9641 115.268 63.1352 117.437 51.646C119.866 38.7836 114.069 24.9779 107.096 14.7056C99.7439 3.87565 85.2988 2 73.6047 2C62.1651 2 50.8207 4.07719 39.7679 7.17636C34.9326 8.53214 30.9398 11.2719 26.5392 13.0847C18.9424 16.2141 13.6696 21.6694 8.0289 27.7772C1.78495 34.5382 0.74519 44.47 3.29027 53.293C6.52659 64.5124 14.5848 71.8426 24.3673 76.8219C29.3484 79.3573 34.4615 81.4699 39.9406 82.2336Z" fill="white"/>
<path d="M51.4664 82.4688C47.6509 82.4688 43.7273 82.7613 39.9406 82.2336C34.4615 81.4699 29.3484 79.3573 24.3673 76.8219C14.5848 71.8426 6.52659 64.5124 3.29027 53.293C0.74519 44.47 1.78495 34.5382 8.0289 27.7772C13.6696 21.6694 18.9424 16.2141 26.5392 13.0847C30.9398 11.2719 34.9326 8.53214 39.7679 7.17636C50.8207 4.07719 62.1651 2 73.6047 2C85.2988 2 99.7439 3.87565 107.096 14.7056C114.069 24.9779 119.866 38.7836 117.437 51.646C115.268 63.1352 107.08 71.9641 98.5565 78.7042C95.4081 81.1938 91.5267 82.542 87.8946 84.1159C85.4661 85.1682 82.535 86.5489 79.8982 86.704C76.2299 86.9199 72.7568 87.6452 69.0141 87.6452C66.8429 87.6452 63.9053 83.8768 63.9053 87.6452C63.9053 89.668 61.8475 91.7073 60.5734 93.0568C59.0519 94.6685 58.2363 96.4802 56.3531 97.7626C54.7498 98.8544 53.7141 100.399 52.3549 101.763C50.9486 103.174 48.6231 104.233 47.4681 105.762C47.189 106.132 46.5797 106.083 46.5797 105.527C46.5797 104.915 47.3884 104.833 47.4681 104.115C47.6795 102.212 49.5157 100.339 50.0349 98.4685C50.8917 95.3827 51.4664 91.9901 51.4664 88.8216C51.4664 86.4692 50.5779 84.7417 50.5779 82.4688" stroke="black" stroke-width="3" stroke-linecap="round"/>
</svg>
