<svg width="295" height="44" viewBox="0 0 295 44" fill="none" xmlns="http://www.w3.org/2000/svg">
<path d="M154.104 23.8257C152.027 24.0853 154.954 27.1191 155.888 25.2529" stroke="black" stroke-width="3" stroke-linecap="round"/>
<path d="M165.559 41.903C165.559 40.0002 165.559 38.0973 165.559 36.1945C165.559 34.0438 164.846 32.0755 164.846 29.9705C164.846 27.9236 164.489 25.8418 164.489 23.707C164.489 22.2681 163.937 19.1338 164.667 17.82C165.681 15.996 166.095 15.8577 168.235 15.8577C170.083 15.8577 170.292 17.6729 170.99 19.0687C173.107 23.3017 168.898 24.7773 165.559 24.7773" stroke="black" stroke-width="3" stroke-linecap="round"/>
<path d="M189.345 24.4205C189.345 21.4235 188.115 19.0413 186.332 16.7496C184.467 14.3512 181.234 14.5587 179.791 17.2848C179.13 18.5335 178.642 19.9106 178.642 21.3879C178.642 21.8587 178.401 23.2722 178.721 23.6277C179.21 24.1709 180.384 24.1013 180.782 24.5989C181.98 26.096 186.642 21.6215 187.204 20.4959" stroke="black" stroke-width="3" stroke-linecap="round"/>
<path d="M199.338 40.8327C199.338 38.9893 199.338 37.1459 199.338 35.3025C199.338 33.2535 199.463 29.8383 198.802 27.9884C197.688 24.8677 198.421 20.184 200.685 17.9191C203.618 14.9863 206.83 19.3854 206.83 22.1014C206.83 24.9024 201.521 24.7773 199.338 24.7773" stroke="black" stroke-width="3" stroke-linecap="round"/>
<path d="M215.492 26.4593C215.492 23.3627 215.135 20.2998 215.135 17.3613C215.135 16.4772 214.703 16.4693 215.67 16.4693C216.517 16.4693 217.118 15.7557 217.989 15.7557C218.762 15.7557 219.535 15.7557 220.309 15.7557C221.121 15.7557 221.494 16.4693 222.271 16.4693" stroke="black" stroke-width="3" stroke-linecap="round"/>
<path d="M229.765 23.2482C227.787 23.4954 230.478 26.0994 230.478 23.9618" stroke="black" stroke-width="3" stroke-linecap="round"/>
<path d="M241.028 10.4041C241.028 12.5586 239.366 25.1835 243.347 24.2989C245.918 23.7276 246.294 20.9339 246.915 18.9472C247.267 17.8206 247.806 16.3917 247.806 15.2207C247.806 14.6746 247.566 12.6014 248.441 13.6945C250.427 16.1772 249.951 23.2277 254.764 22.1582C256.006 21.8822 256.726 18.3657 256.726 17.3614C256.726 15.3991 256.726 13.4368 256.726 11.4745" stroke="black" stroke-width="3" stroke-linecap="round"/>
<path d="M269.04 2C269.04 7.58965 269.04 13.1793 269.04 18.7689C269.04 20.592 268.959 23.2129 270.824 24.2C271.751 24.691 273 24.4775 274.035 24.4775C275 24.4775 275.188 23.1584 275.462 22.3368" stroke="black" stroke-width="3" stroke-linecap="round"/>
<path d="M263.688 13.7739H273.678" stroke="black" stroke-width="3" stroke-linecap="round"/>
<path d="M285.555 26.975C285.555 20.3811 285.555 13.7871 285.555 7.19321C285.555 5.11638 286.335 2.71356 288.766 2.71356C291.442 2.71356 292.114 5.48495 293.047 7.35178" stroke="black" stroke-width="3" stroke-linecap="round"/>
<path d="M281.27 15.9147H290.189" stroke="black" stroke-width="3" stroke-linecap="round"/>
<path d="M12.7973 27.8303C12.5653 29.7543 4.02415 31.7939 3.34543 29.332C2.84371 27.5122 1.55068 26.0806 2.15983 23.8711C2.4866 22.6858 3.89742 20.5918 4.4981 19.5024C5.6403 17.4308 6.31963 16.7719 8.64771 16.7719C11.3422 16.7719 12.7973 16.0587 12.7973 19.2293C12.7973 22.7877 12.2856 27.8723 15.7613 29.6733" stroke="black" stroke-width="3" stroke-linecap="round"/>
<path d="M31.9683 18.1126C30.494 17.9308 26.8982 14.5238 25.2159 16.5985C23.8741 18.2533 22.1466 19.3546 22.1466 22.0492C22.1466 23.4433 21.3741 28.7676 22.4535 29.6195C23.7129 30.6135 28.307 30.7515 29.8198 29.9224C30.2139 29.7063 31.7632 28.1543 31.9342 28.7447C32.6711 31.2893 32.0484 28.2042 31.8319 27.9372C30.4919 26.2847 30.7406 22.6942 30.7406 20.5351C30.7406 15.4949 32.5822 10.7681 32.5822 6" stroke="black" stroke-width="3" stroke-linecap="round"/>
<path d="M37.168 18.7255C37.2938 19.7242 38.4443 20.9762 38.9518 21.8711C39.3736 22.6148 39.5252 23.3387 39.8579 24.0931C39.947 24.2949 40.1962 25.1305 40.3535 25.2415C41.0686 25.7459 41.7044 27.5821 41.7551 28.3872C41.8393 29.7243 42.187 28.2579 42.5196 27.763C43.6509 26.0798 44.6526 24.042 45.4361 22.2206C46.1183 20.6348 47.8712 18.4057 47.8712 16.7032" stroke="black" stroke-width="3" stroke-linecap="round"/>
<path d="M55.2105 24.243C56.6809 24.243 59.7497 24.754 60.6993 23.3559C61.1234 22.7314 61.5519 22.3111 61.9041 21.5819C62.2089 20.9509 61.9577 19.7101 61.9577 19.0317C61.9577 17.4933 60.0046 16.7032 58.5841 16.7032C56.9274 16.7032 55.4986 18.183 55.1971 19.7093C54.8679 21.3756 54.0056 22.5655 54.0056 24.3662C54.0056 25.9776 53.7716 27.7927 55.0231 29.0723C56.7315 30.8192 61.8089 31.1694 63.1625 28.6781" stroke="black" stroke-width="3" stroke-linecap="round"/>
<path d="M71.0518 31.9936C71.0518 29.0611 70.8086 26.1033 70.8086 23.245C70.8086 21.9393 70.8086 20.6335 70.8086 19.3278C70.8086 18.3267 71.0368 18.5388 71.7816 18.0946C72.381 17.737 72.9109 17.0272 73.606 16.8613C74.3064 16.6943 76.6642 16.5445 77.1873 17.0499C78.3579 18.181 79.1539 19.2413 79.8631 20.7641C80.3839 21.8823 80.7821 23.6324 80.7821 24.8845C80.7821 26.0101 80.9266 28.7007 81.5119 29.6433" stroke="black" stroke-width="3" stroke-linecap="round"/>
<path d="M89.1562 6C89.1562 9.96977 89.1562 13.9395 89.1562 17.9093C89.1562 19.988 89.5632 21.9671 89.615 24.0286C89.6554 25.6384 89.9141 27.7305 90.354 29.2698C90.643 30.2811 91.1347 31.8578 92.3672 31.9316C93.0983 31.9753 94.4695 32.1457 95.0685 31.6297C96.8617 30.085 97.362 27.1021 98.3305 25.0165" stroke="black" stroke-width="3" stroke-linecap="round"/>
<path d="M84.5664 18.2323H93.7406" stroke="black" stroke-width="3" stroke-linecap="round"/>
<path d="M102.918 16.7032C102.918 19.7413 102.918 22.7794 102.918 25.8175C102.918 28.1082 104.846 28.9355 106.903 28.9355C109.188 28.9355 110.389 25.1267 110.389 23.419C110.389 22.4827 110.914 17.5559 110.14 17.1829" stroke="black" stroke-width="3" stroke-linecap="round"/>
<path d="M118.207 31.9936C118.207 29.3702 118.207 26.7469 118.207 24.1235C118.207 22.7598 118.462 21.3758 118.462 20.0573C118.462 19.4336 118.31 18.5718 118.476 17.9732C118.761 16.9455 120.738 15.2041 121.775 15.2041C122.524 15.2041 123.39 15.059 124.068 15.4081C124.775 15.7718 125.072 16.5103 125.852 16.7781" stroke="black" stroke-width="3" stroke-linecap="round"/>
<path d="M132.631 25.4861C133.431 25.4861 136.322 25.9847 136.778 25.1174C136.977 24.7387 137.399 24.6981 137.602 24.3008C137.784 23.946 137.829 23.5783 137.978 23.2209C138.304 22.4421 138.561 21.4503 138.73 20.6263C139.007 19.275 137.522 18.3742 136.451 18.3742C135.066 18.3742 134.015 17.6587 133.286 19.441C132.148 22.2218 130.726 26.9146 133.941 28.7524C135.305 29.5322 136.081 30.4645 137.651 30.4645C138.632 30.4645 140.769 30.4984 141.143 29.2792" stroke="black" stroke-width="3" stroke-linecap="round"/>
</svg>
