<svg width="300" height="300" viewBox="0 0 300 300" fill="none" xmlns="http://www.w3.org/2000/svg">
<rect width="300" height="300" fill="white"/>
<path d="M116.613 88.6852C110.129 93.1457 106.946 103.407 111.061 110.344C116.095 118.832 127.386 119.611 133.914 112.485C136.791 109.345 137.737 106.256 137.737 102.084C137.737 97.253 135.613 94.3983 132.637 90.766C127.635 84.6608 120.027 85.8069 113.556 89.0024" stroke="black" stroke-width="3" stroke-linecap="round" stroke-linejoin="round"/>
<path d="M102.065 152.584C102.065 159.006 101.779 139.695 102.588 133.324C103.492 126.212 105.083 117.183 109.229 111.132" stroke="black" stroke-width="3" stroke-linecap="round" stroke-linejoin="round"/>
<path d="M136.605 95.5625C136.605 95.9616 140.613 93.1413 141.3 92.9135C144.652 91.803 147.994 90.9034 151.465 90.202C158.711 88.7378 168.508 89.2012 174.822 93.599C183.885 99.9122 187.929 110.074 190.538 120.558C192.138 126.988 192.562 133.779 192.562 140.383C192.562 146.194 193.657 153.705 191.993 159.299" stroke="black" stroke-width="3" stroke-linecap="round" stroke-linejoin="round"/>
<path d="M164.328 99.1224C164.328 102.038 171.191 101.482 172.584 101.124C177.418 99.8804 181.311 97.4251 182.297 92.1157C183.123 87.669 183.816 84.3848 181.308 80.3635C179.223 77.0201 174.67 73.9053 170.565 73.9053C158.442 73.9053 156.732 93.4796 164.991 99.8166" stroke="black" stroke-width="3" stroke-linecap="round" stroke-linejoin="round"/>
<path d="M109.925 102.15C109.925 102.643 109.161 103.051 109.61 103.598C110.543 104.735 111.415 105.07 112.704 105.709C115.385 107.038 120.42 107.031 122.269 104.245C125.204 99.8224 124.321 89.0238 117.184 89.9484" stroke="black" stroke-width="3" stroke-linecap="round" stroke-linejoin="round"/>
<path d="M179.035 78.914C176.291 78.1111 173.773 78.2043 171.62 80.413C169.359 82.7329 168.604 86.1308 171.113 88.6395C175.014 92.5399 183.298 91.1864 183.298 84.6827" stroke="black" stroke-width="3" stroke-linecap="round" stroke-linejoin="round"/>
<path d="M100.393 154.979C100.393 155.66 97.5025 156.74 96.9842 157.063C94.019 158.908 90.8205 161.479 88.4231 164.005C82.745 169.986 77.8808 177.994 77.3274 186.48C76.6933 196.202 78.7267 204.625 83.7213 212.901C86.2393 217.074 91.4457 220.176 95.6566 222.416C101.191 225.359 106.957 226.832 113.072 228.021C119.222 229.216 125.714 230.549 131.973 230.808C139.469 231.117 146.324 230.164 153.728 229.248C160.776 228.376 167.738 226.435 174.634 224.757C178.368 223.848 181.826 222.483 185.361 220.995C187.821 219.96 190.573 219.383 192.919 218.1C197.992 215.325 201.949 211.398 205.049 206.541C206.631 204.063 208.986 201.34 209.712 198.435C210.253 196.271 209.869 193.804 209.923 191.597C210.037 187.001 210.215 182.957 208.708 178.49C205.998 170.458 199.286 162.607 191.673 159.239" stroke="black" stroke-width="3" stroke-linecap="round" stroke-linejoin="round"/>
<path d="M159.007 128.161C158.624 128.13 158.07 127.452 157.672 127.301C156.065 126.691 154.229 127.476 152.773 128.119C148.898 129.829 145.772 132.606 144.385 136.671C142.781 141.372 144.756 146.856 148.267 150.13C151.353 153.008 156.288 155.416 160.65 154.453C164.237 153.661 168.55 152.656 170.686 149.313C171.529 147.993 171.381 146.085 171.734 144.593C172.089 143.096 172.254 141.359 171.96 139.834C171.39 136.878 170.101 134.523 168.328 132.157C165.477 128.356 161.466 127.304 156.777 127.665" stroke="black" stroke-width="3" stroke-linecap="round" stroke-linejoin="round"/>
<path d="M150.717 130.389C149.91 130.389 151.314 134.073 151.491 134.554C151.939 135.769 153.144 136.529 154.412 136.546C157.873 136.591 158.081 131.12 158.081 128.7" stroke="black" stroke-width="3" stroke-linecap="round" stroke-linejoin="round"/>
<path d="M158.562 129.135C158.562 130.732 158.86 136.097 161.307 136.175C162.619 136.217 163.618 136.656 164.705 135.538C165.646 134.571 166.729 131.875 166.854 130.616" stroke="black" stroke-width="3" stroke-linecap="round" stroke-linejoin="round"/>
<path d="M128.69 183.138L121.191 244.999" stroke="black" stroke-width="3" stroke-linecap="round"/>
<path d="M159.305 188.762V241.875" stroke="black" stroke-width="3" stroke-linecap="round"/>
<path d="M81.1985 210.007L59.9531 221.254" stroke="black" stroke-width="3" stroke-linecap="round"/>
<path d="M196.172 203.759L220.542 215.006" stroke="black" stroke-width="3" stroke-linecap="round"/>
<path d="M199.172 47.3908C197.033 47.3908 197.293 51.195 199.227 51.6689C202.186 52.3941 197.54 46.8007 197.684 50.9872C197.768 53.4441 203.443 49.6826 199.529 49.6826C197.45 49.6826 195.823 49.2601 194.018 48.0294C190.274 45.4773 189.203 38.3337 195.57 39.0502C197.723 39.2925 198.653 49.7408 198.982 48.9879C200.613 45.2573 199.831 41.5144 205.043 41.5144C207.87 41.5144 208.458 44.5278 208.474 46.8254C208.498 50.183 205.109 50.7036 202.386 50.7992" stroke="black" stroke-width="3" stroke-linecap="round" stroke-linejoin="round"/>
</svg>
