<svg width="200" height="200" viewBox="0 0 200 200" fill="none" xmlns="http://www.w3.org/2000/svg" xmlns:xlink="http://www.w3.org/1999/xlink">
  <g id="group1">
    <path d="M141.664 104.787C137.192 102.302 135.224 99.2701 133.142 94.5852C130.658 88.9974 137.097 70.8069 142.798 70.4034C148.499 69.9999 148.953 69.4192 154.499 72.4999C165.161 78.4232 163 97 153.965 104.241C151.506 106.973 144.558 106.395 141.664 104.787Z" stroke="black" stroke-width="3" stroke-linecap="round"/>
<path d="M69.1644 82.8729C74.5 80.0003 78.256 80.9837 83.1025 80.9837C89.8465 80.9837 94 96.0005 92.5485 105.207C91.097 114.414 87.9979 124.6 75.1679 121.748C63.1851 119.086 57.714 108.255 61.0199 96.6851C62.6408 91.0117 63.8289 85.7455 69.1644 82.8729Z" stroke="black" stroke-width="3" stroke-linecap="round"/>
<path d="M161.001 82.4999C154.501 71.9992 143.502 78.999 142.5 87.4993C141.498 96.0005 158.5 103 161.5 89" stroke="black" stroke-width="3" stroke-linecap="round"/>
<path d="M68.7422 98.7415C68.7422 93.4317 69.1093 89.5797 77.0547 88.5398C85 87.4999 88.4202 106.676 78.566 106.676C73.9295 106.676 68.7422 104.151 68.7422 98.7415Z" stroke="black" stroke-width="3" stroke-linecap="round"/>
<path d="M40.0273 180C40.0273 169.893 41.3555 163.371 43.8057 153.571C47.55 138.594 59.9912 124.469 71.1781 114.401C79.0383 107.327 91.0058 100.911 101.195 98.364C109.473 96.2945 118.5 94.5 132 94.5" stroke="black" stroke-width="3" stroke-linecap="round"/>
<path d="M152.5 106C161.561 111.023 165.995 127.476 168 136.5C170.437 147.465 173.026 159.644 173.026 170.909" stroke="black" stroke-width="3" stroke-linecap="round"/>
<path d="M113.055 147.646C115.601 145.1 118.241 142.564 120.968 140.214C122.569 138.834 124.563 138.062 126.047 136.578" stroke="black" stroke-width="3" stroke-linecap="round"/>
<path d="M120.254 141.551C125 143.5 130.533 144.94 136.445 144.94C139.998 144.94 145.941 144.399 147.788 140.704" stroke="black" stroke-width="3" stroke-linecap="round"/>
<path d="M29.2921 30.4435C29.2921 29.0952 27.9271 29.7886 27.5817 30.6214C25.9155 34.6387 30.5878 35.8886 30.6072 32.5364C30.6292 28.7114 25.5779 32.1077 27.8173 34.1191C29.739 35.8453 31.146 32.4676 28.264 31.9001" stroke="black" stroke-width="3" stroke-linecap="round" stroke-linejoin="round"/>
<path d="M26.9978 31.4353C26.9978 32.4089 25.8199 32.4874 25.1323 32.5724C21.8433 32.9788 18 28.7849 18 25.518C18 23.148 22.7356 23 24.3524 23C27.7428 23 27.5909 29.2866 27.5909 31.5618" stroke="black" stroke-width="3" stroke-linecap="round" stroke-linejoin="round"/>
<path d="M29.7586 31.5335C28.7688 29.7452 32.734 25.5728 33.9374 24.1385C34.7314 23.1921 36.2298 23.2363 37.3833 23.1128C39.0687 22.9323 38.6377 23.7504 39.0784 25.0222C41.3886 31.6881 35.5863 33.4724 29.981 32.4" stroke="black" stroke-width="3" stroke-linecap="round" stroke-linejoin="round"/>
  </g>
  <g id="group2" style="display:none">
<path d="M141.664 104.787C137.192 102.302 135.224 99.2701 133.142 94.5852C130.658 88.9974 137.097 70.8069 142.798 70.4034C148.499 69.9999 148.953 69.4192 154.499 72.4999C165.161 78.4232 163 97 153.965 104.241C151.506 106.973 144.558 106.395 141.664 104.787Z" stroke="black" stroke-width="3" stroke-linecap="round"/>
<path d="M69.1644 82.8729C74.5 80.0003 78.256 80.9837 83.1025 80.9837C89.8465 80.9837 94 96.0005 92.5485 105.207C91.097 114.414 87.9979 124.6 75.1679 121.748C63.1851 119.086 57.714 108.255 61.0199 96.6851C62.6408 91.0117 63.8289 85.7455 69.1644 82.8729Z" stroke="black" stroke-width="3" stroke-linecap="round"/>
<path d="M161.001 84.4999C154.501 73.9992 143.502 80.999 142.5 89.4993C141.498 98.0005 158.5 105 161.5 91" stroke="black" stroke-width="3" stroke-linecap="round"/>
<path d="M68.7422 97.7415C68.7422 92.4317 69.1093 88.5797 77.0547 87.5398C85 86.4999 88.4202 105.676 78.566 105.676C73.9295 105.676 68.7422 103.151 68.7422 97.7415Z" stroke="black" stroke-width="3" stroke-linecap="round"/>
<path d="M40.0273 180C40.0273 169.893 41.3555 163.371 43.8057 153.571C47.55 138.594 59.9912 124.469 71.1781 114.401C79.0383 107.327 91.0058 100.911 101.195 98.364C109.473 96.2945 118.5 94.5 132 94.5" stroke="black" stroke-width="3" stroke-linecap="round"/>
<path d="M152.5 106C161.561 111.023 165.995 127.476 168 136.5C170.437 147.465 172.026 159.644 172.026 170.909" stroke="black" stroke-width="3" stroke-linecap="round"/>
<path d="M112 147.068C114.546 144.522 116.274 141.85 119 139.5C120.601 138.12 123.508 137.484 124.993 136" stroke="black" stroke-width="3" stroke-linecap="round"/>
<path d="M118 140.704C122.746 142.653 130.533 144.94 136.445 144.94C139.998 144.94 145.941 144.399 147.788 140.704" stroke="black" stroke-width="3" stroke-linecap="round"/>
<path d="M36.2921 32.4435C36.2921 31.0952 34.9271 31.7886 34.5817 32.6214C32.9155 36.6387 37.5878 37.8886 37.6072 34.5364C37.6292 30.7114 32.5779 34.1077 34.8173 36.1191C36.739 37.8453 38.146 34.4676 35.264 33.9001" stroke="black" stroke-width="3" stroke-linecap="round" stroke-linejoin="round"/>
<path d="M33.9978 33.4353C33.9978 34.4089 32.8199 34.4874 32.1323 34.5724C28.8433 34.9788 25 30.7849 25 27.518C25 25.148 29.7356 25 31.3524 25C34.7428 25 34.5909 31.2866 34.5909 33.5618" stroke="black" stroke-width="3" stroke-linecap="round" stroke-linejoin="round"/>
<path d="M36.7586 33.5335C35.7688 31.7452 39.734 27.5728 40.9374 26.1385C41.7314 25.1921 43.2298 25.2363 44.3833 25.1128C46.0687 24.9323 45.6377 25.7504 46.0784 27.0222C48.3886 33.6881 42.5863 35.4724 36.981 34.4" stroke="black" stroke-width="3" stroke-linecap="round" stroke-linejoin="round"/>
  </g>
  <animate xlink:href="#group1" attributeName="display" from="inline" to="none" dur="1s" begin="0s" repeatCount="indefinite" />
  <animate xlink:href="#group2" attributeName="display" from="none" to="inline" dur="1s" begin="0s" repeatCount="indefinite" />
</svg>