<svg width="240" height="240" viewBox="0 0 240 240" fill="none" xmlns="http://www.w3.org/2000/svg" xmlns:xlink="http://www.w3.org/1999/xlink">
  <g id="group1">
      <path d="M89.3337 69C85.6702 69 81.2527 72.8415 79.277 75.4853C76.6252 79.0338 74.2243 85.0101 75.2368 89.5178C76.3873 94.6403 78.809 98.6068 84.0645 100.428C88.0085 101.795 93.6927 104.675 97.8025 101.703C103.679 97.4546 110.154 89.427 107.308 81.6632C104.533 74.0947 96.2914 68.0231 88.0417 70.2162" stroke="black" stroke-width="3" stroke-linecap="round" stroke-linejoin="round"/>
<path d="M79.1087 78.1429C77.6382 78.7342 78.0544 82.166 78.0544 83.2935C78.0544 86.1067 79.5138 89.1041 81.9731 90.6467C88.6395 94.8283 95.0509 88.5011 97.5253 82.7898C99.4314 78.39 95.2874 71.5204 90.6186 71.0523C84.3497 70.4239 79.2469 75.551 78.2199 81.2832" stroke="black" stroke-width="3" stroke-linecap="round" stroke-linejoin="round"/>
<path d="M65.5319 137C64.0481 135.723 66.1057 130.325 66.4296 128.874C67.465 124.234 68.0501 119.572 69.8572 115.129C72.2085 109.347 74.9545 104.373 78 99" stroke="black" stroke-width="3" stroke-linecap="round" stroke-linejoin="round"/>
<path d="M109 83.5156C109 84.0195 111.991 81.4274 113.026 80.7271C115.091 79.3304 119.166 77.7902 121.656 77.6809C123.521 77.599 125.315 77 127.187 77C129.095 77 130.841 77.6445 132.765 77.7376C136.949 77.9403 141.178 79.0579 144.854 81.1093C154.256 86.356 159.097 96.1788 162.356 106.143C164.227 111.866 164.89 117.953 165.943 123.865C166.354 126.168 166.378 128.569 166.625 130.898C166.851 133.032 167.478 137.098 166.333 139" stroke="black" stroke-width="3" stroke-linecap="round" stroke-linejoin="round"/>
<path d="M147 82.4336C147 77.1549 150.938 70.8199 155.698 68.281C161.642 65.1104 169.407 68.1638 172.423 73.7285C175.038 78.5543 174.221 85.5568 171.293 89.9918C168.492 94.2338 162.165 95.7252 157.441 96" stroke="black" stroke-width="3" stroke-linecap="round" stroke-linejoin="round"/>
<path d="M168.149 71.0856C168.397 68.3513 164.378 71.5727 163.463 72.164C160.73 73.932 158.698 77.6456 160.999 80.6753C165.644 86.7914 173.841 83.9356 174 76.4527" stroke="black" stroke-width="3" stroke-linecap="round" stroke-linejoin="round"/>
<path d="M65.4959 138C64.22 138.097 63.4621 138.643 62.223 139.537C58.5215 142.208 54.4481 144.098 51.1836 147.378C43.6172 154.981 40.4515 162.918 42.7199 173.698C43.9336 179.466 45.968 185.344 49.8421 189.858C51.6677 191.985 53.6925 194.01 56.116 195.43C58.7153 196.953 60.6118 199.637 63.3372 200.867C77.4331 207.229 94.0344 207.737 109.299 207.88C124.025 208.017 140.175 208.748 154.338 203.929C165.543 200.116 178.07 192.447 183.059 181.101C186.548 173.167 185.173 161.353 180.224 154.185C176.53 148.835 171.229 145.24 166.945 140.581" stroke="black" stroke-width="3" stroke-linecap="round" stroke-linejoin="round"/>
<path d="M84.0798 28.3643C82.5703 28.3643 81.2832 28.042 81.0901 30.0034C80.7067 33.8971 86.0164 31.7021 86.1568 28.6286C86.2456 26.6857 81.6255 27.7346 81.4118 29.7032C81.1969 31.6825 84.5259 33.4175 84.5259 31.3732" stroke="black" stroke-width="3" stroke-linecap="round" stroke-linejoin="round"/>
<path d="M81.5829 28.9634C81.5829 26.6326 77.6486 19.0629 74.9715 22.6145C71.8036 26.8172 74.6969 29.3298 79.5447 29.3298" stroke="black" stroke-width="3" stroke-linecap="round" stroke-linejoin="round"/>
<path d="M85.5998 28.3292C85.2089 28.3518 86.9339 19.9943 87.909 19.0876C90.2339 16.9258 91.2218 18.4101 92.9464 19.887C94.1044 20.8787 94.6313 22.6592 94.1559 24.1717C93.1872 27.2536 87.5374 27.3943 85.0117 28.2164" stroke="black" stroke-width="3" stroke-linecap="round" stroke-linejoin="round"/>
<path d="M55 182L31 200" stroke="black" stroke-width="3" stroke-linecap="round"/>
<path d="M178 189L205 194" stroke="black" stroke-width="3" stroke-linecap="round"/>
<path d="M120 170L127 217" stroke="black" stroke-width="3" stroke-linecap="round"/>
<path d="M142 170L157 211" stroke="black" stroke-width="3" stroke-linecap="round"/>
<path d="M92 125L188 104" stroke="black" stroke-width="3" stroke-linecap="round"/>
  </g>
  <g id="group2" style="display:none">
      <path d="M89.3337 69C85.6702 69 81.2527 72.8415 79.277 75.4853C76.6252 79.0338 74.2243 85.0101 75.2368 89.5178C76.3873 94.6403 78.809 98.6068 84.0645 100.428C88.0085 101.795 93.6927 104.675 97.8025 101.703C103.679 97.4546 110.154 89.427 107.308 81.6632C104.533 74.0947 96.2914 68.0231 88.0417 70.2162" stroke="black" stroke-width="3" stroke-linecap="round" stroke-linejoin="round"/>
<path d="M79.1087 78.1429C77.6382 78.7342 78.0544 82.166 78.0544 83.2935C78.0544 86.1067 79.5138 89.1041 81.9731 90.6467C88.6395 94.8283 95.0509 88.5011 97.5253 82.7898C99.4314 78.39 95.2874 71.5204 90.6186 71.0523C84.3497 70.4239 79.2469 75.551 78.2199 81.2832" stroke="black" stroke-width="3" stroke-linecap="round" stroke-linejoin="round"/>
<path d="M65.5319 137C64.0481 135.723 66.1057 130.325 66.4296 128.874C67.465 124.234 68.0501 119.572 69.8572 115.129C72.2085 109.347 74.9545 104.373 78 99" stroke="black" stroke-width="3" stroke-linecap="round" stroke-linejoin="round"/>
<path d="M109 83.5156C109 84.0195 111.991 81.4274 113.026 80.7271C115.091 79.3304 119.166 77.7902 121.656 77.6809C123.521 77.599 125.315 77 127.187 77C129.095 77 130.841 77.6445 132.765 77.7376C136.949 77.9403 141.178 79.0579 144.854 81.1093C154.256 86.356 159.097 96.1788 162.356 106.143C164.227 111.866 164.89 117.953 165.943 123.865C166.354 126.168 166.378 128.569 166.625 130.898C166.851 133.032 167.478 137.098 166.333 139" stroke="black" stroke-width="3" stroke-linecap="round" stroke-linejoin="round"/>
<path d="M147 82.4336C147 77.1549 150.938 70.8199 155.698 68.281C161.642 65.1104 169.407 68.1638 172.423 73.7285C175.038 78.5543 174.221 85.5568 171.293 89.9918C168.492 94.2338 162.165 95.7252 157.441 96" stroke="black" stroke-width="3" stroke-linecap="round" stroke-linejoin="round"/>
<path d="M168.149 71.0856C168.397 68.3513 164.378 71.5727 163.463 72.164C160.73 73.932 158.698 77.6456 160.999 80.6753C165.644 86.7914 173.841 83.9356 174 76.4527" stroke="black" stroke-width="3" stroke-linecap="round" stroke-linejoin="round"/>
<path d="M65.4959 138C64.22 138.097 63.4621 138.643 62.223 139.537C58.5215 142.208 54.4481 144.098 51.1836 147.378C43.6172 154.981 40.4515 162.918 42.7199 173.698C43.9336 179.466 45.968 185.344 49.8421 189.858C51.6677 191.985 53.6925 194.01 56.116 195.43C58.7153 196.953 60.6118 199.637 63.3372 200.867C77.4331 207.229 94.0344 207.737 109.299 207.88C124.025 208.017 140.175 208.748 154.338 203.929C165.543 200.116 178.07 192.447 183.059 181.101C186.548 173.167 185.173 161.353 180.224 154.185C176.53 148.835 171.229 145.24 166.945 140.581" stroke="black" stroke-width="3" stroke-linecap="round" stroke-linejoin="round"/>
<path d="M81.0798 30.3643C79.5703 30.3643 78.2832 30.042 78.0901 32.0034C77.7067 35.8971 83.0164 33.7021 83.1568 30.6286C83.2456 28.6857 78.6255 29.7346 78.4118 31.7032C78.1969 33.6825 81.5259 35.4175 81.5259 33.3732" stroke="black" stroke-width="3" stroke-linecap="round" stroke-linejoin="round"/>
<path d="M78.5829 30.9634C78.5829 28.6326 74.6486 21.0629 71.9715 24.6145C68.8036 28.8172 71.6969 31.3298 76.5447 31.3298" stroke="black" stroke-width="3" stroke-linecap="round" stroke-linejoin="round"/>
<path d="M82.5998 30.3292C82.2089 30.3518 83.9339 21.9943 84.909 21.0876C87.2339 18.9258 88.2218 20.4101 89.9464 21.887C91.1044 22.8787 91.6313 24.6592 91.1559 26.1717C90.1872 29.2536 84.5374 29.3943 82.0117 30.2164" stroke="black" stroke-width="3" stroke-linecap="round" stroke-linejoin="round"/>
<path d="M55 182L31 200" stroke="black" stroke-width="3" stroke-linecap="round"/>
<path d="M178 189L205 194" stroke="black" stroke-width="3" stroke-linecap="round"/>
<path d="M120 170L127 217" stroke="black" stroke-width="3" stroke-linecap="round"/>
<path d="M142 170L157 211" stroke="black" stroke-width="3" stroke-linecap="round"/>
<path d="M92 125L188 104" stroke="black" stroke-width="3" stroke-linecap="round"/>
  </g>
  <animate xlink:href="#group1" attributeName="display" from="inline" to="none" dur="1s" begin="0s" repeatCount="indefinite" />
  <animate xlink:href="#group2" attributeName="display" from="none" to="inline" dur="1s" begin="0s" repeatCount="indefinite" />
</svg>