<svg width="240" height="240" viewBox="0 0 240 240" fill="none" xmlns="http://www.w3.org/2000/svg" xmlns:xlink="http://www.w3.org/1999/xlink">
  <g id="group1">
    <path d="M84.72 63.3784C83.8572 66.954 81.0979 70.2647 82.2974 74.2332C83.5739 78.4566 86.7697 83.0366 91.3906 83.6422C94.9721 84.1116 99.1599 86.7042 102.862 85.8162C105.961 85.073 107.219 80.2999 108.134 77.7327C110.412 71.34 108.107 64.4936 102.26 60.9423C99.8345 59.4691 97.4097 58.9108 94.5947 59.0114C88.5644 59.2268 85.6815 62.0519 82.7965 67.3779" stroke="black" stroke-width="3" stroke-linecap="round" stroke-linejoin="round"/>
    <path d="M160.191 63.2858C151.696 63.2858 146.441 66.8519 142.751 74.5327C141.167 77.8303 140.062 83.3013 142.137 86.6195C144.656 90.6478 150.527 90.7198 154.73 90.8507C159.511 90.9996 162.083 91.743 165.273 87.6908C167.779 84.5058 168.382 80.7786 169.44 77.0212C170.198 74.328 170.141 72.5916 169.541 69.9896C168.643 66.0959 164.441 64.8356 161.216 63" stroke="black" stroke-width="3" stroke-linecap="round" stroke-linejoin="round"/>
    <path d="M160.638 64C157.739 64 156.215 64.3623 154.202 66.803C152.186 69.247 150.861 74.0135 153.38 76.513C155.771 78.8855 158.86 79.7945 162.139 79.9804C166.214 80.2114 168.089 78.407 169 74.2042" stroke="black" stroke-width="3" stroke-linecap="round" stroke-linejoin="round"/>
    <path d="M86.1533 63.9555C83.1038 64.0868 86.1817 79.6302 94.4402 75.2087C100.333 72.0534 99.7584 65.2068 96.9542 60" stroke="black" stroke-width="3" stroke-linecap="round" stroke-linejoin="round"/>
    <path d="M72.1725 124C71.123 123.906 75.1827 102.936 75.7384 100.823C77.6623 93.5056 80.9792 86.3631 85 80" stroke="black" stroke-width="3" stroke-linecap="round" stroke-linejoin="round"/>
    <path d="M109 69.6141C109 65.7916 124.678 67.289 126.9 67.289C131.373 67.289 140.466 69.7908 142 75" stroke="black" stroke-width="3" stroke-linecap="round" stroke-linejoin="round"/>
    <path d="M160 91.3825C160 89.5442 161.286 94.8413 162.134 96.477C163.937 99.9547 164.864 103.495 165.903 107.224C167.62 113.389 170 120.547 170 127" stroke="black" stroke-width="3" stroke-linecap="round" stroke-linejoin="round"/>
    <path d="M72.7291 125C67.8183 125 64.5016 130.004 61.8452 133.682C56.2512 141.427 52.6679 149.989 54.4691 159.833C55.5009 165.472 56.3429 171.631 60.4559 175.928C63.0716 178.66 65.2457 181.73 67.7579 184.546C70.1071 187.178 73.186 188.404 76.0327 190.375C79.4516 192.742 82.146 195.65 86.1354 197.12C89.7298 198.444 93.616 198.957 97.3646 199.658C105.595 201.196 114.06 202.818 122.477 201.536C128.94 200.551 135.11 201.447 141.524 199.782C147.918 198.122 154.429 197.669 160.536 194.934C166.276 192.365 170.345 187.985 174.842 183.725C179.559 179.255 183.586 174.853 186.039 168.685C189.634 159.644 190.787 146.594 184.695 138.391C183.291 136.501 181.037 133.649 178.811 132.704C175.804 131.426 173.336 129.175 170.403 128.015" stroke="black" stroke-width="3" stroke-linecap="round" stroke-linejoin="round"/>
    <path d="M89 88C89.7981 87.9468 90.9969 86.5624 91.563 86.1384C93.8377 84.4344 96.3307 82.7972 99.0963 81.81C102.852 80.4694 107.088 79.7023 111 80.1091" stroke="black" stroke-width="3" stroke-linecap="round" stroke-linejoin="round"/>
    <path d="M133.868 85.6636C129.498 85.6636 142.837 84.1939 146.979 85.6288C151.27 87.1149 156.631 88.7817 160 92" stroke="black" stroke-width="3" stroke-linecap="round" stroke-linejoin="round"/>
    <path d="M107.605 111.896C104.594 111.612 113.641 112.415 116.667 112.415C121.359 112.415 126.184 111.983 130.795 111.125C134.637 110.411 138.341 109.17 142.218 108.656C143.847 108.44 147.119 107.369 148.533 108.534C151.485 110.967 149.591 114.772 146.303 116.098C140.002 118.641 131.005 119 124.374 119" stroke="black" stroke-width="3" stroke-linecap="round" stroke-linejoin="round"/>
    <path d="M123 113.156C123 111.971 124.794 117.907 125 119" stroke="black" stroke-width="3" stroke-linecap="round" stroke-linejoin="round"/>
    <path d="M137.007 111.014C136.915 110.725 137.782 115.027 138 116" stroke="black" stroke-width="3" stroke-linecap="round" stroke-linejoin="round"/>
    <path d="M222.726 59.1607C221.17 57.5317 219.34 58.464 218.653 60.0074C218.098 61.2557 218.924 61.7913 218.831 61.0586C218.55 58.8383 217.608 60.7145 218.001 61.0199C218.821 61.6572 219.142 60.2674 218.548 60.0295" stroke="black" stroke-width="3" stroke-linecap="round" stroke-linejoin="round"/>
    <path d="M219.422 60.8982C219.422 61.1852 218.739 62.0514 219.17 62.3138C220.195 62.9382 221.498 61.8918 222.1 61.1398C223.437 59.4702 218.572 58.5766 218.903 61.2224" stroke="black" stroke-width="3" stroke-linecap="round" stroke-linejoin="round"/>
    <path d="M218.805 61.2838C218.805 62.6689 212 59.7716 212 57.8095C212 55.9573 214.279 55.1914 215.744 54.8386C218.472 54.1813 219.263 56.2254 219.263 58.543" stroke="black" stroke-width="3" stroke-linecap="round" stroke-linejoin="round"/>
    <path d="M222.136 59.9989C220.711 59.8607 223.683 49.6869 227.573 54.1161C230.486 57.4335 226.654 59.9189 223.202 60.06" stroke="black" stroke-width="3" stroke-linecap="round" stroke-linejoin="round"/>
    <path d="M71.5 174L46 191" stroke="black" stroke-width="3" stroke-linecap="round" stroke-linejoin="round"/>
    <path d="M92 155L82 207" stroke="black" stroke-width="3" stroke-linecap="round" stroke-linejoin="round"/>
    <path d="M109.5 159.5L108.5 210.5" stroke="black" stroke-width="3" stroke-linecap="round" stroke-linejoin="round"/>
    <path d="M165 181.5L172 207" stroke="black" stroke-width="3" stroke-linecap="round" stroke-linejoin="round"/> 
  </g>
  <g id="group2" style="display:none">
    <path d="M82.72 63.3784C81.8572 66.954 79.0979 70.2647 80.2974 74.2332C81.5739 78.4566 84.7697 83.0366 89.3906 83.6422C92.9721 84.1116 97.1599 86.7042 100.862 85.8162C103.961 85.073 105.219 80.2999 106.134 77.7327C108.412 71.34 106.107 64.4936 100.26 60.9423C97.8345 59.4691 95.4097 58.9108 92.5947 59.0114C86.5644 59.2268 83.6815 62.0519 80.7965 67.3779" stroke="black" stroke-width="3" stroke-linecap="round" stroke-linejoin="round"/>
    <path d="M158.868 66.2654C150.958 66.2654 146.065 69.5768 142.63 76.7089C141.155 79.771 140.127 84.8512 142.059 87.9324C144.404 91.6729 149.87 91.7398 153.783 91.8613C158.234 91.9996 160.629 92.69 163.599 88.9272C165.933 85.9696 166.493 82.5087 167.478 79.0197C168.185 76.5188 168.131 74.9065 167.573 72.4903C166.736 68.8748 162.824 67.7045 159.822 66" stroke="black" stroke-width="3" stroke-linecap="round" stroke-linejoin="round"/>
    <path d="M159.13 67C156.401 67 154.967 67.3397 153.072 69.6278C151.175 71.919 149.928 76.3877 152.299 78.7309C154.549 80.9552 157.457 81.8073 160.543 81.9816C164.378 82.1982 166.143 80.5066 167 76.5664" stroke="black" stroke-width="3" stroke-linecap="round" stroke-linejoin="round"/>
    <path d="M84.1533 63.9555C81.1038 64.0868 84.1817 79.6302 92.4402 75.2087C98.3334 72.0534 97.7584 65.2068 94.9542 60" stroke="black" stroke-width="3" stroke-linecap="round" stroke-linejoin="round"/>
    <path d="M72.1725 125C71.123 124.906 75.1827 103.936 75.7384 101.823C77.6623 94.5056 80.9792 87.3631 85 81" stroke="black" stroke-width="3" stroke-linecap="round" stroke-linejoin="round"/>
    <path d="M109 70.6141C109 66.7916 124.678 68.289 126.9 68.289C131.373 68.289 140.466 70.7908 142 76" stroke="black" stroke-width="3" stroke-linecap="round" stroke-linejoin="round"/>
    <path d="M160 92.3825C160 90.5442 161.286 95.8413 162.134 97.477C163.937 100.955 164.864 104.495 165.903 108.224C167.62 114.389 170 121.547 170 128" stroke="black" stroke-width="3" stroke-linecap="round" stroke-linejoin="round"/>
    <path d="M73.0066 125C68.023 125 64.6572 129.874 61.9615 133.456C56.2846 141 52.6481 149.34 54.476 158.928C55.5231 164.42 56.3776 170.42 60.5515 174.605C63.206 177.266 65.4123 180.257 67.9617 182.999C70.3457 185.563 73.4702 186.757 76.3591 188.677C79.8287 190.982 82.563 193.815 86.6115 195.247C90.2591 196.536 94.203 197.036 98.007 197.718C106.359 199.217 114.95 200.797 123.491 199.548C130.05 198.589 136.312 199.461 142.82 197.839C149.31 196.223 155.916 195.781 162.115 193.118C167.939 190.615 172.069 186.35 176.632 182.199C181.419 177.846 185.506 173.559 187.995 167.551C191.644 158.744 192.813 146.033 186.632 138.043C185.207 136.202 182.919 133.425 180.66 132.504C177.608 131.26 175.104 129.067 172.127 127.936" stroke="black" stroke-width="3" stroke-linecap="round" stroke-linejoin="round"/>
    <path d="M87 88C87.7981 87.9468 88.9969 86.5624 89.563 86.1384C91.8377 84.4344 94.3307 82.7972 97.0963 81.81C100.852 80.4694 105.088 79.7023 109 80.1091" stroke="black" stroke-width="3" stroke-linecap="round" stroke-linejoin="round"/>
    <path d="M133.868 86.6636C129.498 86.6636 142.837 85.1939 146.979 86.6288C151.27 88.1149 156.631 89.7817 160 93" stroke="black" stroke-width="3" stroke-linecap="round" stroke-linejoin="round"/>
    <path d="M109.562 112.632C106.543 112.454 115.613 112.939 118.637 112.833C123.326 112.668 128.133 112.065 132.711 111.046C136.525 110.197 140.183 108.827 144.039 108.177C145.66 107.904 148.892 106.719 150.346 107.833C153.383 110.16 151.623 114.03 148.384 115.471C142.176 118.233 133.197 118.909 126.571 119.142" stroke="black" stroke-width="3" stroke-linecap="round" stroke-linejoin="round"/>
    <path d="M124.99 112.349C124.948 111.165 126.95 117.035 127.194 118.119" stroke="black" stroke-width="3" stroke-linecap="round" stroke-linejoin="round"/>
    <path d="M138.914 110.717C138.812 110.431 139.829 114.7 140.081 115.665" stroke="black" stroke-width="3" stroke-linecap="round" stroke-linejoin="round"/>
    <path d="M222.726 56.1607C221.17 54.5317 219.34 55.464 218.653 57.0074C218.098 58.2557 218.924 58.7913 218.831 58.0586C218.55 55.8383 217.608 57.7145 218.001 58.0199C218.821 58.6572 219.142 57.2674 218.548 57.0295" stroke="black" stroke-width="3" stroke-linecap="round" stroke-linejoin="round"/>
    <path d="M219.422 57.8982C219.422 58.1852 218.739 59.0514 219.17 59.3138C220.195 59.9382 221.498 58.8918 222.1 58.1398C223.437 56.4702 218.572 55.5766 218.903 58.2224" stroke="black" stroke-width="3" stroke-linecap="round" stroke-linejoin="round"/>
    <path d="M218.805 58.2838C218.805 59.6689 212 56.7716 212 54.8095C212 52.9573 214.279 52.1914 215.744 51.8386C218.472 51.1813 219.263 53.2254 219.263 55.543" stroke="black" stroke-width="3" stroke-linecap="round" stroke-linejoin="round"/>
    <path d="M222.136 56.9989C220.711 56.8607 223.683 46.6869 227.573 51.1161C230.486 54.4335 226.654 56.9189 223.202 57.06" stroke="black" stroke-width="3" stroke-linecap="round" stroke-linejoin="round"/>
    <path d="M69.5 172L44 189" stroke="black" stroke-width="3" stroke-linecap="round" stroke-linejoin="round"/>
    <path d="M92 155L81 207" stroke="black" stroke-width="3" stroke-linecap="round" stroke-linejoin="round"/>
    <path d="M109.5 159.5V209.5" stroke="black" stroke-width="3" stroke-linecap="round" stroke-linejoin="round"/>
    <path d="M163 180.5L170 206" stroke="black" stroke-width="3" stroke-linecap="round" stroke-linejoin="round"/>             
  </g>
  <animate xlink:href="#group1" attributeName="display" from="inline" to="none" dur="1s" begin="0s" repeatCount="indefinite" />
  <animate xlink:href="#group2" attributeName="display" from="none" to="inline" dur="1s" begin="0s" repeatCount="indefinite" />
</svg>