<svg width="300" height="300" viewBox="0 0 300 300" fill="none" xmlns="http://www.w3.org/2000/svg">
<rect width="300" height="300" fill="white"/>
<path d="M121.334 89C117.67 89 113.253 92.8415 111.277 95.4853C108.625 99.0338 106.224 105.01 107.237 109.518C108.387 114.64 110.809 118.607 116.064 120.428C120.009 121.795 125.693 124.675 129.803 121.703C135.679 117.455 142.154 109.427 139.308 101.663C136.533 94.0947 128.291 88.0231 120.042 90.2162" stroke="black" stroke-width="3" stroke-linecap="round" stroke-linejoin="round"/>
<path d="M111.109 98.1429C109.638 98.7342 110.054 102.166 110.054 103.293C110.054 106.107 111.514 109.104 113.973 110.647C120.639 114.828 127.051 108.501 129.525 102.79C131.431 98.39 127.287 91.5204 122.619 91.0523C116.35 90.4239 111.247 95.551 110.22 101.283" stroke="black" stroke-width="3" stroke-linecap="round" stroke-linejoin="round"/>
<path d="M97.5319 157C96.0481 155.723 98.1057 150.325 98.4296 148.874C99.465 144.234 100.05 139.572 101.857 135.129C104.209 129.347 106.954 124.373 110 119" stroke="black" stroke-width="3" stroke-linecap="round" stroke-linejoin="round"/>
<path d="M141 103.516C141 104.019 143.991 101.427 145.026 100.727C147.091 99.3304 151.166 97.7902 153.656 97.6809C155.521 97.599 157.315 97 159.187 97C161.095 97 162.841 97.6445 164.765 97.7376C168.949 97.9403 173.178 99.0579 176.854 101.109C186.256 106.356 191.097 116.179 194.356 126.143C196.227 131.866 196.89 137.953 197.943 143.865C198.354 146.168 198.378 148.569 198.625 150.898C198.851 153.032 199.478 157.098 198.333 159" stroke="black" stroke-width="3" stroke-linecap="round" stroke-linejoin="round"/>
<path d="M179 102.434C179 97.1549 182.938 90.8199 187.698 88.281C193.642 85.1104 201.407 88.1638 204.423 93.7285C207.038 98.5543 206.221 105.557 203.293 109.992C200.492 114.234 194.165 115.725 189.441 116" stroke="black" stroke-width="3" stroke-linecap="round" stroke-linejoin="round"/>
<path d="M200.149 91.0856C200.397 88.3513 196.378 91.5727 195.463 92.164C192.73 93.932 190.698 97.6456 192.999 100.675C197.644 106.791 205.841 103.936 206 96.4527" stroke="black" stroke-width="3" stroke-linecap="round" stroke-linejoin="round"/>
<path d="M97.4959 158C96.22 158.097 95.4621 158.643 94.223 159.537C90.5215 162.208 86.4481 164.098 83.1836 167.378C75.6172 174.981 72.4515 182.918 74.7199 193.698C75.9336 199.466 77.968 205.344 81.8421 209.858C83.6677 211.985 85.6925 214.01 88.116 215.43C90.7153 216.953 92.6118 219.637 95.3372 220.867C109.433 227.229 126.034 227.737 141.299 227.88C156.025 228.017 172.175 228.748 186.338 223.929C197.543 220.116 210.07 212.447 215.059 201.101C218.548 193.167 217.173 181.353 212.224 174.185C208.53 168.835 203.229 165.24 198.945 160.581" stroke="black" stroke-width="3" stroke-linecap="round" stroke-linejoin="round"/>
<path d="M116.08 48.3643C114.57 48.3643 113.283 48.042 113.09 50.0034C112.707 53.8971 118.016 51.7021 118.157 48.6286C118.246 46.6857 113.625 47.7346 113.412 49.7032C113.197 51.6825 116.526 53.4175 116.526 51.3732" stroke="black" stroke-width="3" stroke-linecap="round" stroke-linejoin="round"/>
<path d="M113.583 48.9634C113.583 46.6326 109.649 39.0629 106.972 42.6145C103.804 46.8172 106.697 49.3298 111.545 49.3298" stroke="black" stroke-width="3" stroke-linecap="round" stroke-linejoin="round"/>
<path d="M117.6 48.3292C117.209 48.3518 118.934 39.9943 119.909 39.0876C122.234 36.9258 123.222 38.4101 124.946 39.887C126.104 40.8787 126.631 42.6592 126.156 44.1717C125.187 47.2536 119.537 47.3943 117.012 48.2164" stroke="black" stroke-width="3" stroke-linecap="round" stroke-linejoin="round"/>
<path d="M87 202L63 220" stroke="black" stroke-width="3" stroke-linecap="round"/>
<path d="M210 209L237 214" stroke="black" stroke-width="3" stroke-linecap="round"/>
<path d="M152 190L159 237" stroke="black" stroke-width="3" stroke-linecap="round"/>
<path d="M174 190L189 231" stroke="black" stroke-width="3" stroke-linecap="round"/>
<path d="M124 145L220 124" stroke="black" stroke-width="3" stroke-linecap="round"/>
</svg>
