<svg width="240" height="240" viewBox="0 0 240 240" fill="none" xmlns="http://www.w3.org/2000/svg" xmlns:xlink="http://www.w3.org/1999/xlink">
  <g id="group1">
      <path d="M92.6169 68.6852C86.1327 73.1457 82.95 83.4067 87.0645 90.3438C92.0991 98.8322 103.39 99.6108 109.918 92.4855C112.795 89.3452 113.74 86.2558 113.74 82.0837C113.74 77.253 111.617 74.3983 108.641 70.766C103.639 64.6608 96.0309 65.8069 89.5598 69.0024" stroke="black" stroke-width="3" stroke-linecap="round" stroke-linejoin="round"/>
<path d="M78.0647 132.585C78.0647 139.007 77.7785 119.696 78.5881 113.325C79.4917 106.213 81.0825 97.1843 85.2293 91.1328" stroke="black" stroke-width="3" stroke-linecap="round" stroke-linejoin="round"/>
<path d="M112.609 75.5625C112.609 75.9616 116.616 73.1413 117.304 72.9135C120.656 71.803 123.998 70.9034 127.469 70.202C134.715 68.7378 144.512 69.2012 150.825 73.599C159.889 79.9122 163.933 90.0743 166.542 100.558C168.142 106.988 168.566 113.779 168.566 120.383C168.566 126.194 169.661 133.705 167.997 139.299" stroke="black" stroke-width="3" stroke-linecap="round" stroke-linejoin="round"/>
<path d="M140.332 79.1224C140.332 82.0381 147.194 81.4822 148.588 81.1238C153.422 79.8804 157.315 77.4251 158.301 72.1157C159.127 67.669 159.82 64.3848 157.312 60.3635C155.227 57.0201 150.674 53.9053 146.569 53.9053C134.446 53.9053 132.736 73.4796 140.995 79.8166" stroke="black" stroke-width="3" stroke-linecap="round" stroke-linejoin="round"/>
<path d="M85.9249 82.1511C85.9249 82.644 85.1612 83.0521 85.6101 83.5992C86.543 84.7363 87.4147 85.0711 88.7044 85.7103C91.3848 87.0387 96.4197 87.0321 98.2692 84.2455C101.204 79.8234 100.321 69.0247 93.1842 69.9494" stroke="black" stroke-width="3" stroke-linecap="round" stroke-linejoin="round"/>
<path d="M155.039 58.9149C152.295 58.1121 149.777 58.2053 147.624 60.414C145.363 62.7339 144.608 66.1318 147.117 68.6405C151.018 72.5409 159.302 71.1874 159.302 64.6836" stroke="black" stroke-width="3" stroke-linecap="round" stroke-linejoin="round"/>
<path d="M76.3967 134.979C76.3967 135.661 73.5064 136.741 72.9881 137.064C70.0229 138.909 66.8244 141.48 64.427 144.006C58.7489 149.987 53.8847 157.995 53.3313 166.481C52.6972 176.203 54.7306 184.626 59.7252 192.902C62.2432 197.075 67.4496 200.177 71.6605 202.417C77.1948 205.36 82.9614 206.833 89.0764 208.022C103.044 210.737 115.602 210.997 129.732 209.249C136.78 208.377 143.742 206.436 150.638 204.758C154.372 203.848 157.83 202.484 161.365 200.996C163.825 199.961 166.577 199.384 168.923 198.101C173.996 195.326 177.953 191.399 181.053 186.542C182.635 184.064 184.99 181.341 185.716 178.436C186.257 176.272 185.873 173.805 185.927 171.598C186.041 167.002 186.219 162.958 184.712 158.49C182.002 150.459 175.29 142.608 167.677 139.24" stroke="black" stroke-width="3" stroke-linecap="round" stroke-linejoin="round"/>
<path d="M135.031 108.057C134.651 108.026 134.103 107.363 133.709 107.215C132.119 106.618 130.302 107.386 128.86 108.016C125.026 109.689 121.932 112.407 120.559 116.385C118.971 120.987 120.926 126.353 124.401 129.558C127.455 132.374 132.339 134.731 136.657 133.789C140.207 133.014 144.475 132.03 146.589 128.758C147.424 127.466 147.277 125.6 147.627 124.139C147.977 122.674 148.141 120.974 147.85 119.482C147.286 116.588 146.01 114.283 144.255 111.968C141.434 108.248 137.464 107.218 132.824 107.571" stroke="black" stroke-width="3" stroke-linecap="round" stroke-linejoin="round"/>
<path d="M126.721 110.389C125.914 110.389 127.318 114.073 127.495 114.554C127.943 115.769 129.148 116.529 130.416 116.546C133.877 116.591 134.085 111.12 134.085 108.7" stroke="black" stroke-width="3" stroke-linecap="round" stroke-linejoin="round"/>
<path d="M134.566 109.135C134.566 110.732 134.863 116.097 137.311 116.175C138.623 116.217 139.622 116.656 140.709 115.538C141.65 114.571 142.733 111.875 142.858 110.616" stroke="black" stroke-width="3" stroke-linecap="round" stroke-linejoin="round"/>
<path d="M104.69 163.139L97.1914 225" stroke="black" stroke-width="3" stroke-linecap="round"/>
<path d="M135.309 168.762V221.875" stroke="black" stroke-width="3" stroke-linecap="round"/>
<path d="M57.1985 190.008L35.9531 201.255" stroke="black" stroke-width="3" stroke-linecap="round"/>
<path d="M172.176 183.759L196.545 195.006" stroke="black" stroke-width="3" stroke-linecap="round"/>
<path d="M175.172 27.3908C173.033 27.3908 173.293 31.195 175.227 31.6689C178.186 32.3941 173.54 26.8007 173.684 30.9872C173.768 33.4441 179.443 29.6826 175.529 29.6826C173.45 29.6826 171.823 29.2601 170.018 28.0294C166.274 25.4773 165.203 18.3337 171.57 19.0502C173.723 19.2925 174.653 29.7408 174.982 28.9879C176.613 25.2573 175.831 21.5144 181.043 21.5144C183.87 21.5144 184.458 24.5278 184.474 26.8254C184.498 30.183 181.109 30.7036 178.386 30.7992" stroke="black" stroke-width="3" stroke-linecap="round" stroke-linejoin="round"/>
  </g>
  <g id="group2" style="display:none">
      <rect width="240" height="240" fill="white"/>
<path d="M92.6169 68.6852C86.1327 73.1457 82.95 83.4067 87.0645 90.3438C92.0991 98.8322 103.39 99.6108 109.918 92.4855C112.795 89.3452 113.74 86.2558 113.74 82.0837C113.74 77.253 111.617 74.3983 108.641 70.766C103.639 64.6608 96.0309 65.8069 89.5598 69.0024" stroke="black" stroke-width="3" stroke-linecap="round" stroke-linejoin="round"/>
<path d="M79.0644 134.585C79.0644 141.007 77.7782 119.696 78.5878 113.325C79.4914 106.213 81.0822 97.1843 85.229 91.1328" stroke="black" stroke-width="3" stroke-linecap="round" stroke-linejoin="round"/>
<path d="M112.609 75.5625C112.609 75.9616 116.616 73.1413 117.304 72.9135C120.656 71.803 123.998 70.9034 127.469 70.202C134.715 68.7378 144.512 69.2012 150.825 73.599C159.889 79.9122 163.933 90.0743 166.542 100.558C168.142 106.988 168.566 113.779 168.566 120.383C168.566 126.194 169.661 133.705 167.997 139.299" stroke="black" stroke-width="3" stroke-linecap="round" stroke-linejoin="round"/>
<path d="M141.332 80.1224C141.332 83.0381 148.194 82.4822 149.588 82.1238C154.422 80.8804 158.315 78.4251 159.301 73.1157C160.127 68.669 160.82 65.3848 158.312 61.3635C156.227 58.0201 151.674 54.9053 147.569 54.9053C135.446 54.9053 133.736 74.4796 141.995 80.8166" stroke="black" stroke-width="3" stroke-linecap="round" stroke-linejoin="round"/>
<path d="M87.2794 76.1482C84.9973 91.5529 97.3791 86.9902 99.5649 83.8181C103.034 78.7842 100.294 67.65 90.4754 70.4428" stroke="black" stroke-width="3" stroke-linecap="round" stroke-linejoin="round"/>
<path d="M156.039 58.9149C153.295 58.1121 150.777 58.2053 148.624 60.414C146.363 62.7339 145.608 66.1318 148.117 68.6405C152.018 72.5409 160.302 71.1874 160.302 64.6836" stroke="black" stroke-width="3" stroke-linecap="round" stroke-linejoin="round"/>
<path d="M79.0015 134.5C64.0728 142.462 54.4342 152 53 174C53 186.161 61.4564 196.99 71.6589 202.417C77.1932 205.36 83.3864 208.06 89.5014 209.248C95.6511 210.444 101.717 210.55 107.975 210.809C115.471 211.118 126.597 210.165 134.001 209.248C143.304 208.098 154.322 204.653 163.001 201C170.149 197.992 176.946 192.975 181.051 186.542C187.025 177.183 188.08 167.604 184.501 157C181.791 148.968 176.115 141.867 168.501 138.5" stroke="black" stroke-width="3" stroke-linecap="round" stroke-linejoin="round"/>
<path d="M105 163L100 225" stroke="black" stroke-width="3" stroke-linecap="round"/>
<path d="M135.309 168.762V221.875" stroke="black" stroke-width="3" stroke-linecap="round"/>
<path d="M57.1985 190.008L35.9531 201.255" stroke="black" stroke-width="3" stroke-linecap="round"/>
<path d="M172.176 183.759L196.545 195.006" stroke="black" stroke-width="3" stroke-linecap="round"/>
<path d="M181.172 21.3908C179.033 21.3908 179.293 25.195 181.227 25.6689C184.186 26.3941 179.54 20.8007 179.684 24.9872C179.768 27.4441 185.443 23.6826 181.529 23.6826C179.45 23.6826 177.823 23.2601 176.018 22.0294C172.274 19.4773 171.203 12.3337 177.57 13.0502C179.723 13.2925 180.653 23.7408 180.982 22.9879C182.613 19.2573 181.831 15.5144 187.043 15.5144C189.87 15.5144 190.458 18.5278 190.474 20.8254C190.498 24.183 187.109 24.7036 184.386 24.7992" stroke="black" stroke-width="3" stroke-linecap="round" stroke-linejoin="round"/>
<path d="M134.957 107.978C134.605 107.95 134.096 107.336 133.73 107.199C132.253 106.647 130.566 107.358 129.227 107.94C125.667 109.49 122.794 112.006 121.519 115.69C120.045 119.951 121.86 124.92 125.087 127.887C127.923 130.495 132.458 132.677 136.467 131.805C139.763 131.087 143.727 130.176 145.69 127.146C146.465 125.95 146.329 124.222 146.653 122.87C146.979 121.513 147.131 119.939 146.861 118.557C146.337 115.878 145.153 113.744 143.522 111.6C140.903 108.155 137.217 107.202 132.908 107.529" stroke="black" stroke-width="3" stroke-linecap="round" stroke-linejoin="round"/>
<path d="M126.721 110.389C125.914 110.389 127.318 114.073 127.495 114.554C127.943 115.769 129.148 116.529 130.416 116.546C133.877 116.591 134.085 111.12 134.085 108.7" stroke="black" stroke-width="3" stroke-linecap="round" stroke-linejoin="round"/>
<path d="M134.566 109.135C134.566 110.732 134.863 116.097 137.311 116.175C138.623 116.217 139.622 116.656 140.709 115.538C141.65 114.571 142.733 111.875 142.858 110.616" stroke="black" stroke-width="3" stroke-linecap="round" stroke-linejoin="round"/>
  </g>
  <animate xlink:href="#group1" attributeName="display" from="inline" to="none" dur="1s" begin="0s" repeatCount="indefinite" />
  <animate xlink:href="#group2" attributeName="display" from="none" to="inline" dur="1s" begin="0s" repeatCount="indefinite" />
</svg>