<svg width="240" height="240" viewBox="0 0 240 240" fill="none" xmlns="http://www.w3.org/2000/svg" xmlns:xlink="http://www.w3.org/1999/xlink">
  <g id="group1">
      <path d="M155.598 74.2397C155.188 69.0673 153.356 62.1583 148.505 59.2907C145.485 58.6326 143.002 57.3694 139.729 56.975C136.368 55.658 133.184 59.318 130.49 60.8718C123.735 64.7691 123.407 73.903 125.13 80.5477C128.278 92.6887 139.532 87.9951 147.845 84.9822C153.371 82.9796 156.077 80.2785 155.598 74.2397Z" stroke="black" stroke-width="3" stroke-linecap="round" stroke-linejoin="round"/>
<path d="M170.282 125.865C170.283 123.369 170.364 119.721 170.077 117.945C169.24 112.757 168.739 107.639 167.223 102.582C165.786 97.7859 164.375 93.5079 161.222 89.5419C158.887 86.6051 155.57 84.2864 153.534 81.2871" stroke="black" stroke-width="3" stroke-linecap="round" stroke-linejoin="round"/>
<path d="M123.48 74.2487C122.252 74.2487 120.684 73.1629 119.365 72.7556C115.612 71.5962 111.622 70.9212 107.701 70.9212C104.18 70.9212 100.746 70.3924 97.597 72.0988C93.5686 74.2818 90.2827 76.2438 86.9088 79.4231C79.8146 86.1083 74.4704 94.6625 73.6595 104.546C73.2394 109.666 72.3526 114.704 72.0308 119.851C71.8891 122.116 71.5 127.87 72.5 132.37" stroke="black" stroke-width="3" stroke-linecap="round" stroke-linejoin="round"/>
<path d="M95.5 72.8691C95.5 68.6892 92.6496 67.058 89.6101 64.8142C85.2598 61.6027 76.9815 62.4367 73.4032 66.6655C70.4458 70.1604 68.6341 77.8157 70.3446 82.2135C71.8781 86.1564 75.0925 88.8691 79 88.8691" stroke="black" stroke-width="3" stroke-linecap="round" stroke-linejoin="round"/>
<path d="M147.963 60.6419C153.545 60.6419 153.757 68.7256 152.392 72.794C149.636 81.0092 139.789 78.7497 135.233 73.9321C133.037 71.6109 133.719 64.3215 135.217 61.632C138.63 55.5038 148.702 60.7769 152.394 63.2096" stroke="black" stroke-width="3" stroke-linecap="round" stroke-linejoin="round"/>
<path d="M75.3197 64.8499C81.5884 61.8091 85.4944 73.7199 81.7323 77.505C76.261 83.0098 71.8856 77.1925 71 72.3694" stroke="black" stroke-width="3" stroke-linecap="round" stroke-linejoin="round"/>
<path d="M170.5 125.869C172 127.369 174.269 130.299 174.999 131.15C178.883 135.671 182.367 141.246 184.41 146.84C189.542 160.9 187.858 175.764 178.694 187.969C174.201 193.953 167.656 198.732 160.808 201.389C153.443 204.247 145.742 204.116 138.175 205.877C131.017 207.543 123.986 207.501 116.639 207.501C109.466 207.501 101.605 204.347 94.7479 202.253C83.3766 198.781 69.9746 191.348 64.5525 180.407C60.8164 172.867 61.3881 163.958 63.4538 156.052C65.5781 147.921 69.5575 140.78 72.2761 132.999" stroke="black" stroke-width="3" stroke-linecap="round" stroke-linejoin="round"/>
<path d="M110.85 116.401C111.277 115.491 113.902 115.729 114.605 115.729C119.456 115.729 124.111 113.908 128.85 113.116C133.356 112.363 138.606 112.113 141.227 116.607C143.117 119.848 142.925 124.274 140.911 127.331C135.25 135.923 114.692 140.242 108.191 129.971C106.759 127.708 105.495 123.397 106.862 120.822C107.548 119.531 108.378 116.86 110.39 117.833" stroke="black" stroke-width="3" stroke-linecap="round" stroke-linejoin="round"/>
<path d="M128.531 114.674C128.331 114.674 128.81 116.726 128.841 117.115C128.957 118.605 129.293 121.047 128.324 122.323C127.311 123.659 123.86 123.06 123.004 121.855C122.063 120.531 121.306 118.852 120.864 117.283C120.625 116.434 121.406 119.598 121.406 120.489C121.406 124.105 118.939 127.097 115.355 124.826C113.054 123.368 112.038 119.821 111.231 117.409" stroke="black" stroke-width="3" stroke-linecap="round" stroke-linejoin="round"/>
<path d="M59.2046 26.7696C59.2046 25.7246 60.2626 26.262 60.5303 26.9075C61.8217 30.0211 58.2004 30.9899 58.1854 28.3917C58.1684 25.4272 62.0833 28.0594 60.3477 29.6184C58.8583 30.9563 57.7678 28.3384 60.0015 27.8986" stroke="black" stroke-width="3" stroke-linecap="round" stroke-linejoin="round"/>
<path d="M60.9833 27.5378C60.9833 28.2923 61.8962 28.3532 62.4291 28.4191C64.9783 28.7341 67.957 25.4836 67.957 22.9516C67.957 21.1147 64.2867 21 63.0336 21C60.4059 21 60.5236 25.8724 60.5236 27.6358" stroke="black" stroke-width="3" stroke-linecap="round" stroke-linejoin="round"/>
<path d="M58.8431 27.6141C59.6103 26.2281 56.537 22.9943 55.6044 21.8826C54.989 21.1491 53.8277 21.1834 52.9336 21.0876C51.6273 20.9478 51.9614 21.5818 51.6198 22.5675C49.8293 27.7339 54.3264 29.1168 58.6707 28.2857" stroke="black" stroke-width="3" stroke-linecap="round" stroke-linejoin="round"/>
<path d="M75 192.869L50 207.869" stroke="black" stroke-width="3" stroke-linecap="round"/>
<path d="M128 169.869L119 221.869" stroke="black" stroke-width="3" stroke-linecap="round"/>
<path d="M100.5 168.869L84 216.869" stroke="black" stroke-width="3" stroke-linecap="round"/>
<path d="M165 191.369V213.369" stroke="black" stroke-width="3" stroke-linecap="round"/>
  </g>
  <g id="group2" style="display:none">
      <rect width="240" height="240" fill="white"/>
<path d="M156.595 70.2397C156.185 65.0673 153.353 58.1583 148.502 55.2907C145.482 54.6326 142.999 53.3694 139.726 52.975C136.365 51.658 133.181 54.318 130.487 55.8718C123.732 59.7691 123.404 69.903 125.127 76.5477C128.275 88.6886 139.529 84.9951 147.842 81.9822C153.368 79.9796 157.074 76.2785 156.595 70.2397Z" stroke="black" stroke-width="3" stroke-linecap="round" stroke-linejoin="round"/>
<path d="M170 125C170.002 116.576 169.234 108.038 167.078 99.9296C165.705 94.7654 164.357 90.159 161.344 85.8886C159.114 82.7263 155.945 80.2296 154 77" stroke="black" stroke-width="3" stroke-linecap="round" stroke-linejoin="round"/>
<path d="M123.48 70.2487C122.252 70.2487 120.684 69.1629 119.365 68.7556C115.612 67.5962 111.622 66.9212 107.701 66.9212C104.18 66.9212 100.746 66.3924 97.597 68.0988C93.5686 70.2818 90.2827 72.2438 86.9088 75.4231C79.8146 82.1083 74.3109 89.1167 73.5 99C72.7546 108.085 71.9804 120.912 74 130" stroke="black" stroke-width="3" stroke-linecap="round" stroke-linejoin="round"/>
<path d="M94.5 67.8691C94.5 63.6892 91.6496 62.058 88.6101 59.8142C84.2598 56.6027 75.9815 57.4367 72.4032 61.6655C69.4458 65.1604 67.6341 72.8157 69.3446 77.2135C70.8781 81.1564 74.0925 83.8691 78 83.8691" stroke="black" stroke-width="3" stroke-linecap="round" stroke-linejoin="round"/>
<path d="M148.673 55.916C154.469 55.916 154.688 64.2138 153.271 68.39C150.411 76.8227 140.188 74.5034 135.458 69.5582C133.178 67.1755 133.886 59.693 135.441 56.9323C138.984 50.6417 149.44 56.0545 153.274 58.5516" stroke="black" stroke-width="3" stroke-linecap="round" stroke-linejoin="round"/>
<path d="M74.3197 59.8499C80.5884 56.8091 84.4944 68.7199 80.7323 72.505C75.261 78.0098 70.8856 72.1925 70 67.3694" stroke="black" stroke-width="3" stroke-linecap="round" stroke-linejoin="round"/>
<path d="M170.382 126C187.787 140.956 193.268 168.297 178.337 188.918C173.868 195.09 167.552 198.956 160.74 201.697C153.415 204.644 145.754 204.509 138.227 206.325C131.108 208.043 124.114 208 116.806 208C109.671 208 101.852 204.747 95.031 202.588C83.7201 199.006 71.3323 191.952 65.9389 180.666C62.2227 172.89 61.3922 162.067 63.4469 153.912C65.5599 145.526 69.0265 138.236 74 130.5" stroke="black" stroke-width="3" stroke-linecap="round" stroke-linejoin="round"/>
<path d="M109.668 111.991C110.103 111.013 112.782 111.269 113.499 111.269C118.448 111.269 123.198 109.312 128.033 108.461C132.63 107.652 137.987 107.384 140.661 112.212C142.59 115.693 142.394 120.448 140.339 123.732C134.563 132.963 113.587 137.603 106.955 126.568C105.494 124.137 104.203 119.506 105.598 116.74C106.298 115.353 107.145 112.484 109.198 113.529" stroke="black" stroke-width="3" stroke-linecap="round" stroke-linejoin="round"/>
<path d="M127.531 109.674C127.331 109.674 127.81 111.726 127.841 112.115C127.957 113.605 128.293 116.047 127.324 117.323C126.311 118.659 122.86 118.06 122.004 116.855C121.063 115.531 120.306 113.852 119.864 112.283C119.625 111.434 120.406 114.598 120.406 115.489C120.406 119.105 117.939 122.097 114.355 119.826C112.054 118.368 111.038 114.821 110.231 112.409" stroke="black" stroke-width="3" stroke-linecap="round" stroke-linejoin="round"/>
<path d="M55.2046 25.7696C55.2046 24.7246 56.2626 25.262 56.5303 25.9075C57.8217 29.0211 54.2004 29.9899 54.1854 27.3917C54.1684 24.4272 58.0833 27.0594 56.3477 28.6184C54.8583 29.9563 53.7678 27.3384 56.0015 26.8986" stroke="black" stroke-width="3" stroke-linecap="round" stroke-linejoin="round"/>
<path d="M56.9833 26.5378C56.9833 27.2923 57.8962 27.3532 58.4291 27.4191C60.9783 27.7341 63.957 24.4836 63.957 21.9516C63.957 20.1147 60.2867 20 59.0336 20C56.4059 20 56.5236 24.8724 56.5236 26.6358" stroke="black" stroke-width="3" stroke-linecap="round" stroke-linejoin="round"/>
<path d="M54.8431 26.6141C55.6103 25.2281 52.537 21.9943 51.6044 20.8826C50.989 20.1491 49.8277 20.1834 48.9336 20.0876C47.6273 19.9478 47.9614 20.5818 47.6198 21.5675C45.8293 26.7339 50.3264 28.1168 54.6707 27.2857" stroke="black" stroke-width="3" stroke-linecap="round" stroke-linejoin="round"/>
<path d="M165 191.369L167 214" stroke="black" stroke-width="3" stroke-linecap="round"/>
<path d="M99.5 166.869L84 216.869" stroke="black" stroke-width="3" stroke-linecap="round"/>
<path d="M127 168.869L119 221.869" stroke="black" stroke-width="3" stroke-linecap="round"/>
<path d="M75 192.869L51 208.869" stroke="black" stroke-width="3" stroke-linecap="round"/>
  </g>
  <animate xlink:href="#group1" attributeName="display" from="inline" to="none" dur="1s" begin="0s" repeatCount="indefinite" />
  <animate xlink:href="#group2" attributeName="display" from="none" to="inline" dur="1s" begin="0s" repeatCount="indefinite" />
</svg>