<svg width="289" height="58" viewBox="0 0 289 58" fill="none" xmlns="http://www.w3.org/2000/svg">
<path d="M30.945 15.4476C25.9173 15.4476 21.0153 13.2631 16.1992 13.2631" stroke="black" stroke-width="3" stroke-linecap="round"/>
<path d="M29.307 28.0088C19.9494 28.0088 10.5916 26.9899 2 31.2856" stroke="black" stroke-width="3" stroke-linecap="round"/>
<path d="M38.0436 40.5701C33.6766 40.5701 29.4563 43.9082 25.9982 46.3652C21.4275 49.6128 16.7492 52.9088 12.375 56.4081" stroke="black" stroke-width="3" stroke-linecap="round"/>
<path d="M242.301 4.52477C243.745 4.52477 245.267 4.67358 246.7 4.49443C248.546 4.26373 250.229 2.98645 252.131 2.88635C254.518 2.76071 256.52 2.8767 258.685 1.79407" stroke="black" stroke-width="3" stroke-linecap="round"/>
<path d="M241.758 21.4551H286.541" stroke="black" stroke-width="3" stroke-linecap="round"/>
<path d="M241.211 38.3855C245.784 38.3855 251.159 39.7663 255.411 41.4196C258.118 42.4726 260.655 43.8469 263.603 43.8469" stroke="black" stroke-width="3" stroke-linecap="round"/>
</svg>
